<?xml version="1.0" encoding="UTF-8"?>
<svg width="501px" height="160px" viewBox="0 0 501 160" version="1.1" xmlns="http://www.w3.org/2000/svg" xmlns:xlink="http://www.w3.org/1999/xlink">
    <!-- Generator: Sketch 47.1 (45422) - http://www.bohemiancoding.com/sketch -->
    <title>contest</title>
    <desc>Created with Sketch.</desc>
    <defs>
        <rect id="path-1" x="0" y="0" width="441" height="100" rx="8"></rect>
        <filter x="-10.8%" y="-42.5%" width="121.5%" height="195.0%" filterUnits="objectBoundingBox" id="filter-2">
            <feOffset dx="0" dy="5" in="SourceAlpha" result="shadowOffsetOuter1"></feOffset>
            <feGaussianBlur stdDeviation="15" in="shadowOffsetOuter1" result="shadowBlurOuter1"></feGaussianBlur>
            <feColorMatrix values="0 0 0 0 0   0 0 0 0 0   0 0 0 0 0  0 0 0 0.2 0" type="matrix" in="shadowBlurOuter1"></feColorMatrix>
        </filter>
        <linearGradient x1="50%" y1="100.003157%" x2="50%" y2="-2.71359446e-05%" id="linearGradient-3">
            <stop stop-color="#808080" stop-opacity="0.25" offset="0%"></stop>
            <stop stop-color="#808080" stop-opacity="0.12" offset="54%"></stop>
            <stop stop-color="#808080" stop-opacity="0.1" offset="100%"></stop>
        </linearGradient>
        <linearGradient x1="77538%" y1="78018%" x2="77538%" y2="69087%" id="linearGradient-4">
            <stop stop-color="#808080" stop-opacity="0.25" offset="0%"></stop>
            <stop stop-color="#808080" stop-opacity="0.12" offset="54%"></stop>
            <stop stop-color="#808080" stop-opacity="0.1" offset="100%"></stop>
        </linearGradient>
        <linearGradient x1="77539%" y1="79034%" x2="77539%" y2="75868%" id="linearGradient-5">
            <stop stop-color="#808080" stop-opacity="0.25" offset="0%"></stop>
            <stop stop-color="#808080" stop-opacity="0.12" offset="54%"></stop>
            <stop stop-color="#808080" stop-opacity="0.1" offset="100%"></stop>
        </linearGradient>
        <linearGradient x1="67031%" y1="64375%" x2="67031%" y2="54320%" id="linearGradient-6">
            <stop stop-color="#808080" stop-opacity="0.25" offset="0%"></stop>
            <stop stop-color="#808080" stop-opacity="0.12" offset="54%"></stop>
            <stop stop-color="#808080" stop-opacity="0.1" offset="100%"></stop>
        </linearGradient>
        <linearGradient x1="87880%" y1="64375%" x2="87880%" y2="54320%" id="linearGradient-7">
            <stop stop-color="#808080" stop-opacity="0.25" offset="0%"></stop>
            <stop stop-color="#808080" stop-opacity="0.12" offset="54%"></stop>
            <stop stop-color="#808080" stop-opacity="0.1" offset="100%"></stop>
        </linearGradient>
        <linearGradient x1="77455%" y1="72725%" x2="77455%" y2="51555%" id="linearGradient-8">
            <stop stop-color="#808080" stop-opacity="0.25" offset="0%"></stop>
            <stop stop-color="#808080" stop-opacity="0.12" offset="54%"></stop>
            <stop stop-color="#808080" stop-opacity="0.1" offset="100%"></stop>
        </linearGradient>
    </defs>
    <g id="Page-1" stroke="none" stroke-width="1" fill="none" fill-rule="evenodd">
        <g id="contest" transform="translate(30.000000, 25.000000)">
            <g id="Rectangle-Copy-5">
                <use fill="black" fill-opacity="1" filter="url(#filter-2)" xlink:href="#path-1"></use>
                <use fill="#FFFFFF" fill-rule="evenodd" xlink:href="#path-1"></use>
            </g>
            <text id="Win-a-FREE-iPad-Pro" font-family="Lato-Bold, Lato" font-size="18" font-weight="bold" letter-spacing="0.200000003" fill="#403F4C">
                <tspan x="110" y="32">Win a FREE iPad Pro</tspan>
            </text>
            <text id="Enter-our-competitio" font-family="Lato-Regular, Lato" font-size="16" font-weight="normal" line-spacing="21" letter-spacing="0.0199999996" fill="#8C8C8C">
                <tspan x="110" y="56">Enter our competition for a chance to win a </tspan>
                <tspan x="110" y="77">shiny new iPad.</tspan>
            </text>
            <g transform="translate(11.000000, 13.000000)">
                <g id="Group" opacity="0.7" transform="translate(22.000000, 2.000000)" fill-rule="nonzero" fill="url(#linearGradient-3)">
                    <path d="M19.4161397,32.6326879 C19.411875,32.4800771 19.4090319,32.3292245 19.4076103,32.1801301 C19.393358,31.205742 19.4859459,30.2326979 19.68375,29.2780636 C19.7146691,29.1409249 19.7487868,29.0069509 19.7903676,28.8761416 C20.3586397,27.9910694 21.0335294,26.3949855 21.0932353,24.8516474 L28.9211029,12.9996965 L24.8845588,3.47382948 L24.8280515,3.39365607 C24.6276103,2.48854046 23.8471691,-0.250014451 21.804375,0.0928323699 C19.6336397,0.456777457 21.5708824,3.73017341 22.0304044,4.45700867 L22.0304044,4.45700867 C22.0879779,4.54878613 22.1231618,4.59942197 22.1231618,4.59942197 L22.14875,4.59098266 L22.14875,4.59942197 L22.1210294,4.59942197 L24.3365441,12.6315318 C24.1329044,13.1484393 22.0154779,18.4156214 19.7327941,20.1804913 C19.7104044,17.422948 20.0121324,13.9058671 20.1347426,12.5977746 C20.180459,12.1358955 20.1443788,11.6696659 20.028125,11.2200578 C19.3958824,8.82751445 17.1494485,7.05842486 14.4701471,7.05842486 C13.7482236,7.05818964 13.0324918,7.19016692 12.3591176,7.44768786 C10.0621114,8.33027238 8.63282338,10.6105282 8.85459559,13.0387283 C8.99319853,14.5746821 9.24481618,17.6634682 9.26294118,20.1171965 C6.84378676,18.2995809 4.59522059,12.4901734 4.59522059,12.4901734 L6.82566176,4.59942197 C6.82566176,4.59942197 9.58705882,0.502138728 7.14551471,0.0928323699 C5.08779412,-0.252124277 4.31055147,2.52862717 4.11757353,3.41369942 L4.11757353,3.41369942 L4.06533088,3.57615607 L0.0277205882,12.8973699 L8.01658088,24.9856214 C8.03683824,26.2251445 8.44305147,27.5891474 9.26933824,28.8771965 C9.34751433,28.9998042 9.40075229,29.1363306 9.42606618,29.2791185 C9.43517107,29.3272573 9.44157791,29.3758575 9.44525735,29.4246965 C9.40367647,30.1631358 8.88871324,31.0788006 8.31084559,32.0841329 L8.31084559,32.0841329 C7.90356618,32.7919798 7.4675,33.543078 7.14444853,34.3047254 C6.398125,36.0590462 6.04735294,37.0475 6.06441176,38.5243786 C6.04308824,40.3103468 6.5975,42.7735694 7.67540441,48.3350723 C8.24247917,48.1026674 8.82621736,47.9122592 9.42180147,47.7654191 C9.71286765,50.3151445 10.0359191,53.788974 9.74165441,54.5622254 C9.35143382,55.601315 9.10194853,60.6132081 9.29386029,63.2874133 C8.01444853,64.9235838 7.45683824,64.8697832 7.45683824,64.8697832 C6.07080882,65.2801445 6.14330882,66.1040318 6.43863971,66.6504769 C6.53306278,66.8727308 6.67405763,67.0726406 6.85231618,67.2370087 C6.89257971,67.2711662 6.92839376,67.3101455 6.95893382,67.3530491 C7.05595588,67.6906214 6.80007353,68.2201879 6.38213235,69.4628757 C6.17955882,70.0662861 6.31069853,70.6306647 6.55378676,71.0990462 C6.93654412,71.9503613 7.72658088,72.5263439 7.72658088,72.5263439 C8.59338235,72.7826879 8.87698529,72.513685 8.87378676,72.0579624 C9.15632353,72.5928035 9.85253676,73.0327023 11.4240809,72.9440896 C11.4240809,72.9440896 12.4998529,73.0137139 11.9571691,71.7604769 C11.4144853,70.5072399 11.6884926,65.4246676 11.6884926,65.4246676 C11.6884926,65.4246676 11.7396691,64.7917197 11.8249632,63.8328035 L19.2188971,55.541185 L20.1784559,47.766474 C20.7925735,48.6251734 21.2105147,48.8762428 22.6466544,48.9532514 C22.6466544,48.9532514 22.6231985,48.8804624 22.5805515,48.7422688 L22.6466544,48.7422688 C22.6466544,48.7422688 19.6080515,39.3250578 19.4161397,32.6326879 Z M13.8720221,47.5016908 C14.3388731,47.5833661 14.7953832,47.7149462 15.2335294,47.8941185 L15.3294853,48.4395087 L14.9264706,55.2626879 C14.023791,55.8679298 13.219555,56.6056879 12.5414338,57.450578 C12.705625,56.3471387 12.8783456,55.504263 13.0404044,55.2616329 C13.4402206,54.664552 13.7227574,50.3552312 13.8677574,47.5016908 L13.8720221,47.5016908 Z M8.87698529,70.4397254 C8.76979643,70.719231 8.71348564,71.0153112 8.71066176,71.3142486 C8.67974265,71.2319653 8.64455882,71.1486272 8.60404412,71.0663439 C8.355625,70.5093497 9.07636029,68.5261127 9.67022059,67.0840462 C9.63905221,67.6037684 9.57459682,68.1210111 9.47724265,68.632659 L8.87698529,70.4397254 Z" id="Shape"></path>
                </g>
                <path d="M47,5.18670101 C47,5.18670101 46.3762732,1.66429456 43.9867695,2.02607565 C41.5972658,2.38785673 44.2986329,6 44.2986329,6 L47,5.18670101 Z" id="Shape" fill="#FDB797" fill-rule="nonzero"></path>
                <path d="M27,5.18670101 C27,5.18670101 27.6237268,1.66429456 30.0132305,2.02607565 C32.4027342,2.38785673 29.7013671,6 29.7013671,6 L27,5.18670101 Z" id="Shape" fill="#FDB797" fill-rule="nonzero"></path>
                <rect id="Rectangle-path" fill="#535461" fill-rule="nonzero" x="35" y="42" width="5" height="4"></rect>
                <path d="M42.9222276,15.3404984 C42.967459,14.895458 42.934315,14.4461994 42.8242131,14.0119348 C42.4316452,12.5276063 41.4001819,11.278457 39.9923588,10.5824296 C38.5845357,9.88640232 36.9361391,9.81062969 35.4667312,10.374398 C33.2400969,11.231869 31.8987893,13.4499297 32.1065375,15.7640684 C32.3419855,18.3819379 32.9130266,25.6766404 32,26 C36.8890073,24.3212163 39.3340436,24.2220389 43,26 C42.1157385,24.7220582 42.7347215,17.3488402 42.9222276,15.3404984 Z" id="Shape" fill="#F55F44" fill-rule="nonzero"></path>
                <g id="Group" opacity="0.1" transform="translate(32.000000, 12.000000)" fill-rule="nonzero" fill="#000000">
                    <path d="M9.87977528,4.32804878 C9.92026571,3.96801444 9.8901795,3.60404719 9.79101124,3.25422764 C9.24269663,1.3898374 7.31011236,0.0105691057 5.00337079,0.0105691057 C4.38167444,0.00934902091 3.76465933,0.111687563 3.18089888,0.312845528 C1.18089888,1.00617886 -0.0247191011,2.79869919 0.161797753,4.66943089 C0.373033708,6.78325203 0.886516854,12.6818699 0.0617977528,12.9439837 C4.45393258,11.5869106 6.6505618,11.5065854 9.9494382,12.9439837 C9.15617978,11.9113821 9.71235955,5.94723577 9.87977528,4.32804878 Z" id="Shape"></path>
                </g>
                <path d="M32.3536702,47 C32.3536702,47 33.4360239,55.3576641 32.9853941,56.6080992 C32.5347644,57.8585343 32.2852334,64.893973 32.7305988,66.6340816 C33.1759642,68.3741901 32.7305988,70.6725477 32.7305988,70.6725477 L32.1578357,72.4823034 C32.1578357,72.4823034 31.075482,75.1974727 34.5794443,74.9885311 C34.5794443,74.9885311 35.5986257,75.0581783 35.089035,73.8098862 C34.5794443,72.5615941 34.8342396,67.474134 34.8342396,67.474134 C34.8342396,67.474134 35.5344004,58.2142708 36.1082163,57.3088572 C36.6820323,56.4034436 37,47.004286 37,47.004286 L32.3536702,47 Z" id="Shape" fill="#FDB797" fill-rule="nonzero"></path>
                <path d="M30.2690806,73.9004522 C30.2690806,73.9004522 28.6193569,72.5767101 29.1083136,70.9753573 C29.5972703,69.3740045 29.8417486,68.9559807 29.4750311,68.6076275 C29.1083136,68.2592743 28.3748786,66.9355322 30.0811757,66.379239 C30.0811757,66.379239 30.6873204,66.4489096 32.1016579,64.2901917 C33.5159954,62.1314738 33.3846641,59.4143189 36.8689856,56.7679066 L37.2357031,49.9423278 L36.4386229,45 L42,45.4876945 L40.7169938,56.9104634 L32.6492086,66.8658616 C32.6492086,66.8658616 30.6933818,71.5327224 31.0600993,72.4395126 C31.4268169,73.3463027 31.549056,74.3174042 30.2690806,73.9004522 Z" id="Shape" fill="#000000" fill-rule="nonzero" opacity="0.1"></path>
                <path d="M30.2687848,73.9004633 C30.2687848,73.9004633 28.6194456,72.5768679 29.1082883,70.9756927 C29.5971311,69.3745174 29.8415524,68.9565399 29.4749204,68.6082254 C29.1082883,68.2599108 28.3750243,66.9363154 30.0809237,66.3800839 C30.0809237,66.3800839 30.6869271,66.4497468 32.100935,64.2912682 C33.5149428,62.1327897 33.3836421,59.4159361 36.8671515,56.7698171 L37.2337835,49.9449951 L36.4399191,45 L42,45.4876404 L40.7152729,56.9069994 L32.651388,66.8666525 C32.651388,66.8666525 30.6960172,71.532996 31.0626492,72.4396856 C31.4292812,73.3463752 31.5525019,74.317369 30.2687848,73.9004633 Z" id="Shape" fill="#FDB797" fill-rule="nonzero"></path>
                <path d="M45,51 C43.1557121,50.8940701 43.0528349,50.4936549 41.9265441,48.7754713 C40.8002532,47.0572877 38.750211,48.5731451 38.750211,48.5731451 L38.0332856,43.0033489 L38.1404493,50.0921804 C34.8623106,48.4714523 30.558615,50.3961993 30.558615,50.3961993 C28.7100406,40.6697123 28.4657073,40.5245883 30.0410142,36.7206442 C30.3726013,35.9676771 30.7483116,35.2344575 31.1662334,34.5247165 L31.1662334,34.5247165 C31.8156456,33.365843 32.3846851,32.3234924 32.2378707,31.5480852 C32.2136083,31.4073551 32.1623185,31.2725165 32.0867699,31.1508479 C29.5652072,27.1149172 31.0708577,22.3205282 35.8064231,23.0800459 C36.0475415,23.1181806 36.1847111,23.1499596 36.1847111,23.1499596 L38.028999,23.1499596 C45.5079561,22.7453072 43.5618627,29.0237748 42.2298174,31.1508479 C42.1944534,31.2790232 42.1612326,31.4124949 42.1312268,31.5480852 C41.9083262,32.552301 41.8365265,33.7567245 41.8729622,35.0670778 C42.062642,41.6824025 45,51 45,51 Z" id="Shape" fill="#000000" fill-rule="nonzero" opacity="0.1"></path>
                <path d="M45,50 C43.1556836,49.8940941 43.0528049,49.4937698 41.9264966,47.7759761 C40.8001883,46.0581824 38.8529932,47.5641643 38.8529932,47.5641643 L38.033178,41.9956321 L38.033178,49.0828549 C34.7549887,47.4624946 30.5541053,49.3868048 30.5541053,49.3868048 C28.709789,39.6667614 28.4665235,39.5227294 30.0418548,35.7175304 C30.373447,34.9647342 30.7491631,34.231681 31.1670914,33.5221011 L31.1670914,33.5221011 C31.8165136,32.3634905 32.3855619,31.3213765 32.2387453,30.5461453 C32.2144825,30.4054471 32.1631918,30.2706391 32.0876421,30.1489982 C29.5660404,26.1139834 31.0717142,21.3206824 35.8073528,22.0800277 C36.0484749,22.1181538 36.1856466,22.1499256 36.1856466,22.1499256 L38.029963,22.1499256 C45.5090356,21.745365 43.5629121,28.0224077 42.2308463,30.1489982 C42.1954817,30.2771443 42.1622605,30.4105858 42.1322541,30.5461453 C41.9093501,31.5501332 41.8375493,32.7542833 41.8739856,34.0643393 C42.0625966,40.6802808 45,50 45,50 Z" id="Shape" fill="#4285F4" fill-rule="nonzero"></path>
                <path d="M35,19 L38,19 L38,23.1113744 C38,23.6021488 37.5484381,24 36.9914083,24 L36.014195,24 C35.4571652,24 35.0056033,23.6021488 35.0056033,23.1113744 L35.0056033,19 L35,19 Z" id="Shape" fill="#FDB797" fill-rule="nonzero"></path>
                <path d="M43.4717691,27 L51,15.2504459 L47.2013802,6 L44.5989126,6.99881094 L46.6984525,14.8571641 C46.6984525,14.8571641 43.6997072,22.8549346 41,22.7852259 L43.4717691,27 Z" id="Shape" fill="#4285F4" fill-rule="nonzero"></path>
                <path d="M35,20.7580541 C35.9758321,21.0806486 37.0241679,21.0806486 38,20.7580541 L38,19 L35,19 L35,20.7580541 Z" id="Shape" fill="#000000" fill-rule="nonzero" opacity="0.1"></path>
                <circle id="Oval" fill="#FDB797" fill-rule="nonzero" cx="36.5" cy="15.5" r="4.5"></circle>
                <g id="Group" opacity="0.1" transform="translate(33.000000, 11.000000)" fill-rule="nonzero" fill="#000000">
                    <path d="M0.0111392405,1.08404255 C0.0111392405,1.08404255 0.688607595,5.55957447 7.95037975,4.84680851 L7.65974684,2.20212766 L5.33670886,0.0638297872 L2.62582278,0.0638297872 L0.0111392405,1.08404255 Z" id="Shape"></path>
                </g>
                <path d="M33,12.0478938 C33,12.0478938 33.6826531,16.6544656 41,15.9208304 L40.7071429,13.1987155 L38.3653061,11 L35.6346939,11 L33,12.0478938 Z" id="Shape" fill="#F55F44" fill-rule="nonzero"></path>
                <ellipse id="Oval" fill="#FDB797" fill-rule="nonzero" cx="41.25" cy="16.5" rx="1" ry="1"></ellipse>
                <ellipse id="Oval" fill="#FDB797" fill-rule="nonzero" cx="32.25" cy="16.5" rx="1" ry="1"></ellipse>
                <path d="M30.530593,27 L23,15.1381984 L26.7998117,6 L29.3999582,7.00415145 L27.2997594,14.7369579 C27.2997594,14.7369579 30.2994457,22.8111339 33,22.7407593 L30.530593,27 Z" id="Shape" fill="#4285F4" fill-rule="nonzero"></path>
                <g id="Group" opacity="0.1" transform="translate(41.000000, 31.000000)" fill-rule="nonzero" fill="#000000">
                    <path d="M0.0752941176,0.020212766 C0.0364705882,0.14893617 0.562352941,0.282978723 0.529411765,0.419148936 C0.284705882,1.42765957 0.205882353,2.63723404 0.245882353,3.95319149 C0.444705882,10.4585106 3.54,19.562766 3.66941176,19.9414894 L3.90470588,19.9553191 C3.90470588,19.9553191 0.68,10.593617 0.476470588,3.95319149 C0.436470588,2.63723404 0.514117647,1.42765957 0.76,0.419148936 C0.792941176,0.282978723 0.828235294,0.15 0.868235294,0.020212766 L0.0752941176,0.020212766 Z" id="Shape"></path>
                </g>
                <path d="M41.7452111,34 L31,33.5376279 L31,33.5376279 C31.6514855,32.5496689 32.2223417,31.6610476 32.0750586,31 C32.0750586,31 35.2196052,32.8061409 42,31 C41.779613,31.8561108 41.7075841,32.8829019 41.7452111,34 Z" id="Shape" fill="#000000" fill-rule="nonzero" opacity="0.1"></path>
                <g id="Group" opacity="0.1" transform="translate(29.000000, 31.000000)" fill-rule="nonzero" fill="#000000">
                    <path d="M1.31219512,5.50895604 C1.61406925,4.76689527 1.95611285,4.04429593 2.33658537,3.34483516 L2.33658537,3.34483516 C2.92780488,2.20274725 3.44585366,1.17549451 3.31219512,0.411318681 C3.28878049,0.271428571 4.05170732,0.219230769 3.91804878,0.219230769 C3.63609756,0.219230769 3.17170732,0.0198351648 2.89365854,0.0198351648 C2.76097561,0.0198351648 3.00878049,0.271428571 3.03121951,0.411318681 C3.16097561,1.17549451 2.64097561,2.20274725 2.05560976,3.34483516 L2.05560976,3.34483516 C1.67513724,4.04429593 1.33309364,4.76689527 1.03121951,5.50895604 C-0.402926829,9.25989011 -0.181463415,9.40186813 1.49756098,18.9832967 C1.49756098,18.9832967 1.5902439,18.9373626 1.75707317,18.8663736 C0.0985365854,9.40186813 -0.116097561,9.24945055 1.31219512,5.50895604 Z" id="Shape"></path>
                </g>
                <path d="M41.7462614,34 L31,33.5383921 L31,33.5383921 C31.6515492,32.5501355 32.2224611,31.6612466 32.0751637,31 C32.0751637,31 33.6707067,31.9566396 36.6510605,31.2655827 C38.296061,31.9566396 39.7840876,31.5898826 42,31 C41.7806666,31.8554652 41.7086306,32.8825655 41.7462614,34 Z" id="Shape" fill="#535461" fill-rule="nonzero"></path>
                <path d="M31,27.5 L31.3213752,27 L32,27.0456274 C31.6309663,27.0087148 31.2671081,27.174042 31,27.5 Z" id="Shape" fill="#000000" fill-rule="nonzero" opacity="0.1"></path>
                <path d="M43,26.5 L42.5713219,26 L42,26.087108 C42.3685633,26.0521047 42.7324028,26.2023311 43,26.5 L43,26.5 Z" id="Shape" fill="#000000" fill-rule="nonzero" opacity="0.1"></path>
                <polygon id="Shape" fill="#000000" fill-rule="nonzero" opacity="0.1" points="38 45.2155172 38.4452214 45.25 38.5 45.0086207 38 45"></polygon>
                <polygon id="Shape" fill="#000000" fill-rule="nonzero" opacity="0.1" points="27 6.13628159 27.0554028 6 30 6.91516245 29.9304519 7"></polygon>
                <polygon id="Shape" fill="#000000" fill-rule="nonzero" opacity="0.1" points="46.9404438 6 44 6.96314258 44.0969249 7 47 6.07274491"></polygon>
                <path d="M27.3001569,14.8619994 L29.4002092,7 L29.1000523,7 L27,14.8619994 C27,14.8619994 29.9994771,23.0710715 32.6998431,22.9995211 L33,22.9995211 C30.2954506,23.0721394 27.3001569,14.8619994 27.3001569,14.8619994 Z" id="Shape" fill="#000000" fill-rule="nonzero" opacity="0.1"></path>
                <path d="M46.6977514,14.9644455 L44.5976991,7 L44.8999477,7 L47,14.9644455 C47,14.9644455 44.0005229,23.0701906 41.3001569,22.9995408 L41,22.9995408 C43.6972285,23.0701906 46.6977514,14.9644455 46.6977514,14.9644455 Z" id="Shape" fill="#000000" fill-rule="nonzero" opacity="0.1"></path>
                <ellipse id="Oval" fill="url(#linearGradient-4)" fill-rule="nonzero" cx="63" cy="69" rx="2" ry="5"></ellipse>
                <path d="M69,74 L55,73.9240266 L55,73.7122507 C55,71.4567901 57.0356711,71.0009497 59.5495768,71 L64.4493652,71 C66.9622128,71 68.998942,71.4529915 68.998942,73.708452 L69,74 Z" id="Shape" fill="url(#linearGradient-5)" fill-rule="nonzero"></path>
                <path d="M54.2509979,59 L53.7078208,58.9573304 C51.3031829,58.7691466 49.6294745,57.8424508 48.7308728,56.2013129 C47.0139914,53.0667396 48.8493477,48.5426696 48.9316777,48.3501094 L49.0762572,48 L55,48 L54.2509979,59 Z M49.7971465,49.1892779 C49.4306777,50.2428884 48.4919151,53.4398249 49.6726475,55.595186 C50.313215,56.7625821 51.5140279,57.4737418 53.2469737,57.7133479 L53.8232836,49.1870897 L49.7971465,49.1892779 Z" id="Shape" fill="url(#linearGradient-6)" fill-rule="nonzero"></path>
                <path d="M70.7520805,59 L70,48 L75.9242659,48 L76.0688582,48.3500746 C76.1481831,48.5415216 77.9867138,53.0640477 76.2696808,56.1994033 C75.3720039,57.8403779 73.6981477,58.7691696 71.2943015,58.9595226 L70.7520805,59 Z M71.1758162,49.1880656 L71.7592058,57.7123819 C73.4923046,57.4717056 74.6922195,56.7595226 75.3328435,55.5911487 C76.5136802,53.434908 75.5708182,50.2393834 75.2033129,49.1858777 L71.1758162,49.1880656 Z" id="Shape" fill="url(#linearGradient-7)" fill-rule="nonzero"></path>
                <path d="M62.5072653,66.9999994 L62.5072653,66.9999994 C57.8143968,67.0017213 54.0085204,63.1953157 54.0062279,58.4977799 L54,45.0083121 L70.9937711,45 L70.999999,58.4894679 C71.0022927,63.187004 67.2001337,66.9971311 62.5072653,66.9999994 L62.5072653,66.9999994 Z" id="Shape" fill="url(#linearGradient-8)" fill-rule="nonzero"></path>
                <rect id="Rectangle-path" fill="#F9D075" fill-rule="nonzero" x="59" y="41" width="7" height="10" rx="3.5"></rect>
                <path d="M58.5253346,40 C58.5253346,40 57.710666,38.5061947 58.1103354,37.0766153 C58.1103354,37.0766153 59.8316513,36.610424 61,37.9779922 L58.5253346,40 Z" id="Shape" fill="#F9D075" fill-rule="nonzero"></path>
                <path d="M58.3501434,39 C58.3501434,39 57.8073887,38.0076338 58.073368,37.0509927 C58.073368,37.0509927 59.2207102,36.7403821 60,37.6523666 L58.3501434,39 Z" id="Shape" fill="#FFE9A1" fill-rule="nonzero"></path>
                <path d="M65.6498566,39 C65.6498566,39 66.1926113,38.0076338 65.926632,37.0509927 C65.926632,37.0509927 64.7792898,36.7403821 64,37.6523666 L65.6498566,39 Z" id="Shape" fill="#FFE9A1" fill-rule="nonzero"></path>
                <path d="M66.4746654,40 C66.4746654,40 67.289334,38.5061947 66.8896646,37.0766153 C66.8896646,37.0766153 65.1683487,36.610424 64,37.9779922 L66.4746654,40 Z" id="Shape" fill="#F9D075" fill-rule="nonzero"></path>
                <path d="M65.6498566,39 C65.6498566,39 66.1926113,38.0076338 65.926632,37.0509927 C65.926632,37.0509927 64.7792898,36.7403821 64,37.6523666 L65.6498566,39 Z" id="Shape" fill="#FFE9A1" fill-rule="nonzero"></path>
                <path d="M67,41.0005238 C67,41.1122605 66.9947316,41.2232989 66.9841947,41.3336389 C66.7934019,43.3868011 64.8583795,45 62.5000003,45 C60.3888614,45 58.616408,43.7073458 58.1309589,41.9621579 C58.0438172,41.6476566 57.9998165,41.3242052 58.0000006,40.9994762 C58.0000006,38.7912793 60.0151786,37 62.5000003,37 C64.984822,37 67,38.7944219 67,41.0005238 Z" id="Shape" fill="#F9D075" fill-rule="nonzero"></path>
                <path d="M58.5904162,42.9454954 L58.2805949,42.3241424 L57,42.3241424 L57.7229165,42.9185636 L57.2013839,43.0801539 C57.2013839,43.0801539 61.5202933,47.3998076 66.767634,43.0801539 L66.361768,42.9454954 L67,42.432831 L66.5301043,42.3241424 L66.7036043,42 L66.003408,42.0269317 L65.1958071,43.4302661 L62.5024269,44.5383136 L58.5904162,42.9454954 Z" id="Shape" fill="#FFE9A1" fill-rule="nonzero"></path>
                <circle id="Oval" fill="#2B1F0E" fill-rule="nonzero" cx="64.5" cy="41.5" r="1"></circle>
                <circle id="Oval" fill="#2B1F0E" fill-rule="nonzero" cx="60.5" cy="41.5" r="1"></circle>
                <path d="M66,42 C65.827595,44.24 64.0790615,46 61.9479725,46 C60.0402958,46 58.4386636,44.5897143 58,42.6857143 C58.2040296,42.8937143 58.3866361,43.1954286 58.5498597,43.392 C58.6683871,43.5484815 58.8057152,43.6857898 58.9579189,43.8 C59.2078551,43.9714286 59.5118592,44.0114286 59.8046417,44.0285714 C60.06886,44.04 60.3626626,44.0217143 60.55139,43.8137143 C60.7401173,43.6057143 60.7615404,43.3028571 60.8696761,43.0445714 C61.0385543,42.6669161 61.3601349,42.4041717 61.7327212,42.3394286 C62.1034418,42.2810515 62.480007,42.384573 62.7844938,42.6285714 C62.8669656,42.6889792 62.938309,42.7665762 62.9946442,42.8571429 C63.0535204,42.9824344 63.101682,43.113686 63.1384851,43.2491429 C63.3741393,43.8891429 64.1351696,44.1462857 64.7095129,43.8902857 C65.2838562,43.6342857 65.6643713,42.9885714 65.8061719,42.3142857 C65.8326957,42.1805714 65.8888039,42.0137143 66,42 Z" id="Shape" fill="#FFE9A1" fill-rule="nonzero"></path>
                <path d="M62.2718447,43 L62,43.2062804 C62.1578146,43.2645732 62.3421854,43.2645732 62.5,43.2062804 L62.2718447,43 Z" id="Shape" fill="#F25F1D" fill-rule="nonzero"></path>
                <rect id="Rectangle-path" fill="#535461" fill-rule="nonzero" x="58" y="41" width="9" height="1"></rect>
                <rect id="Rectangle-path" fill="#535461" fill-rule="nonzero" x="58" y="41" width="2" height="1"></rect>
                <path d="M60,41 L62,41 L62,41.237301 C62,41.658528 61.5138677,42 60.9141932,42 L60.0010793,42 L60.0010793,41 L60,41 Z" id="Shape" fill="#535461" fill-rule="nonzero" opacity="0.2"></path>
                <path d="M57.7678133,41.0011306 L58,41.0011306 L58,43 L57.7628993,43 C57.5605658,43 57.3665194,42.9260298 57.223448,42.7943621 C57.0803767,42.6626944 57,42.4841147 57,42.2979084 L57,41.7020916 C57,41.3143371 57.3415616,41 57.7628993,41 L57.7678133,41.0011306 Z" id="Shape" fill="#535461" fill-rule="nonzero"></path>
                <path d="M62,43.4438797 C62,43.4438797 63,43.7326784 63,43" id="Shape" stroke="#2B1F0E" stroke-width="2" stroke-linecap="round"></path>
                <path d="M64,43.4438797 C64,43.4438797 63,43.7326784 63,43" id="Shape" stroke="#2B1F0E" stroke-width="2" stroke-linecap="round"></path>
                <ellipse id="Oval" fill="#F25F1D" fill-rule="nonzero" cx="62.25" cy="42.5" rx="1" ry="1"></ellipse>
                <ellipse id="Oval" fill="#CFD8DC" fill-rule="nonzero" cx="63" cy="68.5" rx="2" ry="4.5"></ellipse>
                <path d="M54.26138,60 L53.7180632,59.9570224 C51.3120942,59.7692782 49.6353957,58.8418672 48.731599,57.200802 C47.0133466,54.0657002 48.8500276,49.5417438 48.9289799,49.3506066 L49.0733796,49 L55,49 L54.26138,60 Z M49.7995335,50.1875386 C49.4328206,51.2404894 48.4916255,54.4377956 49.6748718,56.5934608 C50.3158403,57.7606416 51.5177859,58.4720337 53.2526599,58.7118034 L53.8292198,50.1875386 L49.7995335,50.1875386 Z" id="Shape" fill="#CFD8DC" fill-rule="nonzero"></path>
                <path d="M69.7524965,60 L69,49 L74.9213694,49 L75.0666791,49.3505706 C75.1455614,49.5416881 76.9847668,54.0640485 75.2742643,57.1999589 C74.377496,58.8408554 72.7033209,59.7693019 70.2994837,59.9604195 L69.7524965,60 Z M70.1759705,50.1885473 L70.759285,58.7130667 C72.491584,58.4721908 73.6924647,57.7597409 74.3318273,56.5915493 C75.5129873,54.4349748 74.5695124,51.2402591 74.2020865,50.1862856 L70.1759705,50.1885473 Z" id="Shape" fill="#CFD8DC" fill-rule="nonzero"></path>
                <g id="Group" opacity="0.1" transform="translate(48.000000, 49.000000)" fill-rule="nonzero" fill="#FFFFFF">
                    <path d="M1.18333333,7.94117647 C-0.654444444,5.00611765 1.31,0.770823529 1.39444444,0.591882353 L1.54888889,0.263647059 L5.96555556,0.263647059 L5.98444444,0.0254117647 L1.24777778,0.0254117647 L1.09333333,0.353647059 C1.00888889,0.532588235 -0.955555556,4.76894118 0.882222222,7.70294118 C1.19379577,8.20111163 1.60220119,8.63809279 2.08555556,8.99047059 C1.73140677,8.68570164 1.42727691,8.33199536 1.18333333,7.94117647 L1.18333333,7.94117647 Z" id="Shape"></path>
                </g>
                <polygon id="Shape" fill="#000000" fill-rule="nonzero" opacity="0.05" points="71 49 71.5 49.0114177 71.4563492 49.9876308 71.0019841 50"></polygon>
                <rect id="Rectangle-path" fill="#000000" fill-rule="nonzero" opacity="0.05" x="54" y="49" width="1" height="1"></rect>
                <path d="M63.0005836,64.0000006 C62.024803,64.0000006 61.2089291,65.6272608 61,67.8079258 C61.6276019,67.9359558 62.2671433,68.0003143 62.9083747,67.9999698 L62.9083747,67.9999698 C63.6121832,68.0017429 64.3139108,67.9254949 65,67.7726988 C64.7875693,65.6068064 63.9740298,63.9988642 63.0005836,64.0000006 Z" id="Shape" fill="#000000" fill-rule="nonzero" opacity="0.1"></path>
                <path d="M54,46 L71,46 L71,58.8785097 C71,61.0324628 70.1044669,63.0981957 68.5104076,64.6212706 C66.9163484,66.1443454 64.7543402,67 62.5,67 L62.5,67 C57.8055796,67 54,63.3638849 54,58.8785097 L54,46 Z" id="Shape" fill="#CFD8DC" fill-rule="nonzero"></path>
                <path d="M54.6954148,58.8810253 L54.6899563,46 L54,46 L54.0054585,58.8810253 C54.0078697,63.3668762 57.8802347,67.0016992 62.6550218,66.9999994 L62.6550218,66.9999994 C62.7707424,66.9999994 62.8853712,66.9999994 63,66.9928199 C58.3631361,66.8210546 54.6976717,63.2406838 54.6954148,58.8810253 L54.6954148,58.8810253 Z" id="Shape" fill="#FFFFFF" fill-rule="nonzero" opacity="0.1"></path>
                <path d="M64,71 L61,71 C61.3078711,72.1996147 61.864829,73.0009611 62.5004982,72.9999991 C63.1361674,72.9990371 63.6901362,72.2025007 64,71 Z" id="Shape" fill="#000000" fill-rule="nonzero" opacity="0.1"></path>
                <path d="M69,73.9946256 L56,74 L56,74 C56,71.7502687 57.7265625,71 59.8471875,71 L65.14875,71 C67.2744531,71 68.9989844,71.7524185 68.9989844,73.9967753 L69,73.9946256 Z" id="Shape" fill="#CFD8DC" fill-rule="nonzero"></path>
                <path d="M61,71 L60.463289,71 C57.9944185,71 55.998927,71.8197343 56.0000004,74 L56.5367114,74 C56.5324177,71.8197343 58.5332763,71.0009488 61,71 Z" id="Shape" fill="#FFFFFF" fill-rule="nonzero" opacity="0.1"></path>
                <circle id="Oval" fill="#DA552F" fill-rule="nonzero" cx="62.5" cy="55.5" r="3.5"></circle>
                <path d="M62.73941,54 L61,54 L61,57 L61.7193646,57 L61.7193646,56.0996217 L62.7405446,56.0996217 C63.4361226,56.0996217 64,55.6296054 64,55.0498108 C64,54.4700163 63.4361226,54 62.7405446,54 L62.73941,54 Z M62.73941,55.5 L61.71823,55.5 L61.71823,54.5986759 L62.73941,54.5986759 C63.0376939,54.5986759 63.2795007,54.8002325 63.2795007,55.0488651 C63.2795007,55.2974977 63.0376939,55.4990542 62.73941,55.4990542 L62.73941,55.5 Z" id="Shape" fill="#FFFFFF" fill-rule="nonzero"></path>
                <circle id="Oval" fill="#FFE9A1" fill-rule="nonzero" cx="66.5" cy="45.5" r="1.5"></circle>
                <circle id="Oval" fill="#FFE9A1" fill-rule="nonzero" cx="57.5" cy="45.5" r="1.5"></circle>
                <g id="Group" opacity="0.3" transform="translate(63.000000, 20.000000)" fill-rule="nonzero" fill="#47E6B1">
                    <rect id="Rectangle-path" x="1.41666667" y="0.0630769231" width="1" height="1"></rect>
                    <rect id="Rectangle-path" transform="translate(1.456410, 0.929487) rotate(90.000000) translate(-1.456410, -0.929487) " x="0.956410256" y="0.429487179" width="1" height="1"></rect>
                </g>
                <g id="Group" opacity="0.3" transform="translate(75.000000, 30.000000)" fill-rule="nonzero" fill="#47E6B1">
                    <rect id="Rectangle-path" x="1.41666667" y="0.0630769231" width="1" height="1"></rect>
                    <rect id="Rectangle-path" transform="translate(1.456410, 0.929487) rotate(90.000000) translate(-1.456410, -0.929487) " x="0.956410256" y="0.429487179" width="1" height="1"></rect>
                </g>
                <path d="M71.9192866,9.50919725 C71.790911,9.45320479 71.7248493,9.30991603 71.7656383,9.17593206 C71.7689842,9.16612298 71.7711633,9.155954 71.7721305,9.14563522 L71.7721305,9.14563522 C71.7752448,9.08519155 71.7387507,9.02972607 71.6820095,9.00866492 C71.6252683,8.98760378 71.561423,9.00582541 71.5243457,9.05366268 L71.5243457,9.05366268 C71.5182512,9.06205327 71.5131667,9.07113279 71.5091973,9.08071343 C71.4532048,9.20908904 71.309916,9.27515075 71.1759321,9.23436167 C71.166123,9.2310158 71.155954,9.22883673 71.1456352,9.22786949 L71.1456352,9.22786949 C71.0851916,9.22475524 71.0297261,9.26124934 71.0086649,9.31799055 C70.9876038,9.37473175 71.0058254,9.43857696 71.0536627,9.47565433 L71.0536627,9.47565433 C71.0620533,9.48174881 71.0711328,9.48683334 71.0807134,9.49080275 C71.209089,9.54679521 71.2751507,9.69008397 71.2343617,9.82406794 C71.2310158,9.83387702 71.2288367,9.844046 71.2278695,9.85436478 L71.2278695,9.85436478 C71.2247552,9.91480845 71.2612493,9.97027393 71.3179905,9.99133508 C71.3747317,10.0123962 71.438577,9.99417459 71.4756543,9.94633732 L71.4756543,9.94633732 C71.4817488,9.93794673 71.4868333,9.92886721 71.4908027,9.91928657 C71.5467952,9.79091096 71.690084,9.72484925 71.8240679,9.76563833 C71.833877,9.7689842 71.844046,9.77116327 71.8543648,9.77213051 L71.8543648,9.77213051 C71.9148084,9.77524476 71.9702739,9.73875066 71.9913351,9.68200945 C72.0123962,9.62526825 71.9941746,9.56142304 71.9463373,9.52434567 L71.9463373,9.52434567 C71.9379467,9.51825119 71.9288672,9.51316666 71.9192866,9.50919725 L71.9192866,9.50919725 Z" id="Shape" fill="#4D8AF0" fill-rule="nonzero" opacity="0.3"></path>
                <path d="M48.9192866,31.5091973 C48.790911,31.4532048 48.7248493,31.309916 48.7656383,31.1759321 C48.7689842,31.166123 48.7711633,31.155954 48.7721305,31.1456352 L48.7721305,31.1456352 C48.7752448,31.0851916 48.7387507,31.0297261 48.6820095,31.0086649 C48.6252683,30.9876038 48.561423,31.0058254 48.5243457,31.0536627 L48.5243457,31.0536627 C48.5182512,31.0620533 48.5131667,31.0711328 48.5091973,31.0807134 C48.4532048,31.209089 48.309916,31.2751507 48.1759321,31.2343617 C48.166123,31.2310158 48.155954,31.2288367 48.1456352,31.2278695 L48.1456352,31.2278695 C48.0851916,31.2247552 48.0297261,31.2612493 48.0086649,31.3179905 C47.9876038,31.3747317 48.0058254,31.438577 48.0536627,31.4756543 L48.0536627,31.4756543 C48.0620533,31.4817488 48.0711328,31.4868333 48.0807134,31.4908027 C48.209089,31.5467952 48.2751507,31.690084 48.2343617,31.8240679 C48.2310158,31.833877 48.2288367,31.844046 48.2278695,31.8543648 L48.2278695,31.8543648 C48.2247552,31.9148084 48.2612493,31.9702739 48.3179905,31.9913351 C48.3747317,32.0123962 48.438577,31.9941746 48.4756543,31.9463373 L48.4756543,31.9463373 C48.4817488,31.9379467 48.4868333,31.9288672 48.4908027,31.9192866 C48.5467952,31.790911 48.690084,31.7248493 48.8240679,31.7656383 C48.833877,31.7689842 48.844046,31.7711633 48.8543648,31.7721305 L48.8543648,31.7721305 C48.9148084,31.7752448 48.9702739,31.7387507 48.9913351,31.6820095 C49.0123962,31.6252683 48.9941746,31.561423 48.9463373,31.5243457 L48.9463373,31.5243457 C48.9379467,31.5182512 48.9288672,31.5131667 48.9192866,31.5091973 L48.9192866,31.5091973 Z" id="Shape" fill="#4D8AF0" fill-rule="nonzero" opacity="0.3"></path>
                <path d="M20.9192866,35.5091973 C20.790911,35.4532048 20.7248493,35.309916 20.7656383,35.1759321 C20.7689842,35.166123 20.7711633,35.155954 20.7721305,35.1456352 L20.7721305,35.1456352 C20.7752448,35.0851916 20.7387507,35.0297261 20.6820095,35.0086649 C20.6252683,34.9876038 20.561423,35.0058254 20.5243457,35.0536627 L20.5243457,35.0536627 C20.5182512,35.0620533 20.5131667,35.0711328 20.5091973,35.0807134 C20.4532048,35.209089 20.309916,35.2751507 20.1759321,35.2343617 C20.166123,35.2310158 20.155954,35.2288367 20.1456352,35.2278695 L20.1456352,35.2278695 C20.0851916,35.2247552 20.0297261,35.2612493 20.0086649,35.3179905 C19.9876038,35.3747317 20.0058254,35.438577 20.0536627,35.4756543 L20.0536627,35.4756543 C20.0620533,35.4817488 20.0711328,35.4868333 20.0807134,35.4908027 C20.209089,35.5467952 20.2751507,35.690084 20.2343617,35.8240679 C20.2310158,35.833877 20.2288367,35.844046 20.2278695,35.8543648 L20.2278695,35.8543648 C20.2247552,35.9148084 20.2612493,35.9702739 20.3179905,35.9913351 C20.3747317,36.0123962 20.438577,35.9941746 20.4756543,35.9463373 L20.4756543,35.9463373 C20.4817488,35.9379467 20.4868333,35.9288672 20.4908027,35.9192866 C20.5467952,35.790911 20.690084,35.7248493 20.8240679,35.7656383 C20.833877,35.7689842 20.844046,35.7711633 20.8543648,35.7721305 L20.8543648,35.7721305 C20.9148084,35.7752448 20.9702739,35.7387507 20.9913351,35.6820095 C21.0123962,35.6252683 20.9941746,35.561423 20.9463373,35.5243457 L20.9463373,35.5243457 C20.9379467,35.5182512 20.9288672,35.5131667 20.9192866,35.5091973 L20.9192866,35.5091973 Z" id="Shape" fill="#FDD835" fill-rule="nonzero" opacity="0.3"></path>
                <path d="M0.919286571,48.5091973 C0.790910956,48.4532048 0.724849254,48.309916 0.765638331,48.1759321 C0.768984201,48.166123 0.771163267,48.155954 0.77213051,48.1456352 L0.77213051,48.1456352 C0.775244757,48.0851916 0.738750655,48.0297261 0.682009455,48.0086649 C0.625268254,47.9876038 0.56142304,48.0058254 0.524345672,48.0536627 L0.524345672,48.0536627 C0.51825119,48.0620533 0.513166659,48.0711328 0.509197254,48.0807134 C0.453204792,48.209089 0.309916032,48.2751507 0.175932057,48.2343617 C0.166122979,48.2310158 0.155954004,48.2288367 0.145635221,48.2278695 L0.145635221,48.2278695 C0.0851915517,48.2247552 0.0297260686,48.2612493 0.0086649243,48.3179905 C-0.01239622,48.3747317 0.00582541239,48.438577 0.0536626824,48.4756543 L0.0536626824,48.4756543 C0.0620532742,48.4817488 0.0711327937,48.4868333 0.0807134289,48.4908027 C0.209089044,48.5467952 0.275150746,48.690084 0.234361669,48.8240679 C0.231015799,48.833877 0.228836733,48.844046 0.22786949,48.8543648 L0.22786949,48.8543648 C0.224755243,48.9148084 0.261249345,48.9702739 0.317990545,48.9913351 C0.374731746,49.0123962 0.43857696,48.9941746 0.475654328,48.9463373 L0.475654328,48.9463373 C0.48174881,48.9379467 0.486833341,48.9288672 0.490802746,48.9192866 C0.546795208,48.790911 0.690083968,48.7248493 0.824067943,48.7656383 C0.833877021,48.7689842 0.844045996,48.7711633 0.854364779,48.7721305 L0.854364779,48.7721305 C0.914808448,48.7752448 0.970273931,48.7387507 0.991335076,48.6820095 C1.01239622,48.6252683 0.994174588,48.561423 0.946337318,48.5243457 L0.946337318,48.5243457 C0.937946726,48.5182512 0.928867206,48.5131667 0.919286571,48.5091973 Z" id="Shape" fill="#FDD835" fill-rule="nonzero" opacity="0.3"></path>
                <circle id="Oval" fill="#F55F44" fill-rule="nonzero" opacity="0.3" cx="20.5" cy="23.5" r="1"></circle>
                <circle id="Oval" fill="#F55F44" fill-rule="nonzero" opacity="0.3" cx="56.5" cy="0.5" r="1"></circle>
                <circle id="Oval" fill="#F55F44" fill-rule="nonzero" opacity="0.3" cx="14.5" cy="5.5" r="1"></circle>
                <circle id="Oval" fill="#F55F44" fill-rule="nonzero" opacity="0.3" cx="0.5" cy="31.5" r="1"></circle>
                <circle id="Oval" fill="#F55F44" fill-rule="nonzero" opacity="0.3" cx="82.5" cy="21.5" r="1"></circle>
                <circle id="Oval" fill="#4D8AF0" fill-rule="nonzero" opacity="0.3" cx="87.5" cy="35.5" r="1"></circle>
                <circle id="Oval" fill="#4D8AF0" fill-rule="nonzero" opacity="0.3" cx="87.5" cy="57.5" r="1"></circle>
                <circle id="Oval" fill="#4D8AF0" fill-rule="nonzero" opacity="0.3" cx="16.5" cy="56.5" r="1"></circle>
                <circle id="Oval" fill="#47E6B1" fill-rule="nonzero" opacity="0.3" cx="6.5" cy="46.5" r="1"></circle>
                <circle id="Oval" fill="#47E6B1" fill-rule="nonzero" opacity="0.3" cx="6.5" cy="22.5" r="1"></circle>
                <circle id="Oval" fill="#47E6B1" fill-rule="nonzero" opacity="0.3" cx="2.5" cy="12.5" r="1"></circle>
            </g>
        </g>
    </g>
</svg>