<?xml version="1.0" encoding="UTF-8"?>
<svg width="501px" height="160px" viewBox="0 0 501 160" version="1.1" xmlns="http://www.w3.org/2000/svg" xmlns:xlink="http://www.w3.org/1999/xlink">
    <!-- Generator: Sketch 47.1 (45422) - http://www.bohemiancoding.com/sketch -->
    <title>demo</title>
    <desc>Created with Sketch.</desc>
    <defs>
        <rect id="path-1" x="0" y="0" width="441" height="100" rx="8"></rect>
        <filter x="-10.8%" y="-42.5%" width="121.5%" height="195.0%" filterUnits="objectBoundingBox" id="filter-2">
            <feOffset dx="0" dy="5" in="SourceAlpha" result="shadowOffsetOuter1"></feOffset>
            <feGaussianBlur stdDeviation="15" in="shadowOffsetOuter1" result="shadowBlurOuter1"></feGaussianBlur>
            <feColorMatrix values="0 0 0 0 0   0 0 0 0 0   0 0 0 0 0  0 0 0 0.2 0" type="matrix" in="shadowBlurOuter1"></feColorMatrix>
        </filter>
        <linearGradient x1="50%" y1="100%" x2="50%" y2="0%" id="linearGradient-3">
            <stop stop-color="#808080" stop-opacity="0.25" offset="0%"></stop>
            <stop stop-color="#808080" stop-opacity="0.12" offset="54%"></stop>
            <stop stop-color="#808080" stop-opacity="0.1" offset="100%"></stop>
        </linearGradient>
        <linearGradient x1="2470%" y1="2244%" x2="2470%" y2="1076%" id="linearGradient-4">
            <stop stop-color="#808080" stop-opacity="0.25" offset="0%"></stop>
            <stop stop-color="#808080" stop-opacity="0.12" offset="54%"></stop>
            <stop stop-color="#808080" stop-opacity="0.1" offset="100%"></stop>
        </linearGradient>
        <linearGradient x1="3798%" y1="2244%" x2="3798%" y2="1076%" id="linearGradient-5">
            <stop stop-color="#808080" stop-opacity="0.25" offset="0%"></stop>
            <stop stop-color="#808080" stop-opacity="0.12" offset="54%"></stop>
            <stop stop-color="#808080" stop-opacity="0.1" offset="100%"></stop>
        </linearGradient>
        <linearGradient x1="5126%" y1="2244%" x2="5126%" y2="1076%" id="linearGradient-6">
            <stop stop-color="#808080" stop-opacity="0.25" offset="0%"></stop>
            <stop stop-color="#808080" stop-opacity="0.12" offset="54%"></stop>
            <stop stop-color="#808080" stop-opacity="0.1" offset="100%"></stop>
        </linearGradient>
        <linearGradient x1="35254%" y1="25195%" x2="35254%" y2="5593%" id="linearGradient-7">
            <stop stop-color="#808080" stop-opacity="0.25" offset="0%"></stop>
            <stop stop-color="#808080" stop-opacity="0.12" offset="54%"></stop>
            <stop stop-color="#808080" stop-opacity="0.1" offset="100%"></stop>
        </linearGradient>
        <linearGradient x1="23493%" y1="16529%" x2="23493%" y2="14465%" id="linearGradient-8">
            <stop stop-color="#808080" stop-opacity="0.25" offset="0%"></stop>
            <stop stop-color="#808080" stop-opacity="0.12" offset="54%"></stop>
            <stop stop-color="#808080" stop-opacity="0.1" offset="100%"></stop>
        </linearGradient>
        <linearGradient x1="28651%" y1="13227%" x2="28651%" y2="11164%" id="linearGradient-9">
            <stop stop-color="#808080" stop-opacity="0.25" offset="0%"></stop>
            <stop stop-color="#808080" stop-opacity="0.12" offset="54%"></stop>
            <stop stop-color="#808080" stop-opacity="0.1" offset="100%"></stop>
        </linearGradient>
        <linearGradient x1="34925%" y1="10314%" x2="34925%" y2="8251%" id="linearGradient-10">
            <stop stop-color="#808080" stop-opacity="0.25" offset="0%"></stop>
            <stop stop-color="#808080" stop-opacity="0.12" offset="54%"></stop>
            <stop stop-color="#808080" stop-opacity="0.1" offset="100%"></stop>
        </linearGradient>
        <linearGradient x1="40619%" y1="16529%" x2="40619%" y2="14465%" id="linearGradient-11">
            <stop stop-color="#808080" stop-opacity="0.25" offset="0%"></stop>
            <stop stop-color="#808080" stop-opacity="0.12" offset="54%"></stop>
            <stop stop-color="#808080" stop-opacity="0.1" offset="100%"></stop>
        </linearGradient>
        <linearGradient x1="46602%" y1="13640%" x2="46602%" y2="11577%" id="linearGradient-12">
            <stop stop-color="#808080" stop-opacity="0.25" offset="0%"></stop>
            <stop stop-color="#808080" stop-opacity="0.12" offset="54%"></stop>
            <stop stop-color="#808080" stop-opacity="0.1" offset="100%"></stop>
        </linearGradient>
        <linearGradient x1="35254%" y1="28750%" x2="35254%" y2="27478%" id="linearGradient-13">
            <stop stop-color="#808080" stop-opacity="0.25" offset="0%"></stop>
            <stop stop-color="#808080" stop-opacity="0.12" offset="54%"></stop>
            <stop stop-color="#808080" stop-opacity="0.1" offset="100%"></stop>
        </linearGradient>
        <linearGradient x1="35254%" y1="30568%" x2="35254%" y2="29296%" id="linearGradient-14">
            <stop stop-color="#808080" stop-opacity="0.25" offset="0%"></stop>
            <stop stop-color="#808080" stop-opacity="0.12" offset="54%"></stop>
            <stop stop-color="#808080" stop-opacity="0.1" offset="100%"></stop>
        </linearGradient>
        <linearGradient x1="35254%" y1="32385%" x2="35254%" y2="31113%" id="linearGradient-15">
            <stop stop-color="#808080" stop-opacity="0.25" offset="0%"></stop>
            <stop stop-color="#808080" stop-opacity="0.12" offset="54%"></stop>
            <stop stop-color="#808080" stop-opacity="0.1" offset="100%"></stop>
        </linearGradient>
        <linearGradient x1="35254%" y1="34202%" x2="35254%" y2="32930%" id="linearGradient-16">
            <stop stop-color="#808080" stop-opacity="0.25" offset="0%"></stop>
            <stop stop-color="#808080" stop-opacity="0.12" offset="54%"></stop>
            <stop stop-color="#808080" stop-opacity="0.1" offset="100%"></stop>
        </linearGradient>
        <linearGradient x1="85328%" y1="79270%" x2="85328%" y2="24648%" id="linearGradient-17">
            <stop stop-color="#808080" stop-opacity="0.25" offset="0%"></stop>
            <stop stop-color="#808080" stop-opacity="0.12" offset="54%"></stop>
            <stop stop-color="#808080" stop-opacity="0.1" offset="100%"></stop>
        </linearGradient>
    </defs>
    <g id="Page-1" stroke="none" stroke-width="1" fill="none" fill-rule="evenodd">
        <g id="demo" transform="translate(30.000000, 25.000000)">
            <g id="Rectangle-Copy-4">
                <use fill="black" fill-opacity="1" filter="url(#filter-2)" xlink:href="#path-1"></use>
                <use fill="#FFFFFF" fill-rule="evenodd" xlink:href="#path-1"></use>
            </g>
            <text id="FREE-DEMO:-personal" font-family="Lato-Bold, Lato" font-size="18" font-weight="bold" letter-spacing="0.200000003" fill="#403F4C">
                <tspan x="110" y="32">FREE DEMO: personal product guide</tspan>
            </text>
            <text id="Sign-up-here-for-a-p" font-family="Lato-Regular, Lato" font-size="16" font-weight="normal" line-spacing="21" letter-spacing="0.0199999996" fill="#8C8C8C">
                <tspan x="110" y="56">Sign up here for a personalized product demo </tspan>
                <tspan x="110" y="77">with one of our experts.</tspan>
            </text>
            <g transform="translate(15.000000, 17.000000)">
                <rect id="Rectangle-path" fill="url(#linearGradient-3)" fill-rule="nonzero" x="0" y="0" width="64" height="38"></rect>
                <rect id="Rectangle-path" fill="#F5F5F5" fill-rule="nonzero" x="1" y="1" width="62" height="2"></rect>
                <rect id="Rectangle-path" fill="#FFFFFF" fill-rule="nonzero" x="1" y="3" width="62" height="34"></rect>
                <circle id="Oval" fill="url(#linearGradient-4)" fill-rule="nonzero" cx="2.5" cy="1.5" r="1"></circle>
                <circle id="Oval" fill="url(#linearGradient-5)" fill-rule="nonzero" cx="3.5" cy="1.5" r="1"></circle>
                <circle id="Oval" fill="url(#linearGradient-6)" fill-rule="nonzero" cx="4.5" cy="1.5" r="1"></circle>
                <circle id="Oval" fill="#FF5252" fill-rule="nonzero" cx="2.5" cy="1.5" r="1"></circle>
                <circle id="Oval" fill="#FFFF00" fill-rule="nonzero" cx="3.5" cy="1.5" r="1"></circle>
                <circle id="Oval" fill="#69F0AE" fill-rule="nonzero" cx="4.5" cy="1.5" r="1"></circle>
                <rect id="Rectangle-path" fill="url(#linearGradient-7)" fill-rule="nonzero" x="14" y="5" width="37" height="18"></rect>
                <rect id="Rectangle-path" fill="#4285F4" fill-rule="nonzero" x="15" y="6" width="36" height="17"></rect>
                <path d="M17,8 L17,21" id="Shape" stroke="#FFFFFF" stroke-linecap="round" stroke-linejoin="round" stroke-dasharray="0"></path>
                <path d="M17,21 L49,21" id="Shape" stroke="#FFFFFF" stroke-linecap="round" stroke-linejoin="round"></path>
                <path d="M20,9 L45,9" id="Shape" stroke="#FFFFFF" opacity="0.3" stroke-linecap="round" stroke-linejoin="round"></path>
                <path d="M20,11 L45,11" id="Shape" stroke="#FFFFFF" opacity="0.3" stroke-linecap="round" stroke-linejoin="round"></path>
                <path d="M20,14 L45,14" id="Shape" stroke="#FFFFFF" opacity="0.3" stroke-linecap="round" stroke-linejoin="round"></path>
                <path d="M20,17 L45,17" id="Shape" stroke="#FFFFFF" opacity="0.3" stroke-linecap="round" stroke-linejoin="round"></path>
                <path d="M22.0151897,22 L22.0151897,14.9584876 C22.0151897,14.9584876 21.4530885,11.9249873 27.1676331,12.024524 C32.3645723,11.2547734 32.3645723,9.01567099 32.3645723,9.01567099 C32.3645723,9.01567099 37.1447031,8.47248485 37.3871603,13.7820582 C37.4218601,14.6687233 37.8446764,15.4896448 38.5340648,16.008837 C40.5036893,17.4582814 42.2136031,14.5698203 43,12.027368 L43,22 L22.0151897,22 Z" id="Shape" fill="#FFFFFF" fill-rule="nonzero" opacity="0.2"></path>
                <circle id="Oval" fill="#4285F4" fill-rule="nonzero" cx="27" cy="12" r="1"></circle>
                <circle id="Oval" fill="#FFFFFF" fill-rule="nonzero" opacity="0.5" cx="27" cy="12" r="1"></circle>
                <circle id="Oval" fill="url(#linearGradient-8)" fill-rule="nonzero" cx="22" cy="14" r="1"></circle>
                <circle id="Oval" fill="url(#linearGradient-9)" fill-rule="nonzero" cx="27" cy="11" r="1"></circle>
                <circle id="Oval" fill="url(#linearGradient-10)" fill-rule="nonzero" cx="32" cy="9" r="1"></circle>
                <circle id="Oval" fill="url(#linearGradient-11)" fill-rule="nonzero" cx="38" cy="14" r="1"></circle>
                <circle id="Oval" fill="url(#linearGradient-12)" fill-rule="nonzero" cx="43" cy="12" r="1"></circle>
                <circle id="Oval" fill="#4285F4" fill-rule="nonzero" cx="22" cy="15" r="1"></circle>
                <circle id="Oval" fill="#000000" fill-rule="nonzero" opacity="0.2" cx="22" cy="15" r="1"></circle>
                <circle id="Oval" fill="#4285F4" fill-rule="nonzero" cx="33" cy="9" r="1"></circle>
                <circle id="Oval" fill="#000000" fill-rule="nonzero" opacity="0.2" cx="33" cy="9" r="1"></circle>
                <circle id="Oval" fill="#4285F4" fill-rule="nonzero" cx="38" cy="15" r="1"></circle>
                <circle id="Oval" fill="#FFFFFF" fill-rule="nonzero" opacity="0.5" cx="38" cy="15" r="1"></circle>
                <circle id="Oval" fill="#4285F4" fill-rule="nonzero" cx="43" cy="12" r="1"></circle>
                <circle id="Oval" fill="#000000" fill-rule="nonzero" opacity="0.2" cx="43" cy="12" r="1"></circle>
                <rect id="Rectangle-path" fill="url(#linearGradient-13)" fill-rule="nonzero" x="14" y="26" width="36" height="1"></rect>
                <rect id="Rectangle-path" fill="url(#linearGradient-14)" fill-rule="nonzero" x="14" y="27" width="36" height="1"></rect>
                <rect id="Rectangle-path" fill="url(#linearGradient-15)" fill-rule="nonzero" x="14" y="29" width="36" height="1"></rect>
                <rect id="Rectangle-path" fill="url(#linearGradient-16)" fill-rule="nonzero" x="14" y="31" width="36" height="1"></rect>
                <rect id="Rectangle-path" fill="#E0E0E0" fill-rule="nonzero" x="15" y="26" width="36" height="1"></rect>
                <rect id="Rectangle-path" fill="#E0E0E0" fill-rule="nonzero" x="15" y="28" width="36" height="1"></rect>
                <rect id="Rectangle-path" fill="#E0E0E0" fill-rule="nonzero" x="15" y="29" width="36" height="1"></rect>
                <rect id="Rectangle-path" fill="#E0E0E0" fill-rule="nonzero" x="15" y="31" width="36" height="1"></rect>
                <path d="M83.026438,44.5996834 L82.7022557,42.2065062 L81.9464478,40.1392044 L79.8957633,32.4153018 L79.8763123,32.4237055 L79.8763123,32.4237055 L79.863345,32.4293079 C79.8987683,32.3099121 79.8987683,32.1826774 79.863345,32.0632816 C79.6530897,30.9717388 79.2631447,29.9231481 78.8352241,28.8988346 C78.4545414,27.9884375 78.0368094,27.0836428 77.4458714,26.2955657 L77.3588053,26.1816493 C77.4949618,26.2470112 77.6311184,26.3105055 77.7691274,26.3683975 C77.9071365,26.4262894 78.0683014,26.4991212 78.2109416,26.5775554 L78.2813355,26.61864 C78.3276472,26.6466522 78.373959,26.6765319 78.4147133,26.712014 C78.435708,26.7275764 78.4563939,26.7437612 78.4767711,26.7605685 C78.5168753,26.7936623 78.5546343,26.8295432 78.5897717,26.8679487 C78.6070615,26.887246 78.623425,26.9071658 78.6388622,26.9277081 C78.6868423,26.989677 78.7258266,27.0582165 78.7546416,27.1312636 C78.7646942,27.1591307 78.77335,27.18749 78.7805762,27.216234 C78.7959758,27.2706479 78.8086503,27.3258083 78.8185518,27.3815061 C78.8333716,27.4664765 78.8454126,27.5523806 78.866716,27.6354835 C78.9778643,28.0752753 79.3715142,28.3675362 79.8068447,28.4609102 C79.8612817,28.4724641 79.9163275,28.4808814 79.9717146,28.4861212 C80.0268244,28.4912444 80.0821842,28.4931151 80.1375106,28.4917237 C80.328592,28.4894211 80.516446,28.4417572 80.6858418,28.3525963 C80.8068692,28.2875851 80.9131659,28.1979158 80.9979831,28.0892815 C81.3527311,27.6326823 81.3499524,26.9827988 81.6519051,26.48885 C81.8084388,26.2339388 82.0399976,26.0313171 82.1798591,25.7670685 C82.6077797,24.9556479 82.0270303,24.0079011 81.809365,23.1161788 C81.5833637,22.1824382 81.7686107,21.2122817 81.7408236,20.2561312 C81.6824708,18.2737999 80.6663909,16.3764389 79.1621851,15.0972142 C77.6579792,13.8179895 75.7036231,13.1363589 73.7390784,13.0159063 C72.5442351,12.9430746 71.2613994,13.1092804 70.2731066,13.7451578 L70.2731066,13.7451578 C70.2054914,13.7890436 70.1397287,13.8385318 70.0748922,13.8833514 L70.0165394,13.9281709 C69.9689927,13.9648981 69.9223722,14.0028702 69.8766779,14.0420873 L69.8211038,14.0906418 C69.7599723,14.1457325 69.699767,14.2026907 69.6423404,14.2624501 C69.4935802,14.4189015 69.357599,14.5872108 69.2357232,14.7657363 C68.829106,15.3539929 68.5438256,16.0346898 68.1742578,16.6537599 C68.1458532,16.7010694 68.1149787,16.7483789 68.0816343,16.7956884 L68.0501423,16.8433092 L67.9890107,16.9366833 L67.9473302,16.9955089 L67.8908298,17.0730094 L67.8426656,17.1365038 L67.7880177,17.2065343 L67.7352223,17.2709624 L67.6805744,17.3353905 L67.6231479,17.3998186 L67.5675738,17.4586443 L67.5064422,17.5221387 L67.4490157,17.5772294 C67.4277123,17.5977716 67.4073351,17.6183139 67.3851054,17.6379225 C67.1480833,17.8609352 66.8703065,18.0353579 66.5672398,18.1514798 C66.5274117,18.165486 66.4875836,18.1785583 66.4477555,18.190697 L66.4171897,18.1991006 C66.3832278,18.208438 66.3486483,18.2171529 66.3134514,18.2252454 L66.2467625,18.237384 L66.1680325,18.2504564 C66.1170896,18.2569925 66.0652204,18.262595 66.012425,18.2644625 C66.0263185,18.5445847 66.3690255,18.582868 66.6691257,18.5100363 C66.7410337,18.4929138 66.8111349,18.4688362 66.8784548,18.4381382 C67.0257262,18.3699752 67.2174569,18.2616612 67.4341959,18.13654 L67.5268194,18.082383 L67.7241075,17.9694004 L67.8259934,17.9115085 L68.0353225,17.7947909 C68.1409133,17.7359653 68.2492828,17.6780733 68.3567261,17.6229826 L68.391923,17.6052416 C67.9326759,18.2370736 67.7697449,19.0394564 67.9457732,19.8023858 C68.1218014,20.5653152 68.6192667,21.2128475 69.3079696,21.5755068 L69.3079696,22.4102709 L69.030099,22.4102709 C68.7858209,22.4100986 68.5483713,22.4915316 68.3548736,22.6418386 C68.1872251,22.7100016 67.9843796,22.7959058 67.7787554,22.9004847 C67.7120664,22.9340994 67.643525,22.9686478 67.5749836,23.0050637 L67.4712453,23.0610881 C67.4017777,23.0993715 67.3332363,23.1395223 67.2646949,23.1815407 C67.1276121,23.2655773 66.9914555,23.3561502 66.8636351,23.4532592 C66.6754735,23.5922026 66.5041779,23.752977 66.3532795,23.9322681 L66.3532795,23.9322681 C66.3246618,23.9655877 66.2937077,23.9967926 66.260656,24.0256422 C66.2495412,24.0359133 66.2375001,24.044317 66.2263853,24.0536544 C66.2152705,24.0629918 66.1837785,24.0882028 66.1615488,24.1040764 L66.1161633,24.1330224 C66.0957861,24.145161 66.0763352,24.1572996 66.0550318,24.1675708 L66.0013102,24.1937155 L65.9438836,24.217059 C65.9225802,24.2254627 65.902203,24.2329326 65.8808996,24.2404025 L65.8336616,24.2544087 C65.729703,24.2832917 65.6233731,24.3026674 65.515963,24.3123006 L65.515963,24.3123006 C65.1241655,24.3487165 64.6823513,24.2917583 64.2868489,24.2768184 L64.2868489,24.2768184 C64.2266437,24.2768184 64.1673646,24.2768184 64.109938,24.2768184 L64.109938,24.2768184 C62.7715283,24.2824209 61.4071839,24.3085656 60.067848,24.3151018 L53.5082508,24.1572996 L53.5082508,24.1572996 L53.296143,24.1526309 L53.1877734,24.1526309 L53.1877734,24.098474 L47.1440893,24.098474 C46.8801122,24.2758847 47.0459083,24.4532954 47.1172284,24.5121211 C47.1411212,24.5407004 47.1685087,24.5661137 47.1987371,24.5877541 L48.7085004,24.9042921 L48.5954997,25.0910403 L48.5186222,25.0742329 L48.3333752,25.390771 C48.4259987,25.5028199 48.5121385,25.5989952 48.5964259,25.6848993 C49.947803,27.1228599 50.4377814,25.444928 50.4377814,25.444928 L53.2433476,25.7717372 L56.7232129,26.2880958 L60.1502829,26.8044543 L60.1502829,26.7969844 C60.2540212,26.8446052 60.3929565,26.8287316 60.5207769,26.8604788 C61.8295472,27.1816856 63.1716619,27.1704807 64.5174815,27.1826193 L64.7870159,27.1826193 L64.9555907,27.1826193 C65.0984034,27.1867731 65.2406176,27.203015 65.3807326,27.2311738 C65.4346592,27.2425789 65.4878589,27.2572338 65.5400451,27.2750596 C65.7190579,27.3282981 65.8715481,27.4476774 65.9670395,27.6093388 C66.0326722,27.7489063 66.071636,27.8996892 66.0818926,28.0537993 L66.3153039,29.8521838 C66.3319761,29.98104 66.3486483,30.1117637 66.3560582,30.2424874 C66.3560582,30.2910419 66.3606894,30.3358614 66.3616156,30.3872172 C66.3664573,30.564241 66.3385009,30.7406221 66.2791807,30.9073107 C66.2412734,31.0042347 66.1928126,31.096618 66.134688,31.1827642 C66.0967124,31.2406561 66.0550318,31.2966805 66.0133512,31.352705 C65.9716706,31.4087294 65.9272114,31.4628864 65.8846045,31.5189108 L65.8216206,31.6020137 C65.6541638,31.8272073 65.5121868,32.0705553 65.3983311,32.3275302 C65.3699266,32.3897796 65.3430657,32.4548302 65.3177486,32.522682 C65.1169194,33.0499545 65.0300787,33.6143769 65.063034,34.1782042 C65.0673564,34.248546 65.0735313,34.3185765 65.0815587,34.3882958 C65.0975136,34.5280496 65.1213253,34.6667776 65.1528788,34.8038104 C65.164688,34.8564067 65.179848,34.9081811 65.1982643,34.9588113 C65.2191275,35.0173278 65.2505283,35.0714583 65.2908878,35.118481 C65.2908878,35.1231497 65.2982977,35.1296859 65.3029289,35.1343546 L65.3029289,35.1343546 C65.3252233,35.1565925 65.3501035,35.1760309 65.3770277,35.1922465 C65.393999,35.2027388 65.4116354,35.2120963 65.4298231,35.2202587 C65.4649846,35.236208 65.5015846,35.2487153 65.5391188,35.2576083 C65.5845885,35.2678978 65.6306969,35.2750728 65.6771279,35.2790844 L65.7373332,35.2790844 L65.7076936,35.2790844 L65.1121244,45.4699297 C65.1121244,45.4699297 64.1405038,46.2318621 65.0037549,46.7771666 L65.1084195,46.7771666 L64.14143,61.4079486 C64.14143,61.4079486 63.4930654,62.0615671 61.4433071,61.4079486 C61.0431735,61.2809599 60.8820086,61.3481892 60.9023858,61.5274674 C60.8292132,62.0923805 63.3050397,64.2885385 65.5335614,63.9682655 C66.102405,63.8819634 66.5487991,63.4315734 66.6339288,62.8580479 L68.923582,46.7435519 C69.0162055,46.6501779 69.2412806,46.3504471 68.888385,45.9031853 L69.9683752,37.4164167 L70.7241831,45.9022516 C70.7241831,45.9022516 70.010982,46.1076745 70.5648706,46.7183409 L70.5648706,46.7183409 C70.5648706,46.7183409 69.1616244,48.8939566 77.3634364,59.9905304 C77.3634364,59.9905304 78.011801,60.6441488 77.0392541,61.9513857 C77.0392541,61.9513857 75.9601902,61.9513857 76.176003,62.821632 L76.2176836,62.821632 C76.2176836,62.839373 76.2241672,62.8571141 76.2287984,62.8757889 L78.1738922,62.8757889 C78.1738922,62.8757889 80.008764,60.7001732 79.9003944,60.1558024 C79.7920249,59.6114317 74.2883358,48.1889824 74.2883358,48.1889824 L74.2883358,46.7752991 L74.6125181,46.7752991 C74.6125181,46.7752991 75.0441437,46.5577375 74.6125181,45.9050528 L74.4578369,35.7646295 C74.4562106,35.6468591 74.4187012,35.5324412 74.3503936,35.4368865 C74.8329909,33.9343475 74.7642942,32.3070582 74.1568104,30.8512863 C73.9715634,30.4030908 73.7261111,29.9679676 73.6529385,29.4861575 C73.579766,29.0043473 73.7224062,28.4459704 74.1401382,28.2022641 L76.7048833,33.6002187 L76.7113669,33.6123573 C76.7309858,33.6589365 76.7582255,33.7018631 76.7919494,33.7393461 C76.8046202,33.752132 76.8189532,33.7631259 76.8345562,33.772027 C76.8538719,33.7825258 76.8748844,33.7894814 76.8966139,33.7925693 L76.908655,33.7925693 L79.8994682,41.0085169 L81.0869016,43.2933803 L81.4110839,46.0133667 L82.5985174,47.2104222 L82.6068535,47.2104222 L82.6568702,47.2104222 L82.6568702,47.2104222 L82.6939196,47.2048198 L82.6939196,47.2048198 C82.7865431,47.186145 82.919921,47.1366567 82.919921,46.9975294 C82.919921,46.9975294 83.2441033,46.8882817 83.2441033,46.6707202 C83.2441033,46.6707202 83.6757288,46.5614725 83.6757288,46.3439109 C83.7623196,46.3459779 83.8459733,46.3122105 83.9072194,46.2504681 C83.9684655,46.1887257 84.0019615,46.1043942 83.9999111,46.0171017 L83.026438,44.5996834 Z M71.6958037,21.5708381 C71.8605362,21.4860018 72.0157922,21.3836415 72.1589213,21.2655049 C72.2885186,21.5931395 72.4557646,21.9043309 72.6572358,22.1927093 C72.7433756,22.3187643 72.8332204,22.4420181 72.9249177,22.5662056 C72.9619671,22.6138264 72.9999428,22.6595796 73.0369922,22.7081342 C72.9369588,22.6773207 72.8369254,22.6502422 72.7378182,22.6287662 L72.7072525,22.6231638 L72.614629,22.6054227 C72.4301162,22.4775802 72.2114583,22.4092047 71.9875678,22.4093372 L71.6958037,22.4093372 L71.6958037,21.5708381 Z" id="Shape" fill="url(#linearGradient-17)" fill-rule="nonzero"></path>
                <path d="M65.5629004,35.0945928 L65,44.593601 L68.5796807,45 L69.6020543,37.0756742 L70.3178074,45 L74,45 L73.8535544,35.5309944 C73.8490364,35.2339416 73.6034468,34.9964983 73.3043832,35.0000391 L65.5629004,35.0945928 Z" id="Shape" fill="#4285F4" fill-rule="nonzero"></path>
                <g id="Group" opacity="0.2" transform="translate(65.000000, 35.000000)" fill-rule="nonzero" fill="#FFFFFF">
                    <path d="M1.0209375,0.328828829 L8.9521875,0.238738739 L8.97375,0.238738739 C8.86765604,0.109017545 8.70480632,0.0341010573 8.533125,0.036036036 L0.601875,0.126126126 L0.0253125,9.53873874 L0.45375,9.58558559 L1.0209375,0.328828829 Z" id="Shape"></path>
                    <polygon id="Shape" points="4.7925 2.14054054 4.9228125 4.05585586 5.473125 9.94144144 5.8734375 9.94144144"></polygon>
                </g>
                <path d="M70.0875352,46 C70.0875352,46 68.7406678,48.1624237 76.6133067,59.189333 C76.6133067,59.189333 77.2343673,59.8375763 76.3027764,61.1350305 C76.3027764,61.1350305 75.2673663,61.1350305 75.4740775,62 L77.3381864,62 C77.3381864,62 79.0994032,59.8375763 78.9955841,59.2976961 C78.891765,58.7578158 73.6099686,47.4058173 73.6099686,47.4058173 L73.6099686,46 L70.0875352,46 Z" id="Shape" fill="#263238" fill-rule="nonzero"></path>
                <path d="M76.5026215,61.1350305 C77.405485,59.8375763 76.8032768,59.189333 76.8032768,59.189333 C69.181888,48.1595211 70.485027,46 70.485027,46 L70.0847515,46 C70.0847515,46 68.780715,48.1624237 76.4030013,59.189333 C76.4030013,59.189333 77.0043121,59.8375763 76.102346,61.1350305 C76.102346,61.1350305 75.0998623,61.1350305 75.3000001,62 L75.701173,62 C75.4965479,61.1350305 76.5026215,61.1350305 76.5026215,61.1350305 Z" id="Shape" fill="#FFFFFF" fill-rule="nonzero" opacity="0.2"></path>
                <path d="M65.1885616,46.1608746 L64.2232149,60.5196449 C64.2232149,60.5196449 63.5796505,61.1574317 61.5404156,60.5196449 C59.7211454,59.9484925 62.8544398,63.3582721 65.6092798,62.9689366 C66.1752008,62.884867 66.6194688,62.4445874 66.7042999,61.8837471 L69,46 L65.1885616,46.1608746 Z" id="Shape" fill="#263238" fill-rule="nonzero"></path>
                <path d="M62.037837,60.4020765 C64.2198531,61.0231753 64.9084781,60.4020765 64.9084781,60.4020765 L66,46 L65.4861008,46 L64.45008,59.9877016 C64.45008,59.9877016 63.761455,60.6088004 61.5794389,59.9877016 C60.6544203,59.7253569 60.9247313,60.3306965 61.772665,61 C61.3235171,60.5244422 61.3152947,60.1953526 62.037837,60.4020765 Z" id="Shape" fill="#FFFFFF" fill-rule="nonzero" opacity="0.2"></path>
                <rect id="Rectangle-path" fill="#4285F4" fill-rule="nonzero" x="68" y="23" width="5" height="4" rx="2"></rect>
                <circle id="Oval" fill="#FFBEC5" fill-rule="nonzero" cx="70.5" cy="20.5" r="2.5"></circle>
                <path d="M69.6639544,21 L70.3352319,21 C70.7023732,21 71,21.3570941 71,21.7975919 L71,22.9261308 C71,23.5192124 70.5992785,24 70.1049634,24 L69.8950366,24 C69.4007215,24 69,23.5192124 69,22.9261308 L69,21.7975919 C68.9999997,21.357475 69.2971309,21.0005387 69.6639544,21 Z" id="Shape" fill="#FFBEC5" fill-rule="nonzero"></path>
                <polygon id="Shape" fill="#4285F4" fill-rule="nonzero" points="54 25 60.8921882 25.1830471 61 28 54 26.8370479"></polygon>
                <path d="M48.139455,25 L54,25 L54,26.5337841 L51.2790661,26.2272103 C51.2790661,26.2272103 50.7554854,27.9659871 49.2905833,26.2272103 L49.6043571,25.7156439 L48.139455,25.4090701 C48.139455,25.4090701 47.8256812,25.2049926 48.139455,25 Z" id="Shape" fill="#FFBEC5" fill-rule="nonzero"></path>
                <polygon id="Shape" fill="#4285F4" fill-rule="nonzero" points="76 34.215362 78.9788652 41 81 40.1897587 78.9788652 33"></polygon>
                <path d="M79,40.8607822 L80.1580475,43.1231066 L80.4737073,45.8153401 L81.6317547,47 C81.6317547,47 81.9474145,47 81.9474145,46.7850454 C81.9474145,46.7850454 82.2630743,46.6770862 82.2630743,46.4621316 C82.2630743,46.4621316 82.6842682,46.3541724 82.6842682,46.1392178 C82.7685306,46.141078 82.8498807,46.1076544 82.9094772,46.0466885 C82.9690736,45.9857225 83.0017463,45.9025029 82.999928,45.816304 L82.0520063,44.4157257 L81.7363465,42.0464059 L80.9994928,40 L79,40.8607822 Z" id="Shape" fill="#FFBEC5" fill-rule="nonzero"></path>
                <path d="M65.4200778,45 C65.4200778,45 64.5437532,45.5831469 65.3225148,46 L68.8269419,46 C68.8269419,46 69.2163227,45.7501864 68.8269419,45.3333333 L65.4200778,45 Z" id="Shape" fill="#4285F4" fill-rule="nonzero"></path>
                <path d="M70.3329997,45 C70.3329997,45 69.6535823,45.2494407 70.2356918,46 L73.8273944,46 C73.8273944,46 74.215757,45.7505593 73.8273944,45 L70.3329997,45 Z" id="Shape" fill="#4285F4" fill-rule="nonzero"></path>
                <path d="M65.4200778,45 C65.4200778,45 64.5437532,45.5831469 65.3225148,46 L68.8269419,46 C68.8269419,46 69.2163227,45.7501864 68.8269419,45.3333333 L65.4200778,45 Z" id="Shape" fill="#000000" fill-rule="nonzero" opacity="0.2"></path>
                <path d="M70.3329997,45 C70.3329997,45 69.6535823,45.2494407 70.2356918,46 L73.8273944,46 C73.8273944,46 74.215757,45.7505593 73.8273944,45 L70.3329997,45 Z" id="Shape" fill="#000000" fill-rule="nonzero" opacity="0.2"></path>
                <polygon id="Shape" fill="#000000" fill-rule="nonzero" opacity="0.2" points="54.2170237 26.8370479 54.2170237 25.0054805 54 25 54 26.8370479 61 28 60.9980271 27.963829"></polygon>
                <polygon id="Shape" fill="#000000" fill-rule="nonzero" opacity="0.2" points="78.9788652 33 78.9598248 33.0072505 80.893374 39.8861448 78.8722391 40.6963861 76.0228484 34.2053925 76 34.215362 78.9788652 41 81 40.1897587"></polygon>
                <path d="M68.6101851,19.4995339 C68.610253,18.2206288 69.641385,17.147989 71,17.013518 C70.9076958,17.0047016 70.8149674,17.0003458 70.722184,17.0004681 C69.755951,16.9830001 68.8550213,17.4555509 68.3664377,18.2360914 C67.8778541,19.0166318 67.8778541,19.9833682 68.3664377,20.7639086 C68.8550213,21.5444491 69.755951,22.0169999 70.722184,21.9995319 C70.8149674,21.9996542 70.9076958,21.9952984 71,21.986482 C69.6410062,21.8519736 68.6097435,20.7787955 68.6101851,19.4995339 L68.6101851,19.4995339 Z" id="Shape" fill="#FFFFFF" fill-rule="nonzero" opacity="0.2"></path>
                <g id="Group" opacity="0.2" transform="translate(48.000000, 25.000000)" fill-rule="nonzero" fill="#FFFFFF">
                    <path d="M0.515076923,0.389473684 L5.98153846,0.389473684 L5.98153846,0.0368421053 L0.205846154,0.0368421053 C-0.103384615,0.271578947 0.205846154,0.507368421 0.205846154,0.507368421 L0.390461538,0.551578947 C0.41570761,0.483722045 0.459389087,0.426899227 0.515076923,0.389473684 Z" id="Shape"></path>
                    <path d="M1.64953846,1.79789474 L1.95876923,1.20947368 L1.52030769,1.10421053 L1.33569231,1.44631579 C1.46226305,1.62469733 1.60183742,1.7905516 1.75292308,1.94210526 C1.72246154,1.89578947 1.68646154,1.84947368 1.64953846,1.79789474 Z" id="Shape"></path>
                </g>
                <path d="M68.6733934,25.4681822 C69.4195597,25.9182682 70.3195653,25.9785388 71.1781171,25.9338219 C71.3809256,25.9377363 71.5819152,25.8928565 71.7658383,25.8025873 C72.2789428,25.503178 71.9583676,23.7193599 71.8487456,23.1117924 C73.6266481,23.3159351 75.5906316,25.3272265 76.6693486,26.8320497 C77.2331187,27.618485 77.6319952,28.5225454 77.9949453,29.4314664 C78.403955,30.454124 78.7751957,31.5010843 78.9760158,32.5908173 C79.0103419,32.7136966 79.0077675,32.8447781 78.9686463,32.966051 C78.9078475,33.1070067 78.7604566,33.1799148 78.6259625,33.2421297 L76.3773304,34.2638151 C76.2852111,34.3065879 76.170062,34.3493607 76.079785,34.2958947 C76.0231094,34.253437 75.9800482,34.1937531 75.9563452,34.1248037 L73.5096566,28.7354371 C73.11078,28.9794362 72.9744435,29.536454 73.0490601,30.0176475 C73.1236767,30.4988409 73.349369,30.9333732 73.5299228,31.3785987 C74.1154495,32.846301 74.1766551,34.4882979 73.7021859,36 C70.9926503,35.990927 68.2837287,35.9316284 65.5754214,35.8221042 C65.4013159,35.8152995 65.2069442,35.7997458 65.0862679,35.6685112 C65.0114174,35.57435 64.9623639,35.4604004 64.9444042,35.3389666 C64.7056609,34.2265507 64.9380662,33.0595701 65.5809485,32.1426755 C65.7393937,31.9200628 65.9236323,31.7100875 66.017594,31.4495626 C66.1373491,31.1180737 66.0958954,30.7486727 66.0516781,30.3957975 L65.8296706,28.599342 C65.8199229,28.4453015 65.7827322,28.294583 65.7200487,28.1550886 C65.516465,27.7662454 65.0144148,27.7302774 64.5943508,27.7254169 C63.2245368,27.7079189 61.8565652,27.7429148 60.5254414,27.4007328 C60.3531783,27.356988 60.1652549,27.4065655 60.0722144,27.2471398 C60.0121913,27.1182165 59.9888348,26.9737079 60.0049673,26.8310775 C60.017864,26.2711433 60.0049673,25.4059672 60.0169428,24.8460331 C61.3195097,24.8402004 62.64787,24.8129814 63.9504369,24.8071487 C64.6772582,24.8071487 65.626087,25.0579526 66.0885258,24.4659388 C66.80982,23.5434084 68.456913,23 68.456913,23 C68.456913,23 68.0386914,25.0861437 68.6733934,25.4681822 Z" id="Shape" fill="#00695C" fill-rule="nonzero"></path>
                <path d="M70.5,26 L70,36" id="Shape" stroke="#FFFFFF" stroke-width="2"></path>
                <g id="Group" opacity="0.2" transform="translate(60.000000, 23.000000)" fill-rule="nonzero" fill="#FFFFFF">
                    <path d="M12.0343094,2.9562963 C12.241088,2.96017385 12.4460123,2.91571629 12.6335359,2.8262963 C13.119116,2.55088889 12.8720994,1.00725926 12.7443646,0.306222222 C12.5304657,0.235285194 12.3102367,0.186255497 12.0869061,0.159851852 C12.198674,0.761703704 12.5255249,2.52874074 12.0023757,2.82533333 C11.8148521,2.91475333 11.6099278,2.95921089 11.4031492,2.95533333 L11.278232,2.96014815 C11.5318232,2.97362963 11.7844751,2.97074074 12.0343094,2.9562963 Z" id="Shape"></path>
                    <path d="M6.83944751,1.50607407 C7.27055249,0.969703704 8.02662983,0.563333333 8.5779558,0.318740741 C8.60331492,0.156 8.6239779,0.0539259259 8.6239779,0.0539259259 C8.6239779,0.0539259259 6.94464088,0.592222222 6.20922652,1.50607407 C6.00917127,1.75451852 5.7198895,1.85177778 5.39679558,1.88259259 C5.95657459,1.9162963 6.51541436,1.90955556 6.83944751,1.50607407 Z" id="Shape"></path>
                    <path d="M16.9060773,11.0702222 L14.4114917,5.73155556 C14.2270515,5.84628427 14.086507,6.02232654 14.0132597,6.23037037 L16.2749171,11.0721481 C16.2990842,11.1404489 16.3429884,11.1995713 16.4007735,11.2416296 C16.4946961,11.2945926 16.6064641,11.2522222 16.7041436,11.2098519 L16.9248619,11.1135556 L16.9060773,11.0702222 Z" id="Shape"></path>
                    <path d="M6.31629834,12.7544444 C6.13878453,12.7477037 5.94060773,12.7322963 5.81756906,12.6022963 C5.74125325,12.5090209 5.69123948,12.3961433 5.67292818,12.2758519 C5.42951126,11.1739009 5.66646617,10.0178986 6.3219337,9.10962963 C6.48348066,8.88911111 6.67132597,8.68111111 6.76712707,8.42303704 C6.88922652,8.09466667 6.84696133,7.72874074 6.80187845,7.37918519 L6.57458564,5.60059259 C6.5646248,5.44800499 6.52670718,5.29870854 6.46281768,5.16051852 C6.25524862,4.77533333 5.74337017,4.7397037 5.31508287,4.73488889 C3.91845304,4.71755556 2.52370166,4.75222222 1.16651934,4.41325926 C0.990883978,4.36992593 0.799281768,4.41903704 0.70441989,4.26111111 C0.643221748,4.13340064 0.619407967,3.99025158 0.635856354,3.84896296 C0.649005525,3.2942963 0.635856354,2.43725926 0.648066298,1.88259259 C1.82491713,1.87777778 3.02055249,1.85659259 4.20209945,1.84696296 C4.1438674,1.84696296 4.08563536,1.84696296 4.02928177,1.84696296 C2.70121547,1.85274074 1.34685083,1.8797037 0.0187845304,1.88548148 C0.00563535912,2.44014815 0.0187845304,3.29718519 0.00657458564,3.85185185 C-0.00987380111,3.99314047 0.0139399797,4.13628953 0.0751381215,4.264 C0.169060773,4.42096296 0.362541436,4.37185185 0.537237569,4.41614815 C1.89441989,4.75414815 3.28917127,4.71948148 4.6858011,4.73777778 C5.11314917,4.74355556 5.62502762,4.78111111 5.83353591,5.16340741 C5.89742542,5.30159743 5.93534303,5.45089388 5.94530387,5.60348148 L6.17165746,7.38303704 C6.2158011,7.73162963 6.25900552,8.09755556 6.13690608,8.42688889 C6.04298343,8.68496296 5.85513812,8.89296296 5.69171271,9.11348148 C5.03624518,10.0217504 4.79929027,11.1777527 5.04270718,12.2797037 C5.06101849,12.3999952 5.11103226,12.5128728 5.18734807,12.6061481 C5.31226519,12.7361481 5.50856354,12.7515556 5.68607735,12.7582963 C8.44677716,12.8667901 11.2087293,12.9255309 13.9719337,12.9345185 L13.9719337,12.9297037 C11.4197422,12.9117284 8.86786372,12.8533086 6.31629834,12.7544444 Z" id="Shape"></path>
                </g>
                <path d="M71.0148035,19.7106484 C71.139842,19.7493079 71.2762477,19.7379929 71.4012863,19.7766524 C71.8976514,19.9331762 71.8266068,20.6328185 71.8370266,21.1504783 C71.8521828,21.9330971 72.2850814,22.6440543 72.7643959,23.2635489 C74.0137141,24.8717729 75.6510688,26.1396424 77.5243859,26.9494003 C77.9032906,27.1144103 78.3380838,27.2973356 78.4905929,27.6839304 C78.5374402,27.843975 78.5741399,28.0067913 78.6004752,28.1714171 C78.8183454,29.0200398 80.1454591,29.302914 80.6910818,28.610815 C81.0396741,28.1685883 81.0358851,27.5387217 81.332378,27.0616071 C81.4858344,26.8155065 81.7112827,26.6184375 81.8495829,26.3629077 C82.2692198,25.5774602 81.6999156,24.6600048 81.4867817,23.7953525 C81.2651224,22.8958124 81.4469967,21.9519553 81.4195261,21.0260137 C81.3617431,19.1062404 80.3652238,17.2685008 78.8903373,16.0285687 C77.4154508,14.7886366 75.4991404,14.1314254 73.5724101,14.015447 C72.1306778,13.9286989 70.5591706,14.190829 69.5541259,15.22332 C68.9175661,15.8777024 68.5860245,16.7593271 68.1142881,17.5391171 C67.6425518,18.3189071 66.9141075,19.0619235 66,19.0986971 C66.0170507,19.4400321 66.5370974,19.4098588 66.8525355,19.2665359 C67.5156187,18.9629175 69.0738642,17.8578221 69.8155702,18.0775211 C70.5572761,18.2972201 70.2986736,19.4438037 71.0148035,19.7106484 Z" id="Shape" fill="#5D4037" fill-rule="nonzero"></path>
                <g id="Group" opacity="0.2" transform="translate(66.000000, 15.000000)" fill-rule="nonzero" fill="#FFFFFF">
                    <path d="M2.46884615,2.52091503 C2.9175641,1.76326797 3.22987179,0.908627451 3.83294872,0.273594771 C3.89277778,0.212592593 3.95470085,0.151590414 4.01871795,0.0905882353 C3.80516428,0.229013402 3.60819005,0.392384969 3.43179487,0.577385621 C2.82871795,1.2124183 2.51461538,2.06797386 2.06769231,2.82470588 C1.87013841,3.16726574 1.62498946,3.47886291 1.33987179,3.74980392 C1.80294872,3.46705882 2.18525641,3.00130719 2.46884615,2.52091503 Z" id="Shape"></path>
                    <path d="M12.4034615,12.8406536 C12.3785045,12.6808971 12.3437353,12.5228957 12.299359,12.3675817 C12.1548718,11.9933333 11.7465385,11.8185621 11.3839744,11.6547712 C9.60911269,10.8682359 8.05790993,9.63724886 6.87435897,8.07607843 C6.42025641,7.47490196 6.00923077,6.78405229 5.99576923,6.0254902 C5.98679487,5.52313725 6.05320513,4.84418301 5.58294872,4.69228758 C5.46448718,4.65385621 5.33525641,4.66575163 5.21679487,4.62823529 C4.53833333,4.36836601 4.78961538,3.25568627 4.07794872,3.04339869 C3.36628205,2.83111111 1.89628205,3.90261438 1.27076923,4.1972549 C1.05987179,4.29699346 0.747564103,4.33908497 0.581538462,4.23477124 C0.415955843,4.29717501 0.241873173,4.33298291 0.0655128205,4.34091503 C0.0816666667,4.67215686 0.574358974,4.64287582 0.873205128,4.50379085 C1.50141026,4.20915033 2.97769231,3.13673203 3.68038462,3.34993464 C4.38307692,3.56313725 4.14076923,4.67490196 4.81923077,4.93477124 C4.93769231,4.97228758 5.06692308,4.96130719 5.18538462,4.99882353 C5.65564103,5.15071895 5.58833333,5.8296732 5.59820513,6.33202614 C5.6125641,7.09150327 6.02269231,7.78143791 6.47679487,8.38261438 C7.65956372,9.94262812 9.20946351,11.1729316 10.9828205,11.9594771 C11.3417949,12.1196078 11.7537179,12.2971242 11.8982051,12.6722876 C11.9425814,12.8276016 11.9773507,12.9856029 12.0023077,13.1453595 C12.2087179,13.9688889 13.4660256,14.2433987 13.9829487,13.5717647 L13.9901282,13.5607843 C13.3978205,13.805098 12.5641026,13.4994771 12.4034615,12.8406536 Z" id="Shape"></path>
                </g>
                <path d="M80.7379882,45.8155032 L80.390598,43.1236404 L79.1161424,40.8616274 L81.2170757,40.0395154 L81.2015209,40 L79,40.8616274 L80.2744556,43.1236404 L80.6218458,45.8155032 L81.8963014,47 C81.9311227,46.9991258 81.9658068,46.9955799 82,46.9893983 L80.7379882,45.8155032 Z" id="Shape" fill="#FFFFFF" fill-rule="nonzero" opacity="0.2"></path>
                <polygon id="Shape" fill="#FFFFFF" fill-rule="nonzero" opacity="0.2" points="79.2977913 40.7957341 76.3455826 34 76 34.1428945 78.9788652 41 81 40.1811044 80.9809596 40.1133211"></polygon>
            </g>
        </g>
    </g>
</svg>