<?xml version="1.0" encoding="UTF-8"?>
<svg width="501px" height="160px" viewBox="0 0 501 160" version="1.1" xmlns="http://www.w3.org/2000/svg" xmlns:xlink="http://www.w3.org/1999/xlink">
    <!-- Generator: Sketch 47.1 (45422) - http://www.bohemiancoding.com/sketch -->
    <title>ebook</title>
    <desc>Created with Sketch.</desc>
    <defs>
        <rect id="path-1" x="0" y="0" width="441" height="100" rx="8"></rect>
        <filter x="-10.8%" y="-42.5%" width="121.5%" height="195.0%" filterUnits="objectBoundingBox" id="filter-2">
            <feOffset dx="0" dy="5" in="SourceAlpha" result="shadowOffsetOuter1"></feOffset>
            <feGaussianBlur stdDeviation="15" in="shadowOffsetOuter1" result="shadowBlurOuter1"></feGaussianBlur>
            <feColorMatrix values="0 0 0 0 0   0 0 0 0 0   0 0 0 0 0  0 0 0 0.2 0" type="matrix" in="shadowBlurOuter1"></feColorMatrix>
        </filter>
        <linearGradient x1="49.9983096%" y1="100.00595%" x2="49.9983096%" y2="-0.00150157813%" id="linearGradient-3">
            <stop stop-color="#808080" stop-opacity="0.25" offset="0%"></stop>
            <stop stop-color="#808080" stop-opacity="0.12" offset="54%"></stop>
            <stop stop-color="#808080" stop-opacity="0.1" offset="100%"></stop>
        </linearGradient>
    </defs>
    <g id="Page-1" stroke="none" stroke-width="1" fill="none" fill-rule="evenodd">
        <g id="ebook" transform="translate(30.000000, 25.000000)">
            <g id="Rectangle-Copy-3">
                <use fill="black" fill-opacity="1" filter="url(#filter-2)" xlink:href="#path-1"></use>
                <use fill="#FFFFFF" fill-rule="evenodd" xlink:href="#path-1"></use>
            </g>
            <text id="How-Coca-Cola-reduce" font-family="Lato-Bold, Lato" font-size="18" font-weight="bold" letter-spacing="0.200000003" fill="#403F4C">
                <tspan x="110" y="32">How Coca-Cola reduced waste by 23%</tspan>
            </text>
            <text id="Read-about-our-proje" font-family="Lato-Regular, Lato" font-size="16" font-weight="normal" line-spacing="21" letter-spacing="0.0199999996" fill="#8C8C8C">
                <tspan x="110" y="56">Read about our project with Coca-Cola and </tspan>
                <tspan x="110" y="77">how we helped them reduced waste.</tspan>
            </text>
            <g transform="translate(16.000000, 18.000000)">
                <path d="M46.3190504,10.4080733 C41.3185755,10.2382543 36.5552987,8.66157972 32.0075862,6.93621919 C27.4598737,5.21085867 22.9554287,3.29907467 18.0747118,2.38507135 C14.9355076,1.79712041 11.3450863,1.71409781 8.81626142,3.35794524 C6.38169771,4.9429221 5.59515824,7.67134656 5.17252849,10.2058 C4.85420406,12.1123008 4.6672271,14.1184286 5.53952873,15.9034145 C6.14449965,17.1427154 7.21923089,18.1842716 7.96173033,19.3752685 C10.5477299,23.5052654 8.72045504,28.5983244 5.91811845,32.6309584 C4.6046439,34.5231188 3.07869552,36.3292377 2.06500222,38.3414036 C1.05130892,40.3535694 0.581548608,42.6623524 1.46853025,44.7167843 C2.3485582,46.7546117 4.44470906,48.2822275 6.71470214,49.3577475 C11.3265431,51.5427513 16.7589193,52.167685 22.0599481,52.5216632 C33.7908211,53.3058494 45.5835047,52.9662115 57.345283,52.6265736 C61.6982922,52.5005302 66.0698445,52.3729773 70.3517716,51.7155893 C72.7299332,51.3502898 75.1845853,50.7713959 76.911418,49.3720878 C79.1026026,47.5961589 79.645763,44.5884766 78.177762,42.3619615 C75.7138383,38.6266994 68.9061769,37.6991106 67.1816621,33.6898738 C66.2344152,31.483737 67.2079316,29.0262681 68.584762,26.9793837 C71.5393071,22.5897526 76.4911062,18.7382588 76.7522558,13.7206749 C76.9315065,10.2737276 74.5502544,6.82300656 70.8694351,5.1919899 C67.0116831,3.47644113 61.6604332,3.69380939 58.8156018,6.52337046 C55.8842357,9.43897313 50.7338702,10.5575139 46.3190504,10.4080733 Z" id="Shape" fill="#4285F4" fill-rule="nonzero" opacity="0.1"></path>
                <polygon id="Shape" fill="#4285F4" fill-rule="nonzero" points="34.6016419 54 7.67546797 53.8686478 5 47.594419 14.4605051 46.9077696 12.8116427 40.0286916 31.5233984 37.6037891 13.6053937 31.3759661 15.1881757 31 44 35.699576 42.4132847 46.4350592 40.1453122 52.334895"></polygon>
                <path d="M7,50.0227498 C7,50.0227498 8.875,49.7885774 10,50.8228386 C10,50.8228386 9.175,51.330212 7.4,50.627695 L7,50.0227498 Z" id="Shape" fill="#4285F4" fill-rule="nonzero"></path>
                <path d="M6.61901154,50 C6.61901154,50 5.65757175,51.4195122 6.13111672,53 C6.13111672,53 6.91461841,52.6238164 7,50.707604 L6.61901154,50 Z" id="Shape" fill="#4285F4" fill-rule="nonzero"></path>
                <path d="M6,47.5064224 C6,47.5064224 6.8,46.0430852 10,48.0913774 C10,48.0913774 9.57333333,49.0751655 8.16,48.9953989 C6.74666667,48.9156323 6.37333333,48.2774995 6,47.5064224 Z" id="Shape" fill="#4285F4" fill-rule="nonzero"></path>
                <path d="M6.61525968,47.0013081 C6.61525968,47.0013081 5.14277138,46.8437409 5,49.9872078 C5,49.9872078 5.9335052,50.1676223 6.59667406,49.1733729 C7.25984291,48.1791234 6.98781696,47.6213353 6.61525968,47.0013081 Z" id="Shape" fill="#4285F4" fill-rule="nonzero"></path>
                <path d="M6,45.157068 C6,45.157068 6.86419753,43.0305605 10,44.5432308 C10,44.5432308 9.28395062,46.4943562 6.32098765,45.880519 L6,45.157068 Z" id="Shape" fill="#4285F4" fill-rule="nonzero"></path>
                <path d="M5,41.95822 C5,41.95822 6.44262295,39.905714 9,41.8086205 C9,41.8086205 8.10382514,43.7354629 5.21857923,42.6882659 L5,41.95822 Z" id="Shape" fill="#4285F4" fill-rule="nonzero"></path>
                <path d="M5,38.9633116 C5,38.9633116 6.9962963,36.7958605 10,38.9633116 C10,38.9633116 8.10740741,40.8650974 5,39.5169961 L5,38.9633116 Z" id="Shape" fill="#4285F4" fill-rule="nonzero"></path>
                <path d="M5,37.0223369 C5,37.0223369 7.06349206,34.8029251 10,36.9042831 C10,36.9042831 7.67195767,38.8639765 5,37.5417737 L5,37.0223369 Z" id="Shape" fill="#4285F4" fill-rule="nonzero"></path>
                <path d="M5,33.3434226 C5,33.3434226 7.20814132,30.9353369 10,32.5672627 C10,32.5672627 7.6344086,34.6370223 5,33.8011579 L5,33.3434226 Z" id="Shape" fill="#4285F4" fill-rule="nonzero"></path>
                <path d="M5,31.2509663 C5,31.2509663 7.31382979,28.8571033 10,30.6923983 C10,30.6923983 7.2606383,32.7670796 5,31.6898412 L5,31.2509663 Z" id="Shape" fill="#4285F4" fill-rule="nonzero"></path>
                <path d="M6.11400651,29.1186632 C6.11400651,29.1186632 8.72348896,26.0719731 11,27.2856324 C11,27.2856324 8.28103511,30.5214142 6,29.9271263 L6.11400651,29.1186632 Z" id="Shape" fill="#4285F4" fill-rule="nonzero"></path>
                <path d="M6.21454545,26.3905925 C6.21454545,26.3905925 9.24,23.1348074 11,24.2223137 C11,24.2223137 8.77090909,26.7474831 6,27 L6.21454545,26.3905925 Z" id="Shape" fill="#4285F4" fill-rule="nonzero"></path>
                <path d="M7.35990427,23.1512383 C7.35990427,23.1512383 10.0412371,20.4327906 12,21.1076681 C12,21.1076681 9.70618557,23.9276917 7,24 L7.35990427,23.1512383 Z" id="Shape" fill="#4285F4" fill-rule="nonzero"></path>
                <path d="M8.11764706,20.3691689 C8.11764706,20.3691689 10.8235294,17.5648704 12,18.0582192 C12,18.0582192 10.0470588,21.1741064 8,20.9923463 L8.11764706,20.3691689 Z" id="Shape" fill="#4285F4" fill-rule="nonzero"></path>
                <path d="M9,18.7036716 C9,18.7036716 11.5876313,15.7864115 13,16.0124931 C13,16.0124931 11.4308051,18.613239 9,19 L9,18.7036716 Z" id="Shape" fill="#4285F4" fill-rule="nonzero"></path>
                <path d="M10.0781935,15.2609058 C10.0781935,15.2609058 11.9749677,12.9950983 13,13.000008 C13,13.000008 11.5027097,16.0276308 10,15.9998094 L10.0781935,15.2609058 Z" id="Shape" fill="#4285F4" fill-rule="nonzero"></path>
                <path d="M11.2255763,11.2176075 L12.9994607,7 C12.9994607,7 13.0878926,10.8125183 11,12 L11.2255763,11.2176075 Z" id="Shape" fill="#4285F4" fill-rule="nonzero"></path>
                <path d="M12.0185223,7.549816 C12.0185223,7.549816 12.4723182,4.26713916 12.1805922,4 C12.1805922,4 14.1393234,6.72931716 12,9 L12.0185223,7.549816 Z" id="Shape" fill="#4285F4" fill-rule="nonzero"></path>
                <path d="M6.73314866,45.3187313 C6.73314866,45.3187313 4.46722068,43.7433522 3,47.5973861 C3,47.5973861 5.0166205,49.0992268 7,46.3016601 L6.73314866,45.3187313 Z" id="Shape" fill="#4285F4" fill-rule="nonzero"></path>
                <path d="M4.76897133,42.2237944 C4.76897133,42.2237944 2.23102867,40.9188075 1,44.6113595 C1,44.6113595 2.96037099,46.1321016 5,43.1571498 L4.76897133,42.2237944 Z" id="Shape" fill="#4285F4" fill-rule="nonzero"></path>
                <path d="M5,38.9633116 C5,38.9633116 3.0037037,36.7958605 0,38.9633116 C0,38.9633116 1.89259259,40.8650974 5,39.5169961 L5,38.9633116 Z" id="Shape" fill="#4285F4" fill-rule="nonzero"></path>
                <path d="M5,37.0223369 C5,37.0223369 2.93650794,34.8029251 0,36.9042831 C0,36.9042831 2.32804233,38.8639765 5,37.5417737 L5,37.0223369 Z" id="Shape" fill="#4285F4" fill-rule="nonzero"></path>
                <path d="M5,34.3612086 C5,34.3612086 3.73961333,30.87542 1,32.3744469 C1,32.3744469 2.48087207,35.4652713 4.88811189,34.9398771 L5,34.3612086 Z" id="Shape" fill="#4285F4" fill-rule="nonzero"></path>
                <path d="M5,31.3282088 C5,31.3282088 3.75673469,27.7955148 1,29.4333087 C1,29.4333087 2.68816327,32.6713828 4.87755102,31.8735301 L5,31.3282088 Z" id="Shape" fill="#4285F4" fill-rule="nonzero"></path>
                <path d="M6,30.2902326 C6,30.2902326 5.47058824,26.3525581 3,26 C3,26 3.52411765,30.1525581 5.66735294,31 L6,30.2902326 Z" id="Shape" fill="#4285F4" fill-rule="nonzero"></path>
                <path d="M7,26.3983333 C7,26.3983333 6.81639859,22.1483333 5,22 C5,22 5.06120047,25.2258333 6.79521381,27 L7,26.3983333 Z" id="Shape" fill="#4285F4" fill-rule="nonzero"></path>
                <path d="M9,23.1025862 C9,23.1025862 8.2862069,19.4465517 6,19 C6,19 6.28344828,22.5405172 8.77344828,24 L9,23.1025862 Z" id="Shape" fill="#4285F4" fill-rule="nonzero"></path>
                <path d="M8,20.4992009 C8,20.4992009 7.98530575,16.5762742 7.12281709,16 C7.12281709,16 6.58807413,19.551767 7.75019773,21 L8,20.4992009 Z" id="Shape" fill="#4285F4" fill-rule="nonzero"></path>
                <path d="M9,18.7284985 C9,18.7284985 8.88491382,14.5840015 8.03364143,14 C8.03364143,14 7.74257691,17.2798834 8.87273539,19 L9,18.7284985 Z" id="Shape" fill="#4285F4" fill-rule="nonzero"></path>
                <path d="M10,15.2996988 C10,15.2996988 9.99399391,11.8170181 9.24473377,11 C9.24473377,11 8.4999782,14.8149473 9.60885317,16 L10,15.2996988 Z" id="Shape" fill="#4285F4" fill-rule="nonzero"></path>
                <path d="M10.966859,11.2352132 L10.2672951,7 C10.2672951,7 9.31701211,10.4704264 11,12 L10.966859,11.2352132 Z" id="Shape" fill="#4285F4" fill-rule="nonzero"></path>
                <path d="M11.1540157,7.53846154 C11.1540157,7.53846154 8.95569147,4.35384615 9.00068125,4 C9.00068125,4 9.23445168,7.33769231 12,9 L11.1540157,7.53846154 Z" id="Shape" fill="#4285F4" fill-rule="nonzero"></path>
                <path d="M10.8372093,7 C10.8372093,7 8.88372093,2.37444934 8,2 C8,2 10.7906977,3.34361233 11,6.86784141 L10.8372093,7 Z" id="Shape" fill="#4285F4" fill-rule="nonzero"></path>
                <path d="M10.1514259,15 L10,14.9626461 C11.8669595,10.0281213 12.3325237,6.88200915 11.3120446,6.09300356 L11.4202059,6 C12.5027603,6.83245807 12.063531,9.94426563 10.1514259,15 Z" id="Shape" fill="#444053" fill-rule="nonzero"></path>
                <path d="M6.2034188,27 L6,26.9347367 C6.18034188,26.4794293 6.37435897,26.0172116 6.57777778,25.5619042 C8.34871795,21.5969672 9.85641026,17.9084394 10.8230769,15.0767803 L11,15 C10.0316239,17.8370337 8.55042735,21.6668373 6.77777778,25.6371489 C6.57521368,26.0840105 6.38205128,26.5439248 6.2034188,27 Z" id="Shape" fill="#444053" fill-rule="nonzero"></path>
                <path d="M9.80924534,54 C9.78502253,53.9729207 7.34987279,51.1698259 5.65200494,46.3845261 C4.65715529,43.5829295 4.10349319,40.637743 4.01166628,37.6588008 C3.89509398,33.9350097 4.65962654,29.777176 5.96917241,26 L6.11148144,26.1702128 C3.17143743,34.6475822 4.33943122,41.9117988 5.88893434,46.2862669 C7.56863507,51.0282398 9.97653415,53.8003868 10,53.8282398 L9.80924534,54 Z" id="Shape" fill="#444053" fill-rule="nonzero"></path>
                <path d="M50,47 C50,47 48.1738533,49.1896597 49.6238154,52.4998681 L35.043641,58.7119494 L33.6444276,59 L33,56.2302822 L33.430961,52.7348984 L33.430961,50.8245845 L50,47 Z" id="Shape" fill="#D5D6DB" fill-rule="nonzero"></path>
                <polygon id="Shape" fill="#4285F4" fill-rule="nonzero" points="5 46.592951 23.9243738 43 49 47.1601762 33.4250863 53"></polygon>
                <polygon id="Shape" fill="#4285F4" fill-rule="nonzero" points="5 46.592951 23.9243738 43 49 47.1601762 33.4250863 53"></polygon>
                <path d="M4.73356734,47 C4.73356734,47 2.91112404,50.4786304 5.01125076,53.6916029 L33.9074389,60 C33.9074389,60 32.1137751,57.2290072 34,53.3828441 L4.73356734,47 Z" id="Shape" fill="#4285F4" fill-rule="nonzero"></path>
                <path d="M4.73356734,47 C4.73356734,47 2.91112404,50.4786304 5.01125076,53.6916029 L33.9074389,60 C33.9074389,60 32.1137751,57.2290072 34,53.3828441 L4.73356734,47 Z" id="Shape" fill="#000000" fill-rule="nonzero" opacity="0.1"></path>
                <path d="M6,47 C6,47 3.75,50.035514 6,52" id="Shape" fill="#000000" fill-rule="nonzero" opacity="0.1"></path>
                <path d="M33.5513214,58.3865979 L49.4908748,52 C49.4908748,52 50.3823831,52.1804124 49.8059769,52.7938144 C49.2295706,53.4072165 33.8587381,59 33.8587381,59 L5,52.5773196 L33.5513214,58.3865979 Z" id="Shape" fill="#4285F4" fill-rule="nonzero"></path>
                <path d="M33.5513214,58.3865979 L49.4908748,52 C49.4908748,52 50.3823831,52.1804124 49.8059769,52.7938144 C49.2295706,53.4072165 33.8587381,59 33.8587381,59 L5,52.5773196 L33.5513214,58.3865979 Z" id="Shape" fill="#000000" fill-rule="nonzero" opacity="0.1"></path>
                <path d="M33,53 C33,53 30.75,55 33,58" id="Shape" fill="#000000" fill-rule="nonzero" opacity="0.1"></path>
                <rect id="Rectangle-path" fill="#000000" fill-rule="nonzero" opacity="0.1" transform="translate(36.499992, 55.499976) rotate(-18.450000) translate(-36.499992, -55.499976) " x="32.9999923" y="54.9999764" width="7" height="1"></rect>
                <rect id="Rectangle-path" fill="#000000" fill-rule="nonzero" opacity="0.1" transform="translate(37.499973, 55.499922) rotate(-20.820000) translate(-37.499973, -55.499922) " x="32.9999715" y="54.9999224" width="9" height="1"></rect>
                <rect id="Rectangle-path" fill="#000000" fill-rule="nonzero" opacity="0.1" transform="translate(37.999997, 55.499992) rotate(-22.260000) translate(-37.999997, -55.499992) " x="32.9999969" y="54.9999923" width="10" height="1"></rect>
                <rect id="Rectangle-path" fill="#000000" fill-rule="nonzero" opacity="0.1" transform="translate(38.999995, 56.499989) rotate(-24.310000) translate(-38.999995, -56.499989) " x="32.9999952" y="55.9999892" width="12" height="1"></rect>
                <rect id="Rectangle-path" fill="#000000" fill-rule="nonzero" opacity="0.1" transform="translate(39.499983, 56.499958) rotate(-23.610000) translate(-39.499983, -56.499958) " x="32.9999821" y="55.9999579" width="13" height="1"></rect>
                <rect id="Rectangle-path" fill="#000000" fill-rule="nonzero" opacity="0.1" transform="translate(40.999994, 56.499985) rotate(-23.360000) translate(-40.999994, -56.499985) " x="32.9999938" y="55.9999854" width="16" height="1"></rect>
                <polygon id="Shape" fill="#FFFFFF" fill-rule="nonzero" opacity="0.3" points="12 46.761194 25.6713509 44 34 45.5298507 22.7972601 49"></polygon>
                <path d="M50.5630793,47 C50.5630793,47 51.2940042,47.2472046 50.8650878,47.6291257 C50.4361715,48.0110467 34,52 34,52 L50.5630793,47 Z" id="Shape" fill="#4285F4" fill-rule="nonzero"></path>
                <path d="M56,40 C56,40 54.1745723,42.1885797 55.6246031,45.4991428 L41.0437379,51.7104049 L39.6444581,52 L39,49.2306475 L39.437426,45.7365159 L39.437426,43.8240802 L56,40 Z" id="Shape" fill="#D5D6DB" fill-rule="nonzero"></path>
                <polygon id="Shape" fill="#3A3768" fill-rule="nonzero" points="13 39.5921643 31.9236184 36 57 40.1601762 41.4250863 46"></polygon>
                <path d="M12.734039,39 C12.734039,39 10.9109926,42.4786304 13.0109181,45.6916029 L41.9043367,52 C41.9043367,52 40.1116226,49.2266562 42,45.3820604 L12.734039,39 Z" id="Shape" fill="#3A3768" fill-rule="nonzero"></path>
                <path d="M12.734039,39 C12.734039,39 10.9109926,42.4786304 13.0109181,45.6916029 L41.9043367,52 C41.9043367,52 40.1116226,49.2266562 42,45.3820604 L32.8629911,43.3892338 L12.734039,39 Z" id="Shape" fill="#000000" fill-rule="nonzero" opacity="0.1"></path>
                <path d="M14,40 C14,40 11.75,43.0345794 14,45" id="Shape" fill="#000000" fill-rule="nonzero" opacity="0.1"></path>
                <path d="M41.5512483,51.3865979 L57.4915294,45 C57.4915294,45 58.3822668,45.1804124 57.8058621,45.7938144 C57.2294573,46.4072165 41.8586642,52 41.8586642,52 L13,45.5773196 L41.5512483,51.3865979 Z" id="Shape" fill="#3A3768" fill-rule="nonzero"></path>
                <path d="M41.5512483,51.3865979 L57.4915294,45 C57.4915294,45 58.3822668,45.1804124 57.8058621,45.7938144 C57.2294573,46.4072165 41.8586642,52 41.8586642,52 L13,45.5773196 L41.5512483,51.3865979 Z" id="Shape" fill="#000000" fill-rule="nonzero" opacity="0.1"></path>
                <path d="M40,46 C40,46 37.75,48 40,51" id="Shape" fill="#000000" fill-rule="nonzero" opacity="0.1"></path>
                <rect id="Rectangle-path" fill="#000000" fill-rule="nonzero" opacity="0.1" transform="translate(43.499992, 47.499976) rotate(-18.450000) translate(-43.499992, -47.499976) " x="39.9999923" y="46.9999764" width="7" height="1"></rect>
                <rect id="Rectangle-path" fill="#000000" fill-rule="nonzero" opacity="0.1" transform="translate(44.499973, 47.499922) rotate(-20.820000) translate(-44.499973, -47.499922) " x="39.9999715" y="46.9999224" width="9" height="1"></rect>
                <rect id="Rectangle-path" fill="#000000" fill-rule="nonzero" opacity="0.1" transform="translate(44.999997, 47.499992) rotate(-22.260000) translate(-44.999997, -47.499992) " x="39.9999969" y="46.9999923" width="10" height="1"></rect>
                <rect id="Rectangle-path" fill="#000000" fill-rule="nonzero" opacity="0.1" transform="translate(45.999995, 47.499989) rotate(-24.310000) translate(-45.999995, -47.499989) " x="39.9999952" y="46.9999892" width="12" height="1"></rect>
                <rect id="Rectangle-path" fill="#000000" fill-rule="nonzero" opacity="0.1" transform="translate(46.499983, 47.499958) rotate(-23.610000) translate(-46.499983, -47.499958) " x="39.9999821" y="46.9999579" width="13" height="1"></rect>
                <rect id="Rectangle-path" fill="#000000" fill-rule="nonzero" opacity="0.1" transform="translate(47.999994, 47.499985) rotate(-23.360000) translate(-47.999994, -47.499985) " x="39.9999938" y="46.9999854" width="16" height="1"></rect>
                <polygon id="Shape" fill="#FFFFFF" fill-rule="nonzero" opacity="0.45" points="19 39.761194 32.6713509 37 41 38.5298507 29.7972601 42"></polygon>
                <path d="M57.5633357,39 C57.5633357,39 58.293575,39.2472379 57.8653929,39.6285368 C57.4372108,40.0098356 41,44 41,44 L57.5633357,39 Z" id="Shape" fill="#3A3768" fill-rule="nonzero"></path>
                <path d="M57,32 C57,32 55.1735071,35.9298477 56.6237441,39.2394013 L42.0408057,43.7096328 L40.6445498,44 L40,41.2308301 L40.4310427,37.7361377 L40.4310427,35.823828 L57,32 Z" id="Shape" fill="#D5D6DB" fill-rule="nonzero"></path>
                <polygon id="Shape" fill="#4285F4" fill-rule="nonzero" points="13 30.592951 31.9240489 27 57 31.1601762 41.4245983 37"></polygon>
                <path d="M13.7357021,31 C13.7357021,31 11.9102321,34.4786304 14.0102614,37.6916029 L42.9051098,44 C42.9051098,44 41.1115292,41.2266562 43,37.3828441 L13.7357021,31 Z" id="Shape" fill="#4285F4" fill-rule="nonzero"></path>
                <path d="M13.7357021,31 C13.7357021,31 11.9102321,34.4786304 14.0102614,37.6916029 L42.9051098,44 C42.9051098,44 41.1115292,41.2266562 43,37.3828441 L13.7357021,31 Z" id="Shape" fill="#000000" fill-rule="nonzero" opacity="0.1"></path>
                <path d="M15,32 C15,32 12.75,35.035514 15,37" id="Shape" fill="#000000" fill-rule="nonzero" opacity="0.1"></path>
                <path d="M42.5513214,42.4269663 L58.4908748,37.9438202 C58.4908748,37.9438202 59.3823831,38.1123596 58.8059769,38.6853933 C58.2295706,39.258427 42.8587381,43 42.8587381,43 L14,37 L42.5513214,42.4269663 Z" id="Shape" fill="#4285F4" fill-rule="nonzero"></path>
                <path d="M42.5513214,42.4269663 L58.4908748,37.9438202 C58.4908748,37.9438202 59.3823831,38.1123596 58.8059769,38.6853933 C58.2295706,39.258427 42.8587381,43 42.8587381,43 L14,37 L42.5513214,42.4269663 Z" id="Shape" fill="#000000" fill-rule="nonzero" opacity="0.1"></path>
                <path d="M40,37 C40,37 37.75,39 40,42" id="Shape" fill="#000000" fill-rule="nonzero" opacity="0.1"></path>
                <rect id="Rectangle-path" fill="#000000" fill-rule="nonzero" opacity="0.1" transform="translate(44.499992, 38.499976) rotate(-18.450000) translate(-44.499992, -38.499976) " x="40.9999923" y="37.9999764" width="7" height="1"></rect>
                <rect id="Rectangle-path" fill="#000000" fill-rule="nonzero" opacity="0.1" transform="translate(45.499973, 38.499922) rotate(-20.820000) translate(-45.499973, -38.499922) " x="40.9999715" y="37.9999224" width="9" height="1"></rect>
                <rect id="Rectangle-path" fill="#000000" fill-rule="nonzero" opacity="0.1" transform="translate(45.999997, 39.499992) rotate(-22.260000) translate(-45.999997, -39.499992) " x="40.9999969" y="38.9999923" width="10" height="1"></rect>
                <rect id="Rectangle-path" fill="#000000" fill-rule="nonzero" opacity="0.1" transform="translate(46.999995, 39.499989) rotate(-24.310000) translate(-46.999995, -39.499989) " x="40.9999952" y="38.9999892" width="12" height="1"></rect>
                <rect id="Rectangle-path" fill="#000000" fill-rule="nonzero" opacity="0.1" transform="translate(47.499983, 39.499958) rotate(-23.610000) translate(-47.499983, -39.499958) " x="40.9999821" y="38.9999579" width="13" height="1"></rect>
                <rect id="Rectangle-path" fill="#000000" fill-rule="nonzero" opacity="0.1" transform="translate(48.999994, 39.499985) rotate(-23.360000) translate(-48.999994, -39.499985) " x="40.9999938" y="38.9999854" width="16" height="1"></rect>
                <polygon id="Shape" fill="#FFFFFF" fill-rule="nonzero" opacity="0.3" points="20 30.761194 33.6713509 28 42 29.5298507 30.7972601 33"></polygon>
                <path d="M57.5630174,31 C57.5630174,31 58.2940459,31.2472046 57.8650687,31.6291257 C57.4360915,32.0110467 41,36 41,36 L57.5630174,31 Z" id="Shape" fill="#4285F4" fill-rule="nonzero"></path>
                <path d="M24.9341281,8.00472225 C24.9341281,8.00472225 21.6471561,7.78501738 22.0312128,10.3428042 C22.0312128,10.3428042 21.9542284,10.7946863 22.3235803,11 C22.3235803,11 22.3296352,10.808118 22.6609274,10.8743173 C22.7791487,10.8968424 22.899406,10.9032861 23.0190344,10.8935055 C23.1802939,10.8812602 23.333599,10.8112244 23.4558557,10.6939482 L23.4558557,10.6939482 C23.4558557,10.6939482 24.3805328,10.2698891 24.7403697,8.59284052 C24.7403697,8.59284052 25.0067874,8.22730535 24.9998675,8.13328317 L24.4428122,8.39616149 C24.4428122,8.39616149 24.6322456,8.84036828 24.4834669,9.2097411 C24.4834669,9.2097411 24.465302,8.41247146 24.358043,8.43070025 C24.3364181,8.43070025 24.0700004,8.58516524 24.0700004,8.58516524 C24.0700004,8.58516524 24.3961026,9.35940905 24.1495797,9.92162326 C24.1495797,9.92162326 24.2429989,8.9679698 23.9679313,8.64081102 L23.5769546,8.89409524 C23.5769546,8.89409524 23.9584164,9.6932837 23.6997836,10.3456824 C23.6997836,10.3456824 23.766388,9.3450179 23.4947803,8.95549747 L23.1401333,9.26250864 C23.1401333,9.26250864 23.4991053,10.0501842 23.2802621,10.5912914 C23.2802621,10.5912914 23.2517174,9.42656774 23.064014,9.33830203 C23.064014,9.33830203 22.7534816,9.64147556 22.706772,9.76619885 C22.706772,9.76619885 22.9524299,10.3418448 22.7993262,10.6402213 C22.7993262,10.6402213 22.706772,9.86405866 22.6263277,9.86022102 C22.6263277,9.86022102 22.3175254,10.3744647 22.2855206,10.7236899 C22.3004762,10.3981153 22.3920299,10.0825584 22.5510734,9.80841289 C22.3730989,9.8457605 22.2088997,9.94015714 22.0787874,10.0799259 C22.0787874,10.0799259 22.126362,9.71630953 22.6280577,9.68464901 C22.6280577,9.68464901 22.8832305,9.29416917 22.9515649,9.27114333 C22.9515649,9.27114333 22.4524642,9.22413225 22.1505818,9.37284078 C22.1505818,9.37284078 22.4169995,9.03033144 23.0423892,9.1809588 L23.3883862,8.86435353 C23.3883862,8.86435353 22.7327218,8.76841254 22.4541942,8.87490704 C22.4541942,8.87490704 22.7751065,8.57173351 23.4826704,8.79239779 L23.8641322,8.54007298 C23.8641322,8.54007298 23.3044819,8.406715 22.9714598,8.4546855 C22.9714598,8.4546855 23.3226468,8.24457472 23.9757162,8.47195487 L24.2473239,8.33667808 C24.2473239,8.33667808 23.8381824,8.24745295 23.7179484,8.23306181 C23.5977144,8.21867066 23.5916595,8.18221308 23.5916595,8.18221308 C23.8513422,8.13490929 24.1177597,8.16811131 24.3615029,8.27815407 C24.3615029,8.27815407 24.945373,8.04501746 24.9341281,8.00472225 Z" id="Shape" fill="#4285F4" fill-rule="nonzero"></path>
                <path d="M64.9383642,16.0047222 C64.9383642,16.0047222 61.6466467,15.7850174 62.0312579,18.3428042 C62.0312579,18.3428042 61.9541624,18.7946863 62.3240475,19 C62.3240475,19 62.3301112,18.808118 62.6618816,18.8743173 C62.780325,18.8963177 62.900699,18.9027583 63.0205056,18.8935055 C63.1805296,18.880448 63.3324558,18.8104491 63.4536263,18.6939482 L63.4536263,18.6939482 C63.4536263,18.6939482 64.3805047,18.2698891 64.7399949,16.5928405 C64.7399949,16.5928405 65.0067972,16.2273053 64.9998673,16.1332832 L64.4437403,16.3961615 C64.4437403,16.3961615 64.6334472,16.8403683 64.4844536,17.2097411 C64.4844536,17.2097411 64.4662626,16.4124715 64.3597149,16.4307002 C64.3380588,16.4307002 64.0703902,16.5851652 64.0703902,16.5851652 C64.0703902,16.5851652 64.3969633,17.359409 64.1509507,17.9216233 C64.1509507,17.9216233 64.2445048,16.9679698 63.9681737,16.640811 L63.5766326,16.8940952 C63.5766326,16.8940952 63.9586451,17.6932837 63.6996389,18.3456824 C63.6996389,18.3456824 63.7663395,17.3450179 63.4943397,16.9554975 L63.1400469,17.2625086 C63.1400469,17.2625086 63.4986709,18.0501842 63.2795118,18.5912914 C63.2795118,18.5912914 63.2509258,17.4265677 63.0629514,17.338302 C63.0629514,17.338302 62.752837,17.6414756 62.7051937,17.7661988 C62.7051937,17.7661988 62.9512063,18.3418448 62.7987478,18.6402213 C62.7987478,18.6402213 62.7051937,17.8640587 62.6254995,17.860221 C62.6254995,17.860221 62.3162513,18.3744647 62.2842004,18.7236899 C62.2991967,18.3979776 62.3912027,18.082347 62.5510027,17.8084129 C62.3725464,17.8458516 62.2078544,17.9402222 62.0771687,18.0799259 C62.0771687,18.0799259 62.1256782,17.7163095 62.627232,17.684649 C62.627232,17.684649 62.8827732,17.2941692 62.9512063,17.2701839 C62.9512063,17.2701839 62.4522512,17.2241322 62.1490667,17.3728408 C62.1490667,17.3728408 62.4158691,17.0303314 63.0421616,17.1809588 L63.3886582,16.8643535 C63.3886582,16.8643535 62.7311809,16.7684125 62.4531174,16.874907 C62.4531174,16.874907 62.7736268,16.5717335 63.4830785,16.7923978 L63.8642248,16.540073 C63.8642248,16.540073 63.3037665,16.406715 62.9702636,16.4546855 C62.9702636,16.4546855 63.3219576,16.2445747 63.9759699,16.4719549 L64.248836,16.3366781 C64.248836,16.3366781 63.8382375,16.247453 63.71783,16.2330618 C63.5974224,16.2186707 63.5913587,16.1822131 63.5913587,16.1822131 C63.8514021,16.1343013 64.1183542,16.1675219 64.3623136,16.2781541 C64.3623136,16.2781541 64.9487591,16.0450175 64.9383642,16.0047222 Z" id="Shape" fill="#4285F4" fill-rule="nonzero" opacity="0.1"></path>
                <path d="M30,20.7792657 C30,20.7792657 28.4220204,18.0150128 26.4133362,19.3774118 C26.4133362,19.3774118 25.9797729,19.4998023 26.0007364,19.8838829 C26.0007364,19.8838829 26.1674915,19.8106096 26.2866023,20.1069234 C26.3310961,20.2116696 26.3899398,20.3116573 26.4619334,20.4048475 C26.5594284,20.5311706 26.7029119,20.6272624 26.8707216,20.6786156 L26.8707216,20.6786156 C26.8707216,20.6786156 27.7349894,21.2567495 29.3825297,20.8622013 C29.3825297,20.8622013 29.8427738,20.929033 29.9180518,20.8823313 L29.3920586,20.5385108 C29.3920586,20.5385108 29.1061927,20.8742793 28.7078863,20.9040718 C28.7078863,20.9040718 29.3901528,20.563472 29.3167806,20.4845624 C29.3015344,20.4684584 29.0309147,20.3130547 29.0309147,20.3130547 C29.0309147,20.3130547 28.534461,20.8952145 27.9150849,20.925007 C27.9150849,20.925007 28.7917402,20.6109788 28.9270501,20.2526647 L28.4982513,20.0384814 C28.4982513,20.0384814 28.0094206,20.6762 27.3052377,20.7325641 C27.3052377,20.7325641 28.2085739,20.3774707 28.400104,19.9974161 L27.9446244,19.8363761 C27.9446244,19.8363761 27.453888,20.4499387 26.86691,20.4942248 C26.86691,20.4942248 27.8617233,19.9941953 27.8369482,19.8049732 C27.8369482,19.8049732 27.4071965,19.6777516 27.2737925,19.6898296 C27.2737925,19.6898296 26.9097899,20.1238326 26.5667509,20.1238326 C26.5667509,20.1238326 27.1889856,19.7300896 27.1508701,19.6664788 C27.1508701,19.6664788 26.5391172,19.6262188 26.2170416,19.7469988 C26.5072652,19.625106 26.8302134,19.5695831 27.1537288,19.5859587 C27.0253816,19.4566341 26.855163,19.361769 26.6639453,19.3129958 C26.6639453,19.3129958 27.0050785,19.2034886 27.3014262,19.5972315 C27.3014262,19.5972315 27.7778693,19.6447384 27.8340896,19.6906348 C27.8340896,19.6906348 27.6063498,19.2670994 27.3157194,19.0827085 C27.3157194,19.0827085 27.7559529,19.1575921 27.9570119,19.7268688 L28.4191617,19.8814673 C28.4191617,19.8814673 28.1533065,19.3081646 27.9084147,19.1269945 C27.9084147,19.1269945 28.3429308,19.2630734 28.5325552,19.9321949 L28.9556367,20.1383262 C28.9556367,20.1383262 28.7717296,19.6286344 28.55066,19.378217 C28.55066,19.378217 28.9213328,19.5779067 29.0747475,20.2011318 L29.3386969,20.3670031 C29.3386969,20.3670031 29.195764,19.9974161 29.1481197,19.8943505 C29.1004754,19.7912848 29.1242975,19.7703496 29.1242975,19.7703496 C29.3055681,19.9615237 29.420377,20.1915161 29.455902,20.4346399 C29.455902,20.4346399 29.9656961,20.8034217 30,20.7792657 Z" id="Shape" fill="#4285F4" fill-rule="nonzero" opacity="0.1"></path>
                <path d="M59,12.7789686 C59,12.7789686 57.4229484,10.0151773 55.4132797,11.3773488 C55.4132797,11.3773488 54.9806625,11.4997188 55.0006734,11.8837353 C55.0006734,11.8837353 55.168384,11.8112794 55.2865438,12.1067386 C55.330957,12.2118962 55.3901421,12.3121725 55.4628305,12.405418 C55.5599766,12.5314829 55.7031772,12.6273092 55.8706723,12.6783354 L55.8706723,12.6783354 C55.8706723,12.6783354 56.7359066,13.2563727 58.38252,12.8626955 C58.38252,12.8626955 58.8427713,12.9287109 58.9190034,12.8820171 L58.3958606,12.5374488 C58.3958606,12.5374488 58.1099902,12.8739664 57.7126304,12.9037538 C57.7126304,12.9037538 58.3939548,12.5624059 58.3205814,12.4835094 C58.305335,12.4674081 58.034711,12.3120304 58.034711,12.3120304 C58.034711,12.3120304 57.5392024,12.894093 56.9188636,12.9238805 C56.9188636,12.9238805 57.7964857,12.6099048 57.9317977,12.2524555 L57.4963218,12.0399181 C57.4963218,12.0399181 57.0084364,12.6767252 56.3032894,12.7338849 C56.3032894,12.7338849 57.2066398,12.3780458 57.3991259,11.9980547 L56.9426862,11.8370415 C56.9426862,11.8370415 56.451942,12.4513068 55.8659078,12.4947803 C55.8659078,12.4947803 56.8597838,11.9948344 56.8350083,11.806449 C56.8350083,11.806449 56.4062028,11.6784435 56.2727966,11.6913245 C56.2727966,11.6913245 55.9087883,12.12445 55.564791,12.12445 C55.564791,12.12445 56.1879884,11.7307728 56.1498723,11.6671726 C56.1498723,11.6671726 55.5381097,11.6269193 55.2150762,11.7476792 C55.5052898,11.6257709 55.8282545,11.5702553 56.1517781,11.586666 C56.0239097,11.4572806 55.853958,11.362397 55.6629398,11.3137486 C55.6629398,11.3137486 56.0040784,11.2042597 56.3004307,11.5979369 C56.3004307,11.5979369 56.7768814,11.6462408 56.8331025,11.6921296 C56.8331025,11.6921296 56.6053591,11.2678599 56.3137713,11.0834998 C56.3137713,11.0834998 56.7540117,11.159176 56.9550739,11.7315778 L57.4181839,11.8861505 C57.4181839,11.8861505 57.1523245,11.3121385 56.9074288,11.1309987 C56.9074288,11.1309987 57.3419518,11.2670548 57.5306263,11.9360646 L57.9546673,12.1421615 C57.9546673,12.1421615 57.7698045,11.6333598 57.5487314,11.3821792 C57.5487314,11.3821792 57.9203629,11.5818356 58.0728271,12.2049566 L58.3367807,12.3708002 C58.3367807,12.3708002 58.1947984,12.0012749 58.1462005,11.8982265 C58.0976025,11.795178 58.1223779,11.7750514 58.1223779,11.7750514 C58.3031356,11.9663707 58.4175911,12.1962738 58.4530347,12.4392308 C58.4530347,12.4392308 58.9704601,12.8047307 59,12.7789686 Z" id="Shape" fill="#4285F4" fill-rule="nonzero" opacity="0.1"></path>
                <path d="M63,26.7794609 C63,26.7794609 61.4240747,24.0152231 59.4129845,25.3772179 C59.4129845,25.3772179 58.9806763,25.4995721 59.0006729,25.8835387 C59.0006729,25.8835387 59.1682638,25.8110922 59.2863391,26.106513 C59.3304116,26.2116222 59.3892344,26.3118848 59.4615478,26.4051538 C59.5586244,26.5312023 59.7017228,26.6270161 59.8690982,26.6780357 L59.8690982,26.6780357 C59.8690982,26.6780357 60.7337147,27.256803 62.3801043,26.8623719 C62.3801043,26.8623719 62.8390747,26.9291837 62.9152524,26.881691 L62.3896265,26.5379724 C62.3896265,26.5379724 62.1039603,26.8744463 61.705932,26.9042299 C61.705932,26.9042299 62.3867698,26.5629262 62.3134489,26.48404 C62.2982133,26.4679408 62.0277826,26.3125832 62.0277826,26.3125832 C62.0277826,26.3125832 61.5326279,26.8945703 60.9127322,26.9251589 C60.9127322,26.9251589 61.7897274,26.6104189 61.9249428,26.253016 L61.4954912,26.0388963 C61.4954912,26.0388963 61.0079542,26.6764258 60.3033109,26.7327731 C60.3033109,26.7327731 61.2060161,26.3769801 61.3983647,25.9970383 L60.942251,25.836046 C60.942251,25.836046 60.4518573,26.4494266 59.8662416,26.4936995 C59.8662416,26.4936995 60.86036,25.9938184 60.8356023,25.8046525 C60.8356023,25.8046525 60.4061507,25.6766636 60.2728398,25.689543 C60.2728398,25.689543 59.9090915,26.1226123 59.5653398,26.1226123 C59.5653398,26.1226123 60.1880922,25.7289861 60.1500033,25.6653942 C60.1500033,25.6653942 59.5386776,25.6251461 59.2158748,25.7458903 C59.5062526,25.6240739 59.8292683,25.5685735 60.15286,25.584898 C60.0249024,25.4553275 59.8546936,25.3604298 59.6634186,25.3120161 C59.6634186,25.3120161 60.0043136,25.2017363 60.3004542,25.5961675 C60.3004542,25.5961675 60.7765646,25.6436602 60.8327456,25.689543 C60.8327456,25.689543 60.6051649,25.2661333 60.3147375,25.0809921 C60.3147375,25.0809921 60.7546635,25.1566585 60.9555821,25.7289861 L61.4174091,25.8835387 C61.4174091,25.8835387 61.1517396,25.3096012 60.9070188,25.1292898 C60.9070188,25.1292898 61.3412315,25.2645233 61.5297712,25.9342513 L61.9535094,26.1395165 C61.9535094,26.1395165 61.7687786,25.6307808 61.5478634,25.3796328 C61.5478634,25.3796328 61.9192295,25.5792633 62.072537,26.2031084 L62.3363021,26.3641007 C62.3363021,26.3641007 62.193469,25.9946234 62.145858,25.8915883 C62.098247,25.7885533 62.1220525,25.7684292 62.1220525,25.7684292 C62.3031157,25.9595053 62.4175435,26.1894871 62.4524731,26.4325225 C62.4524731,26.4325225 62.9704812,26.8036097 63,26.7794609 Z" id="Shape" fill="#4285F4" fill-rule="nonzero" opacity="0.1"></path>
                <ellipse id="Oval" fill="#4285F4" fill-rule="nonzero" opacity="0.1" cx="16" cy="59.25" rx="2" ry="1"></ellipse>
                <ellipse id="Oval" fill="#4285F4" fill-rule="nonzero" opacity="0.1" cx="4" cy="57.25" rx="2" ry="1"></ellipse>
                <ellipse id="Oval" fill="#4285F4" fill-rule="nonzero" opacity="0.1" cx="25" cy="62.25" rx="2" ry="1"></ellipse>
                <ellipse id="Oval" fill="#4285F4" fill-rule="nonzero" opacity="0.1" cx="70" cy="57.25" rx="2" ry="1"></ellipse>
                <ellipse id="Oval" fill="#4285F4" fill-rule="nonzero" opacity="0.1" cx="55" cy="56.25" rx="2" ry="1"></ellipse>
                <ellipse id="Oval" fill="#4285F4" fill-rule="nonzero" opacity="0.1" cx="45.5" cy="60.5" rx="2.5" ry="1"></ellipse>
                <path d="M45.7364002,57 C45.7364002,57 42.987037,58.6552581 44.4074687,60.6050099 C44.4074687,60.6050099 44.541088,61.0281332 44.9274222,60.9985145 C44.9274222,60.9985145 44.8504459,60.8343427 45.1452798,60.7031745 C45.250188,60.6559179 45.3498941,60.5942721 45.4422924,60.519539 C45.5671484,60.4189542 45.6604588,60.273675 45.7080787,60.1057245 L45.7080787,60.1057245 C45.7080787,60.1057245 46.2701513,59.2290132 45.8344361,57.6067587 C45.8344361,57.6067587 45.8910791,57.1480931 45.841698,57.0736234 L45.5076497,57.607605 C45.5076497,57.607605 45.8525909,57.8775576 45.8925315,58.2744472 C45.8925315,58.2744472 45.5294354,57.6084512 45.4568162,57.6820746 C45.44084,57.6973071 45.2912444,57.9740297 45.2912444,57.9740297 C45.2912444,57.9740297 45.8896267,58.4470815 45.9339244,59.0614564 C45.9339244,59.0614564 45.5969713,58.2008237 45.2331491,58.078118 L45.024732,58.5113962 C45.024732,58.5113962 45.6783048,58.9751392 45.750924,59.6724463 C45.750924,59.6724463 45.3711256,58.7881188 44.983339,58.6095608 L44.8301125,59.0673801 C44.8301125,59.0673801 45.4604472,59.5345082 45.5185426,60.1150332 C45.5185426,60.1150332 44.9913271,59.1443885 44.801791,59.1748534 C44.801791,59.1748534 44.6826955,59.6047466 44.6986717,59.7376073 C44.6986717,59.7376073 45.1438274,60.0845684 45.1518156,60.4256057 C45.1518156,60.4256057 44.7407909,59.8205395 44.6776121,59.860313 C44.6776121,59.860313 44.6514692,60.4687643 44.7778266,60.7852604 C44.7778266,60.7852604 44.559969,60.3333648 44.5955524,59.860313 C44.4681948,59.9915565 44.376563,60.1633465 44.3319447,60.354521 C44.3319447,60.354521 44.2135754,60.0202536 44.6035406,59.7122199 C44.6035406,59.7122199 44.6405764,59.2391681 44.6856003,59.1807771 C44.6856003,59.1807771 44.2636827,59.4211111 44.0843132,59.7156049 C44.0843132,59.7156049 44.1503967,59.276403 44.7226361,59.0580714 L44.8678745,58.5943283 C44.8678745,58.5943283 44.2956351,58.8769747 44.1191705,59.1257711 C44.1191705,59.1257711 44.2462541,58.6899542 44.9128984,58.4809313 L45.1104226,58.0578081 C45.1104226,58.0578081 44.6020882,58.2575222 44.3537305,58.4809313 C44.3537305,58.4809313 44.5461714,58.1060441 45.1714227,57.9334098 L45.3319112,57.6668422 C45.3319112,57.6668422 44.9630056,57.8200128 44.8598864,57.8750188 C44.7567671,57.9300249 44.7364337,57.902945 44.7364337,57.902945 C44.9249258,57.7171493 45.1539244,57.5958774 45.3979947,57.5525989 C45.3979947,57.5525989 45.7618169,57.0287724 45.7364002,57 Z" id="Shape" fill="#4285F4" fill-rule="nonzero"></path>
                <path d="M55.7990066,28.5659107 C55.2822618,27.2204566 52.4377949,27.0940127 51.2036123,27.4370013 C50.3265684,27.6815604 48.4776649,27.9571627 47.4900027,28.095721 L47.4260022,28.0374206 C47.5540032,28.0010774 47.5571638,27.9117338 47.5413612,27.7792327 C47.5321627,27.6046037 47.534802,27.4295868 47.5492625,27.2552855 C48.1545018,27.435487 48.6933703,27.009212 48.6933703,27.009212 L48.6933703,27.009212 C49.404487,26.7063523 49.2132756,25.4101129 49.3491779,25.0557671 C49.4511046,24.7907649 49.5609327,23.2295233 49.6099207,22.4511739 L49.6201924,22.4511739 L49.6257233,22.1899575 C49.6328345,22.0771422 49.635995,22.0112703 49.635995,22.0112703 C49.635995,22.0112703 49.7055264,20.1077972 49.8414287,19.7224083 C49.9678495,19.3680625 50.0705663,17.5827047 50.0863689,17.2995309 C50.0863689,17.2753022 50.0863689,17.2624306 50.0863689,17.2624306 L50.0760972,17.0973721 C50.0832084,16.9769854 50.0863689,16.84297 50.0855788,16.7021402 C50.0855788,16.0547777 50.0152573,15.239328 50.0065658,15.1075841 C50.0065658,15.0886553 50.0065658,15.0659409 50.0065658,15.0386835 C50.0120967,14.762324 49.9757508,13.3782553 48.7470991,12.8550653 C48.2943548,12.6612351 47.7499554,12.4303046 47.2229389,12.2054313 C47.0870366,11.0810647 46.7765156,9.96275541 46.80338,8.83006025 C46.80338,8.65970168 46.8191826,8.48934312 46.8365655,8.3197417 C46.8365655,8.3689564 46.8310346,8.41892824 46.8302444,8.47117154 C46.8302444,8.58095817 46.8302444,8.69150195 46.8302444,8.80128858 C46.8768621,7.38466247 47.4354838,5.96046487 47.3833352,4.57412472 C47.3785945,4.70965443 47.3683228,4.84594128 47.3548906,4.98222813 C47.3821703,4.51331227 47.3309543,4.04323459 47.2031857,3.5898308 C47.1557779,3.43007232 47.0917774,3.2650138 46.9550849,3.15825576 C46.8258793,3.07227596 46.6776994,3.01604814 46.5220939,2.99395439 C46.1482063,2.90224617 45.7683699,2.83445804 45.3850972,2.79103841 C45.3268561,2.62020569 45.2404266,2.45941879 45.1290952,2.31479158 C44.3279037,1.26083993 43.1411289,0.270488806 41.7378586,0.0433440525 C41.033853,-0.0702283239 40.2239701,0.0244153231 39.7451515,0.506719349 C39.6951479,0.549088574 39.6481617,0.594619412 39.6045084,0.6430062 C39.3469261,0.93753723 39.2363079,1.32444046 38.9724046,1.61821434 C38.9550218,1.63790022 38.9352685,1.6560718 38.9163054,1.67500053 C38.3995606,2.1179328 37.5944184,2.210305 37.0199941,2.60780831 C36.9187781,2.67916651 36.8239018,2.75843321 36.7363376,2.84479601 C36.5048789,3.06459039 36.2973257,3.30635314 36.1168759,3.56635917 C35.8585035,3.91464779 35.5930199,4.27732225 35.5108464,4.69299715 C35.3457093,5.52586124 35.9375165,6.31556783 36.0473445,7.15373197 C36.2922847,9.02919048 34.1265392,10.6934044 34.5366165,12.543877 C34.6460401,12.9984825 34.8876747,13.4140624 35.2335109,13.7424441 C34.3888623,14.4753645 33.6698442,15.1863276 33.6698442,15.1863276 L33.6698442,15.2287279 L33.5363123,15.2287279 L33.5497445,15.3801578 L33.5363123,15.3801578 L33.6097944,16.2016646 L33.5363123,17.3979603 C33.5363123,17.3979603 33.5363123,17.4108319 33.5363123,17.4350606 L33.5363123,17.4411178 L33.5363123,17.4736752 C33.5363123,17.4736752 33.5363123,17.4865468 33.5363123,17.5107756 L33.5410531,17.5107756 C33.5655471,17.9491649 33.6627331,19.5255495 33.778092,19.857938 C33.9139943,20.2433269 33.9827356,22.1468 33.9827356,22.1468 C33.9827356,22.1468 34.1328602,24.836951 34.2703428,25.1928111 C34.4078254,25.5486712 34.2126633,26.8411249 34.9261504,27.146256 L34.9261504,27.146256 C35.1348778,27.2996809 35.3820121,27.397855 35.6427981,27.4309441 C35.6064521,27.7141179 35.6293659,27.9193053 35.7470952,27.983663 C35.7974865,28.0120503 35.854587,28.0276838 35.9130224,28.0290919 C35.8646148,28.0978894 35.8215676,28.1700142 35.7842313,28.2448794 C35.5010349,28.2165467 35.2227689,28.1537005 34.9561754,28.0578636 C34.1897496,27.7550039 31.6463221,27.0735697 30.9075508,27.5528451 C30.1687795,28.0321205 28.3909877,28.4667241 29.2119325,30.3959402 C30.0328772,32.3251563 30.4153,32.3736139 30.4153,32.3736139 C30.6679962,32.5493991 30.8896712,32.7628437 31.0718978,33.0058335 C31.3184183,33.3609364 33.6153253,34.1733575 34.1897496,34.1733575 C34.4339035,34.1697531 34.6780434,34.1813874 34.9206195,34.2081863 C34.9206195,34.2081863 34.2972072,34.7321336 34.3801708,35.0365075 C34.4631344,35.3408815 34.1905397,37.7773876 34.1905397,37.7773876 C34.1905397,37.7773876 34.8226435,38.3876498 35.0928678,37.5873431 L35.1023494,37.5994575 C35.1529177,37.6653295 35.4263025,37.9628891 35.940677,37.5873431 C36.1511913,37.4342988 36.3748003,37.2985404 36.6091267,37.1815112 L39.0996155,36.8438226 C39.3592671,36.828271 39.6196179,36.8265016 39.8794735,36.8385226 C40.2745384,36.8695657 40.662492,36.6454495 40.9066421,36.4720624 C41.4225968,36.6598354 42.002552,36.8650228 42.2783073,36.9399806 C42.8377191,37.0914104 45.4088011,37.7524016 46.0100898,37.5456999 C46.1350775,37.4980771 46.2462129,37.4222308 46.334043,37.3246124 L46.9076772,37.3420268 L46.6390331,37.3935129 C46.6390331,37.3935129 47.1620989,37.4018416 47.8732156,37.4109274 L47.8431907,37.4275846 L48.7352471,37.4200132 C50.0405414,37.4313704 51.5070221,37.4351561 51.6998138,37.3935129 C52.0016433,37.3291553 53.5700508,37.3745842 54.0322766,37.3935129 L54.1610678,37.3935129 C54.1610678,37.3935129 55.8843406,37.064153 55.1732239,35.3885819 C54.6264542,34.1014283 52.9458483,33.7273966 52.1999659,33.6244243 C52.4101404,33.5842954 52.5910801,33.5532523 52.7111798,33.5350807 C53.2318752,33.4593658 54.2432413,33.0050763 54.3254147,32.8498607 C54.4075882,32.6946451 55.2553974,32.2441414 55.4742633,31.9874678 C55.6931292,31.7307942 56.3181218,29.9113648 55.7990066,28.5659107 Z M41.5253137,32.3312135 L41.4407698,32.3577138 L41.3838805,32.3758853 L41.2748426,32.4788576 C41.1879283,32.4228286 41.094693,32.363771 40.997507,32.303199 C41.1689652,32.313042 41.3451641,32.3228849 41.5253137,32.3312135 Z" id="Shape" fill="url(#linearGradient-3)" fill-rule="nonzero"></path>
                <path d="M46,26.0449731 C46,26.0449731 47.4926829,29.3028903 48.3414634,28.9770985 C49.1902439,28.6513068 48.96,27.266692 49.1219512,26.8871447 C49.2839024,26.5075973 49.4634146,23.6292275 49.4634146,23.6292275 C49.4634146,23.6292275 49.5453659,21.5930293 49.7073171,21.1809028 C49.857561,20.8021699 49.9795122,18.892216 50,18.5916731 C50,18.5656098 50,18.5517636 50,18.5517636 L49.8390244,16.1897737 L48.9278049,16 L46.8146341,16.6515834 L46.5219512,18.0467865 L46.4078049,18.5916731 L46.3590244,18.8237997 L46,26.0449731 Z" id="Shape" fill="#BE6F72" fill-rule="nonzero"></path>
                <path d="M46,25 C46,25 47.1187739,26.0226786 47.4559387,26.1125374 C47.7931034,26.2023962 48,27 48,27" id="Shape" fill="#000000" fill-rule="nonzero" opacity="0.1"></path>
                <path d="M38,26.0449731 C38,26.0449731 36.5073171,29.3028903 35.6585366,28.9770985 C34.8097561,28.6513068 35.04,27.266692 34.8780488,26.8871447 C34.7160976,26.5075973 34.5365854,23.6292275 34.5365854,23.6292275 C34.5365854,23.6292275 34.4546341,21.5930293 34.2926829,21.1809028 C34.142439,20.8021699 34.0204878,18.892216 34,18.5916731 C34,18.5656098 34,18.5517636 34,18.5517636 L34.1619512,16.1897737 L35.0731707,16 L37.1863415,16.6515834 L37.4790244,18.0467865 L37.5931707,18.5916731 L37.6419512,18.8237997 L38,26.0449731 Z" id="Shape" fill="#BE6F72" fill-rule="nonzero"></path>
                <rect id="Rectangle-path" fill="#3E373A" fill-rule="nonzero" x="41" y="8" width="3" height="5"></rect>
                <rect id="Rectangle-path" fill="#000000" fill-rule="nonzero" opacity="0.1" x="41" y="8" width="3" height="5"></rect>
                <path d="M36.6761111,28.2338463 C36.6761111,28.2338463 35.7258681,29.1766619 36.0784433,29.3478825 C36.4310184,29.5191031 38.7117646,32.7282032 38.7117646,32.7282032 C38.7117646,32.7282032 46.2029693,33.5607909 47.6157128,32.3115419 C49.0284563,31.062293 48.9999571,28.8305464 48.9999571,28.8305464 C48.9999571,28.8305464 47.8648768,29.0510021 47.741109,28.9312212 C47.6173413,28.8114403 46.9374331,28.2338463 46.9374331,28.2338463 C46.9374331,28.2338463 37.3275202,27.7076921 36.6761111,28.2338463 Z" id="Shape" fill="#4B4B5B" fill-rule="nonzero"></path>
                <path d="M36.6761111,28.2338463 C36.6761111,28.2338463 35.7258681,29.1766619 36.0784433,29.3478825 C36.4310184,29.5191031 38.7117646,32.7282032 38.7117646,32.7282032 C38.7117646,32.7282032 46.2029693,33.5607909 47.6157128,32.3115419 C49.0284563,31.062293 48.9999571,28.8305464 48.9999571,28.8305464 C48.9999571,28.8305464 47.8648768,29.0510021 47.741109,28.9312212 C47.6173413,28.8114403 46.9374331,28.2338463 46.9374331,28.2338463 C46.9374331,28.2338463 37.3275202,27.7076921 36.6761111,28.2338463 Z" id="Shape" fill="#000000" fill-rule="nonzero" opacity="0.02"></path>
                <path d="M49.9977587,14.8436576 L47.5855515,16.6282168 L46.8562608,16.6772922 L46.5885058,16.6951378 L42.0913473,17 L37.4277466,16.6847279 L36.7338349,16.6378832 L35.8493589,16.5783979 L34,14.9425519 C34,14.9425519 35.3090245,13.6457722 36.455627,12.7705946 C36.9075139,12.4248362 37.3344745,12.1452553 37.6456493,12.0352074 L37.6987178,12.0181054 C37.8944427,11.9475207 38.0691859,11.8348634 38.2084977,11.6894491 C39.1138795,10.8261686 39.9509154,8.69585095 39.9509154,8.69585095 C39.9509154,8.69585095 43.9447266,6.78785968 43.4622851,9.29070403 C42.9798437,11.7935484 45.2577714,11.1749012 45.2577714,11.1749012 L46.008772,11.4916604 L46.3054735,11.6173232 L47.0621025,11.9378003 L48.7691412,12.6620339 C50.1087203,13.2323493 49.9977587,14.8436576 49.9977587,14.8436576 Z" id="Shape" fill="#BE6F72" fill-rule="nonzero"></path>
                <circle id="Oval" fill="#000000" fill-rule="nonzero" opacity="0.1" cx="42.5" cy="8.5" r="3.5"></circle>
                <path d="M49.9234812,18 L34,18 C34,17.9771036 34,17.9649399 34,17.9649399 L34.1317105,15.8899542 C34.1317105,15.8899542 35.4234254,14.6421007 36.5548662,13.7999428 L46.5521687,13.4421866 L47.0171226,13 L48.7015887,13.696909 C50.0242477,14.2449914 49.9179272,15.7955066 49.9179272,15.7955066 C49.9179272,15.7955066 50.0988307,17.592158 49.9234812,18 Z" id="Shape" fill="#000000" fill-rule="nonzero" opacity="0.1"></path>
                <path d="M49.9234812,18 L34,18 C34,17.9771036 34,17.9649399 34,17.9649399 L34.1317105,15.8899542 C34.1317105,15.8899542 35.4234254,14.6421007 36.5548662,13.7999428 L46.5521687,13.4421866 L47.0171226,13 L48.7015887,13.696909 C50.0242477,14.2449914 49.9179272,15.7955066 49.9179272,15.7955066 C49.9179272,15.7955066 50.0988307,17.592158 49.9234812,18 Z" id="Shape" fill="#E7C7CA" fill-rule="nonzero"></path>
                <path d="M39.9401625,11.6323468 C39.9401625,11.6323468 42.3214062,14.5519061 45.4931385,11.5722766 C48.6648707,8.5926471 45.8443832,18.2183629 45.8443832,18.2183629 L39,19 L39.9401625,11.6323468 Z" id="Shape" fill="#000000" fill-rule="nonzero" opacity="0.1"></path>
                <path d="M39.9401625,11.6323468 C39.9401625,11.6323468 42.3214062,14.5519061 45.4931385,11.5722766 C48.6648707,8.5926471 45.8443832,18.2183629 45.8443832,18.2183629 L39,19 L39.9401625,11.6323468 Z" id="Shape" fill="#E7C7CA" fill-rule="nonzero"></path>
                <path d="M45.7723024,12.1225818 L46.0258587,15.9181616 L46.2975802,17.1811261 L46.5049665,18.1469224 C46.5049665,18.1469224 47.0347856,25.5761253 46.8834087,25.9475855 C46.7320319,26.3190456 46.9590972,26.6162137 46.9908863,26.8138305 C47.0226755,27.0114473 46.9590972,27.5077181 46.9840744,27.7305941 C47.0090516,27.9534702 46.9840744,28.0522786 46.4043009,27.9727862 C45.8245274,27.8932937 45.0161748,27.7551105 45.0161748,27.7551105 C45.0161748,27.7551105 42.9725869,27.9036946 42.2664137,27.6563021 C41.5602405,27.4089097 40.2228258,27.4081667 40.2228258,27.4081667 C40.2228258,27.4081667 38.204215,27.4579424 37.5487531,27.3836504 C36.8932911,27.3093583 36.5390692,28.1763463 36.1106726,27.9282109 C35.6822761,27.6800756 36.6147577,25.2789572 36.9175114,24.5850697 C37.2202652,23.8911821 36.514092,22.1334327 36.514092,22.1334327 L37.4223534,17.1878124 L37.6244415,16.0667456 L37.6244415,12.5423318 L37.6743959,12.5252446 C37.8586351,12.4547213 38.023124,12.3421618 38.1542606,12.1968739 L38.3813259,15.7435753 L45.4960396,15.9917107 L45.4960396,12" id="Shape" fill="#000000" fill-rule="nonzero" opacity="0.1"></path>
                <path d="M45.7723024,12.1225818 L46.0258587,15.9181616 L46.2975802,17.1811261 L46.5049665,18.1469224 C46.5049665,18.1469224 47.0347856,25.5761253 46.8834087,25.9475855 C46.7320319,26.3190456 46.9590972,26.6162137 46.9908863,26.8138305 C47.0226755,27.0114473 46.9590972,27.5077181 46.9840744,27.7305941 C47.0090516,27.9534702 46.9840744,28.0522786 46.4043009,27.9727862 C45.8245274,27.8932937 45.0161748,27.7551105 45.0161748,27.7551105 C45.0161748,27.7551105 42.9725869,27.9036946 42.2664137,27.6563021 C41.5602405,27.4089097 40.2228258,27.4081667 40.2228258,27.4081667 C40.2228258,27.4081667 38.204215,27.4579424 37.5487531,27.3836504 C36.8932911,27.3093583 36.5390692,28.1763463 36.1106726,27.9282109 C35.6822761,27.6800756 36.6147577,25.2789572 36.9175114,24.5850697 C37.2202652,23.8911821 36.514092,22.1334327 36.514092,22.1334327 L37.4223534,17.1878124 L37.6244415,16.0667456 L37.6244415,12.5423318 L37.6743959,12.5252446 C37.8586351,12.4547213 38.023124,12.3421618 38.1542606,12.1968739 L38.3813259,15.7435753 L45.4960396,15.9917107 L45.4960396,12" id="Shape" fill="#E7C7CA" fill-rule="nonzero"></path>
                <path d="M46.8522187,3.50075781 C46.8083243,3.34548413 46.7474883,3.18426697 46.6211958,3.08025589 C46.5005988,2.99671317 46.3613071,2.94173846 46.2145955,2.91978166 C45.8633468,2.83067368 45.5062389,2.76464853 45.1457294,2.72216061 C45.0942289,2.55719218 45.0162776,2.40101852 44.9147065,2.25931132 C44.1600317,1.23108754 43.0434209,0.261555724 41.7296706,0.0423895275 C41.0419924,-0.0727655926 40.2449634,0.0305025473 39.8044797,0.553529674 C39.5626757,0.841046006 39.4587154,1.22217231 39.2146012,1.50448809 C38.7440845,2.05277504 37.8946903,2.12038224 37.3017315,2.54459885 C36.9852301,2.76747973 36.7557473,3.090657 36.5316551,3.4041761 C36.289081,3.74369797 36.0395763,4.09733563 35.9625686,4.50297883 C35.8085534,5.31352228 36.3637784,6.08617599 36.4661986,6.90414881 C36.6972215,8.73400082 34.6642199,10.3573165 35.048488,12.1626517 C35.2725802,13.2153923 36.2806102,13.9568427 37.3232936,14.3327685 C37.69062,14.4657541 38.1103117,14.5979967 38.2820387,14.9382615 C38.3590463,15.0868488 38.3721376,15.258467 38.4445248,15.4085402 C38.6878689,15.9092792 39.4879783,15.9285956 39.9176809,15.5638138 C40.3473835,15.1990321 40.482917,14.6091408 40.533742,14.058625 C40.7401225,11.6544833 39.7421035,9.27931603 39.858385,6.86923081 C39.8930385,6.14041034 40.1055796,5.31352228 40.7824767,4.98365859 C41.693477,4.53789683 42.7892957,5.28083309 43.7919352,5.13893226 C44.2663972,6.25269632 44.3671203,7.48191179 44.0799437,8.6537637 C43.9205379,9.2949177 43.6448506,9.91675534 43.6248286,10.5779686 C43.5947956,11.5846472 44.1577215,12.5044023 44.6444097,13.39444 C44.7488396,13.5608753 44.8186761,13.745337 44.8500201,13.9375264 C44.8576809,14.1325256 44.8200562,14.3267104 44.7398992,14.5058726 C44.4649819,15.2198344 43.9906149,15.8825335 43.9367095,16.6425573 C43.9209131,16.7312769 43.9416356,16.8224411 43.9944653,16.8966415 C44.048722,16.9461637 44.1187392,16.9765349 44.193145,16.9828221 C45.0248275,17.1202653 45.7440788,16.4092753 46.149909,15.6953136 C46.6023759,14.906749 46.8660343,14.0304298 46.9215256,13.1306976 C47.0054639,11.6180794 46.4433081,10.1299781 46.4779616,8.61587396 C46.5180056,6.89449064 47.3242755,5.16122035 46.8522187,3.50075781 Z" id="Shape" fill="#000000" fill-rule="nonzero" opacity="0.1"></path>
                <path d="M46.8522187,3.50075781 C46.8083243,3.34548413 46.7474883,3.18426697 46.6211958,3.08025589 C46.5005988,2.99671317 46.3613071,2.94173846 46.2145955,2.91978166 C45.8633468,2.83067368 45.5062389,2.76464853 45.1457294,2.72216061 C45.0942289,2.55719218 45.0162776,2.40101852 44.9147065,2.25931132 C44.1600317,1.23108754 43.0434209,0.261555724 41.7296706,0.0423895275 C41.0419924,-0.0727655926 40.2449634,0.0305025473 39.8044797,0.553529674 C39.5626757,0.841046006 39.4587154,1.22217231 39.2146012,1.50448809 C38.7440845,2.05277504 37.8946903,2.12038224 37.3017315,2.54459885 C36.9852301,2.76747973 36.7557473,3.090657 36.5316551,3.4041761 C36.289081,3.74369797 36.0395763,4.09733563 35.9625686,4.50297883 C35.8085534,5.31352228 36.3637784,6.08617599 36.4661986,6.90414881 C36.6972215,8.73400082 34.6642199,10.3573165 35.048488,12.1626517 C35.2725802,13.2153923 36.2806102,13.9568427 37.3232936,14.3327685 C37.69062,14.4657541 38.1103117,14.5979967 38.2820387,14.9382615 C38.3590463,15.0868488 38.3721376,15.258467 38.4445248,15.4085402 C38.6878689,15.9092792 39.4879783,15.9285956 39.9176809,15.5638138 C40.3473835,15.1990321 40.482917,14.6091408 40.533742,14.058625 C40.7401225,11.6544833 39.7421035,9.27931603 39.858385,6.86923081 C39.8930385,6.14041034 40.1055796,5.31352228 40.7824767,4.98365859 C41.693477,4.53789683 42.7892957,5.28083309 43.7919352,5.13893226 C44.2663972,6.25269632 44.3671203,7.48191179 44.0799437,8.6537637 C43.9205379,9.2949177 43.6448506,9.91675534 43.6248286,10.5779686 C43.5947956,11.5846472 44.1577215,12.5044023 44.6444097,13.39444 C44.7488396,13.5608753 44.8186761,13.745337 44.8500201,13.9375264 C44.8576809,14.1325256 44.8200562,14.3267104 44.7398992,14.5058726 C44.4649819,15.2198344 43.9906149,15.8825335 43.9367095,16.6425573 C43.9209131,16.7312769 43.9416356,16.8224411 43.9944653,16.8966415 C44.048722,16.9461637 44.1187392,16.9765349 44.193145,16.9828221 C45.0248275,17.1202653 45.7440788,16.4092753 46.149909,15.6953136 C46.6023759,14.906749 46.8660343,14.0304298 46.9215256,13.1306976 C47.0054639,11.6180794 46.4433081,10.1299781 46.4779616,8.61587396 C46.5180056,6.89449064 47.3242755,5.16122035 46.8522187,3.50075781 Z" id="Shape" fill="#3E373A" fill-rule="nonzero"></path>
                <polygon id="Shape" fill="#C3C7D9" fill-rule="nonzero" points="44 38.8704963 47 39 46.5697 36 44.2714898 36.2946975"></polygon>
                <path d="M53.492858,32.8621359 C53.2829306,33.1233395 52.4707392,33.5939765 52.3921147,33.7508555 C52.3134902,33.9077345 51.3440499,34.3783715 50.8455704,34.456811 C50.3470909,34.5352505 48.7753867,34.8756779 48.4868347,35.0584419 C48.2800523,35.1902203 46.6202886,35.6075184 45.5297665,35.8389149 C45.2343895,35.9086308 44.9354392,35.9623099 44.6342332,35.9997159 C44.1624861,36.0256009 39,34.2740469 39,34.2740469 L39.9953864,33.2543334 L40.0504236,33.235508 C40.3318994,33.1405962 41.632349,32.7021194 42.3541221,32.4934703 C43.1670996,32.2581518 44.1105939,31.2909928 44.1105939,31.2909928 C44.1105939,31.2909928 45.4991029,30.8203558 45.6830843,30.7678013 C45.8670657,30.7152469 45.2113372,28.9378078 45.2113372,28.9378078 C45.2113372,28.9378078 48.2250151,28.5205097 49.4043829,28.1667475 C50.5837507,27.8129854 53.3096629,27.9439794 53.8073561,29.3300053 C54.3050493,30.7160312 53.7059305,32.6009324 53.492858,32.8621359 Z" id="Shape" fill="#4B4B5B" fill-rule="nonzero"></path>
                <path d="M41,37.0498609 C41,37.0498609 40.4571226,37.7404606 39.9135365,37.6834862 C39.3699504,37.6265117 37.4691708,37.8561361 37.4691708,37.8561361 C37.1247102,38.023496 36.8021507,38.2512047 36.5116938,38.5320605 C36.0673281,38.9585059 35.8313253,38.6183855 35.7873848,38.5458725 L35.7795889,38.5320605 C35.5428774,39.4393359 35,38.747873 35,38.747873 C35,38.747873 35.2360028,35.9854741 35.1637137,35.6401743 C35.0914245,35.2948744 35.6307583,34.7018219 35.6307583,34.7018219 L36.2686038,34.5041378 L37.8844791,34 L40.1998583,34.9780618 L41,37.0498609 Z" id="Shape" fill="#E7C7CA" fill-rule="nonzero"></path>
                <path d="M37,34 L36.2441209,38.4949495 L36.2318029,38.4795888 C35.8577828,39.4886003 35,38.719601 35,38.719601 C35,38.719601 35.3729003,35.6474441 35.2586786,35.2634245 C35.1444569,34.8794049 35.9966405,34.2198512 35.9966405,34.2198512 L37,34 Z" id="Shape" fill="#000000" fill-rule="nonzero" opacity="0.1"></path>
                <path d="M39,25 C39,25 40.6054545,26.125 42,25" id="Shape" fill="#000000" fill-rule="nonzero" opacity="0.1"></path>
                <path d="M44,26 C44,26 44.5638462,27.125 45,26" id="Shape" fill="#000000" fill-rule="nonzero" opacity="0.1"></path>
                <path d="M44,26.4021495 C44,26.4021495 44.8404908,26.7971178 45,26" id="Shape" fill="#000000" fill-rule="nonzero" opacity="0.1"></path>
                <path d="M43,28 C43,28 45.4033207,27.5714286 46,27" id="Shape" fill="#000000" fill-rule="nonzero" opacity="0.1"></path>
                <path d="M39,27 C39,27 40.1468902,28.0455272 41,27.9984571" id="Shape" fill="#000000" fill-rule="nonzero" opacity="0.1"></path>
                <path d="M44.9938173,34.825192 C44.7226842,34.900847 44.4482711,34.9590991 44.1717875,34.9996917 C43.7387603,35.0277819 39,33.1270124 39,33.1270124 L39.9136873,32.0204292 L39.9642071,32 C40.1085495,32.1200217 40.2269102,32.2230191 40.3113505,32.3013311 C40.7090138,32.6707597 41.0929645,32.1881191 41.2373069,32.1881191 C41.3816493,32.1881191 42.632376,33.4079143 42.632376,33.4079143 C42.632376,33.4079143 43.787115,33.7203113 43.9798121,34.0037668 C44.1725092,34.2872224 44.8458664,34.231042 44.9656705,34.4293757 C45.0017561,34.4906634 45.0060864,34.641329 44.9938173,34.825192 Z" id="Shape" fill="#000000" fill-rule="nonzero" opacity="0.1"></path>
                <path d="M36.5324922,28.8830466 C36.5324922,28.8830466 35.2900073,28.9524406 34.5735435,28.659195 C33.8570798,28.3659494 31.4765463,27.6891715 30.7854237,28.164483 C30.094301,28.6397945 28.4302313,29.0598893 29.1981454,30.950689 C29.9660594,32.8414886 30.3246752,32.890736 30.3246752,32.890736 C30.5622711,33.0638691 30.7696921,33.2729754 30.9390065,33.5100587 C31.1693807,33.8585209 33.3195399,34.6539402 33.8570798,34.6539402 C34.3946196,34.6539402 35.3414576,34.6539402 36.6722526,35.5493465 C38.0030476,36.4447528 39.2063689,36.5447399 39.2063689,36.5447399 C39.2063689,36.5447399 40.8957797,37.2162946 41.4218008,37.365529 C41.9478219,37.5147634 44.3513928,38.1609483 44.9150417,37.9624665 C45.4786906,37.7639848 45.8365386,36.51937 45.8365386,36.51937 C45.8365386,36.51937 46.0922539,35.4001121 45.9640123,35.2262541 C45.8357707,35.052396 45.1193069,35.1016434 44.9150417,34.8531681 C44.7107766,34.6046929 43.4813463,34.3308478 43.4813463,34.3308478 C43.4813463,34.3308478 42.1536229,33.2608372 42.0000401,33.2608372 C41.8464573,33.2608372 41.437927,33.6831705 41.0148064,33.3600781 C40.1719506,32.753472 39.2864293,32.2049387 38.3647351,31.7184999 C37.3925559,31.2208032 36.5324922,28.8830466 36.5324922,28.8830466 Z" id="Shape" fill="#4B4B5B" fill-rule="nonzero"></path>
                <path d="M35,30.0312186 C35.4552467,29.9349155 35.9278138,30.0641862 36.2777236,30.3807399 C36.9013837,30.9191479 39,32 39,32" id="Shape" fill="#000000" fill-rule="nonzero" opacity="0.1"></path>
                <path d="M50,30 C50,30 46.6293409,30.4241948 46,31" id="Shape" fill="#000000" fill-rule="nonzero" opacity="0.1"></path>
                <path d="M52.9123084,37.9647577 L52.7939237,37.9647577 C52.3686437,37.9488987 50.9276683,37.9013216 50.6501806,37.9647577 C50.3236802,38.0440529 46,37.9647577 46,37.9647577 L46.8452817,37.78 C46.8452817,37.78 46.5316,36.6238767 46.7306673,36.5279295 C46.7306673,36.5279295 45.5996034,35.7444934 46.4524256,35.2155947 C47.3052477,34.686696 48.2244256,34.9095154 48.2244256,34.9095154 L50.3651525,34.146696 L50.7761057,34 C50.7761057,34 53.189042,34.1324229 53.8420429,35.8769163 C54.4950438,37.6214097 52.9123084,37.9647577 52.9123084,37.9647577 Z" id="Shape" fill="#E7C7CA" fill-rule="nonzero"></path>
                <path d="M53.8030401,38 L53.6727627,38 C54.4452998,37.384985 56.1928435,35.5127127 51,34.1481481 L51.4522371,34 C51.4522371,34 54.1075741,34.1337337 54.8261747,35.8954955 C55.5447753,37.6572573 53.8030401,38 53.8030401,38 Z" id="Shape" fill="#000000" fill-rule="nonzero" opacity="0.1"></path>
                <circle id="Oval" fill="#4B4B5B" fill-rule="nonzero" cx="48.25" cy="36.25" r="1"></circle>
                <circle id="Oval" fill="#4B4B5B" fill-rule="nonzero" cx="48.25" cy="36.25" r="1"></circle>
                <g id="Group" opacity="0.1" transform="translate(35.000000, 5.000000)" fill-rule="nonzero" fill="#000000">
                    <path d="M9.2388717,3.08082353 C9.2686909,2.17500835 9.11824832,1.27276259 8.79753412,0.434 C7.79798908,0.593764706 6.70310282,-0.232235294 5.79274795,0.261882353 C5.11920837,0.627529412 4.90776615,1.54411765 4.87009099,2.352 C4.86086442,2.56529412 4.85932666,2.77858824 4.86317106,2.99188235 C4.86317106,2.91611765 4.86317106,2.83952941 4.87009099,2.76376471 C4.90545951,1.95588235 5.11690173,1.03929412 5.79274795,0.673647059 C6.70310282,0.179529412 7.79645132,1.00305882 8.79753412,0.845764706 C9.06914469,1.55622751 9.2186593,2.31341197 9.2388717,3.08082353 Z" id="Shape"></path>
                    <path d="M1.49316652,2.93011765 C1.50633555,2.75067164 1.5029876,2.57027314 1.48317106,2.39152941 C1.4016697,1.66682353 1.03183803,0.974235294 0.964945405,0.267647059 C0.878830755,1.12 1.3855232,1.93858824 1.48317106,2.80329412 C1.49316652,2.84776471 1.49316652,2.88729412 1.49316652,2.93011765 Z" id="Shape"></path>
                    <path d="M5.54439945,10.3204706 C5.49672884,10.9315294 5.3621747,11.5845882 4.92929481,11.9897647 C4.49641492,12.3949412 3.69908553,12.3727059 3.45842584,11.8176471 C3.38153776,11.6529412 3.37000455,11.4610588 3.29542311,11.2963529 C3.12473157,10.9191765 2.70492266,10.7725882 2.33816652,10.6251765 C1.29633303,10.2076471 0.291405823,9.38988235 0.0676615105,8.21964706 C0.0476739056,8.11363277 0.0340623431,8.00635325 0.026910828,7.89847059 C0.0080023791,8.14361828 0.0217231687,8.3904002 0.0676615105,8.63141176 C0.291405823,9.79835294 1.29787079,10.6194118 2.33816652,11.0369412 C2.70492266,11.1843529 3.12473157,11.3309412 3.29542311,11.7081176 C3.37231119,11.8728235 3.38538217,12.0630588 3.45842584,12.2294118 C3.70062329,12.7844706 4.49949045,12.8058824 4.92929481,12.4015294 C5.35909918,11.9971765 5.49288444,11.3432941 5.54439945,10.7322353 C5.56780872,10.4106113 5.57576433,10.0879108 5.56823476,9.76541176 C5.56823476,9.95235294 5.55823931,10.1368235 5.54439945,10.3204706 Z" id="Shape"></path>
                    <path d="M11.4832348,4.28811765 C11.4832348,4.40752941 11.4832348,4.52611765 11.4832348,4.64470588 C11.5262921,3.11294118 12.0506688,1.57294118 11.9991538,0.0732941176 C11.959172,1.46011765 11.5124522,2.87823529 11.4832348,4.28811765 Z" id="Shape"></path>
                    <path d="M9.83321656,10.4843529 C9.85212876,10.3866378 9.85808212,10.2865545 9.85090082,10.1870588 C9.8199329,9.97393036 9.75018225,9.76939213 9.64560965,9.58505882 C9.20119654,8.67917647 8.69450409,7.75188235 8.63453139,6.74635294 C8.63453139,6.78917647 8.62914923,6.82870588 8.62838035,6.87482353 C8.59762511,7.98988235 9.15967698,9.01023529 9.64560965,9.99682353 C9.72819541,10.1496287 9.79129247,10.3135974 9.83321656,10.4843529 L9.83321656,10.4843529 Z" id="Shape"></path>
                    <path d="M11.9253412,9.29270588 C11.8679434,10.2904294 11.6028693,11.2617597 11.1495405,12.1355294 C10.7435714,12.9269412 10.0262056,13.7150588 9.1950455,13.5627059 C9.12057961,13.5558322 9.05056413,13.5218243 8.99667425,13.4663529 C8.98105835,13.4474914 8.96880938,13.4257185 8.96053685,13.4021176 C8.95131028,13.4663529 8.94362147,13.5314118 8.93900819,13.5972941 C8.92311079,13.6953795 8.94381975,13.7962285 8.99667425,13.8781176 C9.05056413,13.933589 9.12057961,13.9675969 9.1950455,13.9744706 C10.0262056,14.1268235 10.7435714,13.3387059 11.1495405,12.5472941 C11.6028693,11.6735244 11.8679434,10.7021941 11.9253412,9.70447059 C11.9345678,9.51176471 11.9353367,9.31988235 11.9299545,9.128 C11.9284167,9.18317647 11.9284167,9.23752941 11.9253412,9.29270588 Z" id="Shape"></path>
                </g>
                <path d="M47,35.8432882 C47,35.8432882 49.4104762,36.5386081 51,35" id="Shape" stroke="#000000" opacity="0.1"></path>
                <path d="M47,38 C47,38 48.7591489,35.7988392 51,37.9279382" id="Shape" stroke="#000000" opacity="0.1"></path>
                <path d="M37,38 C37,38 37.8173258,36.0921308 40,37.5469054" id="Shape" stroke="#000000" opacity="0.1"></path>
                <path d="M35,16.5151335 L36.4249678,15.2760698 C36.4249678,15.2760698 41.9501395,14.9275832 42.1787784,16.7342929 C42.1787784,16.7342929 44.1375054,14.5922616 48.2570309,15.0693011 L50,16.4043922 L45.1824818,18.4380054 L40.5010198,20 L37.0529197,18.5154469 L35,16.5151335 Z" id="Shape" fill="#000000" fill-rule="nonzero" opacity="0.1"></path>
                <path d="M35,16.5151335 L36.4249678,15.2760698 C36.4249678,15.2760698 41.9501395,14.9275832 42.1787784,16.7342929 C42.1787784,16.7342929 44.1375054,14.5922616 48.2570309,15.0693011 L50,16.4043922 L45.1824818,18.4380054 L40.5010198,20 L37.0529197,18.5154469 L35,16.5151335 Z" id="Shape" fill="#D5D6DB" fill-rule="nonzero"></path>
                <polygon id="Shape" fill="#000000" fill-rule="nonzero" opacity="0.1" points="34 16 34.603435 22.7016558 41 23 40.7225586 16.3269624 40.7171639 16.2146361"></polygon>
                <polygon id="Shape" fill="#4285F4" fill-rule="nonzero" points="34 16 34.603435 22.7016558 41 23 40.7225586 16.3269624 40.7171639 16.2146361"></polygon>
                <polygon id="Shape" fill="#000000" fill-rule="nonzero" opacity="0.1" points="48 16 42 16.9606284 42 24 47.8633497 23.095483"></polygon>
                <polygon id="Shape" fill="#4285F4" fill-rule="nonzero" points="48 16 42 16.9606284 42 24 47.8633497 23.095483"></polygon>
                <polygon id="Shape" fill="#FFFFFF" fill-rule="nonzero" opacity="0.3" points="47 17 43 17.491866 43.0873514 19 46.9974054 18.5272727"></polygon>
                <path d="M35.1544046,25.8434983 L35.5162605,26.7310135 C35.5162605,26.7310135 36.0540507,27.1513049 36.6425467,26.9411592 C37.2310428,26.7310135 37.7442482,26.6266412 38.0000827,26.4220994 C38.2559171,26.2175576 38.6147,25.1899452 38.6147,25.1899452 C38.6147,25.1899452 38.9734828,24.0691683 39.3314974,23.7889741 C39.689512,23.5087798 40.6375592,19.6484038 39.3314974,20.0259655 C38.0254356,20.4035272 37.0266825,23.9059552 37.0266825,23.9059552 C37.0266825,23.9059552 36.7962011,24.1623329 36.4635394,24.1861494 C36.1308778,24.2099659 35.4647863,24.1392169 35.336485,24.3962951 C35.2081836,24.6533733 34.7702688,25.3300424 35.1544046,25.8434983 Z" id="Shape" fill="#BE6F72" fill-rule="nonzero"></path>
                <path d="M42,16.4974587 C41.2919949,16.6566329 40.5502536,16.47214 40,16 L40.2875348,23.4110228 C40.2875348,23.4110228 40.964556,24.1421123 42,23.9752332 L42,16.4974587 Z" id="Shape" fill="#000000" fill-rule="nonzero" opacity="0.1"></path>
                <path d="M42,16.4974587 C41.2919949,16.6566329 40.5502536,16.47214 40,16 L40.2875348,23.4110228 C40.2875348,23.4110228 40.964556,24.1421123 42,23.9752332 L42,16.4974587 Z" id="Shape" fill="#4285F4" fill-rule="nonzero"></path>
                <path d="M42,16.4974587 C41.2919949,16.6566329 40.5502536,16.47214 40,16 L40.2875348,23.4110228 C40.2875348,23.4110228 40.964556,24.1421123 42,23.9752332 L42,16.4974587 Z" id="Shape" fill="#000000" fill-rule="nonzero" opacity="0.1"></path>
                <path d="M42,17 C42,17 45.1728536,15.8541956 46,16.0155765" id="Shape" fill="#000000" fill-rule="nonzero" opacity="0.1"></path>
                <path d="M40,16 C40,16 37.4294416,14.6961215 37,15.066097" id="Shape" fill="#000000" fill-rule="nonzero" opacity="0.1"></path>
                <path d="M44,16.5 C44,16.5 46.2034059,15.7340433 47,16.0981866" id="Shape" fill="#000000" fill-rule="nonzero" opacity="0.1"></path>
                <path d="M43,33 C43.2534422,32.6905922 43.5232195,32.4182224 43.8061798,32.1860731 C44.2275281,31.8561644 45,31 45,31" id="Shape" fill="#000000" fill-rule="nonzero" opacity="0.1"></path>
                <path d="M37,25 C37,25 35.8804598,26.0226786 35.5440613,26.1125374 C35.2076628,26.2023962 35,27 35,27" id="Shape" fill="#000000" fill-rule="nonzero" opacity="0.1"></path>
                <path d="M47.8448886,25.8413968 L47.4867145,26.7310135 C47.4867145,26.7310135 46.9486846,27.1513049 46.3591576,26.9411592 C45.7696306,26.7310135 45.2577336,26.6266412 45.0010165,26.4220994 C44.7442994,26.2175576 44.3861252,25.1899452 44.3861252,25.1899452 C44.3861252,25.1899452 44.027951,24.0691683 43.6690082,23.7889741 C43.3100655,23.5087798 42.3623643,19.6484038 43.6690082,20.0259655 C44.9756522,20.4035272 45.9748505,23.9059552 45.9748505,23.9059552 C45.9748505,23.9059552 46.2054348,24.1623329 46.5382447,24.1861494 C46.8710546,24.2099659 47.537443,24.1392169 47.6658015,24.3962951 C47.7941601,24.6533733 48.2291957,25.3300424 47.8448886,25.8413968 Z" id="Shape" fill="#BE6F72" fill-rule="nonzero"></path>
                <path d="M48,25 C48,25 49.0041929,25.4554896 48.9999868,26" id="Shape" fill="#000000" fill-rule="nonzero" opacity="0.1"></path>
                <circle id="Oval" fill="#BE6F72" fill-rule="nonzero" cx="42.5" cy="8.5" r="3.5"></circle>
                <path d="M39.751329,6.98770319 C40.1804716,6.91573039 40.5565652,6.64900768 40.9667052,6.49574796 C41.8843737,6.15112527 42.8994306,6.38736539 43.8281839,6.69811853 C44.1844832,6.81750869 44.5463248,6.95214016 44.9200431,6.95214016 C45.2937614,6.95214016 45.6904412,6.78871957 45.8812593,6.44409689 C46.0570335,6.12741658 46.0229872,5.71590154 45.8749251,5.38313319 C45.7268629,5.05036485 45.479037,4.7827954 45.2288358,4.53046724 C44.4053887,3.69896975 43.3839976,2.92166355 42.2541331,3.00633743 C41.7996537,3.04105372 41.3649686,3.21463517 40.9469108,3.40684487 C40.4205094,3.64943549 39.9081117,3.92539817 39.4124488,4.23326193 C39.0316045,4.46950205 38.3261321,4.78533561 38.1068101,5.21717239 C37.6079912,6.19007525 38.9753884,7.11810096 39.751329,6.98770319 Z" id="Shape" fill="#3E373A" fill-rule="nonzero"></path>
                <path d="M45.8808275,5.90332691 C45.6900277,6.36753658 45.2933858,6.58766548 44.9197033,6.58766548 C44.5460207,6.58766548 44.1842137,6.41315915 43.8271568,6.25233958 C42.8984923,5.83375249 41.8843242,5.51439449 40.9659518,5.97974472 C40.5566427,6.18618686 40.1797933,6.55002686 39.7506918,6.641272 C39.1252485,6.78270198 38.1182057,5.99799375 38.008951,5 C37.8862375,6.15311049 39.0539955,7.14083916 39.7506918,6.98344129 C40.1797933,6.88649333 40.5566427,6.52721558 40.9659518,6.321914 C41.8843242,5.85656378 42.8984923,6.17592178 43.8271568,6.59450887 C44.1842137,6.75532843 44.545229,6.93667815 44.9197033,6.92983477 C45.2941775,6.92299138 45.6900277,6.71084643 45.8808275,6.2454962 C45.9797287,5.9923397 46.0186411,5.69963102 45.9916655,5.41174371 C45.979314,5.5850678 45.9415333,5.75263075 45.8808275,5.90332691 L45.8808275,5.90332691 Z" id="Shape" fill="#000000" fill-rule="nonzero" opacity="0.1"></path>
                <path d="M73.6531346,47 C73.6531346,47 74.2538631,47.6411582 73.3755636,48.6099276 C72.4972641,49.578697 71.7739586,50.3960703 72.0657121,51 C72.0657121,51 73.3907591,49.2014478 74.4686261,49.1758014 C75.5464931,49.1501551 74.8373701,48.0812823 73.6531346,47 Z" id="Shape" fill="#4285F4" fill-rule="nonzero"></path>
                <path d="M73.6375537,47 C73.6904716,47.0618804 73.7322205,47.1295124 73.7615487,47.2008679 C74.8252412,48.2093408 75.3929538,49.1508576 74.3692266,49.1740029 C73.4162072,49.1963216 72.2736088,50.5709857 72,50.9173383 C72.0087519,50.94533 72.0193562,50.9729234 72.0317673,51 C72.0317673,51 73.3721429,49.2029345 74.462479,49.1773094 C75.5528151,49.1516842 74.8354887,48.0803885 73.6375537,47 Z" id="Shape" fill="#000000" fill-rule="nonzero" opacity="0.1"></path>
                <path d="M74.5,47.260981 C74.5,47.6693862 74.3868613,48 74.2518248,48 C74.1167883,48 74,47.6693862 74,47.260981 C74,46.8525757 74.1386861,47.0455584 74.2773723,47.0455584 C74.4160584,47.0455584 74.5,46.8525757 74.5,47.260981 Z" id="Shape" fill="#FFD037" fill-rule="nonzero"></path>
                <path d="M74.7625122,47.2559125 C74.372482,47.4288353 74.0314095,47.5339192 74.0020348,47.4900234 C73.9726602,47.4461276 74.2647749,47.2692143 74.6548051,47.0909708 C75.0448354,46.9127273 74.8914344,47.0430845 74.920809,47.0909708 C74.9501837,47.1388571 75.1541744,47.0816596 74.7625122,47.2559125 Z" id="Shape" fill="#FFD037" fill-rule="nonzero"></path>
                <path d="M71.3474016,47 C71.3474016,47 70.7466449,47.6411582 71.6249856,48.6099276 C72.5033262,49.578697 73.2266655,50.3960703 72.9338853,51 C72.9338853,51 71.6097894,49.2014478 70.5308588,49.1758014 C69.4519283,49.1501551 70.1661499,48.0812823 71.3474016,47 Z" id="Shape" fill="#4285F4" fill-rule="nonzero"></path>
                <path d="M71.3627075,47 C71.3097981,47.0618804 71.2680558,47.1295124 71.2387323,47.2008679 C70.1752094,48.2093408 69.6075874,49.1508576 70.6311513,49.1740029 C71.5829941,49.1963216 72.7264349,50.5709857 73,50.9173383 C72.9914089,50.9454606 72.9804546,50.9730783 72.9672132,51 C72.9672132,51 71.628076,49.2029345 70.5368892,49.1773094 C69.4457024,49.1516842 70.1680373,48.0803885 71.3627075,47 Z" id="Shape" fill="#000000" fill-rule="nonzero" opacity="0.1"></path>
                <path d="M70,47.260981 C70,47.6693862 70.1094891,48 70.2481752,48 C70.3868613,48 70.5,47.6693862 70.5,47.260981 C70.5,46.8525757 70.3576642,47.0455584 70.2226277,47.0455584 C70.0875912,47.0455584 70,46.8525757 70,47.260981 Z" id="Shape" fill="#FFD037" fill-rule="nonzero"></path>
                <path d="M70.2374878,47.2559125 C70.627518,47.4288353 70.9685905,47.5339192 70.9979652,47.4900234 C71.0273398,47.4461276 70.7352251,47.2692143 70.3451949,47.0909708 C69.9551646,46.9127273 70.1085656,47.0430845 70.079191,47.0909708 C70.0498163,47.1388571 69.8458256,47.0816596 70.2374878,47.2559125 Z" id="Shape" fill="#FFD037" fill-rule="nonzero"></path>
                <ellipse id="Oval" fill="#4285F4" fill-rule="nonzero" opacity="0.1" cx="72" cy="55" rx="5" ry="1"></ellipse>
                <path d="M74.9989685,49.2817998 L74.9754779,49.4701853 L74.9425911,49.736416 L74.9292797,49.8477347 L74.8963929,50.1139654 L74.8822985,50.2252841 L74.8501947,50.4907364 L74.4782603,53.5189164 C74.4453734,53.7890394 74.0014012,54 73.4650326,54 L71.5348886,54 C70.99852,54 70.5553308,53.7890394 70.5216609,53.5189164 L70.1497265,50.4907364 L70.1168396,50.2252841 L70.1035283,50.1139654 L70.0706415,49.8477347 L70.0565471,49.736416 L70.0244433,49.4701853 L70.0009527,49.2817998 C69.9829432,49.1261093 70.2225473,49 70.526359,49 L74.4743452,49 C74.7773739,49 75.017761,49.1284447 74.9989685,49.2817998 Z" id="Shape" fill="#65617D" fill-rule="nonzero"></path>
                <polygon id="Shape" fill="#9D9CB5" fill-rule="nonzero" points="75 50 74.9675787 50.5 70.0332121 50.5 70 50"></polygon>
                <polygon id="Shape" fill="#9D9CB5" fill-rule="nonzero" points="75 50 74.9669621 50.5 70.0338437 50.5 70 50"></polygon>
                <polygon id="Shape" fill="#9D9CB5" fill-rule="nonzero" points="75 51 74.9654946 51.5 70.0336839 51.5 70 51"></polygon>
            </g>
        </g>
    </g>
</svg>