<?xml version="1.0" encoding="UTF-8"?>
<svg width="501px" height="160px" viewBox="0 0 501 160" version="1.1" xmlns="http://www.w3.org/2000/svg" xmlns:xlink="http://www.w3.org/1999/xlink">
    <!-- Generator: Sketch 47.1 (45422) - http://www.bohemiancoding.com/sketch -->
    <title>event</title>
    <desc>Created with Sketch.</desc>
    <defs>
        <rect id="path-1" x="0" y="0" width="441" height="100" rx="8"></rect>
        <filter x="-10.8%" y="-42.5%" width="121.5%" height="195.0%" filterUnits="objectBoundingBox" id="filter-2">
            <feOffset dx="0" dy="5" in="SourceAlpha" result="shadowOffsetOuter1"></feOffset>
            <feGaussianBlur stdDeviation="15" in="shadowOffsetOuter1" result="shadowBlurOuter1"></feGaussianBlur>
            <feColorMatrix values="0 0 0 0 0   0 0 0 0 0   0 0 0 0 0  0 0 0 0.2 0" type="matrix" in="shadowBlurOuter1"></feColorMatrix>
        </filter>
        <linearGradient x1="50.0008763%" y1="99.9984906%" x2="50.0008763%" y2="0%" id="linearGradient-3">
            <stop stop-color="#808080" stop-opacity="0.25" offset="0%"></stop>
            <stop stop-color="#808080" stop-opacity="0.12" offset="54%"></stop>
            <stop stop-color="#808080" stop-opacity="0.1" offset="100%"></stop>
        </linearGradient>
        <linearGradient x1="183421%" y1="80687%" x2="183421%" y2="19498%" id="linearGradient-4">
            <stop stop-color="#808080" stop-opacity="0.25" offset="0%"></stop>
            <stop stop-color="#808080" stop-opacity="0.12" offset="54%"></stop>
            <stop stop-color="#808080" stop-opacity="0.1" offset="100%"></stop>
        </linearGradient>
    </defs>
    <g id="Page-1" stroke="none" stroke-width="1" fill="none" fill-rule="evenodd">
        <g id="event" transform="translate(30.000000, 25.000000)">
            <g id="Rectangle-Copy-2">
                <use fill="black" fill-opacity="1" filter="url(#filter-2)" xlink:href="#path-1"></use>
                <use fill="#FFFFFF" fill-rule="evenodd" xlink:href="#path-1"></use>
            </g>
            <text id="Roadshow-Seattle-eve" font-family="Lato-Bold, Lato" font-size="18" font-weight="bold" letter-spacing="0.200000003" fill="#403F4C">
                <tspan x="110" y="32">Roadshow Seattle event</tspan>
            </text>
            <text id="We-are-comming-to-Se" font-family="Lato-Regular, Lato" font-size="16" font-weight="normal" line-spacing="21" letter-spacing="0.0199999996" fill="#8C8C8C">
                <tspan x="110" y="56">We are comming to Seattle. Claim your seat </tspan>
                <tspan x="110" y="77">for next month's event now.</tspan>
            </text>
            <g transform="translate(16.000000, 17.000000)">
                <path d="M72.8478314,35.9147206 C69.8519609,40.7845697 70.4133332,47.4189275 71.7291254,52.6499572 C72.1693382,54.4014796 72.6765926,56.250399 72.3001905,58.2105133 C71.8397844,60.6072907 70.1613215,62.4894874 68.4626653,63.5673473 C65.3658286,65.5274616 61.8295867,65.4730816 59.2545435,63.4236868 C57.0308629,61.6534966 55.5664484,58.5660123 53.2959194,56.8907842 C49.4995885,54.0865627 44.2864992,55.78614 39.7599804,58.4069305 C36.5589465,60.2566616 33.0356283,62.610422 30.0769134,61.2777066 C27.9953932,60.3418839 26.6973711,57.701614 26.0915736,54.828403 C25.7991754,53.4413077 25.6222825,51.9259729 24.9518666,50.8692157 C24.552848,50.2410051 24.0043994,49.8205748 23.4357574,49.4756272 C18.2460923,46.3313279 11.2244956,48.9602348 6.21980059,45.3995634 C2.83945062,42.9954812 0.917860987,38.0298584 0.286216141,32.7200995 C-0.345428706,27.4103407 0.173941673,21.72885 0.824164309,16.1350166 C1.28699359,12.1579731 1.91298433,7.90334822 3.99046584,4.66895674 C6.18829912,1.24788771 9.65265302,-0.28205657 12.6638704,0.0426000408 C15.6750878,0.367256651 18.2897097,2.28435394 20.5432764,4.62756302 C23.3598308,7.55596565 25.9001416,11.2960098 29.545427,12.2407605 C32.028389,12.8843923 34.7399386,12.1393053 37.3804079,11.7180634 C41.7889981,11.0135585 46.1362009,11.2156573 50.4527099,11.4802524 C54.5850565,11.7334846 58.7424427,12.0484015 62.5928915,13.5093562 C65.3173648,14.5441992 67.4085777,16.6982958 69.9513117,18.0991891 C71.6087736,19.0122858 73.4786685,19.1283505 75.0230482,20.3458128 C76.9252524,21.8457263 78.5714061,24.6142356 77.8097167,28.1140339 C77.0835674,31.4433874 74.437444,33.3304539 72.8478314,35.9147206 Z" id="Shape" fill="#4285F4" fill-rule="nonzero" opacity="0.1"></path>
                <path d="M54,25 C54,25 62.1026875,18.0409693 63.9045327,14.5322627 C65.7063779,11.0235562 68,8 68,8" id="Shape" stroke="#535461" stroke-width="2"></path>
                <path d="M67,15.8297194 L63,15 C63,15 63.9439231,18.8815703 67,15.8297194 Z" id="Shape" fill="#4285F4" fill-rule="nonzero"></path>
                <path d="M60.624364,12 L63,15.9918668 C63,15.9918668 58.3555087,16.368258 60.624364,12 Z" id="Shape" fill="#4285F4" fill-rule="nonzero"></path>
                <path d="M69,12.7277752 L65,12 C65,12 67.5123967,15.9663749 69,12.7277752 Z" id="Shape" fill="#4285F4" fill-rule="nonzero"></path>
                <path d="M63.3251445,10 L65,11.9912618 C65,11.9912618 62.0351567,12.2463536 63.3251445,10 Z" id="Shape" fill="#4285F4" fill-rule="nonzero"></path>
                <path d="M67,9 C67,9 70.4912855,9.13277701 70.902025,9.39915065 C71.3127645,9.66552428 70.3814127,11.2268836 69.0536974,10.9719845 C67.725982,10.7170854 67,9 67,9 Z" id="Shape" fill="#4285F4" fill-rule="nonzero"></path>
                <path d="M65.9721248,8 C65.9721248,8 67.0388407,10.1817965 66.9989061,10.5972947 C66.9589714,11.0127929 65.3731051,11.4791508 65.0528599,9.90767114 C64.7326148,8.33619148 65.9721248,8 65.9721248,8 Z" id="Shape" fill="#4285F4" fill-rule="nonzero"></path>
                <circle id="Oval" fill="#FFD037" fill-rule="nonzero" transform="translate(69.000000, 9.000000) rotate(-72.474432) translate(-69.000000, -9.000000) " cx="69" cy="9" r="1"></circle>
                <circle id="Oval" fill="#FFD037" fill-rule="nonzero" transform="translate(68.000000, 8.000000) rotate(-72.474432) translate(-68.000000, -8.000000) " cx="68" cy="8" r="1"></circle>
                <path d="M27.924902,51.9417082 C27.924902,51.9417082 29.230554,47.956342 20.9536381,43.1519177 C20.9536381,43.1519177 12.5494594,40.6368887 13.4088861,32 C13.4088861,32 3.72080276,39.2830874 10.2764488,48.5605109 C16.8320948,57.8379345 22.4904575,55.813018 22.4904575,55.813018 L27.924902,51.9417082 Z" id="Shape" fill="#4285F4" fill-rule="nonzero"></path>
                <path d="M25,53 C25,53 20.9922007,48.6740287 17.1506604,47.0015966 C16.3832672,46.6566406 15.6781208,46.1875952 15.0636313,45.6133582 C12.6145094,43.3781267 11.5466156,40.005322 12.1780798,36.7522618 L13.1012964,32" id="Shape" stroke="#535461" stroke-width="2"></path>
                <rect id="Rectangle-path" fill="url(#linearGradient-3)" fill-rule="nonzero" x="16" y="3" width="45" height="54"></rect>
                <rect id="Rectangle-path" fill="#F7F7FD" fill-rule="nonzero" x="17" y="4" width="45" height="53"></rect>
                <rect id="Rectangle-path" fill="#E2E2EC" fill-rule="nonzero" x="20" y="9" width="11" height="1"></rect>
                <rect id="Rectangle-path" fill="#E2E2EC" fill-rule="nonzero" x="20" y="11" width="20" height="1"></rect>
                <rect id="Rectangle-path" fill="#FFFFFF" fill-rule="nonzero" x="51" y="8" width="8" height="7"></rect>
                <path d="M58.9207921,8.08020165 L58.9207921,14.9197984 L51.0792079,14.9197984 L51.0792079,8.08020165 L58.9207921,8.08020165 L58.9207921,8.08020165 Z M59,8 L51,8 L51,15 L59,15 L59,8 Z" id="Shape" fill="#E2E2EC" fill-rule="nonzero"></path>
                <rect id="Rectangle-path" fill="#FFFFFF" fill-rule="nonzero" x="43" y="8" width="8" height="7"></rect>
                <path d="M50.9207921,8.08020165 L50.9207921,14.9197984 L43.0792079,14.9197984 L43.0792079,8.08020165 L50.9207921,8.08020165 L50.9207921,8.08020165 Z M51,8 L43,8 L43,15 L51,15 L51,8 Z" id="Shape" fill="#E2E2EC" fill-rule="nonzero"></path>
                <rect id="Rectangle-path" fill="#FFFFFF" fill-rule="nonzero" x="51" y="16" width="8" height="7"></rect>
                <path d="M58.9207921,16.0802016 L58.9207921,22.9197984 L51.0792079,22.9197984 L51.0792079,16.0802016 L58.9207921,16.0802016 L58.9207921,16.0802016 Z M59,16 L51,16 L51,23 L59,23 L59,16 Z" id="Shape" fill="#E2E2EC" fill-rule="nonzero"></path>
                <rect id="Rectangle-path" fill="#FFFFFF" fill-rule="nonzero" x="43" y="16" width="8" height="7"></rect>
                <path d="M50.9207921,16.0802016 L50.9207921,22.9197984 L43.0792079,22.9197984 L43.0792079,16.0802016 L50.9207921,16.0802016 L50.9207921,16.0802016 Z M51,16 L43,16 L43,23 L51,23 L51,16 Z" id="Shape" fill="#E2E2EC" fill-rule="nonzero"></path>
                <rect id="Rectangle-path" fill="#FFFFFF" fill-rule="nonzero" x="35" y="16" width="8" height="7"></rect>
                <path d="M41.9207921,16.0802016 L41.9207921,22.9197984 L34.0792079,22.9197984 L34.0792079,16.0802016 L41.9207921,16.0802016 L41.9207921,16.0802016 Z M42,16 L34,16 L34,23 L42,23 L42,16 Z" id="Shape" fill="#E2E2EC" fill-rule="nonzero"></path>
                <rect id="Rectangle-path" fill="#FFFFFF" fill-rule="nonzero" x="26" y="16" width="8" height="7"></rect>
                <path d="M33.9207921,16.0802016 L33.9207921,22.9197984 L26.0792079,22.9197984 L26.0792079,16.0802016 L33.9207921,16.0802016 L33.9207921,16.0802016 Z M34,16 L26,16 L26,23 L34,23 L34,16 Z" id="Shape" fill="#E2E2EC" fill-rule="nonzero"></path>
                <rect id="Rectangle-path" fill="#FFFFFF" fill-rule="nonzero" x="19" y="16" width="8" height="7"></rect>
                <path d="M26.9207921,16.0802016 L26.9207921,22.9197984 L19.0792079,22.9197984 L19.0792079,16.0802016 L26.9207921,16.0802016 L26.9207921,16.0802016 Z M27,16 L19,16 L19,23 L27,23 L27,16 Z" id="Shape" fill="#E2E2EC" fill-rule="nonzero"></path>
                <rect id="Rectangle-path" fill="#FFFFFF" fill-rule="nonzero" x="51" y="23" width="8" height="7"></rect>
                <path d="M58.9207921,23.0802016 L58.9207921,29.9197984 L51.0792079,29.9197984 L51.0792079,23.0802016 L58.9207921,23.0802016 L58.9207921,23.0802016 Z M59,23 L51,23 L51,30 L59,30 L59,23 Z" id="Shape" fill="#E2E2EC" fill-rule="nonzero"></path>
                <rect id="Rectangle-path" fill="#FFFFFF" fill-rule="nonzero" x="43" y="23" width="8" height="7"></rect>
                <path d="M50.9207921,23.0802016 L50.9207921,29.9197984 L43.0792079,29.9197984 L43.0792079,23.0802016 L50.9207921,23.0802016 L50.9207921,23.0802016 Z M51,23 L43,23 L43,30 L51,30 L51,23 Z" id="Shape" fill="#E2E2EC" fill-rule="nonzero"></path>
                <rect id="Rectangle-path" fill="#FFFFFF" fill-rule="nonzero" x="35" y="23" width="8" height="7"></rect>
                <path d="M41.9207921,23.0802016 L41.9207921,29.9197984 L34.0792079,29.9197984 L34.0792079,23.0802016 L41.9207921,23.0802016 L41.9207921,23.0802016 Z M42,23 L34,23 L34,30 L42,30 L42,23 Z" id="Shape" fill="#E2E2EC" fill-rule="nonzero"></path>
                <rect id="Rectangle-path" fill="#FFFFFF" fill-rule="nonzero" x="26" y="23" width="8" height="7"></rect>
                <path d="M33.9207921,23.0802016 L33.9207921,29.9197984 L26.0792079,29.9197984 L26.0792079,23.0802016 L33.9207921,23.0802016 L33.9207921,23.0802016 Z M34,23 L26,23 L26,30 L34,30 L34,23 Z" id="Shape" fill="#E2E2EC" fill-rule="nonzero"></path>
                <rect id="Rectangle-path" fill="#FFFFFF" fill-rule="nonzero" x="19" y="23" width="8" height="7"></rect>
                <path d="M26.9207921,23.0802016 L26.9207921,29.9197984 L19.0792079,29.9197984 L19.0792079,23.0802016 L26.9207921,23.0802016 L26.9207921,23.0802016 Z M27,23 L19,23 L19,30 L27,30 L27,23 Z" id="Shape" fill="#E2E2EC" fill-rule="nonzero"></path>
                <rect id="Rectangle-path" fill="#FFFFFF" fill-rule="nonzero" x="51" y="30" width="8" height="7"></rect>
                <path d="M58.9207921,30.0802016 L58.9207921,36.9197984 L51.0792079,36.9197984 L51.0792079,30.0802016 L58.9207921,30.0802016 L58.9207921,30.0802016 Z M59,30 L51,30 L51,37 L59,37 L59,30 Z" id="Shape" fill="#E2E2EC" fill-rule="nonzero"></path>
                <rect id="Rectangle-path" fill="#FFFFFF" fill-rule="nonzero" x="43" y="30" width="8" height="7"></rect>
                <path d="M50.9207921,30.0802016 L50.9207921,36.9197984 L43.0792079,36.9197984 L43.0792079,30.0802016 L50.9207921,30.0802016 L50.9207921,30.0802016 Z M51,30 L43,30 L43,37 L51,37 L51,30 Z" id="Shape" fill="#E2E2EC" fill-rule="nonzero"></path>
                <rect id="Rectangle-path" fill="#FFFFFF" fill-rule="nonzero" x="35" y="30" width="8" height="7"></rect>
                <path d="M41.9207921,30.0802016 L41.9207921,36.9197984 L34.0792079,36.9197984 L34.0792079,30.0802016 L41.9207921,30.0802016 L41.9207921,30.0802016 Z M42,30 L34,30 L34,37 L42,37 L42,30 Z" id="Shape" fill="#E2E2EC" fill-rule="nonzero"></path>
                <rect id="Rectangle-path" fill="#FFFFFF" fill-rule="nonzero" x="26" y="30" width="8" height="7"></rect>
                <path d="M33.9207921,30.0802016 L33.9207921,36.9197984 L26.0792079,36.9197984 L26.0792079,30.0802016 L33.9207921,30.0802016 L33.9207921,30.0802016 Z M34,30 L26,30 L26,37 L34,37 L34,30 Z" id="Shape" fill="#E2E2EC" fill-rule="nonzero"></path>
                <rect id="Rectangle-path" fill="#FFFFFF" fill-rule="nonzero" x="19" y="30" width="8" height="7"></rect>
                <path d="M26.9207921,30.0802016 L26.9207921,36.9197984 L19.0792079,36.9197984 L19.0792079,30.0802016 L26.9207921,30.0802016 L26.9207921,30.0802016 Z M27,30 L19,30 L19,37 L27,37 L27,30 Z" id="Shape" fill="#E2E2EC" fill-rule="nonzero"></path>
                <rect id="Rectangle-path" fill="#FFFFFF" fill-rule="nonzero" x="51" y="37" width="8" height="7"></rect>
                <path d="M58.9207921,37.0802108 L58.9207921,43.9197892 L51.0792079,43.9197892 L51.0792079,37.0802108 L58.9207921,37.0802108 L58.9207921,37.0802108 Z M59,37 L51,37 L51,44 L59,44 L59,37 Z" id="Shape" fill="#E2E2EC" fill-rule="nonzero"></path>
                <rect id="Rectangle-path" fill="#FFFFFF" fill-rule="nonzero" x="43" y="37" width="8" height="7"></rect>
                <path d="M50.9207921,37.0802108 L50.9207921,43.9197892 L43.0792079,43.9197892 L43.0792079,37.0802108 L50.9207921,37.0802108 L50.9207921,37.0802108 Z M51,37 L43,37 L43,44 L51,44 L51,37 Z" id="Shape" fill="#E2E2EC" fill-rule="nonzero"></path>
                <rect id="Rectangle-path" fill="#FFFFFF" fill-rule="nonzero" x="35" y="37" width="8" height="7"></rect>
                <path d="M41.9207921,37.0802108 L41.9207921,43.9197892 L34.0792079,43.9197892 L34.0792079,37.0802108 L41.9207921,37.0802108 L41.9207921,37.0802108 Z M42,37 L34,37 L34,44 L42,44 L42,37 Z" id="Shape" fill="#E2E2EC" fill-rule="nonzero"></path>
                <rect id="Rectangle-path" fill="#FFFFFF" fill-rule="nonzero" x="26" y="37" width="8" height="7"></rect>
                <path d="M33.9207921,37.0802108 L33.9207921,43.9197892 L26.0792079,43.9197892 L26.0792079,37.0802108 L33.9207921,37.0802108 L33.9207921,37.0802108 Z M34,37 L26,37 L26,44 L34,44 L34,37 Z" id="Shape" fill="#E2E2EC" fill-rule="nonzero"></path>
                <rect id="Rectangle-path" fill="#FFFFFF" fill-rule="nonzero" x="19" y="37" width="8" height="7"></rect>
                <path d="M26.9207921,37.0802108 L26.9207921,43.9197892 L19.0792079,43.9197892 L19.0792079,37.0802108 L26.9207921,37.0802108 L26.9207921,37.0802108 Z M27,37 L19,37 L19,44 L27,44 L27,37 Z" id="Shape" fill="#E2E2EC" fill-rule="nonzero"></path>
                <rect id="Rectangle-path" fill="#FFFFFF" fill-rule="nonzero" x="51" y="44" width="8" height="7"></rect>
                <path d="M58.9207921,44.0802016 L58.9207921,50.9197984 L51.0792079,50.9197984 L51.0792079,44.0802016 L58.9207921,44.0802016 L58.9207921,44.0802016 Z M59,44 L51,44 L51,51 L59,51 L59,44 Z" id="Shape" fill="#E2E2EC" fill-rule="nonzero"></path>
                <rect id="Rectangle-path" fill="#FFFFFF" fill-rule="nonzero" x="43" y="44" width="8" height="7"></rect>
                <path d="M50.9207921,44.0802016 L50.9207921,50.9197984 L43.0792079,50.9197984 L43.0792079,44.0802016 L50.9207921,44.0802016 L50.9207921,44.0802016 Z M51,44 L43,44 L43,51 L51,51 L51,44 Z" id="Shape" fill="#E2E2EC" fill-rule="nonzero"></path>
                <rect id="Rectangle-path" fill="#FFFFFF" fill-rule="nonzero" x="35" y="44" width="8" height="7"></rect>
                <path d="M41.9207921,44.0802016 L41.9207921,50.9197984 L34.0792079,50.9197984 L34.0792079,44.0802016 L41.9207921,44.0802016 L41.9207921,44.0802016 Z M42,44 L34,44 L34,51 L42,51 L42,44 Z" id="Shape" fill="#E2E2EC" fill-rule="nonzero"></path>
                <rect id="Rectangle-path" fill="#FFFFFF" fill-rule="nonzero" x="26" y="44" width="8" height="7"></rect>
                <path d="M33.9207921,44.0802016 L33.9207921,50.9197984 L26.0792079,50.9197984 L26.0792079,44.0802016 L33.9207921,44.0802016 L33.9207921,44.0802016 Z M34,44 L26,44 L26,51 L34,51 L34,44 Z" id="Shape" fill="#E2E2EC" fill-rule="nonzero"></path>
                <rect id="Rectangle-path" fill="#FFFFFF" fill-rule="nonzero" x="19" y="44" width="8" height="7"></rect>
                <path d="M26.9207921,44.0802016 L26.9207921,50.9197984 L19.0792079,50.9197984 L19.0792079,44.0802016 L26.9207921,44.0802016 L26.9207921,44.0802016 Z M27,44 L19,44 L19,51 L27,51 L27,44 Z" id="Shape" fill="#E2E2EC" fill-rule="nonzero"></path>
                <path d="M35.4224019,58.2433744 C35.673002,58.0497568 35.9087063,57.8213415 35.9814329,57.5429604 C36.058959,57.2369764 35.8870011,56.9228913 35.590637,56.8291627 C35.2322613,56.7149551 34.8493514,56.9183874 34.558445,57.12985 C34.2675386,57.3413126 33.9354497,57.5759736 33.5551684,57.5322535 C33.9485931,57.2422731 34.136105,56.7720589 34.0274532,56.3446725 C34.0088255,56.2525886 33.962959,56.1685191 33.8960196,56.1037658 C33.6971167,55.9253164 33.3361124,56.0029419 33.0977795,56.1421324 C32.3398457,56.588256 32.1286757,57.440352 32.1242945,58.2103613 C32.048063,57.9328724 32.1120274,57.6437844 32.1102749,57.3582653 C32.1085225,57.0727462 32.0147665,56.757783 31.7256126,56.6043164 C31.5405664,56.5226181 31.3401501,56.4833249 31.1385424,56.4892166 C30.7976913,56.4785096 30.4182863,56.5070615 30.1860869,56.7140628 C29.8969329,56.97103 29.9722882,57.4028776 30.2237645,57.68572 C30.4752408,57.9685623 30.8581507,58.1461195 31.2095166,58.3415216 C31.4776412,58.4905269 31.7492706,58.6645151 31.9104959,58.9000683 C31.9316355,58.9312718 31.9492703,58.9647921 31.9630693,59 L34.0984274,59 C34.5687936,58.8045401 35.0135178,58.5503889 35.4224019,58.2433744 L35.4224019,58.2433744 Z" id="Shape" fill="#4285F4" fill-rule="nonzero"></path>
                <circle id="Oval" fill="#FC6681" fill-rule="nonzero" cx="20.5" cy="16.5" r="1"></circle>
                <circle id="Oval" fill="#FFD037" fill-rule="nonzero" cx="20.5" cy="16.5" r="1"></circle>
                <circle id="Oval" fill="#4285F4" fill-rule="nonzero" cx="35.5" cy="23.5" r="1"></circle>
                <circle id="Oval" fill="#4285F4" fill-rule="nonzero" cx="36.5" cy="23.5" r="1"></circle>
                <circle id="Oval" fill="#4285F4" fill-rule="nonzero" cx="59.5" cy="36.5" r="1"></circle>
                <circle id="Oval" fill="#4285F4" fill-rule="nonzero" cx="59.5" cy="35.5" r="1"></circle>
                <circle id="Oval" fill="#4285F4" fill-rule="nonzero" cx="60.5" cy="35.5" r="1"></circle>
                <circle id="Oval" fill="#4285F4" fill-rule="nonzero" cx="52.5" cy="16.5" r="1"></circle>
                <circle id="Oval" fill="#4285F4" fill-rule="nonzero" cx="53.5" cy="16.5" r="1"></circle>
                <circle id="Oval" fill="#4285F4" fill-rule="nonzero" cx="54.5" cy="16.5" r="1"></circle>
                <circle id="Oval" fill="#4285F4" fill-rule="nonzero" cx="55.5" cy="16.5" r="1"></circle>
                <circle id="Oval" fill="#4285F4" fill-rule="nonzero" cx="52.5" cy="31.5" r="1"></circle>
                <circle id="Oval" fill="#4285F4" fill-rule="nonzero" cx="53.5" cy="31.5" r="1"></circle>
                <circle id="Oval" fill="#4285F4" fill-rule="nonzero" cx="54.5" cy="31.5" r="1"></circle>
                <circle id="Oval" fill="#4285F4" fill-rule="nonzero" cx="55.5" cy="31.5" r="1"></circle>
                <circle id="Oval" fill="#FFD037" fill-rule="nonzero" cx="27.5" cy="23.5" r="1"></circle>
                <circle id="Oval" fill="#FC6681" fill-rule="nonzero" cx="20.5" cy="30.5" r="1"></circle>
                <path d="M59.2630421,36.6449422 C59.7484814,36.9404452 60.5057667,37.1326423 61.4649947,36.4975911 L61.4556742,37.903833 C61.5240241,38.8648183 62.6805346,42.3812238 62.6805346,42.3812238 L63.4960726,45.272188 C64.0804338,47.314526 64.3821838,49.4317057 64.3923876,51.5610362 C64.3923876,52.2665595 64.4560773,52.9937051 64.6525831,53.5406659 C65.08676,54.7507066 64.4817085,56.3099053 64.2191829,56.8905006 C63.7772807,57.0444019 63.3280155,57.17484 62.8731569,57.2813013 C62.832241,57.2909994 62.7920173,57.303575 62.752768,57.3189399 L62.747331,57.3109317 C62.747331,57.3109317 61.5232474,57.8114449 60.9795554,57.7425743 C60.5741165,57.6913217 60.3201347,58.2126563 60.6378062,58.5962496 C60.3379989,58.6763317 60.0304245,58.73319 59.8230449,58.7067629 C59.2793529,58.6378923 59.0067302,59.6020809 60.0273177,59.8775634 C61.0479052,60.1530458 66.8304578,59.8775634 66.8304578,59.8775634 C67.1649981,59.7049943 67.3439099,59.3209068 67.2654114,58.9438059 C67.7096854,58.9261879 67.9869683,58.9125739 67.9869683,58.9125739 C67.9869683,58.9125739 69.0075558,58.4320813 67.9869683,57.1211371 L67.9325991,57.1635806 L67.7143456,56.5013016 L67.7143456,55.6067844 C67.7143456,55.6067844 69.0067791,49.2002155 68.5990102,48.4426388 C68.1912412,47.685062 67.9869683,43.8275067 67.9869683,43.8275067 L68.1252214,39.6255984 C68.4941553,38.8407937 68.6828941,37.6107325 68.7784285,36.6489463 C68.9172381,36.1901017 69.0047955,35.7164198 69.0394007,35.2370987 C69.0557114,35.0112672 69.0689154,34.7742241 69.0774591,34.528372 C69.0808999,33.9891094 68.995275,33.4531782 68.824254,32.9435471 C69.2126054,32.3669559 69.8440648,31.475642 70.3652324,30.9487017 C71.1815471,30.1222543 70.9772742,29.1572649 70.9772742,29.1572649 L70.6370784,26.8148631 L69.8207637,22.8195666 C69.9232885,21.7112302 69.6988214,21.0729758 69.4510532,20.7126063 C69.5100826,20.3546393 69.5652285,19.9966722 69.6063937,19.6371035 C69.7873339,18.0734664 69.7066809,16.4894105 69.367946,14.9539017 C69.2498871,14.4181524 69.0891096,13.8687891 68.724836,13.4627728 C68.3124068,13.0031015 67.642889,12.7228141 67.4891018,12.1205966 C67.4510434,11.9708431 67.44949,11.8114797 67.3943441,11.6673319 C67.2452171,11.2733279 66.7729818,11.1299809 66.3597759,11.0787284 C65.6234616,10.9866339 64.558602,10.9185642 63.8510258,11.214868 C63.3570428,11.4230815 62.6766511,11.9964694 62.4063585,12.6115 C62.2510179,12.8941898 62.1787846,13.1912945 62.2448043,13.470781 C62.2708431,13.5737605 62.3102961,13.6726272 62.3620864,13.7646824 C62.2566744,14.0592564 62.2030198,14.3708418 62.2036391,14.6848258 C62.2086642,15.7893502 62.8686083,16.7782388 63.8673365,17.1777819 C63.8836473,17.2306361 63.8984046,17.2826895 63.9108319,17.333942 C63.9417421,17.4573376 63.9640644,17.582852 63.9776283,17.7095271 C63.9644244,17.9497735 63.949667,18.1972272 63.9387932,18.4414776 C63.9310262,18.4751121 63.9227413,18.5082127 63.9139387,18.5407794 C63.3288577,18.8078624 62.7584195,19.1078197 62.2051925,19.4393007 C62.6137382,20.0591363 62.1368426,22.6770205 62.1368426,22.6770205 C61.1162551,23.296856 60.0956676,24.881681 61.1846049,26.5345757 C62.2735423,28.1874705 61.6607238,29.9781065 61.6607238,29.9781065 L61.4906259,32.6712679 L61.4906259,32.6712679 L61.4906259,32.6760728 L61.4564509,33.2150254 L61.4696549,33.2150254 L61.4564509,33.4192348 L61.4859656,33.4248405 L61.4859656,33.6442655 C61.0082934,33.8252511 60.3100376,34.1904255 59.8937248,34.8655177 C59.6968627,35.1976111 59.4572717,35.5006751 59.1814883,35.7664415 C59.0529342,35.8811363 58.9861948,36.0529072 59.0023926,36.2273906 C59.0185904,36.4018739 59.1157205,36.557473 59.2630421,36.6449422 Z M67.4774513,29.4888048 C67.4365001,29.0228752 67.5200373,28.554277 67.7190059,28.1338155 C67.8790066,28.1370188 68.0392663,28.1388874 68.1997849,28.1394212 C68.2160957,28.2555403 68.2355132,28.3660536 68.2588143,28.4669571 C68.3970674,29.0739795 67.8448317,29.3646775 67.4766746,29.488004 L67.4774513,29.4888048 Z" id="Shape" fill="url(#linearGradient-4)" fill-rule="nonzero"></path>
                <path d="M69.6784789,57.5546358 L70,58.3915563 L68.9505247,59.3021523 L65.4929808,60 L63,59.7905629 L63.1612376,59.0231788 L63.1612376,59.0231788 C63.2583378,58.6868268 63.5639793,58.4257851 63.9531144,58.3468543 C64.9777838,58.138245 66.931716,57.6614238 67.3419654,57 L69.6784789,57.5546358 Z" id="Shape" fill="#DB8B8B" fill-rule="nonzero"></path>
                <path d="M69.6784789,57.5546358 L70,58.3915563 L68.9505247,59.3021523 L65.4929808,60 L63,59.7905629 L63.1612376,59.0231788 L63.1612376,59.0231788 C63.2583378,58.6868268 63.5639793,58.4257851 63.9531144,58.3468543 C64.9777838,58.138245 66.931716,57.6614238 67.3419654,57 L69.6784789,57.5546358 Z" id="Shape" fill="#000000" fill-rule="nonzero" opacity="0.1"></path>
                <path d="M63.2688087,59.4407867 L63.6800501,58.864472 L63.2688087,58.1966652 C63.2688087,58.1966652 62.0358973,58.7199658 61.4881173,58.6481402 C60.9403373,58.5763147 60.6664473,59.5887131 61.693738,59.8734502 C62.7210287,60.1581873 68.5434264,59.8734502 68.5434264,59.8734502 C68.5434264,59.8734502 69.5707171,59.3689611 68.5434264,58 L67.6494234,58.7208209 C67.6494234,58.7208209 66.142622,59.5852929 65.3892213,59.4416417 L63.2688087,59.4407867 Z" id="Shape" fill="#2E3037" fill-rule="nonzero"></path>
                <path d="M61,60.7907361 L63.4929808,61 L66.9505247,60.3027295 L68,59.3928867 L67.9150879,59.1712159 L67.7948753,58.8602151 L67.6746627,58.5574855 L65.3429194,58 C65.2237904,58.1685661 65.0603209,58.310286 64.8658852,58.4135649 C64.1083549,58.8626964 62.7478533,59.1869313 61.9492981,59.3490488 C61.9169352,59.355941 61.8850762,59.3645033 61.8538912,59.3746898 C61.5102166,59.4747929 61.2491074,59.7198697 61.1612376,60.0248139 L61,60.7907361 Z" id="Shape" fill="#DB8B8B" fill-rule="nonzero"></path>
                <path d="M61,59.7711443 L63.4929808,60 L66.9505247,59.2374491 L68,58.2424242 L67.9150879,58 L66.9552951,58.7001357 C66.9552951,58.7001357 65.1864522,59.614654 64.3020308,59.4626866 L61.8042797,59.4626866 L62.2870383,58.8530077 L61.8538912,58.21981 C61.5102166,58.3292851 61.2491074,58.5973067 61.1612376,58.9308005 L61,59.7711443 Z" id="Shape" fill="#000000" fill-rule="nonzero" opacity="0.1"></path>
                <path d="M62.2688087,59.4407867 L62.6800501,58.864472 L62.2688087,58.1966652 C62.2688087,58.1966652 61.0358973,58.7199658 60.4881173,58.6481402 C59.9403373,58.5763147 59.6664473,59.5887131 60.693738,59.8734502 C61.7210287,60.1581873 67.5434264,59.8734502 67.5434264,59.8734502 C67.5434264,59.8734502 68.5707171,59.3689611 67.5434264,58 L66.6494234,58.7208209 C66.6494234,58.7208209 65.142622,59.5852929 64.3892213,59.4416417 L62.2688087,59.4407867 Z" id="Shape" fill="#2E3037" fill-rule="nonzero"></path>
                <path d="M64,21.95857 C64,21.95857 68,22.3317356 67.4167079,20.8381865 C67.2536036,20.4146383 67.2111241,19.9612632 67.293129,19.5192541 C67.3968862,18.9712461 67.6386361,18.4516611 68,18 L64.2501236,18.5229638 C64.4748103,18.8598375 64.6458519,19.2232262 64.7582798,19.6025738 C65.2051409,21.1865336 64,21.95857 64,21.95857 Z" id="Shape" fill="#DB8B8B" fill-rule="nonzero"></path>
                <path d="M71,37 C71,37 70.9141631,39.9861621 70.0527284,41.4446352 L69.8800327,45.6807995 C69.8800327,45.6807995 70.1385653,49.5700613 70.6556305,50.3339057 C71.1726957,51.0977501 69.5315757,57.556232 69.5315757,57.556232 L69.5315757,58.6678028 C69.5315757,58.6678028 66.7725322,59.5008629 66,58.5285474 L66.7755978,50.263866 L66.4312283,38.8053756 L71,37 Z" id="Shape" fill="#474463" fill-rule="nonzero"></path>
                <path d="M71,37 C71,37 70.9141631,39.9861621 70.0527284,41.4446352 L69.8800327,45.6807995 C69.8800327,45.6807995 70.1385653,49.5700613 70.6556305,50.3339057 C71.1726957,51.0977501 69.5315757,57.556232 69.5315757,57.556232 L69.5315757,58.6678028 C69.5315757,58.6678028 66.7725322,59.5008629 66,58.5285474 L66.7755978,50.263866 L66.4312283,38.8053756 L71,37 Z" id="Shape" fill="#000000" fill-rule="nonzero" opacity="0.1"></path>
                <path d="M71.1970494,27 L71.6236599,28.1331373 L71.9786065,30.5405292 C72.0759119,31.2209367 71.8376076,31.9063019 71.3386908,32.3809324 C70.4863129,33.2301554 69.348966,35 69.348966,35 L68,30.9680806 C68,30.9680806 69.348966,30.7555649 69.1373469,29.8349433 C68.9257279,28.9143217 68.9940193,27.2091558 68.9940193,27.2091558 L71.1970494,27 Z" id="Shape" fill="#FC6681" fill-rule="nonzero"></path>
                <path d="M71.1970494,27 L71.6236599,28.1331373 L71.9786065,30.5405292 C72.0759119,31.2209367 71.8376076,31.9063019 71.3386908,32.3809324 C70.4863129,33.2301554 69.348966,35 69.348966,35 L68,30.9680806 C68,30.9680806 69.348966,30.7555649 69.1373469,29.8349433 C68.9257279,28.9143217 68.9940193,27.2091558 68.9940193,27.2091558 L71.1970494,27 Z" id="Shape" fill="#000000" fill-rule="nonzero" opacity="0.05"></path>
                <path d="M65,58.3359819 C66.0591117,59.4760401 67.708034,58.8302306 68,58.7014711 L67.8804703,58.4519996 L65.4859569,58 C65.3648533,58.1366081 65.1983541,58.2517226 65,58.3359819 L65,58.3359819 Z" id="Shape" fill="#000000" fill-rule="nonzero" opacity="0.1"></path>
                <path d="M62,39.4271337 C62.0711821,40.3635604 63.2855157,43.7743757 63.2855157,43.7743757 L64.1422437,46.5812751 C64.7561521,48.5659658 65.0729967,50.6208365 65.0837123,52.6870948 C65.0837123,53.3719561 65.1506575,54.078244 65.3574247,54.6091504 C65.9285767,56.0804513 64.7862727,58.0874201 64.7862727,58.0874201 C65.7862124,59.7594974 67.4979735,58.6222944 67.4979735,58.6222944 L67.4979735,57.5525459 C67.4979735,57.5525459 68.853824,51.7332093 68.4979132,50.5967999 C68.1420025,49.4603905 67.9979434,46.3828796 67.9979434,46.3828796 L67.9979434,40.8278058 C69.1420174,39.7602254 69.8377399,38.3427972 69.9579947,36.8345014 C69.9749428,36.6154727 69.9885013,36.385334 69.9978228,36.1464658 C70.0554464,34.6386601 68.9538179,32.8681787 68.5233354,32.2380746 C68.4199518,32.0857069 68.3538541,32 68.3538541,32 L62.0474548,34.342654 L62.0330489,34.3482091 L62.0330489,34.5767607 L62.0330489,35.0822724 L62,39.4271337 Z" id="Shape" fill="#474463" fill-rule="nonzero"></path>
                <path d="M64,18.5827058 C64.2396737,18.9587003 64.4221241,19.364289 64.5420511,19.7876898 C65.4198346,20.100114 66.3949386,20.0665775 67.2459794,19.6946944 C67.3568109,19.0833921 67.6146794,18.5038215 68,18 L64,18.5827058 Z" id="Shape" fill="#000000" fill-rule="nonzero" opacity="0.1"></path>
                <circle id="Oval" fill="#DB8B8B" fill-rule="nonzero" cx="66" cy="16" r="3"></circle>
                <path d="M62,35.8974574 L62.0314725,35.9044943 C65.1210191,36.6353304 69,32.9318914 69,32.9318914 C68.8960551,32.7303593 68.8063051,32.5195834 68.7316098,32.301583 C68.6249532,32.1085699 68.5567628,32 68.5567628,32 L62.0507056,34.9675765 L62.0340952,35.2641331 L62,35.8974574 Z" id="Shape" fill="#000000" fill-rule="nonzero" opacity="0.1"></path>
                <path d="M62.3492131,21.6658044 C62.3492131,21.6658044 65.8045489,19.2435536 66.9150879,20.2408516 L68.457544,22.5228045 C68.457544,22.5228045 69.4450965,22.8786201 69.2628129,25.1580375 L70,29.2883723 L67.7789219,29.9298546 C67.7789219,29.9298546 66.483171,31.3548074 67.5322168,33.4203974 C67.5322168,33.4203974 64.2620928,36.5542793 61.670591,35.9136422 L61.8558029,32.5659328 C61.8558029,32.5659328 62.4114384,30.7141702 61.4238859,29.0043959 C60.4363334,27.2946216 61.3623926,25.6566865 62.2877198,25.0152042 C62.2877198,25.014359 62.7189047,22.3072867 62.3492131,21.6658044 Z" id="Shape" fill="#FC6681" fill-rule="nonzero"></path>
                <path d="M62.2446784,34 C62.2446784,34 60.6985722,34.3218395 59.9622064,35.6101527 C59.7497411,35.9965852 59.4905965,36.3499389 59.1917739,36.6606675 C59.0554792,36.7958266 58.9853721,36.9932767 59.0025582,37.1935755 C59.0197443,37.3938742 59.1222161,37.5736243 59.2791245,37.6787119 C59.8635002,38.0607173 60.8164956,38.2985156 62.0201873,37.2174404 C64.0851562,35.3685343 62.2446784,34 62.2446784,34 Z" id="Shape" fill="#DB8B8B" fill-rule="nonzero"></path>
                <path d="M65.7889851,22.0503756 C65.7889851,22.0503756 67.4325464,21.9158315 67.8429493,25.4052208 C68.2533522,28.8946102 68.9152609,29.6994864 68.9152609,29.6994864 C68.9152609,29.6994864 69.3256638,31.5114531 68.3401119,32.5846215 C67.3545601,33.6577898 65.4643671,35.9394667 65.4643671,35.9394667 C65.4643671,35.9394667 63.4104029,36.4091768 63,34.7317542 L65.5472275,30.8403249 C65.5472275,30.8403249 65.9576305,29.4980683 64.9720786,28.558648 C63.9865267,27.6192276 63.2417575,21.3792474 65.7889851,22.0503756 Z" id="Shape" fill="#000000" fill-rule="nonzero" opacity="0.1"></path>
                <path d="M64.7889851,22.0503756 C64.7889851,22.0503756 66.4325464,21.9158315 66.8429493,25.4052208 C67.2533522,28.8946102 67.9152609,29.6994864 67.9152609,29.6994864 C67.9152609,29.6994864 68.3256638,31.5114531 67.3401119,32.5846215 C66.3545601,33.6577898 64.4643671,35.9394667 64.4643671,35.9394667 C64.4643671,35.9394667 62.4104029,36.4091768 62,34.7317542 L64.5472275,30.8403249 C64.5472275,30.8403249 64.9576305,29.4980683 63.9720786,28.558648 C62.9865267,27.6192276 62.244682,21.3792474 64.7889851,22.0503756 Z" id="Shape" fill="#FC6681" fill-rule="nonzero"></path>
                <path d="M64.0135707,24 C64.0135707,24 63.8702298,26.1890726 64.515264,27.3934819 C65.1602982,28.5978912 65.1628579,30.1503714 64.515264,31" id="Shape" fill="#000000" fill-rule="nonzero" opacity="0.1"></path>
                <path d="M63,21 C63,21 63.6247683,20.5296581 65.4221357,20.4703419 C67.2195032,20.4110258 68,20 68,20" id="Shape" fill="#000000" fill-rule="nonzero" opacity="0.1"></path>
                <path d="M66.9033419,12.0792605 C67.3005184,12.1307472 67.7566508,12.2745831 67.8978346,12.66768 C67.9505846,12.8123332 67.9521361,12.9716968 67.9885956,13.1212534 C68.1367611,13.722749 68.7798456,14.0030655 69.1762463,14.4631769 C69.526103,14.8718016 69.6804743,15.4185414 69.7968346,15.9538397 C70.123271,17.488864 70.2019451,19.0708519 70.0295552,20.6334096 C69.9023346,21.7775587 69.6416875,22.9004593 69.5687684,24.0478775 C69.4958493,25.1952956 69.6292757,26.4023729 70.2242647,27.3667271 C70.4802574,27.7810726 70.8184779,28.1455658 71,28.6015909 C70.6253199,28.9219527 70.1079044,28.9677186 69.6246213,28.9848809 C69.0624718,29.0050397 68.5000637,29.0050397 67.9373971,28.9848809 C67.6426177,28.9742566 67.3346508,28.9538254 67.0802096,28.7969135 C66.8918093,28.669974 66.7370158,28.4948064 66.6302831,28.2877672 C66.308353,27.7156926 66.2276765,27.0210307 66.2424155,26.3541552 C66.2571545,25.6872797 66.3564486,25.0236732 66.3680846,24.3559805 C66.3742905,23.9923045 66.3471397,23.6057456 66.1485515,23.3082668 C66.0050405,23.0933302 65.7870589,22.9486771 65.6008824,22.7746029 C64.9027206,22.1208035 64.6606912,21.0730898 64.6374192,20.0883043 C64.6141471,19.1035188 64.7685184,18.1170988 64.6893934,17.1355823 C64.658364,16.7514751 64.5218346,16.2897292 64.1634449,16.2153595 C64.0501876,16.1916593 63.9307243,16.2153595 63.8221214,16.1695936 C63.5343236,16.0527269 63.5622501,15.6253055 63.4800221,15.312299 C63.3877096,14.9608817 63.1030148,14.689555 63.023114,14.3315997 C62.8346104,13.4980054 63.8415148,12.5034129 64.5016655,12.2132894 C65.1726765,11.9174451 66.1958714,11.9877285 66.9033419,12.0792605 Z" id="Shape" fill="#000000" fill-rule="nonzero" opacity="0.1"></path>
                <path d="M66.9033419,12.0798661 C67.3005184,12.131351 67.7566508,12.2751817 67.8978346,12.6682646 C67.9505846,12.8129125 67.9521361,12.9722705 67.9885956,13.1218217 C68.1367611,13.7232957 68.7798456,14.0036022 69.1762463,14.4636972 C69.526103,14.8723072 69.6804743,15.4190275 69.7968346,15.9543067 C70.123271,17.489276 70.2019451,19.0712073 70.0295552,20.6337091 C69.9023346,21.7778172 69.6416875,22.9006777 69.5687684,24.0480547 C69.4958493,25.1954317 69.6292757,26.4024659 70.2242647,27.3667856 C70.4802574,27.7811162 70.8184779,28.1455964 71,28.6016052 C70.6253199,28.9219555 70.1079044,28.9677198 69.6246213,28.9848814 C69.0624718,29.0050395 68.5000637,29.0050395 67.9373971,28.9848814 C67.6426177,28.9742576 67.3346508,28.9538271 67.0802096,28.7969208 C66.8918093,28.6699858 66.7370158,28.4948245 66.6302831,28.2877927 C66.308353,27.7157386 66.2276765,27.0211015 66.2424155,26.3542499 C66.2571545,25.6873983 66.3564486,25.0238155 66.3680846,24.3561467 C66.3742905,23.9924837 66.3471397,23.6059386 66.1485515,23.3084705 C66.0050405,23.0935416 65.7870589,22.9488936 65.6008824,22.7748258 C64.9027206,22.1210497 64.6606912,21.0733735 64.6374192,20.0886232 C64.6141471,19.103873 64.7685184,18.1174883 64.6893934,17.136007 C64.658364,16.7519135 64.5218346,16.2901841 64.1634449,16.2158171 C64.0501876,16.1921177 63.9307243,16.2158171 63.8221214,16.1700528 C63.5343236,16.0531903 63.5622501,15.6257842 63.4800221,15.3127889 C63.3877096,14.9613842 63.1030148,14.6900671 63.023114,14.3321247 C62.8346104,13.4985602 63.8415148,12.5040033 64.5016655,12.2138902 C65.1726765,11.9172393 66.1958714,11.9875202 66.9033419,12.0798661 Z" id="Shape" fill="#472727" fill-rule="nonzero"></path>
            </g>
        </g>
    </g>
</svg>