<?xml version="1.0" encoding="UTF-8"?>
<svg width="501px" height="160px" viewBox="0 0 501 160" version="1.1" xmlns="http://www.w3.org/2000/svg" xmlns:xlink="http://www.w3.org/1999/xlink">
    <!-- Generator: Sketch 47.1 (45422) - http://www.bohemiancoding.com/sketch -->
    <title>hiring</title>
    <desc>Created with Sketch.</desc>
    <defs>
        <rect id="path-1" x="0" y="0" width="441" height="100" rx="8"></rect>
        <filter x="-10.8%" y="-42.5%" width="121.5%" height="195.0%" filterUnits="objectBoundingBox" id="filter-2">
            <feOffset dx="0" dy="5" in="SourceAlpha" result="shadowOffsetOuter1"></feOffset>
            <feGaussianBlur stdDeviation="15" in="shadowOffsetOuter1" result="shadowBlurOuter1"></feGaussianBlur>
            <feColorMatrix values="0 0 0 0 0   0 0 0 0 0   0 0 0 0 0  0 0 0 0.2 0" type="matrix" in="shadowBlurOuter1"></feColorMatrix>
        </filter>
        <linearGradient x1="50%" y1="100%" x2="50%" y2="0.0043144361%" id="linearGradient-3">
            <stop stop-color="#808080" stop-opacity="0.25" offset="0%"></stop>
            <stop stop-color="#808080" stop-opacity="0.12" offset="54%"></stop>
            <stop stop-color="#808080" stop-opacity="0.1" offset="100%"></stop>
        </linearGradient>
        <linearGradient x1="38508%" y1="49021%" x2="38508%" y2="25844%" id="linearGradient-4">
            <stop stop-color="#808080" stop-opacity="0.25" offset="0%"></stop>
            <stop stop-color="#808080" stop-opacity="0.12" offset="54%"></stop>
            <stop stop-color="#808080" stop-opacity="0.1" offset="100%"></stop>
        </linearGradient>
        <linearGradient x1="38497%" y1="23229%" x2="38497%" y2="51%" id="linearGradient-5">
            <stop stop-color="#808080" stop-opacity="0.25" offset="0%"></stop>
            <stop stop-color="#808080" stop-opacity="0.12" offset="54%"></stop>
            <stop stop-color="#808080" stop-opacity="0.1" offset="100%"></stop>
        </linearGradient>
        <linearGradient x1="66123%" y1="23177%" x2="66123%" y2="0%" id="linearGradient-6">
            <stop stop-color="#808080" stop-opacity="0.25" offset="0%"></stop>
            <stop stop-color="#808080" stop-opacity="0.12" offset="54%"></stop>
            <stop stop-color="#808080" stop-opacity="0.1" offset="100%"></stop>
        </linearGradient>
        <linearGradient x1="11589%" y1="48262%" x2="11589%" y2="25085%" id="linearGradient-7">
            <stop stop-color="#808080" stop-opacity="0.25" offset="0%"></stop>
            <stop stop-color="#808080" stop-opacity="0.12" offset="54%"></stop>
            <stop stop-color="#808080" stop-opacity="0.1" offset="100%"></stop>
        </linearGradient>
        <linearGradient x1="66555%" y1="49547%" x2="66555%" y2="26370%" id="linearGradient-8">
            <stop stop-color="#808080" stop-opacity="0.25" offset="0%"></stop>
            <stop stop-color="#808080" stop-opacity="0.12" offset="54%"></stop>
            <stop stop-color="#808080" stop-opacity="0.1" offset="100%"></stop>
        </linearGradient>
        <linearGradient x1="11672%" y1="74315%" x2="11672%" y2="51138%" id="linearGradient-9">
            <stop stop-color="#808080" stop-opacity="0.25" offset="0%"></stop>
            <stop stop-color="#808080" stop-opacity="0.12" offset="54%"></stop>
            <stop stop-color="#808080" stop-opacity="0.1" offset="100%"></stop>
        </linearGradient>
        <linearGradient x1="39203%" y1="75644%" x2="39203%" y2="52467%" id="linearGradient-10">
            <stop stop-color="#808080" stop-opacity="0.25" offset="0%"></stop>
            <stop stop-color="#808080" stop-opacity="0.12" offset="54%"></stop>
            <stop stop-color="#808080" stop-opacity="0.1" offset="100%"></stop>
        </linearGradient>
    </defs>
    <g id="Page-1" stroke="none" stroke-width="1" fill="none" fill-rule="evenodd">
        <g id="hiring" transform="translate(30.000000, 25.000000)">
            <g id="Rectangle-Copy-6">
                <use fill="black" fill-opacity="1" filter="url(#filter-2)" xlink:href="#path-1"></use>
                <use fill="#FFFFFF" fill-rule="evenodd" xlink:href="#path-1"></use>
            </g>
            <text id="We-are-hiring-develo" font-family="Lato-Bold, Lato" font-size="18" font-weight="bold" letter-spacing="0.200000003" fill="#403F4C">
                <tspan x="110" y="32">We are hiring developers!</tspan>
            </text>
            <text id="Love-what-we-do?-The" font-family="Lato-Regular, Lato" font-size="16" font-weight="normal" line-spacing="21" letter-spacing="0.0199999996" fill="#8C8C8C">
                <tspan x="110" y="56">Love what we do? Then it's just the right time </tspan>
                <tspan x="110" y="77">to join our team. Read more!</tspan>
            </text>
            <g transform="translate(16.000000, 14.000000)">
                <g id="Group" opacity="0.5" fill-rule="nonzero" fill="url(#linearGradient-3)">
                    <ellipse id="Oval" cx="11.0207725" cy="11.0085345" rx="10.9424034" ry="10.989569"></ellipse>
                </g>
                <circle id="Oval" fill="#F5F5F5" fill-rule="nonzero" cx="10.5" cy="11.5" r="10.5"></circle>
                <path d="M11.1308235,21.9999857 C13.217199,22.0033936 15.2584286,21.3970211 17,20.2564741 C16.6065882,18.1224009 15.1091765,18 15.1091765,18 L6.85411765,18 C6.85411765,18 5.44235294,18.114926 5,20.0789461 C6.7948296,21.3322842 8.93645138,22.0033425 11.1308235,21.9999857 L11.1308235,21.9999857 Z" id="Shape" fill="#4285F4" fill-rule="nonzero"></path>
                <circle id="Oval" fill="#333333" fill-rule="nonzero" cx="10.5" cy="10.5" r="4.5"></circle>
                <path d="M9,15 L12,15 L12,17.4617408 C12,18.3112979 11.3286185,19 10.5004275,19 L10.5004275,19 C9.67223643,19 9.00085494,18.3112979 9.00085494,17.4617408 L9.00085494,15 L9,15 Z" id="Shape" fill="#000000" fill-rule="nonzero" opacity="0.1"></path>
                <path d="M9.28563284,15 L11.713512,15 C11.8717349,15 12,15.1315366 12,15.2937952 L12,17.4617408 C12,18.3112979 11.3284271,19 10.5,19 L10.5,19 C9.67157288,19 9,18.3112979 9,17.4617408 L9,15.2937952 C8.9999993,15.1318785 9.12774395,15.0004833 9.28563284,15 Z" id="Shape" fill="#BE7C5E" fill-rule="nonzero"></path>
                <path d="M9,16.5684588 C9.96683026,17.1391646 11.0311259,17.1439548 12,16.5819614 L12,16 L9,16 L9,16.5684588 Z" id="Shape" fill="#000000" fill-rule="nonzero" opacity="0.1"></path>
                <circle id="Oval" fill="#BE7C5E" fill-rule="nonzero" cx="10.5" cy="11.5" r="4.5"></circle>
                <path d="M8.29720553,9.86174634 C8.35177955,9.65939344 8.42022831,9.43652549 8.60060006,9.33115278 C8.74304749,9.24722761 8.9197193,9.26028264 9.08436633,9.26867516 C10.3700931,9.3395453 11.6447201,9.04394221 12.8952976,8.73528409 C13.6103097,8.55904123 14.3752709,8.34456581 14.8377625,7.76361714 C15.3002542,7.18266848 14.6971651,5.35682982 13.9932528,5.14142189 C13.5307611,4.99874911 12.9942708,5.26451214 12.5558287,5.05563172 C12.3606572,4.96238154 12.2172848,4.78800369 12.0489378,4.65185841 C11.7039191,4.37210785 11.2608521,4.25927513 10.8316598,4.15296992 C10.3303189,4.02801466 9.78827863,3.90585692 9.31191223,4.10634482 C8.9419189,4.26114013 8.67182377,4.58844829 8.3212551,4.78240868 C7.65434213,5.15540942 6.8412818,4.98196407 6.07724559,4.98009907 C5.81917524,4.98009907 5.5111558,5.03231918 5.40848265,5.27103965 C5.3391089,5.43329498 5.3946079,5.61793035 5.40200777,5.7941732 C5.42420737,6.35367432 4.96634063,6.78915269 4.58247255,7.192926 C4.19860448,7.59669931 3.83601102,8.17298546 4.07835665,8.67467147 C4.17085498,8.86583435 4.34012693,9.01037214 4.43632519,9.19967002 C4.6018972,9.52791067 4.51864871,9.92422397 4.57877262,10.2869672 C4.63897121,10.5622159 4.7409982,10.8264339 4.88124216,11.0702688 C5.16613702,11.6297699 6.59708621,14.6417509 7.25474934,13.8761669 C7.5729436,13.5031661 7.62474267,12.425194 7.75331535,11.940293 C7.93091214,11.2434033 8.11220887,10.5505544 8.29720553,9.86174634 Z" id="Shape" fill="#333333" fill-rule="nonzero"></path>
                <ellipse id="Oval" fill="#BE7C5E" fill-rule="nonzero" cx="7.5" cy="12" rx="1" ry="1"></ellipse>
                <g id="Group" opacity="0.5" transform="translate(25.000000, 24.000000)" fill-rule="nonzero" fill="url(#linearGradient-4)">
                    <ellipse id="Oval" cx="11.0075862" cy="10.9830043" rx="10.989569" ry="10.9424034"></ellipse>
                </g>
                <circle id="Oval" fill="#F5F5F5" fill-rule="nonzero" cx="35.5" cy="34.5" r="10.5"></circle>
                <path d="M36.1332078,45.999986 C38.2187924,46.0026601 40.2590885,45.3963185 42,44.2564742 C41.6064956,42.1224009 40.1087315,42 40.1087315,42 L31.854554,42 C31.854554,42 30.442457,42.114926 30,44.0789462 C31.7955147,45.3324684 33.937998,46.0035358 36.1332078,45.999986 Z" id="Shape" fill="#4285F4" fill-rule="nonzero"></path>
                <circle id="Oval" fill="#F55F44" fill-rule="nonzero" cx="36" cy="35" r="5"></circle>
                <path d="M34,39 L37,39 L37,41.4617408 C37,42.3112979 36.3286185,43 35.5004275,43 L35.5004275,43 C34.6722364,43 34.0008549,42.3112979 34.0008549,41.4617408 L34.0008549,39 L34,39 Z" id="Shape" fill="#000000" fill-rule="nonzero" opacity="0.1"></path>
                <path d="M34.2856328,39 L36.713512,39 C36.7894933,39 36.8623627,39.0309533 36.9160896,39.0860506 C36.9698165,39.1411479 37,39.2158759 37,39.2937952 L37,41.4617408 C37,41.8697125 36.8419647,42.2609748 36.5606602,42.5494543 C36.2793556,42.8379339 35.8978247,43 35.5,43 L35.5,43 C35.1021753,43 34.7206444,42.8379339 34.4393398,42.5494543 C34.1580353,42.2609748 34,41.8697125 34,41.4617408 L34,39.2937952 C34,39.1315366 34.1282651,39 34.286488,39 L34.2856328,39 Z" id="Shape" fill="#FDA57D" fill-rule="nonzero"></path>
                <path d="M34,40.5684588 C34.9668303,41.1391646 36.0311259,41.1439548 37,40.5819614 L37,40 L34,40 L34,40.5684588 Z" id="Shape" fill="#000000" fill-rule="nonzero" opacity="0.1"></path>
                <circle id="Oval" fill="#FDA57D" fill-rule="nonzero" cx="35.5" cy="35.5" r="4.5"></circle>
                <circle id="Oval" fill="#F55F44" fill-rule="nonzero" cx="36" cy="30" r="2"></circle>
                <circle id="Oval" fill="#F55F44" fill-rule="nonzero" cx="36" cy="27" r="1"></circle>
                <path d="M35.3031886,30.6418648 C34.2936441,30.1901911 33.8182068,29.0269188 34.2234406,28 C34.2091122,28.0285828 34.1947838,28.0581864 34.1814788,28.0877899 C33.8785409,28.7613935 33.9589089,29.5450268 34.392309,30.1435027 C34.8257091,30.7419785 35.5462976,31.0643742 36.2826357,30.9892465 C37.0189737,30.9141187 37.6591941,30.4528812 37.9621321,29.7792776 C37.975437,29.749674 37.9877185,29.7200704 38,29.689446 C37.5004902,30.6745052 36.3128732,31.0939297 35.3031886,30.6418648 Z" id="Shape" fill="#F55F44" fill-rule="nonzero"></path>
                <path d="M33,31.3183777 C33,31.3183777 35.0928395,35.7856936 41,33.1884169 L39.6251852,30.9204749 L37.188642,30 L33,31.3183777 Z" id="Shape" fill="#000000" fill-rule="nonzero" opacity="0.1"></path>
                <path d="M33,31.3183777 C33,31.3183777 35.0928395,35.7856936 41,33.1884169 L39.6251852,30.9204749 L37.188642,30 L33,31.3183777 Z" id="Shape" fill="#F55F44" fill-rule="nonzero"></path>
                <path d="M34,30.1957466 C35.3312778,29.9347511 36.6687222,29.9347511 38,30.1957466 C38,30.1957466 35.0454313,30.8803168 34,30.1957466 Z" id="Shape" fill="#333333" fill-rule="nonzero"></path>
                <path d="M36.1855224,26.000674 C36.1233429,25.9978975 36.0611051,26.0037055 36,26.017987 L36.0476174,26.017987 C36.4667676,26.0343077 36.8084841,26.4324091 36.8402471,26.9414045 C36.8720101,27.4503998 36.5836149,27.9067609 36.171299,27.9999583 C36.6248606,28.004947 36.9958673,27.5614362 36.9999658,27.0093491 C37.0040642,26.4572619 36.6397024,26.0056627 36.1861408,26.000674 L36.1855224,26.000674 Z" id="Shape" fill="#F55F44" fill-rule="nonzero"></path>
                <ellipse id="Oval" fill="#FDA57D" fill-rule="nonzero" cx="31.5" cy="36" rx="1" ry="1"></ellipse>
                <ellipse id="Oval" fill="#FDA57D" fill-rule="nonzero" cx="40.5" cy="36" rx="1" ry="1"></ellipse>
                <polygon id="Shape" fill="#F55F44" fill-rule="nonzero" points="32 31.4147541 32.8161398 31 33 31.6647541 32.5 32"></polygon>
                <g id="Group" opacity="0.5" transform="translate(25.000000, 0.000000)" fill-rule="nonzero" fill="url(#linearGradient-5)">
                    <ellipse id="Oval" cx="10.9971552" cy="10.9905579" rx="10.989569" ry="10.9424034"></ellipse>
                </g>
                <circle id="Oval" fill="#F5F5F5" fill-rule="nonzero" cx="35.5" cy="10.5" r="10.5"></circle>
                <path d="M31.8713524,11 C31.8713524,11 30.6608095,16.904863 30,16.577747 C30,16.577747 36.3727644,22.0278162 42,16.577747 C42,16.577747 41.0087857,12.4165707 39.577973,11 L31.8713524,11 Z" id="Shape" fill="#333333" fill-rule="nonzero"></path>
                <path d="M36.1312838,21.9999857 C38.2174956,22.0033936 40.2585651,21.3970211 42,20.2564741 C41.6066191,18.1224009 40.1093248,18 40.1093248,18 L31.8539722,18 C31.8539722,18 30.4423182,18.114926 30,20.0789461 C31.7949514,21.3324682 33.9367627,22.0035355 36.1312838,21.9999857 Z" id="Shape" fill="#4285F4" fill-rule="nonzero"></path>
                <circle id="Oval" fill="#333333" fill-rule="nonzero" cx="35.5" cy="10.5" r="4.5"></circle>
                <path d="M34,15 L37,15 L37,17.4617408 C37.0000012,18.3102715 36.3301815,18.9985487 35.5029923,19 L35.5029923,19 C34.6748013,19 34.0034198,18.3112979 34.0034198,17.4617408 L34.0034198,15 L34,15 Z" id="Shape" fill="#000000" fill-rule="nonzero" opacity="0.1"></path>
                <path d="M34.2833096,15 L36.7132668,15 C36.8716252,15 37,15.1315366 37,15.2937952 L37,17.4617408 C37.0000012,18.3102715 36.3294171,18.9985487 35.5012839,19 L35.5012839,19 C34.6721477,19 34,18.3112979 34,17.4617408 L34,15.2929182 C34.0004566,15.1323615 34.1266226,15.0019164 34.2833096,15 Z" id="Shape" fill="#BE7C5E" fill-rule="nonzero"></path>
                <path d="M34,16.5684588 C34.9668303,17.1391646 36.0311259,17.1439548 37,16.5819614 L37,16 L34,16 L34,16.5684588 Z" id="Shape" fill="#000000" fill-rule="nonzero" opacity="0.1"></path>
                <circle id="Oval" fill="#BE7C5E" fill-rule="nonzero" cx="35.5" cy="11.5" r="4.5"></circle>
                <path d="M31,9 L40,9 C40,9 39.2313869,5.80557403 35.8294056,6.00935069 C32.4274244,6.21312735 31,9 31,9 Z" id="Shape" fill="#333333" fill-rule="nonzero"></path>
                <ellipse id="Oval" fill="#BE7C5E" fill-rule="nonzero" cx="31.5" cy="12" rx="1" ry="1"></ellipse>
                <ellipse id="Oval" fill="#BE7C5E" fill-rule="nonzero" cx="40.5" cy="12" rx="1" ry="1"></ellipse>
                <path d="M31,10 L40,10 C40,10 39.2313869,6.80557403 35.8294056,7.00935069 C32.4274244,7.21312735 31,10 31,10 Z" id="Shape" fill="#000000" fill-rule="nonzero" opacity="0.1"></path>
                <g id="Group" opacity="0.5" transform="translate(51.000000, 0.000000)" fill-rule="nonzero" fill="url(#linearGradient-6)">
                    <ellipse id="Oval" cx="10.9745064" cy="10.989569" rx="10.9424034" ry="10.989569"></ellipse>
                </g>
                <circle id="Oval" fill="#F5F5F5" fill-rule="nonzero" cx="61.5" cy="10.5" r="10.5"></circle>
                <path d="M62.1308235,21.9999857 C64.217199,22.0033928 66.2584286,21.3971619 68,20.2568812 C67.6056471,18.1223723 66.1091765,18 66.1091765,18 L57.8541176,18 C57.8541176,18 56.4423529,18.1148992 56,20.0784606 C57.7947187,21.3318375 59.9363495,22.0030683 62.1308235,21.9999857 Z" id="Shape" fill="#4285F4" fill-rule="nonzero"></path>
                <circle id="Oval" fill="#72351C" fill-rule="nonzero" cx="61" cy="10" r="5"></circle>
                <path d="M60,15 L62.9999978,15 L62.9999978,17.4601227 C63.0006788,17.8682816 62.8429894,18.2599624 62.5616913,18.5488213 C62.2803933,18.8376801 61.8985822,19.0000006 61.5004264,19 L61.5004264,19 C60.6722359,19 60.0008549,18.3117506 60.0008549,17.462752 L60.0008549,15 L60,15 Z" id="Shape" fill="#000000" fill-rule="nonzero" opacity="0.1"></path>
                <path d="M60.2856328,15 L62.713512,15 C62.8717349,15 63,15.1315366 63,15.2937952 L63,17.4617408 C63,18.3112979 62.3284271,19 61.5,19 L61.5,19 C60.6715729,19 60,18.3112979 60,17.4617408 L60,15.2937952 C60,15.1315366 60.1282651,15 60.286488,15 L60.2856328,15 Z" id="Shape" fill="#FDA57D" fill-rule="nonzero"></path>
                <path d="M60,16.5684588 C60.9668303,17.1391646 62.0311259,17.1439548 63,16.5819614 L63,16 L60,16 L60,16.5684588 Z" id="Shape" fill="#000000" fill-rule="nonzero" opacity="0.1"></path>
                <circle id="Oval" fill="#FDA57D" fill-rule="nonzero" cx="61.5" cy="11.5" r="4.5"></circle>
                <path d="M58,7.31837766 C58,7.31837766 60.0928395,11.7856936 66,9.1884169 L64.6251852,6.92047487 L62.188642,6 L58,7.31837766 Z" id="Shape" fill="#000000" fill-rule="nonzero" opacity="0.1"></path>
                <path d="M58,7.31837766 C58,7.31837766 60.0928395,11.7856936 66,9.1884169 L64.6251852,6.92047487 L62.188642,6 L58,7.31837766 Z" id="Shape" fill="#72351C" fill-rule="nonzero"></path>
                <path d="M58.0992942,7.33968123 C58.234506,6.91410154 58.4681975,6.52771885 58.7807419,6.21298381 C59.7167861,5.27198461 61.2519364,5.07377823 62.0393871,4 C62.1259082,4.15367804 62.144405,4.33740449 62.0903,4.50571406 C62.0361951,4.67402362 61.9145439,4.8111898 61.7554505,4.88326919 C62.5126147,4.87845836 63.3842999,4.81110668 63.8102047,4.17992521 C64.0253548,4.68902023 63.9328785,5.27855842 63.5726445,5.69437587 C64.2408418,5.72516521 64.954469,6.18604314 64.998006,6.86533296 C65.0263996,7.31755139 64.7481418,7.74571565 64.3818636,8.0055007 C64.0155855,8.26528576 63.5745374,8.38170795 63.139168,8.47792464 C61.8690252,8.7665747 57.2701994,9.96062379 58.0992942,7.33968123 Z" id="Shape" fill="#72351C" fill-rule="nonzero"></path>
                <path d="M65.999105,12 L65.8800716,12 L63.5584726,14.3023779 C61.3210024,13.136743 59.6795943,14.3023779 59.6795943,14.3023779 L57.2452267,12.0966381 L57,12.1305113 C57.0690822,14.8666778 59.0980767,17.0346905 61.5568519,16.9995795 C64.0156271,16.9644685 65.9939936,14.7392313 66,12.0019925 L65.999105,12 Z M61.4919451,15.1830798 C60.6166468,15.1830798 59.9069212,14.983826 59.9069212,14.7417326 C59.9069212,14.4996392 60.6166468,14.3003854 61.4919451,14.3003854 C62.3672434,14.3003854 63.076969,14.4996392 63.076969,14.7417326 C63.076969,14.983826 62.3672434,15.1830798 61.4910501,15.1830798 L61.4919451,15.1830798 Z" id="Shape" fill="#72351C" fill-rule="nonzero"></path>
                <ellipse id="Oval" fill="#FDA57D" fill-rule="nonzero" cx="56.5" cy="12" rx="1" ry="1"></ellipse>
                <ellipse id="Oval" fill="#FDA57D" fill-rule="nonzero" cx="66.5" cy="12" rx="1" ry="1"></ellipse>
                <g id="Group" opacity="0.5" transform="translate(0.000000, 24.000000)" fill-rule="nonzero" fill="url(#linearGradient-7)">
                    <ellipse id="Oval" cx="10.989569" cy="11.0217167" rx="10.989569" ry="10.9424034"></ellipse>
                </g>
                <circle id="Oval" fill="#F5F5F5" fill-rule="nonzero" cx="10.5" cy="34.5" r="10.5"></circle>
                <path d="M11.1336051,44.9999793 C13.2190059,45.0032037 15.2592421,44.3968398 17,43.2564704 C16.6067116,41.1224007 15.1097695,41 15.1097695,41 L6.85353615,41 C6.85353615,41 5.44221421,41.1149258 5,43.0789427 C6.79557911,44.3331991 8.93831625,45.0043014 11.1336051,44.9999793 L11.1336051,44.9999793 Z" id="Shape" fill="#4285F4" fill-rule="nonzero"></path>
                <circle id="Oval" fill="#333333" fill-rule="nonzero" cx="11" cy="34" r="5"></circle>
                <path d="M9,38 L12,38 L12,40.4617408 C12,41.3112979 11.3286185,42 10.5004275,42 L10.5004275,42 C10.1027161,42 9.72129397,41.8379339 9.44006957,41.5494543 C9.15884517,41.2609748 9.00085494,40.8697125 9.00085494,40.4617408 L9.00085494,38 L9,38 Z" id="Shape" fill="#000000" fill-rule="nonzero" opacity="0.1"></path>
                <path d="M9.28640638,38.0008764 L11.7135936,38.0008764 C11.8717715,38.0008764 12,38.1323266 12,38.2944785 L12,40.4627518 C12,41.3117504 11.3286185,41.9999997 10.5004275,41.9999997 L10.5004275,41.9999997 C10.102568,42.0002323 9.72092619,41.8383754 9.43951685,41.5500602 C9.15810751,41.2617451 8.99999994,40.8706072 9,40.4627518 L9,38.2936021 C9,38.1314501 9.12822851,38 9.28640638,38 L9.28640638,38.0008764 Z" id="Shape" fill="#FDB797" fill-rule="nonzero"></path>
                <path d="M9,39.5701998 C9.96683026,40.1386031 11.0311259,40.1433741 12,39.5836479 L12,39 L9,39 L9,39.5701998 Z" id="Shape" fill="#000000" fill-rule="nonzero" opacity="0.1"></path>
                <circle id="Oval" fill="#FDB797" fill-rule="nonzero" cx="10.5" cy="34.5" r="4.5"></circle>
                <path d="M7,31.3183777 C7,31.3183777 9.09283951,35.7856936 15,33.1884169 L13.6251852,30.9204749 L11.188642,30 L7,31.3183777 Z" id="Shape" fill="#000000" fill-rule="nonzero" opacity="0.1"></path>
                <path d="M7,31.3183777 C7,31.3183777 9.09283951,35.7856936 15,33.1884169 L13.6251852,30.9204749 L11.188642,30 L7,31.3183777 Z" id="Shape" fill="#333333" fill-rule="nonzero"></path>
                <path d="M7.09931188,30.3384052 C7.2345233,29.9129882 7.4682142,29.5267531 7.78075786,29.2121383 C8.71679963,28.2714986 10.251946,28.073368 11.0393947,27 C11.1259156,27.1536193 11.1444123,27.3372756 11.0903075,27.5055208 C11.0362027,27.6737661 10.9145518,27.8108799 10.7554589,27.8829317 C11.5126211,27.8781227 12.384304,27.8107968 12.8102078,27.1798565 C13.0253573,27.688757 12.9328812,28.2780699 12.5726481,28.6937285 C13.2408438,28.7245061 13.9544691,29.1852079 13.998006,29.8642382 C14.0263996,30.3162839 13.7481424,30.7442845 13.3818652,31.0039703 C13.015588,31.2636561 12.5735946,31.3819574 12.1382263,31.480061 C10.8680867,31.7666771 6.27021927,32.96027 7.09931188,30.3384052 Z" id="Shape" fill="#333333" fill-rule="nonzero"></path>
                <ellipse id="Oval" fill="#FDB797" fill-rule="nonzero" cx="6.5" cy="35" rx="1" ry="1"></ellipse>
                <ellipse id="Oval" fill="#FDB797" fill-rule="nonzero" cx="15.5" cy="35" rx="1" ry="1"></ellipse>
                <g id="Group" opacity="0.5" transform="translate(51.000000, 25.000000)" fill-rule="nonzero" fill="url(#linearGradient-8)">
                    <circle id="Oval" cx="11.004721" cy="11.0075536" r="10.9424034"></circle>
                </g>
                <circle id="Oval" fill="#F5F5F5" fill-rule="nonzero" cx="62.5" cy="35.5" r="10.5"></circle>
                <path d="M62.1312838,45.9999857 C64.2174956,46.0033936 66.2585651,45.3970211 68,44.2564741 C67.6066191,42.1224009 66.1093248,42 66.1093248,42 L57.8539722,42 C57.8539722,42 56.4423182,42.114926 56,44.0789461 C57.7949514,45.3324682 59.9367627,46.0035355 62.1312838,45.9999857 Z" id="Shape" fill="#4285F4" fill-rule="nonzero"></path>
                <path d="M60,40 L63,40 L63,42.4617407 C63,43.3112977 62.3286185,43.9999997 61.5004275,43.9999997 L61.5004275,43.9999997 C61.102568,44.0002324 60.7209262,43.838269 60.4395168,43.5497643 C60.1581075,43.2612595 59.9999999,42.8698644 60,42.4617407 L60,40 Z" id="Shape" fill="#000000" fill-rule="nonzero" opacity="0.1"></path>
                <path d="M60.2864064,40 L62.7135936,40 C62.8717715,40 63,40.1315366 63,40.2937952 L63,42.4617407 C63,43.3112977 62.3286185,43.9999997 61.5004275,43.9999997 L61.5004275,43.9999997 C61.102568,44.0002324 60.7209262,43.838269 60.4395168,43.5497643 C60.1581075,43.2612595 59.9999999,42.8698644 60,42.4617407 L60,40.2937952 C60,40.1315366 60.1282285,40 60.2864064,40 L60.2864064,40 Z" id="Shape" fill="#FDB797" fill-rule="nonzero"></path>
                <path d="M60,40.5684588 C60.9668303,41.1391646 62.0311259,41.1439548 63,40.5819614 L63,40 L60,40 L60,40.5684588 Z" id="Shape" fill="#000000" fill-rule="nonzero" opacity="0.1"></path>
                <circle id="Oval" fill="#FDB797" fill-rule="nonzero" cx="61.5" cy="36.5" r="4.5"></circle>
                <ellipse id="Oval" fill="#FDB797" fill-rule="nonzero" cx="57.5" cy="36" rx="1" ry="1"></ellipse>
                <ellipse id="Oval" fill="#FDB797" fill-rule="nonzero" cx="66.5" cy="36" rx="1" ry="1"></ellipse>
                <rect id="Rectangle-path" stroke="#333333" stroke-width="2" x="59" y="36" width="2" height="1" rx="0.5"></rect>
                <rect id="Rectangle-path" stroke="#333333" stroke-width="2" transform="translate(64.000000, 36.500000) rotate(180.000000) translate(-64.000000, -36.500000) " x="63" y="36" width="2" height="1" rx="0.5"></rect>
                <path d="M61,36.5 C61,36.5 61.6994872,35.375 63,36.5" id="Shape" stroke="#333333" stroke-width="2"></path>
                <path d="M65,33 L65.7487294,36 C65.7487294,36 66.664315,34.0097663 65,33 Z" id="Shape" fill="#858585" fill-rule="nonzero"></path>
                <path d="M65,36 L67,35" id="Shape" stroke="#333333" stroke-width="2" stroke-linecap="round" stroke-linejoin="round"></path>
                <path d="M58,33 L57.2512706,36 C57.2512706,36 56.335685,34.0097663 58,33 Z" id="Shape" fill="#858585" fill-rule="nonzero"></path>
                <path d="M59,36 L57,35" id="Shape" stroke="#333333" stroke-width="2" stroke-linecap="round" stroke-linejoin="round"></path>
                <g id="Group" opacity="0.5" transform="translate(0.000000, 48.000000)" fill-rule="nonzero" fill="url(#linearGradient-9)">
                    <circle id="Oval" cx="11.0207725" cy="10.9773391" r="10.9424034"></circle>
                </g>
                <circle id="Oval" fill="#F5F5F5" fill-rule="nonzero" cx="10.5" cy="58.5" r="10.5"></circle>
                <path d="M16,59.8298632 C16,63.6960804 13.5370842,68 10.4986448,68 C7.46020534,68 5,63.6960804 5,59.8298632 C5,55.963646 7.46291581,54 10.5013552,54 C13.5397947,54 16,55.9645714 16,59.8298632 Z" id="Shape" fill="#FDD835" fill-rule="nonzero"></path>
                <path d="M11.1308235,68.9999857 C13.217199,69.0033936 15.2584286,68.3970211 17,67.2564741 C16.6065882,65.1224009 15.1091765,65 15.1091765,65 L6.85411765,65 C6.85411765,65 5.44235294,65.114926 5,67.0789461 C6.7948296,68.3322842 8.93645138,69.0033425 11.1308235,68.9999857 L11.1308235,68.9999857 Z" id="Shape" fill="#4285F4" fill-rule="nonzero"></path>
                <path d="M9,63 L12,63 L12,65.4617408 C12,66.3112979 11.3286185,67 10.5004275,67 L10.5004275,67 C9.67223643,67 9.00085494,66.3112979 9.00085494,65.4617408 L9.00085494,63 L9,63 Z" id="Shape" fill="#000000" fill-rule="nonzero" opacity="0.1"></path>
                <path d="M9.28563284,63 L11.713512,63 C11.8717349,63 12,63.1315366 12,63.2937952 L12,65.4617408 C12,66.3112979 11.3284271,67 10.5,67 L10.5,67 C9.67157288,67 9,66.3112979 9,65.4617408 L9,63.2937952 C8.9999993,63.1318785 9.12774395,63.0004833 9.28563284,63 Z" id="Shape" fill="#FDB797" fill-rule="nonzero"></path>
                <path d="M9,64.5684588 C9.96683026,65.1391646 11.0311259,65.1439548 12,64.5819614 L12,64 L9,64 L9,64.5684588 Z" id="Shape" fill="#000000" fill-rule="nonzero" opacity="0.1"></path>
                <circle id="Oval" fill="#FDB797" fill-rule="nonzero" cx="10.5" cy="59.5" r="4.5"></circle>
                <ellipse id="Oval" fill="#FDB797" fill-rule="nonzero" cx="6.5" cy="60" rx="1" ry="1"></ellipse>
                <ellipse id="Oval" fill="#FDB797" fill-rule="nonzero" cx="15.5" cy="60" rx="1" ry="1"></ellipse>
                <path d="M7,56.4924807 C7,56.4924807 9.69022202,59.9295946 15.8598483,58.7556228 C15.8598483,58.7556228 16.5487268,57.9729749 14.8719511,55.5702636 C13.1951754,53.1675523 8.52632012,53.5588763 7,56.4924807 Z" id="Shape" fill="#000000" fill-rule="nonzero" opacity="0.1"></path>
                <path d="M7,56.4924807 C7,56.4924807 9.69022202,59.9295946 15.8598483,58.7556228 C15.8598483,58.7556228 16.5487268,57.9729749 14.8719511,55.5702636 C13.1951754,53.1675523 8.52632012,53.5588763 7,56.4924807 Z" id="Shape" fill="#FDD835" fill-rule="nonzero"></path>
                <g id="Group" opacity="0.5" transform="translate(26.000000, 49.000000)" fill-rule="nonzero" fill="url(#linearGradient-10)">
                    <ellipse id="Oval" cx="11.0028448" cy="11.004721" rx="10.989569" ry="10.9424034"></ellipse>
                </g>
                <circle id="Oval" fill="#F5F5F5" fill-rule="nonzero" cx="36.5" cy="59.5" r="10.5"></circle>
                <path d="M43,61.5786264 C43,65.2121309 40.4480703,67 37.133668,67 C33.8192658,67 31,65.2121309 31,61.5786264 C31,57.945122 33.6865391,55 37,55 C40.3134609,55 43,57.9422336 43,61.5786264 Z" id="Shape" fill="#333333" fill-rule="nonzero"></path>
                <path d="M37.1303427,70.9999841 C39.2168749,71.0035756 41.2582978,70.3971955 43,69.2564732 C42.6066191,67.1224008 41.1093248,67 41.1093248,67 L32.8539722,67 C32.8539722,67 31.4423182,67.114926 31,69.0789453 C32.7946888,70.3322828 34.9361427,71.0033409 37.1303427,70.9999841 L37.1303427,70.9999841 Z" id="Shape" fill="#4285F4" fill-rule="nonzero"></path>
                <path d="M35.0025626,64 L37.9999978,64 L37.9999978,66.4601202 C38.0006803,66.8688869 37.8426569,67.2611003 37.5608594,67.5500601 C37.2790619,67.83902 36.8966979,68.0009288 36.4982905,67.999996 L36.4982905,67.999996 C36.1009191,67.999996 35.7198231,67.8380366 35.4388391,67.5497469 C35.1578552,67.2614573 35,66.8704526 35,66.4627495 L35,64 L35.0025626,64 Z" id="Shape" fill="#000000" fill-rule="nonzero" opacity="0.1"></path>
                <path d="M35.2879522,64.0008768 L37.7137568,64.0008768 C37.8718445,64.0008768 38,64.1323845 38,64.2946075 L38,66.4620766 C38.0000006,66.8704148 37.8417485,67.2619903 37.5601297,67.5504821 C37.2785108,67.838974 36.8966471,68.0006962 36.4987183,67.9999977 L36.4987183,67.9999977 C36.1012335,67.9999977 35.7200286,67.8379672 35.4389644,67.5495511 C35.1579002,67.2611349 35,66.8699587 35,66.4620766 L35,64.2937307 C35,64.2158284 35.0301577,64.1411169 35.0838387,64.0860317 C35.1375197,64.0309465 35.2103268,64 35.2862432,64 L35.2879522,64.0008768 Z" id="Shape" fill="#FDA57D" fill-rule="nonzero"></path>
                <path d="M35,65.5684588 C35.9668303,66.1391646 37.0311259,66.1439548 38,65.5819614 L38,65 L35,65 L35,65.5684588 Z" id="Shape" fill="#000000" fill-rule="nonzero" opacity="0.1"></path>
                <circle id="Oval" fill="#FDA57D" fill-rule="nonzero" cx="36.5" cy="60.5" r="4.5"></circle>
                <path d="M31,61 C31,61 34.0284219,60.6729082 36.3181099,58.0596173 C36.3181099,58.0596173 39.3465318,61.0275446 41.456371,60.7004528 C41.456371,60.7004528 42.6795363,59.5564925 41.456371,58.4133929 C40.2332057,57.2702933 39.2846483,55.8267857 37.6640752,56.0170154 C36.043502,56.2072451 34.0545289,56.289018 33.1987967,56.9698853 C32.3430645,57.6507526 31,61 31,61 Z" id="Shape" fill="#000000" fill-rule="nonzero" opacity="0.1"></path>
                <path d="M31,61 C31,61 34.0284219,60.6729082 36.3181099,58.0596173 C36.3181099,58.0596173 39.3465318,61.0275446 41.456371,60.7004528 C41.456371,60.7004528 42.6795363,59.5564925 41.456371,58.4133929 C40.2332057,57.2702933 39.2846483,55.8267857 37.6640752,56.0170154 C36.043502,56.2072451 34.0583967,56.2855749 33.2026644,56.9741892 C32.3469322,57.6628034 31,61 31,61 Z" id="Shape" fill="#333333" fill-rule="nonzero"></path>
                <ellipse id="Oval" fill="#FDA57D" fill-rule="nonzero" cx="31.5" cy="61" rx="1" ry="1"></ellipse>
                <ellipse id="Oval" fill="#FDA57D" fill-rule="nonzero" cx="41.5" cy="61" rx="1" ry="1"></ellipse>
            </g>
        </g>
    </g>
</svg>