<?xml version="1.0" encoding="UTF-8"?>
<svg width="501px" height="160px" viewBox="0 0 501 160" version="1.1" xmlns="http://www.w3.org/2000/svg" xmlns:xlink="http://www.w3.org/1999/xlink">
    <!-- Generator: Sketch 47.1 (45422) - http://www.bohemiancoding.com/sketch -->
    <title>product</title>
    <desc>Created with Sketch.</desc>
    <defs>
        <rect id="path-1" x="0" y="0" width="441" height="100" rx="8"></rect>
        <filter x="-10.8%" y="-42.5%" width="121.5%" height="195.0%" filterUnits="objectBoundingBox" id="filter-2">
            <feOffset dx="0" dy="5" in="SourceAlpha" result="shadowOffsetOuter1"></feOffset>
            <feGaussianBlur stdDeviation="15" in="shadowOffsetOuter1" result="shadowBlurOuter1"></feGaussianBlur>
            <feColorMatrix values="0 0 0 0 0   0 0 0 0 0   0 0 0 0 0  0 0 0 0.2 0" type="matrix" in="shadowBlurOuter1"></feColorMatrix>
        </filter>
        <linearGradient x1="50.0175487%" y1="100%" x2="50.0175487%" y2="0.0625978091%" id="linearGradient-3">
            <stop stop-color="#808080" stop-opacity="0.25" offset="0%"></stop>
            <stop stop-color="#808080" stop-opacity="0.12" offset="54%"></stop>
            <stop stop-color="#808080" stop-opacity="0.1" offset="100%"></stop>
        </linearGradient>
        <linearGradient x1="83907%" y1="80744%" x2="83907%" y2="17194%" id="linearGradient-4">
            <stop stop-color="#808080" stop-opacity="0.25" offset="0%"></stop>
            <stop stop-color="#808080" stop-opacity="0.12" offset="54%"></stop>
            <stop stop-color="#808080" stop-opacity="0.1" offset="100%"></stop>
        </linearGradient>
    </defs>
    <g id="Page-1" stroke="none" stroke-width="1" fill="none" fill-rule="evenodd">
        <g id="product" transform="translate(30.000000, 25.000000)">
            <g id="Rectangle">
                <use fill="black" fill-opacity="1" filter="url(#filter-2)" xlink:href="#path-1"></use>
                <use fill="#FFFFFF" fill-rule="evenodd" xlink:href="#path-1"></use>
            </g>
            <text id="New-feature:-Project" font-family="Lato-Bold, Lato" font-size="18" font-weight="bold" letter-spacing="0.200000003" fill="#403F4C">
                <tspan x="110" y="32">New feature: Project Module</tspan>
                <tspan x="348.401" y="32"> </tspan>
            </text>
            <text id="Click-here-to-read-m" font-family="Lato-Regular, Lato" font-size="16" font-weight="normal" line-spacing="21" letter-spacing="0.0199999996" fill="#8C8C8C">
                <tspan x="110" y="56">Click here to read more about our completely </tspan>
                <tspan x="110" y="77">redesigned project module</tspan>
                <tspan x="296.692" y="77" letter-spacing="0.622222245">.</tspan>
            </text>
            <g transform="translate(7.000000, 14.000000)">
                <ellipse id="Oval" fill="#4285F4" fill-rule="nonzero" opacity="0.1" cx="73" cy="64.5" rx="10" ry="1.5"></ellipse>
                <ellipse id="Oval" fill="#4285F4" fill-rule="nonzero" opacity="0.1" cx="43.5" cy="64" rx="14.5" ry="1"></ellipse>
                <path d="M35.0832434,5.62069872 C37.7301973,3.32084749 41.8853776,2.85252606 45.6643411,3.03592466 C57.5420432,3.6090453 68.2633824,9.20188394 77.5377985,15.525042 C80.8968772,17.8175245 84.200531,20.2811245 86.3797333,23.4341068 C90.8162364,29.8514204 89.5003173,38.7446151 83.3313694,44.0279686 C81.2319453,45.8292049 78.688283,47.2055132 76.0757595,48.4278976 C71.4318333,50.6016623 66.4184085,52.3464052 61.1496936,52.842564 C57.3908846,53.19708 53.5850485,52.9088822 49.8480735,52.4151797 C39.4080571,51.0347777 29.160348,47.9816822 20.5728634,42.7589158 C16.8056567,40.4664332 13.2542709,37.6204799 11.7015367,33.9164831 C10.1488026,30.2124864 11.1430899,25.5145347 14.989235,23.3211201 C16.5847973,22.413952 18.4826768,22.0045801 20.3452859,21.6197706 C23.086294,21.0531999 25.87181,20.4948167 28.3457714,19.3436629 C30.9020302,18.1532095 33.925201,15.8533583 33.4213392,13.2219158 C32.8754889,10.3964311 32.4396485,7.91727497 35.0832434,5.62069872 Z" id="Shape" fill="#4285F4" fill-rule="nonzero" opacity="0.1"></path>
                <path d="M25,18 L24,18" id="Shape" fill="#4285F4" fill-rule="nonzero"></path>
                <g id="Group" opacity="0.1" transform="translate(31.000000, 12.000000)" fill-rule="nonzero" fill="#000000">
                    <path d="M14.1898119,43.9080195 C14.5148276,44.4486526 15.0243574,44.7972078 15.5982132,44.7972078 C16.5783386,44.7972078 17.3756426,43.7813474 17.3756426,42.5270455 C17.3756426,41.2727435 16.5757994,40.2651623 15.5982132,40.2651623 C15.1369279,40.2651623 14.7162696,40.4903571 14.4005643,40.8604383 C14.2808435,41.0020187 14.1793621,41.1574529 14.0984013,41.3232468 L14.0814734,41.4217695 C14.0814734,41.4217695 13.7031348,41.7380357 13.1876803,41.4474351 L13.1876803,34.0938312 L5.84774295,34.0938312 C5.72717196,33.9393403 5.69379972,33.7360155 5.75887147,33.5523701 C5.81369514,33.3842825 5.93207279,33.2430197 6.08981191,33.1574513 C6.64250784,32.8395292 6.99968652,32.3411201 6.99968652,31.779789 C6.99968652,30.8210552 5.96031348,30.0411526 4.67887147,30.0411526 C3.39742947,30.0411526 2.35805643,30.8185714 2.35805643,31.779789 C2.35805643,32.2310065 2.58912226,32.6433117 2.96746082,32.9521266 C3.11206205,33.0687801 3.27066117,33.1677568 3.43974922,33.2468669 L3.44990596,33.2634253 C3.67776688,33.4790981 3.73510615,33.8149533 3.59125392,34.0913474 L0.281003135,34.0913474 L0.281003135,47.7090097 C0.281003135,49.4922798 1.75888451,50.9379058 3.58194357,50.9379058 L13.1902194,50.9379058 L13.1902194,43.7118019 C13.3498918,43.5635348 13.5811567,43.5155395 13.7886207,43.5876136 C13.9592708,43.6403871 14.1028133,43.7550253 14.1898119,43.9080195 Z" id="Shape"></path>
                    <path d="M1.83667712,33.8073701 L2.9860815,33.8073701 C2.41984292,33.3818398 2.08547727,32.7249553 2.07959248,32.0265097 C2.07959248,30.7357792 3.23068966,29.6901136 4.65009404,29.6901136 C6.06949843,29.6901136 7.22144201,30.7357792 7.22144201,32.0265097 C7.21555721,32.7249553 6.88119157,33.3818398 6.31495298,33.8073701 L13.2046082,33.8073701 L13.2046082,26.552289 C13.3651141,26.4055794 13.5954303,26.357781 13.8030094,26.4281006 C13.9752883,26.481317 14.1201092,26.5971937 14.2075862,26.7518182 C14.5317555,27.2924513 15.0412853,27.6410065 15.6159875,27.6410065 C16.5961129,27.6410065 17.3934169,26.6251461 17.3934169,25.3716721 C17.3934169,24.1181981 16.5994984,23.1015097 15.6159875,23.1015097 C15.1538558,23.1015097 14.7331975,23.3275325 14.4174922,23.6967857 C14.2981381,23.8386272 14.1966863,23.994016 14.1153292,24.1595942 L14.0992476,24.1695292 C13.8655625,24.4081581 13.4940691,24.4566324 13.2046082,24.2862662 L13.2046082,16.9343182 L6.13805643,16.9343182 C6.01748544,16.7798273 5.9841132,16.5765026 6.04918495,16.3928571 C6.10362287,16.2245647 6.22210533,16.0831769 6.38012539,15.9979383 C6.93282132,15.6808442 7.28915361,15.1816071 7.28915361,14.620276 C7.28915361,13.6615422 6.25062696,12.8816396 4.96918495,12.8816396 C3.68774295,12.8816396 2.64836991,13.6590584 2.64836991,14.620276 C2.64836991,15.0723214 2.87943574,15.4837987 3.2569279,15.7926136 C3.40193419,15.9093627 3.5607901,16.0086003 3.7300627,16.0881818 L3.74021944,16.1039123 C3.96808036,16.3195851 4.02541963,16.6554404 3.8815674,16.9318344 L1.83667712,16.9318344 L1.83667712,16.5592695 L3.34664577,16.5592695 C2.78155629,16.1343659 2.44759662,15.4788871 2.44100313,14.7817208 C2.44100313,13.4909903 3.59210031,12.4444968 5.0123511,12.4444968 C6.43260188,12.4444968 7.58285266,13.4909903 7.58285266,14.7817208 C7.57602503,15.4804751 7.24035762,16.1371578 6.67297806,16.5617532 L13.1986834,16.5617532 L13.1986834,9.21808442 C13.3588096,9.0700232 13.5901799,9.02207392 13.797931,9.0938961 C13.9698526,9.14737294 14.1143181,9.26320771 14.2016614,9.41761364 C14.5258307,9.95824675 15.0362069,10.3068019 15.6100627,10.3068019 C16.5901881,10.3068019 17.3874922,9.29094156 17.3874922,8.03663961 C17.3874922,6.78233766 16.5935737,5.76730519 15.6100627,5.76730519 C15.147931,5.76730519 14.7272727,5.9925 14.4115674,6.36258117 C14.2918467,6.50416159 14.1903652,6.6595958 14.1094044,6.82538961 L14.0933229,6.92391234 C14.0933229,6.92391234 13.7149843,7.24017857 13.1986834,6.94957792 L13.1986834,0.100178571 L3.5946395,0.100178571 C1.77158043,0.100178571 0.29369906,1.5458046 0.29369906,3.32907468 L0.29369906,6.82456169 L0.243761755,6.82456169 C0.136715467,6.82456169 0.0499373041,6.90944588 0.0499373041,7.01415584 L0.0499373041,8.67 C0.0504008841,8.77452155 0.136908077,8.85914069 0.243761755,8.85959416 L0.29369906,8.85959416 L0.29369906,10.550211 L0.228526646,10.550211 C0.121342578,10.55021 0.0343218171,10.6349615 0.0338557994,10.7398052 L0.0338557994,13.9016396 C0.0343218171,14.0064834 0.121342578,14.0912348 0.228526646,14.0912338 L0.29369906,14.0912338 L0.29369906,15.3331169 L0.240376176,15.3331169 C0.133329887,15.3331169 0.0465517241,15.4180011 0.0465517241,15.522711 L0.0465517241,16.5410552 L0.00423197492,16.5410552 L0.00423197492,18.6870292 C0.00400571023,18.7373802 0.0243537753,18.785733 0.0607520747,18.8213369 C0.0971503741,18.8569407 0.146581955,18.8768447 0.198056426,18.8766234 L0.255611285,18.8766234 L0.255611285,33.8073701 L1.83667712,33.8073701 Z" id="Shape"></path>
                    <path d="M26.9517555,11.826039 C26.9517565,11.7211942 26.8651141,11.6360727 26.757931,11.6356169 L26.6411285,11.6356169 L26.6411285,11.4278084 L26.5776489,11.4278084 L26.5776489,3.16928571 C26.5778735,2.34579868 26.243545,1.55597646 25.6482594,0.973683178 C25.0529737,0.391389894 24.2455287,0.0643582377 23.4036677,0.0645779221 L13.8817241,0.0645779221 L13.8817241,6.35678571 C14.3225883,5.78446277 15.0112111,5.44613517 15.7437931,5.44193182 C17.0734796,5.44193182 18.1517868,6.56873377 18.1517868,7.95798701 C18.1517868,9.34724026 17.0734796,10.4740422 15.7437931,10.4740422 C15.0111485,10.4700944 14.3224162,10.131713 13.8817241,9.55918831 L13.8817241,16.5410552 L21.5839185,16.5410552 C21.0184536,16.1143459 20.6848416,15.4571054 20.6791223,14.758539 C20.6791223,13.4661526 21.8276803,12.4188312 23.2453918,12.4188312 C23.8755108,12.4153994 24.4864429,12.6307343 24.9694984,13.026526 C25.5066168,13.4463166 25.8193542,14.0823071 25.8193542,14.7548133 C25.8193542,15.4273195 25.5066168,16.06331 24.9694984,16.4831006 L24.9694984,16.5385714 L26.6411285,16.5385714 L26.6411285,16.532776 L26.9517555,16.532776 L26.9517555,11.826039 Z" id="Shape"></path>
                    <path d="M24.3947962,33.4356331 L24.3947962,32.607711 L24.3947962,32.607711 C24.4296867,32.5579412 24.4616204,32.5062486 24.4904389,32.4528896 C24.6037967,32.2511594 24.6637369,32.0248854 24.6647962,31.7946916 C24.6645334,31.6412385 24.6376306,31.4889434 24.5852351,31.3443019 C24.5390375,31.2154626 24.4749585,31.0934446 24.3947962,30.9816721 L24.3947962,30.9816721 C24.0046082,30.4327597 23.2335423,30.058539 22.3448276,30.058539 C21.0625392,30.058539 20.0240125,30.8359578 20.0240125,31.7971753 C20.0240125,32.2492208 20.2550784,32.6606981 20.6325705,32.969513 C20.7775768,33.0862621 20.9364327,33.1854996 21.1057053,33.2650812 L21.1158621,33.2808117 C21.3434674,33.4966158 21.4007769,33.8322968 21.25721,34.1087338 L13.7903135,34.1087338 L13.7903135,40.8976948 C14.2249842,40.3288071 14.9068637,39.991785 15.6329154,39.9869805 C16.9524451,39.9869805 18.021442,41.1129545 18.021442,42.5013799 C18.021442,43.8898052 16.9524451,45.0166071 15.6329154,45.0166071 C14.9068637,45.0118026 14.2249842,44.6747806 13.7903135,44.1058929 L13.7903135,49.5859091 L22.3583699,49.5859091 C23.4810769,49.5859125 24.3919965,48.6970961 24.3947962,47.5988961 L24.3947962,34.1112175 L24.3947962,34.1112175 L24.3947962,47.589789 C24.3947962,48.6899294 23.4830571,49.5817695 22.3583699,49.5817695 L13.7903135,49.5817695 L13.7903135,50.9064448 L22.6774608,50.9064448 C24.5005199,50.9064448 25.9784013,49.4608188 25.9784013,47.6775487 L25.9784013,34.1112175 L25.9784013,34.1112175 L25.9784013,33.755211 L24.3947962,33.755211 L24.3947962,33.4356331 Z" id="Shape"></path>
                </g>
                <path d="M34.3650669,62.6588842 C33.3195931,62.6588842 32.4720692,61.7587884 32.4720692,60.648464 L32.4720692,47 L31,47 L31,60.7412141 C31,62.5409918 32.3737919,64 34.06845,64 L43,64 L43,62.6630622 L34.3650669,62.6588842 Z" id="Shape" fill="#3A3768" fill-rule="nonzero"></path>
                <path d="M45.2964742,56.845568 C45.4741147,56.8997595 45.6233267,57.0182789 45.7130226,57.1764333 C46.0483572,57.7290036 46.574064,58.0852549 47.1661391,58.0852549 C48.1773824,58.0852549 49,57.0469642 49,55.7649672 C49,54.4829702 48.1782556,53.4497567 47.1696321,53.4497567 C46.6937016,53.4497567 46.2596878,53.6799238 45.9339592,54.0581764 C45.8104374,54.202883 45.7057341,54.3617492 45.6222028,54.5312037 L45.6047375,54.6319018 C45.6047375,54.6319018 45.2143871,54.9551513 44.6825674,54.6581341 L44.6825674,47.142162 L37.109595,47.142162 C36.985196,46.98426 36.9507643,46.7764458 37.017902,46.5887455 C37.0744662,46.4169464 37.1966022,46.2725646 37.3593494,46.1851068 C37.9295928,45.860165 38.2981116,45.350751 38.2981116,44.7770256 C38.2981116,43.7971229 37.2257395,43 35.9036131,43 C34.5814867,43 33.5091147,43.7945843 33.5091147,44.7770256 C33.5091147,45.2382061 33.7475166,45.659615 34.137867,45.9752486 C34.2870592,46.0944777 34.4506937,46.1956399 34.6251501,46.2764967 L34.6356293,46.2934208 C34.8707246,46.5138556 34.9298843,46.8571266 34.7814649,47.1396234 L33,47.1396234 L33,60.9640364 C33,62.088468 33.9406859,63 35.1010807,63 L44.6851872,63 L44.6851872,56.9724984 C44.8486851,56.8232338 45.0842139,56.7743275 45.2964742,56.845568 Z" id="Shape" fill="#4285F4" fill-rule="nonzero"></path>
                <rect id="Rectangle-path" fill="#3A3768" fill-rule="nonzero" x="31" y="29" width="1" height="1"></rect>
                <rect id="Rectangle-path" fill="#3A3768" fill-rule="nonzero" x="31" y="29" width="1" height="1"></rect>
                <rect id="Rectangle-path" fill="#3A3768" fill-rule="nonzero" x="31" y="29" width="1" height="1"></rect>
                <g id="Group"></g>
                <path d="M31.3866676,30.9999699 L31.5,30.9999699 L31.5,29 L31.0000039,29 L31.0000039,30.8040789 C30.9995398,30.8565521 31.0402914,30.9069076 31.1130528,30.9437699 C31.1858142,30.9806322 31.2844463,31.000891 31.3866676,30.9999699 L31.3866676,30.9999699 Z" id="Shape" fill="#3A3768" fill-rule="nonzero"></path>
                <path d="M32,29 L31.1325494,29 L31.1325494,30.7592247 C31.1325497,30.8100314 31.1195813,30.8587451 31.0965122,30.8945925 C31.073443,30.9304399 31.0421741,30.9504672 31.0096205,30.9502453 L31,30.9502453 L31,46 L32,46 L32,29 Z" id="Shape" fill="#3A3768" fill-rule="nonzero"></path>
                <path d="M31,30.9999981 L31.0362903,30.9999981 C31.159088,31.0002257 31.2770402,30.9796874 31.3640611,30.9429255 C31.4510819,30.9061636 31.5000012,30.8562072 31.5,30.8041044 L31.5,29 L31,29 L31,30.9999981 Z" id="Shape" fill="#3A3768" fill-rule="nonzero"></path>
                <path d="M33.2498368,45.2094955 C33.2498368,43.914184 34.4337323,42.8648071 35.89358,42.8648071 C37.3534276,42.8648071 38.5381937,43.914184 38.5381937,45.2094955 C38.5332109,45.9115904 38.1892082,46.5722433 37.605876,47 L44.691839,47 L44.691839,39.7191691 C44.8569182,39.5719388 45.0937968,39.5239709 45.3072905,39.5945401 C45.4844782,39.6479452 45.6334255,39.7642333 45.723395,39.9194065 C46.0568009,40.4619585 46.5808487,40.8117507 47.171926,40.8117507 C48.1799782,40.8117507 49,39.7922849 49,38.534362 C49,37.2764392 48.1834603,36.2561424 47.171926,36.2561424 C46.6966268,36.2561424 46.2639826,36.4829674 45.9392818,36.8535312 C45.816527,36.9958761 45.7121846,37.1518164 45.6285092,37.3179822 L45.6119695,37.3279525 C45.3716259,37.5674284 44.9895476,37.6160747 44.691839,37.4451039 L44.691839,30.0670623 L37.4239391,30.0670623 C37.2999326,29.9120231 37.2656095,29.7079767 37.3325354,29.5236795 C37.3885244,29.3547898 37.5103828,29.2129002 37.6729053,29.1273591 C38.2413493,28.8091395 38.6078346,28.3081306 38.6078346,27.7448071 C38.6078346,26.7826706 37.5397171,26 36.2217628,26 C34.9038085,26 33.8348205,26.780178 33.8348205,27.7448071 C33.8348205,28.198457 34.0724701,28.6113947 34.4607182,28.9213056 C34.6098562,29.0384691 34.7732384,29.1380589 34.9473341,29.2179228 L34.9577802,29.2337092 C35.1921336,29.4501475 35.2511066,29.7871947 35.1031556,30.0645697 L33,30.0645697 L33,47 L34.1821545,47 C33.5988223,46.5722433 33.2548196,45.9115904 33.2498368,45.2094955 L33.2498368,45.2094955 Z" id="Shape" fill="#4285F4" fill-rule="nonzero"></path>
                <path d="M31.5,28.1534865 C31.5000012,28.1126633 31.4510819,28.0735219 31.3640611,28.0447185 C31.2770402,28.0159152 31.159088,27.9998232 31.0362903,28.0000015 L31,28.0000015 L31,29 L31.5,29 L31.5,28.1534865 Z" id="Shape" fill="#3A3768" fill-rule="nonzero"></path>
                <path d="M31.484375,20 L31.3975694,20 C31.2921275,20 31.1910041,20.0196312 31.1164454,20.0545749 C31.0418867,20.0895186 31,20.1369125 31,20.1863303 L31,21.8136697 C31.0009509,21.9163919 31.178393,21.9995543 31.3975694,22 L31.5,22 L31.5,20.0008137 L31.484375,20 Z" id="Shape" fill="#3A3768" fill-rule="nonzero"></path>
                <path d="M31.3745928,23 C31.1683453,22.9999992 31.0008967,23.0718016 31,23.1606266 L31,25.8393734 C31.0008967,25.9281984 31.1683453,26.0000008 31.3745928,26 L31.5,26 L31.5,23 L31.3745928,23 Z" id="Shape" fill="#3A3768" fill-rule="nonzero"></path>
                <path d="M31.49,28 L31.3816667,28 C31.170878,28 31,28.0687177 31,28.1534853 L31,29 L31.5,29 L31.49,28 Z" id="Shape" fill="#3A3768" fill-rule="nonzero"></path>
                <path d="M31.0015733,15.3336519 L31.0015733,18.9434693 C31.0981602,18.9471551 31.1746908,19.0333627 31.1746313,19.1384097 L31.1746313,20.8484132 C31.1742845,20.9532815 31.0979814,21.0392328 31.0015733,21.0433536 L31.0015733,22.7892672 L31.0291052,22.7892672 C31.0768807,22.7892672 31.1226994,22.8098956 31.1564818,22.8466144 C31.1902641,22.8833331 31.2092429,22.9331344 31.2092429,22.9850626 L31.2092429,26.2503143 C31.2092429,26.3584492 31.1285925,26.4461097 31.0291052,26.4461097 L31,26.4461097 L31,27.7286124 L31.0141593,27.7286124 C31.1137746,27.7286114 31.1946505,27.8161348 31.1950836,27.9244078 L31.1950836,29 L32.4717797,29 L32.4717797,15.4311221 C32.4717797,14.295332 33.3186576,13.3744599 34.3636185,13.3739878 L36.9288102,13.3739878 L36.9288102,13.7313786 C36.9288102,14.6668155 37.6264888,15.4251371 38.487119,15.4251371 L43,15.4251371 L43,14.3067947 L40.9225172,14.3067947 C40.7553538,14.3058702 40.6198092,14.1593053 40.6180924,13.9776191 L40.6180924,13.9057989 C40.6185247,13.7232508 40.7545674,13.5753831 40.9225172,13.5749132 L42.9960669,13.5749132 L42.9960669,12 L34.0678466,12 C32.3744433,12.0009438 31.0020072,13.493056 31.0015733,15.3336519 L31.0015733,15.3336519 Z" id="Shape" fill="#3A3768" fill-rule="nonzero"></path>
                <path d="M31.4999999,21.8150713 L31.4999999,20.1857434 C31.5001718,20.0856523 31.2790593,20.0035119 31,20 L31,22 C31.2776691,21.9960884 31.4977873,21.914676 31.4999999,21.8150713 Z" id="Shape" fill="#3A3768" fill-rule="nonzero"></path>
                <path d="M31.5,25.8393676 L31.5,23.1606263 C31.5,23.1180255 31.454649,23.0771696 31.3739238,23.0470463 C31.2931985,23.0169231 31.1837116,23 31.0695489,23 L31,23 L31,25.9999939 L31.0657895,25.9999939 C31.1806022,26.0003681 31.2910574,25.9836103 31.3725976,25.9534464 C31.4541377,25.9232825 31.5000044,25.8822125 31.5,25.8393676 L31.5,25.8393676 Z" id="Shape" fill="#3A3768" fill-rule="nonzero"></path>
                <path d="M33.5798193,26.3533016 C33.5798193,25.1592538 34.7673976,24.1911483 36.2326597,24.1911483 C37.6979218,24.1911483 38.8846269,25.1592538 38.8846269,26.3533016 C38.8775829,26.9997154 38.5312773,27.607209 37.9459161,28 L44.6784374,28 L44.6784374,21.2064117 C44.8436384,21.0694411 45.0823414,21.0250835 45.2966767,21.0915258 C45.4740469,21.1409969 45.6230908,21.248155 45.7132023,21.3909951 C46.0476453,21.8911319 46.5741966,22.2135784 47.1662393,22.2135784 C48.1774274,22.2135784 49,21.2738115 49,20.1134635 C49,18.9531156 48.1809202,18.0141146 47.1662393,18.0141146 C46.6894616,18.0141146 46.2554715,18.2224411 45.9297607,18.5648011 C45.8062457,18.6957764 45.7015481,18.8395678 45.6180214,18.9929427 L45.6014302,19.0840856 C45.6014302,19.0840856 45.2111012,19.3766617 44.6784374,19.1078287 L44.6784374,15.837409 L39.6713976,15.837409 C38.7177346,15.8352978 37.9459131,15.1566152 37.9459161,14.3201488 L37.9459161,14 L35.1000942,14 C34.5425806,14.0002029 34.0080187,14.1947564 33.6141247,14.5408179 C33.2202307,14.8868795 32.9993064,15.3560697 33.0000016,15.8450681 L33.0000016,28 L34.514164,28 C33.9304448,27.6064283 33.5858187,26.9990557 33.5798193,26.3533016 Z" id="Shape" fill="#4285F4" fill-rule="nonzero"></path>
                <path d="M42.256037,14 C42.1147826,14.0006375 42.0003636,14.201269 42,14.4489559 L42,14.549884 C42.0003615,14.7977609 42.1146756,14.9987264 42.256037,15 L44,15 L44,14.0034803 L42.256037,14 Z" id="Shape" fill="#E6E8EC" fill-rule="nonzero"></path>
                <path d="M58,24.2322267 L58,30 L58.5,30 L58.5,24 L58.2296296,24 C58.102963,24 58,24.1039676 58,24.2322267 Z" id="Shape" fill="#3A3768" fill-rule="nonzero"></path>
                <rect id="Rectangle-path" fill="#3A3768" fill-rule="nonzero" x="45" y="12" width="1" height="1"></rect>
                <rect id="Rectangle-path" fill="#3A3768" fill-rule="nonzero" x="45" y="14" width="1" height="1"></rect>
                <rect id="Rectangle-path" fill="#E6E8EC" fill-rule="nonzero" x="45" y="14" width="1" height="1"></rect>
                <path d="M58.2254197,24 L58,24 L58,30 L58.5,30 L58.5,24.2332263 C58.5000014,24.1048139 58.3772599,24.0005583 58.2254197,24 L58.2254197,24 Z" id="Shape" fill="#3A3768" fill-rule="nonzero"></path>
                <path d="M46.0761592,13.5378431 C46.2400168,13.5788522 46.383873,13.9103428 46.383873,13.9103428 L46.383873,13.9821089 C46.383873,13.9821089 46.2392475,14.3127451 46.0761592,14.3067646 L46.0761592,14.3067646 L46.0761592,15.417429 L49.5525561,15.417429 C50.3943364,15.4169573 51.0765089,14.6589631 51.0765088,13.724093 L51.0765088,13.3669717 L53.6920763,13.3669717 C54.7123721,13.3693274 55.5383614,14.2885714 55.5383592,15.4217008 L55.5383592,25.3758167 C56.0265436,25.8090111 56.3107893,26.4653084 56.3107893,27.1592874 C56.3107893,27.8532664 56.0265436,28.5095637 55.5383592,28.9427581 L55.5383592,29 L56.6153576,29 L56.6153576,23.9857775 C56.615354,23.9790557 56.6178098,23.9726207 56.6221614,23.9679488 C56.6265131,23.963277 56.6323872,23.9607694 56.6384362,23.9610011 L56.9999999,23.9610011 L56.9999999,15.2038397 C57.000204,14.3540591 56.6963344,13.5390183 56.155282,12.9381326 C55.6142295,12.337247 54.8803464,11.9997734 54.1151828,12.0000001 L46,12.0000001 L46,13.5378431 L46.0761592,13.5378431 Z M47.240856,13.5301539 C47.4477648,13.5301539 47.6154976,13.7164357 47.6154976,13.9462259 C47.6154976,14.1760161 47.4477648,14.3622978 47.240856,14.3622978 C47.0339472,14.3622978 46.8662144,14.1760161 46.8662144,13.9462259 C46.8662144,13.7164357 47.0339472,13.5301539 47.240856,13.5301539 Z" id="Shape" fill="#3A3768" fill-rule="nonzero"></path>
                <path d="M46.8466234,17.7440437 C48.1652804,17.7440437 49.2346433,18.7852459 49.2346433,20.0689617 C49.2346433,21.3526776 48.1652804,22.3938798 46.8466234,22.3938798 C46.1200559,22.3902318 45.4370366,22.0775563 45,21.5485246 L45,28 L52.638306,28 C52.0775315,27.6057065 51.7466868,26.9983946 51.7410149,26.3528962 C51.7410149,25.1586885 52.8800458,24.190929 54.2859977,24.190929 C54.9124359,24.187064 55.5199665,24.3863703 56,24.753224 L56,15.8398907 C56.0000024,14.8252391 55.0987569,14.0021095 53.9855017,14 L51.1316291,14 L51.1316291,14.3197814 C51.1316293,15.1569034 50.3873038,15.8356432 49.4688287,15.8360656 L45.0041969,15.8360656 L45.0041969,18.5901639 C45.4403366,18.0620947 46.1214509,17.7492982 46.8466234,17.7440437 Z" id="Shape" fill="#4285F4" fill-rule="nonzero"></path>
                <path d="M46.1,14.9999996 C46.3133334,15.0002961 46.4893335,14.8145183 46.5,14.5777776 L46.5,14.4844443 C46.4761963,14.2432278 46.3142449,14.0470868 46.1,14 L46,14 L46,14.9999996 L46.1,14.9999996 Z" id="Shape" fill="#E6E8EC" fill-rule="nonzero"></path>
                <circle id="Oval" fill="#E6E8EC" fill-rule="nonzero" transform="translate(46.500000, 14.500000) rotate(-9.220000) translate(-46.500000, -14.500000) " cx="46.5" cy="14.5" r="1"></circle>
                <path d="M56,46 L56,45.3252362 C56.6666667,44.9301049 56.6666667,44.3951313 56,44 L56,46 Z" id="Shape" fill="#3A3768" fill-rule="nonzero"></path>
                <rect id="Rectangle-path" fill="#3A3768" fill-rule="nonzero" x="56" y="45" width="1" height="1"></rect>
                <path d="M55.3627866,44.376652 C55.2053838,44.4334772 55.0873008,44.5274658 55.032786,44.6393172 C54.9675943,44.7616245 55.0008845,44.8971165 55.1214051,45 L56,45 L56,44.7632159 L55.6624035,44.7632159 C55.7847756,44.6993337 55.8977928,44.6281766 56,44.5506608 L56,44 C55.8319952,44.1542274 55.6145594,44.2827521 55.3627866,44.376652 Z" id="Shape" fill="#4285F4" fill-rule="nonzero"></path>
                <path d="M56,45.5 L56.5,45.5 L56.5,45 C56.3486251,45.182343 56.1812401,45.349728 56,45.5 L56,45.5 Z" id="Shape" fill="#4285F4" fill-rule="nonzero"></path>
                <path d="M56.5,45.0005094 C56.4962177,44.6414518 56.3215589,44.2919562 56,44 L56,46 C56.3208821,45.7082062 56.4954865,45.3591754 56.5,45.0005094 Z" id="Shape" fill="#3A3768" fill-rule="nonzero"></path>
                <path d="M56,47 L56,60.7325415 C56,62.537109 54.6661817,64 53.0208333,64 L45,64 L45,62.6595042 L52.7328472,62.6595042 C53.7479006,62.6595042 54.5707639,61.757013 54.5707639,60.6437337 L54.5707639,47 L56,47 Z" id="Shape" fill="#3A3768" fill-rule="nonzero"></path>
                <path d="M54.0853221,46.5936573 C54.1368757,46.4214177 54.2485449,46.2766849 54.397398,46.18918 C54.635414,46.0448288 54.8410329,45.8472096 55,45.6100229 L55,43.9454761 C54.6320536,43.3832782 53.9049405,43 53.0668848,43 C51.8576902,43 50.8783622,43.7962351 50.8783622,44.7807174 C50.8783622,45.2437039 51.0962567,45.6651403 51.4522308,45.9814297 C51.5889714,46.1010045 51.7387721,46.2026439 51.8983957,46.2841516 L51.9079735,46.3002629 C52.1226047,46.5212901 52.1766475,46.8650958 52.0412643,47.1482235 L45,47.1482235 L45,54.1015009 C45.4098934,53.5188441 46.052904,53.1736649 46.7375688,53.1687442 C47.981882,53.1687442 48.9899433,54.3219707 48.9899433,55.7440007 C48.9899433,57.1660307 47.981882,58.3201051 46.7375688,58.3201051 C46.052904,58.3151844 45.4098934,57.9700052 45,57.3873484 L45,63 L53.0796552,63 C54.138365,63.0000035 54.9973598,62.0896747 55,60.9648944 L55,47.1490715 L54.1715221,47.1490715 C54.0567309,46.9911009 54.0243434,46.7824185 54.0853221,46.5936573 L54.0853221,46.5936573 Z" id="Shape" fill="#4285F4" fill-rule="nonzero"></path>
                <path d="M70,26 C70.440913,25.7643192 70.7672518,25.3671362 70.8786653,24.858216 C70.8921601,24.7964767 70.9021909,24.7337409 70.9086916,24.6704225 C70.9283791,24.6118218 70.9452629,24.5519454 70.9592623,24.4910798 C71.0706758,23.9802817 70.9482,23.4516432 70.6574186,23 L70.0798068,25.629108 L70.0798068,25.629108 L70,26 Z" id="Shape" fill="url(#linearGradient-3)" fill-rule="nonzero"></path>
                <path d="M84.5598234,24.6185139 C84.4665655,24.0605495 82.7388401,22.8520435 82.7388401,22.8520435 C82.7388401,22.8520435 81.9755978,22.4350297 81.5714802,21.9529617 C81.3129759,21.6460395 81.2319888,21.6493757 81.2074472,21.691077 C81.1907008,21.6801869 81.1716117,21.6736042 81.1518197,21.6718944 C81.1354587,21.660218 81.1199157,21.6493757 81.1051907,21.6368652 L81.1051907,21.6368652 C81.1100747,21.5885538 81.0840235,21.542494 81.0405646,21.5226035 C81.0209314,21.5109271 81.0012982,21.4959146 80.9816649,21.4817361 C80.8507766,21.2573827 80.8041477,20.9396182 80.7886047,20.662721 C80.7689715,20.3132634 80.3795788,20.4008363 80.2462364,20.4400356 C80.1546146,20.2648898 80.0654469,20.0830718 79.9811876,19.9012538 C80.01845,19.8422261 80.0494382,19.7793191 80.0736275,19.7135976 C80.3141347,19.1806539 80.2617794,18.5693117 80.36649,18.005509 C80.4417508,17.5976695 80.5988167,17.1714814 80.5677307,16.7744843 C80.5677307,16.76531 80.5677307,16.7553016 80.5677307,16.7452933 C80.5677307,16.7452933 80.5677307,16.7494635 80.5677307,16.7511315 C80.5592236,16.6516753 80.5369137,16.5539536 80.5014685,16.4608899 C80.4319341,16.282408 80.3108625,16.1272789 80.256053,15.9429588 C80.1685215,15.6735678 80.224149,15.376654 80.1513424,15.103927 C80.0605386,14.7586395 79.7742205,14.4917507 79.450272,14.3391237 C79.1263235,14.1864966 78.7655627,14.1339529 78.4105282,14.0889154 C77.522942,13.9754876 76.5797284,13.9079314 75.7698571,14.288248 C75.6956016,14.3331055 75.6107509,14.3564626 75.5244416,14.3558042 C75.4445186,14.3333117 75.3687853,14.2975235 75.3002954,14.2498827 C75.0826936,14.1397911 74.8094643,14.2098494 74.614768,14.3566382 C74.4200717,14.5034271 74.2875473,14.7152701 74.1591132,14.9204409 C74.030679,15.1256117 73.8899741,15.3374547 73.6887334,15.4717332 C73.4523164,15.6327005 73.1398207,15.6869123 72.9524868,15.9037595 C72.8690319,16.0065633 72.8162276,16.1316007 72.8003292,16.2640594 C72.8003292,16.2640594 72.8003292,16.2598892 72.8003292,16.2582212 C72.7995173,16.2740569 72.7995173,16.289925 72.8003292,16.3057608 C72.8003292,16.3182712 72.8003292,16.3316156 72.8003292,16.344126 C72.8003292,16.3566364 72.8003292,16.3649767 72.8003292,16.3749851 C72.8003292,16.4108482 72.8003292,16.4458774 72.8003292,16.4809066 C72.8265071,16.6846523 72.8796174,16.8838475 72.9582132,17.0730662 C72.9959877,17.2142635 73.0699664,17.342656 73.1725427,17.4450425 C73.4572247,17.6810723 73.9087893,17.4583869 74.2523711,17.5901633 C74.282639,17.6010056 74.3112708,17.6151841 74.3399026,17.6285286 C74.3399026,17.641873 74.330904,17.6552174 74.3268138,17.6693959 C74.2532545,17.9242446 74.2160607,18.1885618 74.2163768,18.4542159 C74.2163768,20.0205197 75.4917195,21.2899098 77.064833,21.2899098 C77.1237328,21.2899098 77.1818145,21.2899098 77.2398961,21.2832375 C77.2480766,21.3140966 77.2570752,21.3457896 77.2644377,21.3758146 C77.3519711,21.7219081 77.379654,22.0809103 77.3462429,22.4366977 L77.3290638,22.2815686 C77.2908583,22.262909 77.2511788,22.2475642 77.2104463,22.2356971 C77.0965597,22.1970543 76.9770564,22.1784403 76.8570479,22.1806512 C76.4701094,22.1756471 75.8876566,22.3341123 75.2659372,23.1030858 C75.2659372,23.1030858 74.472427,23.5526267 74.2392822,23.6610502 C74.2201661,23.6728368 74.2050386,23.6902968 74.1959255,23.7110919 L74.1959255,23.7110919 C74.1959255,23.7110919 73.1349124,25.344952 73.0252934,25.9663026 C72.9156745,26.5876531 72.7798779,27.3007467 72.7798779,27.3007467 C72.7798779,27.3007467 72.5148291,28.1064174 72.3438563,28.4633812 C72.1728835,28.820345 72.0166356,29.1606283 72.0019107,29.3157574 C71.9871857,29.4708866 72.0640826,29.8111698 71.7368619,30.028017 C71.4096412,30.2448642 71.327836,30.8336877 71.327836,30.8336877 C71.327836,30.8336877 71.1642256,30.9904849 70.932717,31.1889834 L70.9245365,31.1889834 L71.7794006,27.8470348 L71.9323763,27.8862341 C72.0071281,27.9051459 72.0858218,27.8777502 72.133617,27.8161758 C72.1494234,27.795747 72.1608497,27.7721642 72.1671571,27.7469515 L72.339766,27.0697211 L72.4093004,26.8003302 L72.4232073,26.7452843 L72.5238277,26.3524573 L72.1835181,26.2690546 L71.7851269,26.1681372 L70.6594877,25.8787297 L70.7576539,25.495077 L70.7576539,25.495077 L70.8394591,25.1698062 L70.8394591,25.1698062 L71.3540137,23.1564635 L71.3540137,23.1564635 L71.4358188,22.8320268 C71.1085981,22.4000005 70.5874991,22.0488749 69.9469646,21.8862395 C68.7117064,21.5734791 67.5157148,22.082236 67.2752075,23.0221851 C67.2609608,23.0770051 67.2503026,23.1327297 67.2433035,23.1889906 C67.2225864,23.2405472 67.2053668,23.2934935 67.1917663,23.3474559 C67.1500917,23.5106796 67.1389903,23.6804531 67.1590442,23.8478724 C67.1623164,23.8751173 67.1664066,23.9029183 67.171315,23.9312752 C67.2203518,24.1909552 67.3275787,24.4355715 67.4846288,24.6460369 C67.5951264,24.7964147 67.723444,24.9322807 67.866659,25.0505402 L67.8723853,25.0688889 C67.9331047,25.1700653 67.9698014,25.2843045 67.9795501,25.4024999 C67.9795501,25.4191804 67.9795501,25.436695 67.9795501,25.4542096 C67.9520881,25.5045223 67.9191588,25.5515237 67.8813839,25.5943262 L60.3340383,23.6819009 L60.2522331,24.0063377 L60.2522331,24.0063377 L58.5523215,30.6660481 L58.5523215,30.6660481 C58.7739212,30.492375 59.0228895,30.358409 59.2885681,30.269885 C59.3929148,30.2346639 59.4995128,30.2067973 59.6076083,30.1864823 L59.6460567,30.17981 C59.9503265,30.1294313 60.2614567,30.1424828 60.5606386,30.2181753 C61.514487,30.4600433 62.1738367,31.2882327 62.2965445,32.262377 C62.3124361,32.3853974 62.3192723,32.5094582 62.3169958,32.6335193 C62.314654,32.7917851 62.2982255,32.9495074 62.2679127,33.1047449 C61.8588868,34.3707988 60.6023593,35.1356021 59.381826,34.8261778 C58.6884871,34.647852 58.1166101,34.1496414 57.8357082,33.4792233 L57.753903,33.804494 L57.753903,33.804494 L56,40.6393503 L62.684301,42.3340944 L62.684301,42.3340944 L62.7562896,42.0063215 L62.7669242,42.0063215 C62.3664285,41.5006305 62.1983799,40.8438639 62.305543,40.2031538 C62.305543,40.1923115 62.3120874,40.1823032 62.3161777,40.1714608 C62.3243582,40.147274 62.3333568,40.1239212 62.3423554,40.1005684 C62.3881349,39.9864576 62.4428484,39.8762883 62.5059657,39.7711275 C62.5386878,39.7169157 62.573046,39.664372 62.6098583,39.6134963 C62.6327637,39.5818033 62.6564872,39.5509443 62.6810288,39.5209193 C62.7987367,39.375609 62.9330281,39.2451347 63.0810561,39.1322624 L63.1285031,39.0972332 C63.1824945,39.0580339 63.2381221,39.0205027 63.2921135,38.9854735 C63.3256536,38.9654569 63.3600118,38.9454402 63.3943699,38.9270916 C63.7902734,38.7138694 64.2326691,38.6062751 64.6803473,38.6143312 C64.895463,38.617254 65.109546,38.6452366 65.3184277,38.697734 C65.9633527,38.8556873 66.5265552,39.2548599 66.8964496,39.816165 C66.9453765,39.8914148 66.9901657,39.9693775 67.0306101,40.0496928 C67.151067,40.28797 67.2294328,40.5460096 67.2621187,40.811994 C67.287695,41.0243231 67.2821811,41.2393485 67.2457577,41.4500251 C67.0867349,41.9164585 66.7828794,42.3173109 66.3802589,42.5918089 L66.2984537,42.9054033 L66.3074523,42.9054033 L66.2951815,42.9145776 L66.2133763,43.227338 L67.7398609,43.6143268 L69.9019718,35.1864778 C70.4852427,35.1172535 70.7838316,34.8528667 70.7838316,34.8145015 C70.7838316,34.7761362 71.4849019,34.3799731 71.8734765,34.2715495 C72.0665367,34.2181717 72.2898649,34.1798064 72.4673821,34.1414412 C72.2579609,35.2014903 72.0583562,36.2265102 72.0763534,36.2865602 C72.0820797,36.309913 72.1197101,36.2732157 72.1769737,36.1931491 C72.1713402,36.2239404 72.1688727,36.2552469 72.1696113,36.2865602 C72.1696113,36.3024067 72.1916987,36.2907303 72.2203305,36.2582033 L72.2162402,36.2782199 C72.2162402,36.2782199 71.0022514,38.6727132 70.9073574,38.9471083 C70.8124634,39.2215033 70.9302628,39.9237546 71.3041125,40.1564483 C71.3765822,40.2031666 71.4412147,40.2614581 71.4955366,40.329092 L71.4513618,40.418333 C71.312293,40.7060725 71.1887672,41.0263391 71.2108546,41.2256717 C71.2400806,41.4779557 71.1822319,41.7327423 71.0472442,41.9462715 C71.0472442,41.9462715 69.9960477,45.2581952 70.0197712,46.2114887 C70.0434947,47.1647823 69.6459216,49.2565235 69.6459216,49.2565235 C69.6459216,49.2565235 69.2139902,50.6043122 69.4708585,50.9879649 C69.7277267,51.3716176 70.0197712,53.045511 70.0197712,53.045511 C70.0197712,53.045511 70.2185578,53.4291637 70.206287,53.7544344 C70.1940162,54.0797052 70.3936209,54.6718648 70.3936209,54.6718648 L71.0480623,57.0772004 C71.0480623,57.0772004 70.9777098,57.7168996 71.2231254,58.1697766 C71.4685409,58.6226536 71.4448174,58.483371 71.327836,59.2740291 C71.2108546,60.0646873 71.4685409,60.7961295 71.8882015,61.0254871 C72.0518118,61.1155621 72.0599923,61.2531767 72.0092731,61.3874551 L72.0092731,61.3874551 C71.9021083,61.3449197 71.8129407,61.5709412 71.7597673,61.7535932 L71.7057759,61.806137 L71.7417702,61.8153113 C71.7188647,61.898714 71.7057759,61.9687724 71.7057759,61.9687724 C71.7057759,61.9687724 70.6087685,62.8987131 70.538416,63.2356603 C70.4680636,63.5726074 69.6974588,63.7469192 69.6974588,63.7469192 C69.6974588,63.7469192 68.5300989,64.07219 68.2249656,64.2348254 C68.0473429,64.3171844 67.9250333,64.4884071 67.9026532,64.6860343 C67.8889574,64.8392035 67.9033833,64.9936335 67.9451919,65.1414134 C68.0613553,65.6176431 69.6958227,65.6643487 70.4811524,65.5367425 C71.2664821,65.4091362 72.8854066,64.9437488 72.8854066,64.9437488 C72.8854066,64.9437488 74.5902264,64.7769433 75.0941463,64.5717725 C75.5980662,64.3666017 75.198857,63.8278199 75.198857,63.8278199 C75.198857,63.8278199 75.198857,63.8103053 75.198857,63.7777782 C75.2111277,63.5834498 75.246304,62.8786965 75.1252323,62.6935423 C75.0344286,62.5500896 75.0368827,62.1931258 75.0499715,61.9662703 C75.3910991,61.3407496 74.6589428,59.4641874 74.6589428,59.4641874 C74.6589428,59.4641874 74.7988296,57.6293267 74.7055717,57.3607698 C74.6123138,57.0922129 74.2147407,54.8153175 74.2147407,54.8153175 C74.2147407,54.8153175 73.9693252,53.7811233 74.0634011,53.6068115 C74.1574771,53.4324998 74.0045014,52.9320832 74.0045014,52.9320832 C74.0045014,52.9320832 73.6044741,52.3757868 73.6404683,52.200641 C73.6764626,52.0254952 73.5234869,51.7127348 73.5234869,51.7127348 C73.5234869,51.7127348 74.7145703,49.8995588 74.6090416,49.5626117 C74.503513,49.2256645 74.6564886,48.6793764 74.6564886,48.6793764 C74.6564886,48.6793764 74.8061921,48.4224959 74.9837093,48.1147397 C75.2045833,47.7377593 75.4745404,47.2865503 75.56289,47.1455997 C75.6774172,46.9662837 75.9531007,46.2031485 76.1068944,45.7636159 C76.1723386,45.5767937 76.2165134,45.4483535 76.2165134,45.4483535 C76.2165134,45.4483535 76.4030292,48.8678667 76.5666395,49.2139881 C76.7302499,49.5601096 76.9756654,52.3174049 76.9756654,52.3174049 C77.0664252,52.5621359 77.1062628,52.8234387 77.0926468,53.0847103 C77.0697414,53.5142345 77.4664965,55.3857924 77.4664965,55.3857924 C77.4664965,55.3857924 77.6415595,56.7102283 77.5245781,57.0588518 C77.4075967,57.4074754 77.5016727,59.9779484 77.5016727,59.9779484 C77.5016727,59.9779484 76.8595021,60.478365 76.6958917,60.8611837 C76.5322813,61.2440024 76.7187972,62.290707 76.7187972,62.290707 L76.7940579,62.3265702 C76.7338684,62.4719508 76.6891646,62.6235005 76.6607155,62.7786132 C76.63781,62.9996305 76.2868658,63.9996296 76.322042,64.1389122 C76.3572183,64.2781948 76.1707025,64.708553 76.146979,64.9287363 C76.1232555,65.1489196 75.832029,65.4750244 75.8083055,65.5917883 C75.7713915,65.6962863 75.7285067,65.7984906 75.6798714,65.8978764 C75.6163635,66.0505609 75.5657338,66.2084855 75.5285318,66.369936 C75.4115504,66.8586762 76.8006023,66.9395769 76.8006023,66.9395769 C78.8555484,67.3232296 79.229398,65.7544237 79.229398,65.7544237 C79.229398,65.7544237 79.4862663,64.3599295 79.5795242,64.253174 C79.6025934,64.2131064 79.6082266,64.1650449 79.5950672,64.1205636 L79.5950672,64.1205636 C79.54172,63.8833219 79.440904,63.6598644 79.2989324,63.4641839 C79.2334883,63.3866193 79.229398,63.1872867 79.2400327,63.0088048 C79.2994961,63.002894 79.3583441,62.9917317 79.4159138,62.9754437 C80.2446003,62.7319076 79.9067449,61.324903 79.9067449,61.324903 C79.9067449,61.324903 80.4671104,60.3957963 80.4671104,60.0354964 C80.4671104,59.6751964 80.6658969,58.5709439 80.6658969,58.5709439 C81.37842,57.2690268 81.0978283,54.1080621 81.2148097,53.8520157 C81.3317911,53.5959692 80.9693941,52.6435097 80.6773497,52.2131514 C80.3853052,51.7827932 80.5022866,50.6209927 80.6773497,50.2840456 C80.8524127,49.9470984 80.5022866,48.7827959 80.5022866,48.7827959 C80.5022866,48.7827959 80.84096,46.5309213 80.8295073,46.1789617 C80.8180546,45.827002 81.1215518,44.7961439 81.1215518,44.7961439 C81.1215518,44.7961439 81.425049,44.2615322 81.3546965,44.0988968 C81.2843441,43.9362614 81.5878413,43.5150775 81.5068542,43.3315914 C81.425867,43.1481053 81.5763886,42.5759624 81.7285462,42.2390152 C81.8062611,42.0663715 81.9027912,41.5909758 81.9739617,41.1681238 C81.9821422,41.1214182 81.9903227,41.0747127 81.9976852,41.0288412 C82.3379948,41.2481904 82.6521266,41.4116598 82.7633817,41.3674564 C82.9719849,41.2840536 82.6398559,40.1998177 82.4124375,39.5242554 C82.4517039,39.4942304 82.468065,39.4717116 82.4517039,39.4617033 C82.3118171,39.3682922 82.4672469,38.9496103 82.4672469,38.9496103 C83.2926612,38.4541979 83.0120694,38.0822216 82.7478387,37.8653745 C82.483608,37.6485273 82.6545808,37.0313468 82.5760478,36.7811386 C82.4975148,36.5309303 82.6701238,35.4024909 82.8100106,34.5809737 C82.8390185,34.402474 82.8376349,34.2202125 82.8059204,34.0421919 C82.9556238,33.8094982 83.1102356,33.5659621 83.2460322,33.3407747 C83.7123217,32.565963 84.7087088,28.8778929 84.7087088,28.8778929 L84.7021644,28.8587103 C84.7995125,28.6627138 84.8723191,28.5034145 84.9115856,28.397493 C85.2134467,27.5968265 84.6530813,25.1781465 84.5598234,24.6185139 Z M77.3053403,22.4983213 L77.3343403,22.4850713 C77.3343403,22.4928005 77.3343403,22.5005297 77.3343403,22.5082588 L77.3053403,22.4983213 Z M72.7757876,62.0669043 C72.7249427,62.0673829 72.6745598,62.0538572 72.6277203,62.0271543 L72.7757876,62.0669043 Z" id="Shape" fill="url(#linearGradient-4)" fill-rule="nonzero"></path>
                <path d="M62.6400231,34.7194982 C63.2479064,34.9724362 64.6608841,35 65.2887101,35 C65.4792737,35 65.5974528,35 65.5974528,35 L66,34.1001241 L65.5974528,33.3502276 C65.5974528,33.3502276 65.2281434,33.2383511 64.7377005,33.1410672 C64.0138541,32.9983842 63.0233663,32.8865078 62.5513888,33.2075446 C61.7595895,33.745038 61.8482238,34.3895437 62.6400231,34.7194982 Z" id="Shape" fill="#FEC2BE" fill-rule="nonzero"></path>
                <path d="M66.4361827,35 C66.5872365,35 66.6809133,35 66.6809133,35 L67,34.031836 L66.6814988,33.2250327 C66.6814988,33.2250327 66.3887588,33.1046664 66,33 C66.3155738,33.345399 67.074356,34.0972525 66.4361827,35 Z" id="Shape" fill="#000000" fill-rule="nonzero" opacity="0.1"></path>
                <path d="M74.2569283,24.2291215 L74.056324,24 C74.056324,24 73.0207044,25.615389 72.9120438,26.2252807 C72.8033831,26.8351725 72.6612884,27.5357238 72.6612884,27.5357238 C72.6612884,27.5357238 72.3988312,28.3285831 72.2283175,28.6788588 C72.0578039,29.0291345 71.9040073,29.3645749 71.888962,29.5170479 C71.8739167,29.6695208 71.950815,30.0049613 71.6256689,30.2184234 C71.3005228,30.4318855 71.2244603,31.0112827 71.2244603,31.0112827 C71.2244603,31.0112827 70.0492536,32.1387583 69.4307237,32.165132 C68.8121938,32.1915057 67.0351743,32.5005724 67.0970273,32.8055183 C67.1588802,33.1104642 66.3556273,33.2926075 66.0304812,33.3692561 C65.7053351,33.4459047 68.1201091,34.3582698 66.710864,35.5335477 C66.710864,35.5335477 67.6068965,35.7165152 67.6996759,35.9291531 C67.7924554,36.1417911 68.7352955,35.807999 68.7352955,35.807999 C68.7352955,35.807999 68.9367357,35.3349207 69.6321638,35.3044262 C70.327592,35.2739316 70.6828287,34.9689857 70.6828287,34.9236559 C70.6828287,34.8783261 71.3782569,34.4967317 71.7694353,34.3904127 C72.1606136,34.2840937 72.6654677,34.2379398 72.6813489,34.1307966 C72.69723,34.0236535 75,24.2250006 75,24.2250006 L74.2569283,24.2291215 Z" id="Shape" fill="#4C4981" fill-rule="nonzero"></path>
                <path d="M74.2569283,24.2291215 L74.056324,24 C74.056324,24 73.0207044,25.615389 72.9120438,26.2252807 C72.8033831,26.8351725 72.6612884,27.5357238 72.6612884,27.5357238 C72.6612884,27.5357238 72.3988312,28.3285831 72.2283175,28.6788588 C72.0578039,29.0291345 71.9040073,29.3645749 71.888962,29.5170479 C71.8739167,29.6695208 71.950815,30.0049613 71.6256689,30.2184234 C71.3005228,30.4318855 71.2244603,31.0112827 71.2244603,31.0112827 C71.2244603,31.0112827 70.0492536,32.1387583 69.4307237,32.165132 C68.8121938,32.1915057 67.0351743,32.5005724 67.0970273,32.8055183 C67.1588802,33.1104642 66.3556273,33.2926075 66.0304812,33.3692561 C65.7053351,33.4459047 68.1201091,34.3582698 66.710864,35.5335477 C66.710864,35.5335477 67.6068965,35.7165152 67.6996759,35.9291531 C67.7924554,36.1417911 68.7352955,35.807999 68.7352955,35.807999 C68.7352955,35.807999 68.9367357,35.3349207 69.6321638,35.3044262 C70.327592,35.2739316 70.6828287,34.9689857 70.6828287,34.9236559 C70.6828287,34.8783261 71.3782569,34.4967317 71.7694353,34.3904127 C72.1606136,34.2840937 72.6654677,34.2379398 72.6813489,34.1307966 C72.69723,34.0236535 75,24.2250006 75,24.2250006 L74.2569283,24.2291215 Z" id="Shape" fill="#000000" fill-rule="nonzero" opacity="0.05"></path>
                <path d="M77.251653,67.9262526 C79.2672975,68.3945452 79.6339284,66.4794535 79.6339284,66.4794535 C79.6339284,66.4794535 79.8857808,64.7780587 79.9774385,64.6502496 C80.00049,64.6014049 80.00617,64.5429181 79.9931277,64.4886989 L79.9931277,64.4886989 C79.9402196,64.2002321 79.8414071,63.9277169 79.7024653,63.6870802 C79.576952,63.5030351 79.6793444,62.7372029 79.6793444,62.7372029 L77.3433107,62 C77.3433107,62 77.1368744,62.5807646 77.1145792,62.8506974 C77.0922841,63.1206302 76.7479483,64.3394179 76.7842811,64.5101708 C76.8206139,64.6809238 76.6356469,65.2044299 76.612526,65.4743627 C76.5894052,65.7442956 76.3036973,66.141015 76.2822279,66.2821163 C76.2462718,66.4099098 76.2040811,66.5348816 76.1558888,66.6563413 C76.0939018,66.8429544 76.0441953,67.035465 76.0072547,67.2319936 C75.8891731,67.8270728 77.251653,67.9262526 77.251653,67.9262526 Z" id="Shape" fill="#CA8496" fill-rule="nonzero"></path>
                <path d="M77.254154,65.9369914 C79.2679642,66.3370932 79.6342616,64.7008692 79.6342616,64.7008692 C79.6342616,64.7008692 79.8858847,63.2472244 79.9774591,63.1380264 C80.0004895,63.0962942 80.0061644,63.046324 79.9931339,63 L79.5080375,64.4711165 C79.5080375,64.4711165 79.1079154,65.3551841 77.6204513,65.2223992 C76.7740075,65.1463974 76.3573855,64.9804163 76.155262,64.8511258 C76.0933313,65.010565 76.04367,65.175043 76.0067631,65.3429539 C75.8929139,65.8522537 77.254154,65.9369914 77.254154,65.9369914 Z" id="Shape" fill="#000000" fill-rule="nonzero" opacity="0.1"></path>
                <path d="M78.5,63.4999593 C78.5,63.4999593 78.0322086,63.5143911 78,63 L78.5,63.4999593 Z" id="Shape" fill="#000000" fill-rule="nonzero" opacity="0.1"></path>
                <polygon id="Shape" fill="#4285F4" fill-rule="nonzero" points="62.0641892 42 62.5 42.1006098 62.4042793 42.5 62 42.4075203"></polygon>
                <polygon id="Shape" fill="#000000" fill-rule="nonzero" opacity="0.1" points="62.0641892 42 62.5 42.1006098 62.4042793 42.5 62 42.4075203"></polygon>
                <rect id="Rectangle-path" fill="#3A3768" fill-rule="nonzero" transform="translate(72.499930, 27.500024) rotate(-75.720000) translate(-72.499930, -27.500024) " x="71.9999296" y="27.0000245" width="1" height="1"></rect>
                <rect id="Rectangle-path" fill="#3A3768" fill-rule="nonzero" transform="translate(70.499989, 26.500040) rotate(-75.720000) translate(-70.499989, -26.500040) " x="69.9999886" y="26.0000409" width="1" height="1"></rect>
                <rect id="Rectangle-path" fill="#3A3768" fill-rule="nonzero" transform="translate(71.499948, 27.500029) rotate(-75.720000) translate(-71.499948, -27.500029) " x="70.9999475" y="27.0000295" width="1" height="1"></rect>
                <path d="M70.794385,27.5943683 C70.7619728,27.6057839 70.7305734,27.6179604 70.6991741,27.6278539 L70.7781789,27.6430746 L70.656633,28 L70.0559941,27.8850837 C69.9634672,27.720689 69.9866635,27.5324022 70.1177799,27.3835616 C70.2321709,27.2449102 70.4137432,27.1450468 70.6242208,27.1050228 C70.7528504,27.0772407 70.8784741,27.0421314 71,27 L70.794385,27.5943683 Z" id="Shape" fill="#4285F4" fill-rule="nonzero"></path>
                <path d="M71,27.9498846 L71.1367069,27.9933555 C71.1812826,28.0073595 71.2285778,27.9990326 71.2681263,27.9702174 C71.3076747,27.9414022 71.3362153,27.8944748 71.347432,27.8398201 L71.5,27.0924912 L71.1978852,27 L71,27.9498846 Z" id="Shape" fill="#3A3768" fill-rule="nonzero"></path>
                <path d="M70.9543407,25.1326165 C70.83251,25.5197133 70.4784946,25.8215054 70,26 L70.6268103,24 C70.9446296,24.3433692 71.0779371,24.7455197 70.9543407,25.1326165 Z" id="Shape" fill="#3A3768" fill-rule="nonzero"></path>
                <path d="M71.7710478,28.1949791 C71.6600374,28.1687042 71.5930069,28.0646832 71.6211387,27.9623431 L71.808298,27.2853556 L70.590854,27 L66.8776499,40.4343096 C67.4363579,41.4359926 67.0969662,42.6641416 66.0863113,43.2979079 L66,43.6108787 L67.6471835,44 L72,28.2518828 L71.7710478,28.1949791 Z" id="Shape" fill="#3A3768" fill-rule="nonzero"></path>
                <path d="M71.0051445,27.7028671 C70.9825781,27.8091193 71.0363477,27.9171169 71.1253966,27.9443962 L71.3090543,28 L71.5,27.105126 L71.1552774,27 L71.0051445,27.7028671 Z" id="Shape" fill="#3A3768" fill-rule="nonzero"></path>
                <path d="M70.613462,26.7570617 C70.7130498,26.6065161 70.8700368,26.4979 71.0519623,26.4536723 C71.1629709,26.4231817 71.2714322,26.3849458 71.3764525,26.3392796 L72,24.0265571 C71.6097106,23.5579176 71.0627713,23.2282777 70.4485858,23.0915209 C69.1620259,22.7815 67.9149309,23.2846622 67.6649857,24.2147248 C67.5465907,24.6532303 67.6711248,25.1083144 67.970182,25.4995706 C68.0847271,25.6479307 68.2181575,25.7823999 68.3674633,25.8999452 L68.3736023,25.9181817 C68.5471031,26.1834737 68.5164725,26.5248354 68.2981802,26.7587196 L60.4349923,24.866266 L58.66082,31.4546239 C59.2440896,31.0081345 60.0143623,30.8444372 60.7436966,31.0119738 C62.0688446,31.3311129 62.8484981,32.6822734 62.4854199,34.0292892 C62.1223416,35.376305 60.7577286,36.2110403 59.4325806,35.8960459 C58.7046291,35.7147348 58.1084494,35.2217843 57.8215304,34.5639509 L56,41.3247268 L62.9651392,43 C62.5073617,42.4507261 62.342999,41.7326723 62.5196229,41.0536658 C62.8572681,39.8019772 64.2859022,39.064227 65.7119053,39.4074052 C66.4820651,39.5856389 67.1329122,40.0702211 67.4966016,40.7361845 L71.0809033,27.4284973 L70.5661039,27.3033284 C70.4841758,27.1252227 70.5019513,26.9201854 70.613462,26.7570617 Z" id="Shape" fill="#4285F4" fill-rule="nonzero"></path>
                <path d="M70.1925,27.16 L70.235,27 C70.1575,27.0375 70.08,27.0775 70,27.1125 L70.1925,27.16 Z" id="Shape" fill="#4285F4" fill-rule="nonzero"></path>
                <g id="Group" opacity="0.1" transform="translate(56.000000, 22.000000)" fill-rule="nonzero" fill="#000000">
                    <path d="M16.5711168,4.40511628 L16.1629442,4.30662791 L15.0074619,4.02906977 L15.0074619,4.02906977 L15.022132,3.97697674 L15.022132,3.97697674 L15.1947208,3.34127907 C15.0911845,3.38634003 14.984157,3.42389068 14.8745685,3.45360465 C14.6952481,3.49641166 14.540554,3.60321912 14.4430964,3.75151163 C14.4177456,3.79247733 14.3963727,3.8355207 14.3792386,3.88011628 C14.3960607,3.83553565 14.4171459,3.7924902 14.4422335,3.75151163 C14.5402252,3.60368644 14.694696,3.49703311 14.8737056,3.45360465 C14.982935,3.42366507 15.0896579,3.38612008 15.1929949,3.34127907 L15.8065482,1.07034884 C15.4225143,0.610177973 14.8843413,0.28649487 14.28,0.152209302 C13.0140609,-0.152209302 11.7869543,0.341860465 11.5410152,1.25511628 C11.4245178,1.68569767 11.5470558,2.13255814 11.8413198,2.51674419 C11.954029,2.66242324 12.0853208,2.79446255 12.2322335,2.90988372 L12.2382741,2.9277907 C12.4089941,3.18828867 12.3788544,3.52348174 12.1640609,3.75313953 L4.42690355,1.89488372 L2.68116751,8.36418605 C3.2555011,7.92525543 4.01420014,7.76448784 4.73238579,7.92953488 C6.03629442,8.24290698 6.80345178,9.56965116 6.44619289,10.8923256 C6.08893401,12.215 4.74619289,13.0346512 3.44228426,12.7253488 C2.72600032,12.5473141 2.13937614,12.0632716 1.85705584,11.4173256 L0.0647208122,18.0559302 L6.91822335,19.7009302 C6.46778306,19.161582 6.30605479,18.4565039 6.47984772,17.7897674 C6.81208122,16.5606977 8.21781726,15.8362791 9.62096447,16.1732558 C10.3787803,16.3482687 11.0191956,16.8240942 11.3770558,17.4780233 C11.9077245,18.4523347 11.5853655,19.6469238 10.6254315,20.2633721 L10.5434518,20.5677907 L12.1079695,20.9462791 L16.242335,5.62848837 L16.3985279,5.66674419 C16.4494573,5.67906824 16.5034939,5.67174027 16.5486795,5.64638194 C16.5938651,5.62102361 16.6264738,5.5797259 16.6392893,5.53162791 L16.8136041,4.87069767 L16.9162944,4.48895349 L16.5711168,4.40511628 Z M14.9920152,3.99813953 C14.9750152,4.00594891 14.9580152,4.01487391 14.9410152,4.02156766 L14.9410152,4.02156766 L14.9920152,3.99813953 Z M14.3930457,4.29034884 L14.3930457,4.29034884 L14.9047716,4.41325581 L14.9047716,4.41325581 L14.3930457,4.29034884 Z" id="Shape"></path>
                    <path d="M16.1232487,2.35639535 C16.2414721,1.91686047 16.1111675,1.46104651 15.8030964,1.07034884 L15.1904061,3.34127907 C15.6607107,3.13860465 16.0067513,2.79511628 16.1232487,2.35639535 Z" id="Shape"></path>
                </g>
                <rect id="Rectangle-path" fill="#3A3768" fill-rule="nonzero" transform="translate(72.499930, 27.500024) rotate(-75.720000) translate(-72.499930, -27.500024) " x="71.9999296" y="27.0000245" width="1" height="1"></rect>
                <rect id="Rectangle-path" fill="#3A3768" fill-rule="nonzero" transform="translate(71.499989, 26.500040) rotate(-75.720000) translate(-71.499989, -26.500040) " x="70.9999886" y="26.0000409" width="1" height="1"></rect>
                <rect id="Rectangle-path" fill="#3A3768" fill-rule="nonzero" transform="translate(71.499948, 26.500029) rotate(-75.720000) translate(-71.499948, -26.500029) " x="70.9999475" y="26.0000295" width="1" height="1"></rect>
                <path d="M70.7962414,26.5920852 L70.7009514,26.6263318 L70.7790081,26.6407915 L70.658375,27 L70.0572365,26.8850837 C69.963209,26.7209477 69.9860937,26.5322506 70.11806,26.3835616 C70.2329399,26.2451843 70.4144984,26.1454115 70.6249221,26.1050228 C70.7533297,26.0772406 70.8787209,26.0421307 71,26 L70.7962414,26.5920852 Z" id="Shape" fill="#4285F4" fill-rule="nonzero"></path>
                <path d="M71,27.9501581 L71.1358209,27.9926749 C71.1801762,28.0075152 71.2274878,27.9996102 71.2670823,27.9707432 C71.3066769,27.9418762 71.3352187,27.8944791 71.3462687,27.8392447 L71.5,27.0924278 L71.2014925,27 L71,27.9501581 Z" id="Shape" fill="#3A3768" fill-rule="nonzero"></path>
                <path d="M70.9548005,24.1333333 C70.8337943,24.5197133 70.4796084,24.8215054 70,25 L70.6279955,23 C70.9442014,23.3433692 71.0775732,23.7455197 70.9548005,24.1333333 Z" id="Shape" fill="#3A3768" fill-rule="nonzero"></path>
                <path d="M71.7701393,28.193658 C71.7166198,28.1810436 71.6707426,28.1493367 71.6426216,28.1055274 C71.6145006,28.061718 71.6064448,28.0094032 71.6202302,27.9601162 L71.8019382,27.2837658 L70.5899455,27 L66.8776499,40.4366045 C67.437539,41.4381971 67.0978991,42.6672479 66.0863113,43.3002117 L66,43.6132749 L67.6480921,44 L72,28.2472303 L71.7701393,28.193658 Z" id="Shape" fill="#3A3768" fill-rule="nonzero"></path>
                <path d="M71.0052712,27.7019983 C70.9942321,27.7531543 71.0006831,27.8074529 71.0232018,27.8529236 C71.0457206,27.8983942 71.0824582,27.9313034 71.1253157,27.9443962 L71.3079288,28 L71.5,27.1042572 L71.1551449,27 L71.0052712,27.7019983 Z" id="Shape" fill="#3A3768" fill-rule="nonzero"></path>
                <path d="M70.614263,25.7574207 C70.7136543,25.6066703 70.8707341,25.4979761 71.0527874,25.4539761 C71.1638824,25.4237097 71.2723678,25.3854604 71.3772954,25.3395625 L72,23.0264189 C71.60996,22.5578016 71.0633054,22.2281051 70.4493778,22.0912125 C69.1618703,21.7819643 67.9155841,22.284389 67.6647481,23.21545 C67.5472236,23.6532062 67.6708875,24.1083732 67.9708381,24.4997007 C68.0853743,24.6483468 68.2188097,24.7831167 68.3681412,24.9009772 L68.3742805,24.918388 C68.5472056,25.1838602 68.5166051,25.5249288 68.2988544,25.7590789 L60.4343584,23.8671098 L58.6574577,30.4558382 C59.2418374,30.0080214 60.0142244,29.8445056 60.7448336,30.0139366 C62.0691772,30.3323047 62.8497506,31.6837112 62.4866524,33.0318013 C62.1235542,34.3798915 60.7579894,35.2131206 59.4292605,34.8947525 C58.7022758,34.7121989 58.1072672,34.2190425 57.8207532,33.5615858 L56,40.3235927 L62.964644,42 C62.5071476,41.4504852 62.3431026,40.7323143 62.5199803,40.0533114 C62.856767,38.8005659 64.2863564,38.0635105 65.7124376,38.4067511 C66.4841608,38.5850371 67.1358252,39.0715641 67.4981089,39.7399178 L71.08173,26.4314658 L70.5616401,26.3062741 C70.4803124,26.1266158 70.5000907,25.9203291 70.614263,25.7574207 L70.614263,25.7574207 Z" id="Shape" fill="#4285F4" fill-rule="nonzero"></path>
                <path d="M70.1925,27.1625 L70.2325,27 C70.155,27.0375 70.0775,27.0775 70,27.1125 L70.1925,27.1625 Z" id="Shape" fill="#4285F4" fill-rule="nonzero"></path>
                <path d="M69.078233,52.507947 C69.3166048,52.9060097 69.5962944,54.6463361 69.5962944,54.6463361 C69.5962944,54.6463361 69.7838135,55.0443988 69.7726895,55.3832311 C69.7615655,55.7220635 69.9490846,56.3413689 69.9490846,56.3413689 L70.5664675,58.8421083 C70.5664675,58.8421083 70.4997234,59.5067074 70.7317386,59.9744528 C70.9637538,60.4421983 70.9407112,60.3002197 70.8310602,61.121605 C70.7214091,61.9429903 70.9629592,62.7042743 71.3594509,62.950777 C71.7559426,63.1972797 71.1830558,63.7599678 71.1830558,63.7599678 C71.1830558,63.7599678 73.7177423,64.5090573 74.2469277,64.0500222 C74.776113,63.5909872 73.971211,61.3193298 73.971211,61.3193298 C73.971211,61.3193298 74.1039046,59.4108937 74.015707,59.1330337 C73.9275095,58.8551738 73.5524712,56.4877026 73.5524712,56.4877026 C73.5524712,56.4877026 73.3212506,55.4119753 73.4094482,55.2308001 C73.4976457,55.049625 73.3546227,54.5339727 73.3546227,54.5339727 C73.3546227,54.5339727 72.9795844,53.9538639 73.0129565,53.7726888 C73.0463285,53.5915136 72.9025109,53.2657468 72.9025109,53.2657468 C72.9025109,53.2657468 74.0244473,51.3756024 73.9251258,51.0210915 C73.8258042,50.6665805 73.9688273,50.1030213 73.9688273,50.1030213 L74.2818889,49.5159442 C74.4908614,49.1239788 74.7435355,48.6544913 74.8285548,48.5081576 C74.9366167,48.3217562 75.1972365,47.529115 75.3426432,47.071822 L75.4459377,46.7443131 C75.4459377,46.7443131 75.6223328,50.2963909 75.7764799,50.6587412 C75.930627,51.0210915 76.1618476,53.881568 76.1618476,53.881568 C76.2475447,54.1362855 76.2851205,54.4074396 76.2722932,54.6785644 C76.2500451,55.125405 76.6250834,57.0704245 76.6250834,57.0704245 C76.6250834,57.0704245 76.7903545,58.4475297 76.6799089,58.8124931 C76.5694633,59.1774565 76.6576609,61.8454345 76.6576609,61.8454345 C76.6576609,61.8454345 76.051402,62.368055 75.8972549,62.7635046 C75.7431078,63.1589542 75.9195029,64.2442629 75.9195029,64.2442629 C75.9195029,64.2442629 77.6826595,65.2111109 78.4621352,64.95764 C79.2416109,64.704169 78.9245764,63.2417024 78.9245764,63.2417024 C78.9245764,63.2417024 79.4537618,62.2757254 79.4537618,61.9011807 C79.4537618,61.5266359 79.6460483,60.3829679 79.6460483,60.3829679 C80.3182567,59.0302517 80.0536641,55.7447104 80.1641096,55.4790449 C80.2745552,55.2133795 79.9320945,54.2221424 79.6571723,53.7753019 C79.3822502,53.3284613 79.4919012,52.1203367 79.6571723,51.771923 C79.8224434,51.4235093 79.4871338,50.2119006 79.4871338,50.2119006 C79.4871338,50.2119006 79.8049628,47.8679474 79.795428,47.5055971 C79.7858931,47.1432468 80.0711447,46.0683905 80.0711447,46.0683905 C80.0711447,46.0683905 80.3571908,45.5126707 80.2912413,45.342819 C80.2252917,45.1729673 80.5113379,44.7391922 80.4342643,44.5458226 C80.3571908,44.352453 80.5010084,43.7618918 80.6440315,43.4134781 C80.7171322,43.234045 80.808508,42.7392975 80.8824033,42.3011673 C80.9499419,41.8839419 81,41.5172364 81,41.5172364 L79.1812234,39.9101782 L74.6410357,38.6036268 L72.9334992,38 L71.2688696,40.8744131 C71.1511986,41.084031 71.043264,41.3000325 70.9454786,41.5215916 C70.8143741,41.8203564 70.697572,42.1530915 70.7182308,42.3603976 C70.7459669,42.6220401 70.6916006,42.886237 70.5640838,43.1094871 C70.5640838,43.1094871 69.5716626,46.5518146 69.5939106,47.5430516 C69.6161587,48.5342886 69.2411204,50.7075191 69.2411204,50.7075191 C69.2411204,50.7075191 68.8335047,52.1081422 69.078233,52.507947 Z" id="Shape" fill="#CEDDF9" fill-rule="nonzero"></path>
                <path d="M77.141319,25 C77.2045694,24.9686218 81.5408138,22.7965549 80.943529,22.365105 C80.5891831,22.1088499 80.1528993,21.0228164 79.8538975,20.1729909 C79.6454588,19.5794204 79.5038642,19.1009033 79.5038642,19.1009033 C79.5038642,19.1009033 76.0236561,18.3513136 77.2692572,20.9382697 C77.4655971,21.335105 77.6135181,21.7643259 77.7084161,22.2125722 C78.0634807,23.9749796 77.1700691,24.9677502 77.141319,25 Z" id="Shape" fill="#FEC2BE" fill-rule="nonzero"></path>
                <path d="M77.2830416,20.8100166 C77.4894329,21.1805938 77.6449266,21.5814136 77.7446827,22 C78.6906378,21.9290828 79.5222943,21.2995186 79.9048007,20.3647903 C79.9410978,20.2769348 79.9728789,20.1869939 80,20.0953754 C79.7808905,19.5410809 79.6320471,19.0942266 79.6320471,19.0942266 C79.6320471,19.0942266 75.9736732,18.3942364 77.2830416,20.8100166 Z" id="Shape" fill="#000000" fill-rule="nonzero" opacity="0.1"></path>
                <path d="M75.0000002,19.0012742 C75.0005669,20.5763628 76.2193072,21.8827465 77.7906368,21.992594 C79.3619664,22.1024415 80.7506323,20.9783347 80.9703642,19.4186466 C81.1900961,17.8589584 80.1660451,16.3949762 78.6255217,16.0664622 C77.0849983,15.7379482 75.5527616,16.6568063 75.1170501,18.1704372 C75.0393125,18.4405344 74.9999108,18.7202136 75.0000002,19.0012742 L75.0000002,19.0012742 Z" id="Shape" fill="#FEC2BE" fill-rule="nonzero"></path>
                <path d="M71,42.2351092 C71.2797534,42.5725764 71.3872293,43.2150218 71.3872293,43.2150218 C71.3872293,43.2150218 72.7030188,44.4066376 72.6152995,43.6510044 C72.5275802,42.8953712 73.2949265,39.8424454 73.2949265,39.8424454 L73.2072072,44 C73.2072072,44 77.4153627,43.7379913 77.7227754,43.3313537 C78.0301881,42.9247162 79.8272483,42.1449782 79.8272483,42.1449782 C79.8272483,42.1449782 80.3804331,42.7308297 80.8830409,43.1751965 C80.9502134,42.6731878 81,42.2319651 81,42.2319651 L79.1910858,40.2983406 L74.6755176,38.7262882 L72.9772404,38 L71.3216374,41.4585153 C71.2046513,41.7100464 71.0973025,41.9692401 71,42.2351092 L71,42.2351092 Z" id="Shape" fill="#000000" fill-rule="nonzero" opacity="0.1"></path>
                <path d="M70.39655,40.5301366 C70.7402872,40.7595181 70.8688016,41.3797591 70.8688016,41.3797591 C70.8688016,41.3797591 72.157042,42.3212997 72.0711077,41.7242454 C71.9851734,41.127191 72.7369051,38.7149589 72.7369051,38.7149589 L72.6509708,42 C72.6509708,42 76.7742693,41.7946332 77.0738781,41.4716773 C77.3734869,41.1487214 79.1355274,40.5301366 79.1355274,40.5301366 C79.1355274,40.5301366 80.6606678,41.8393501 80.9393737,41.7242454 C81.2180796,41.6091406 80.445445,39.381573 80.445445,39.381573 L79.6519074,26.3349829 C79.6519074,26.3349829 79.8663561,22.4528875 79.544296,22.3145961 C79.4946046,22.2930956 79.4487674,22.2625575 79.408814,22.2243341 C79.1966878,22.0206234 79.1332048,21.6065774 79.1146244,21.2587788 C79.0937215,20.8447327 78.5781156,21.0517558 78.5781156,21.0517558 L78.8784986,21.4658018 L76.2176317,23.1965141 L76.1944062,23.2114198 C76.0908033,23.1530415 75.9840341,23.1013318 75.8746687,23.0565666 C75.6424138,22.9596798 75.3257729,22.8685897 75.1206145,22.9588517 C75.0059256,23.0212163 74.9087025,23.1149244 74.8388119,23.2304659 C74.6870366,23.4744229 74.5652627,23.7382696 74.4764942,24.0154972 L73.5126364,25.7602871 C73.5126364,25.7602871 73.0187077,28.0789448 73.0187077,28.1725192 C73.0187077,28.2660936 72.8685162,30.3777283 72.6966476,30.6071098 C72.5247789,30.8364913 72.3529103,31.9850549 72.4171675,32.3295412 C72.4814247,32.6740275 72.3095561,33.9608825 72.3095561,33.9608825 C71.6011787,34.5811234 71.2365385,36.6935862 71.2365385,36.6935862 C71.2365385,36.6935862 70.1170699,39.0619295 70.028813,39.3351998 C69.9405562,39.6084702 70.0528127,40.3040675 70.39655,40.5301366 Z" id="Shape" fill="#FFFFFF" fill-rule="nonzero"></path>
                <path d="M78,23.0659057 C78.2452693,23.4551117 78.9541485,24 78.9541485,24 L81,22.1512718 C80.8005822,21.9597824 80.7409025,21.5705765 80.7234352,21.2428651 C80.7037846,20.8536591 80.2190684,21.0490405 80.2190684,21.0490405 L80.2780204,21.1268817 C80.3348798,21.2053535 80.3577726,21.3060252 80.3409601,21.403661 C80.3241475,21.5012968 80.2692236,21.5866404 80.1899563,21.6382983 L78,23.0659057 Z" id="Shape" fill="#000000" fill-rule="nonzero" opacity="0.1"></path>
                <path d="M78,23.0657844 C78.2452693,23.4550409 78.9541485,24 78.9541485,24 L81,22.1510315 C80.8005822,21.9595173 80.7409025,21.5702608 80.7234352,21.2432853 C80.7037846,20.8540288 80.2190684,21.0486571 80.2190684,21.0486571 L80.2780204,21.1265084 C80.3348547,21.2048616 80.3577367,21.3054311 80.3409194,21.4029585 C80.3241021,21.5004858 80.2691834,21.585705 80.1899563,21.6372129 L78,23.0657844 Z" id="Shape" fill="#FFFFFF" fill-rule="nonzero"></path>
                <path d="M77,23.3643667 C77.2645773,23.734077 77.6399417,24.1540475 77.622449,23.9436363 C77.6049563,23.7332251 77.8462099,23.2689575 78,23.0611019 C77.7597916,22.9721274 77.5009181,22.9805319 77.2653061,23.0849542 C77.1571715,23.1488375 77.0655845,23.2452942 77,23.3643667 Z" id="Shape" fill="#000000" fill-rule="nonzero" opacity="0.1"></path>
                <path d="M77,23.3327344 C77.2715034,23.7214122 77.6559461,24.1610203 77.6379955,23.9412163 C77.6200449,23.7214122 77.842184,23.3631138 78,23.1450968 C77.7756171,23.0405559 77.4704562,22.9422696 77.2715034,23.0405559 C77.1608225,23.1073021 77.0670867,23.208176 77,23.3327344 Z" id="Shape" fill="#FFFFFF" fill-rule="nonzero"></path>
                <circle id="Oval" fill="#FF718D" fill-rule="nonzero" cx="77.25" cy="26.25" r="1"></circle>
                <circle id="Oval" fill="#FF718D" fill-rule="nonzero" cx="76.25" cy="29.25" r="1"></circle>
                <circle id="Oval" fill="#FF718D" fill-rule="nonzero" cx="73.25" cy="34.25" r="1"></circle>
                <circle id="Oval" fill="#FF718D" fill-rule="nonzero" cx="73.25" cy="40.25" r="1"></circle>
                <circle id="Oval" fill="#FF718D" fill-rule="nonzero" cx="77.25" cy="27.25" r="1"></circle>
                <circle id="Oval" fill="#FF718D" fill-rule="nonzero" cx="75.25" cy="32.25" r="1"></circle>
                <circle id="Oval" fill="#FF718D" fill-rule="nonzero" cx="73.25" cy="38.25" r="1"></circle>
                <circle id="Oval" fill="#FF718D" fill-rule="nonzero" cx="73.25" cy="41.25" r="1"></circle>
                <path d="M81.1818432,22.0783859 C81.1818432,22.0783859 81.1505904,21.8066589 81.5560316,22.2750412 C81.9614728,22.7434235 82.7275877,23.14979 82.7275877,23.14979 C82.7275877,23.14979 84.4616934,24.3272738 84.5554517,24.8699119 C84.64921,25.4125499 85.210915,27.7675175 84.9144361,28.5516906 C84.6179572,29.3358638 82.3508653,33.0943463 82.3508653,33.0943463 C82.3508653,33.0943463 82.9421337,33.7740719 82.8044526,34.573749 C82.6667715,35.3734262 82.491925,36.4750222 82.5696346,36.7165573 C82.6473441,36.9580925 82.4758763,37.5611143 82.7385684,37.7724575 C83.0012605,37.9838008 83.2850693,38.3436555 82.4572936,38.8283577 C82.4572936,38.8283577 82.3010298,39.2363563 82.4412449,39.326932 C82.5814599,39.4175076 80.3642035,40.3526403 79.4849029,39.8548821 C78.6056023,39.3571238 77.0353624,35.3734262 77.0015756,34.4831733 C76.9677889,33.5929205 77.4855711,30.6479871 77.7668459,29.9560216 C78.0481207,29.2640561 78.8919452,26.5606578 79.2509295,25.957636 C79.6099139,25.3546141 81.1818432,22.0783859 81.1818432,22.0783859 Z" id="Shape" fill="#000000" fill-rule="nonzero" opacity="0.1"></path>
                <path d="M81.1801919,22.0783859 C81.1801919,22.0783859 81.1489325,21.8066589 81.5553042,22.2750412 C81.9616759,22.7434235 82.7271077,23.14979 82.7271077,23.14979 C82.7271077,23.14979 84.4615797,24.3272738 84.5553578,24.8699119 C84.6491359,25.4125499 85.2109595,27.7675175 84.914418,28.5516906 C84.6178765,29.3358638 82.3519954,33.0943463 82.3519954,33.0943463 C82.3519954,33.0943463 82.9433887,33.7740719 82.8056786,34.573749 C82.6679684,35.3734262 82.493085,36.4750222 82.5708109,36.7165573 C82.6485369,36.9580925 82.4770329,37.5611143 82.7397805,37.7724575 C83.002528,37.9838008 83.2863968,38.3436555 82.4584462,38.8283577 C82.4584462,38.8283577 82.3021494,39.2363563 82.4423941,39.326932 C82.5826388,39.4175076 80.364914,40.3526403 79.4854277,39.8548821 C78.6059415,39.3571238 77.0353699,35.3734262 77.001576,34.4831733 C76.9677821,33.5929205 77.4856736,30.6479871 77.7670078,29.9560216 C78.0483421,29.2640561 78.8923448,26.5606578 79.251405,25.957636 C79.6104652,25.3546141 81.1801919,22.0783859 81.1801919,22.0783859 Z" id="Shape" fill="#4C4981" fill-rule="nonzero"></path>
                <path d="M81,26 C81,26 79.9651097,27.202601 80.0009078,28 C80.0009078,28 79.989192,26.7084189 81,26 Z" id="Shape" fill="#000000" fill-rule="nonzero" opacity="0.1"></path>
                <path d="M80,27 C80,27.0505592 79.4143013,30.7220775 79.444869,31.1817068 C79.4754367,31.641336 79.2729258,33 79.2729258,33 L79,32.8814157 C79,32.8814157 79.2117904,30.994178 79.2521834,30.2973801 C79.2925764,29.6005822 80,27 80,27 Z" id="Shape" fill="#000000" fill-rule="nonzero" opacity="0.1"></path>
                <path d="M80,37 C80.0378381,37.0532756 82.5913972,39.7935774 81.8724737,39.9911813 C81.1535501,40.1887853 80,37 80,37 Z" id="Shape" fill="#000000" fill-rule="nonzero" opacity="0.1"></path>
                <path d="M81,36 C81.0491981,36.0362912 81.8945105,37.9950365 81.9920121,37.4712659 C82.0895138,36.9474952 81.2647751,38.9042788 81.1323876,37.4536107 L81,36 Z" id="Shape" fill="#000000" fill-rule="nonzero" opacity="0.1"></path>
                <path d="M77.9618885,23.0934499 C77.9618885,23.0934499 76.9543778,22.60808 75.6888819,23.84967 C75.6888819,23.84967 74.7673663,24.2632762 74.4966772,24.3635911 C74.2259881,24.463906 73.9181647,27.1176214 73.9181647,27.1176214 C73.9181647,27.1176214 73.3220624,28.2588965 73.4842804,28.9155734 C73.6464984,29.5722503 73.0152163,31.8262494 73.0152163,31.8262494 C73.0152163,31.8262494 71.9656852,35.8774288 72.0008651,35.9931768 C72.0360449,36.1089247 73.0670088,34.7230356 73.0494189,34.0378075 C73.0318289,33.3525794 73.9162103,31.2127851 74.0432485,31.083919 C74.1702867,30.9550529 75.0370782,27.2889284 75.0370782,27.2889284 C75.0370782,27.2889284 75.7416516,25.7332755 76.1931258,25.2193545 C76.6446001,24.7054335 77.2055226,23.7354654 77.4400547,23.5641583 C77.6088849,23.4487881 77.7973685,23.3526819 78,23.2786466 L77.9618885,23.0934499 Z" id="Shape" fill="#000000" fill-rule="nonzero" opacity="0.1"></path>
                <path d="M77.9712181,23.0934511 C77.9712181,23.0934511 76.8621565,22.6080749 75.6206981,23.849681 C75.6206981,23.849681 74.7150284,24.2632925 74.4492757,24.3636088 C74.1835231,24.463925 73.8813134,27.1176748 73.8813134,27.1176748 C73.8813134,27.1176748 73.2960819,28.2589647 73.4553416,28.9156501 C73.6146013,29.5723355 72.9948315,31.8263638 72.9948315,31.8263638 C72.9948315,31.8263638 71.9653997,35.8791391 72.0008974,35.9933453 C72.036395,36.1075514 73.0475983,34.7231876 73.0303292,34.0379506 C73.0130601,33.3527137 73.8813134,31.2128916 74.0060348,31.0840238 C74.1307563,30.955156 74.9846187,27.2889841 74.9846187,27.2889841 C74.9846187,27.2889841 75.6763431,25.733311 76.119584,25.2193833 C76.5628249,24.7054556 77.1135182,23.7354749 77.3437732,23.5641657 C77.5740282,23.3928564 78,23.2786503 78,23.2786503 L77.9712181,23.0934511 Z" id="Shape" fill="#4C4981" fill-rule="nonzero"></path>
                <path d="M73,31.856616 C73,31.856616 71.2657236,30.5248282 70.4269645,31.18241 C69.5882054,31.8399918 68.2197036,32.7709503 69.5669211,33.4451564 C70.9141385,34.1193624 72.7808505,33.9900626 72.7808505,33.9900626 L73,31.856616 Z" id="Shape" fill="#FEC2BE" fill-rule="nonzero"></path>
                <path d="M75.1085938,44.2547226 C75.4016412,44.8745573 75.644656,48.007379 75.8072616,49 C76.0422355,48.6015348 76.3263485,48.1242621 76.4219462,47.9755018 C76.5434537,47.7860094 76.836501,46.9802243 77,46.5153483 C76.8132717,46.0655254 76.2977585,44.7762692 76.2977585,44.3016529 C76.2977585,43.7243211 75.3560759,43 75.3560759,43 C75.3560759,43 74.7619403,43.5180047 75.1085938,44.2547226 Z" id="Shape" fill="#000000" fill-rule="nonzero" opacity="0.1"></path>
                <path d="M81,52.4066793 C81,52.4066793 78.7476531,51.659158 78.0823757,52.1910481 C77.4170984,52.7229383 81,52.4066793 81,52.4066793 Z" id="Shape" fill="#000000" fill-rule="nonzero" opacity="0.1"></path>
                <path d="M79,53 C79,53 80.3720009,53.8461862 79.9018864,53.9877256 C79.4317719,54.129265 79,53 79,53 Z" id="Shape" fill="#000000" fill-rule="nonzero" opacity="0.1"></path>
                <path d="M73,52 C73,52 74.4177715,52.1049118 73.8770275,52.4211678 C73.3362836,52.7374237 73,52 73,52 Z" id="Shape" fill="#000000" fill-rule="nonzero" opacity="0.1"></path>
                <path d="M71,52 C71.0109969,52.0440494 73.4075278,52.6728701 72.9393756,52.957595 C72.4712233,53.2423199 71,52 71,52 Z" id="Shape" fill="#000000" fill-rule="nonzero" opacity="0.1"></path>
                <path d="M80,59.8561543 C79.5920615,59.771279 77.3140331,58.3417355 78.2048922,59.3711523 C79.0957513,60.4005691 80,59.8561543 80,59.8561543 Z" id="Shape" fill="#000000" fill-rule="nonzero" opacity="0.1"></path>
                <path d="M79,61 C79,61 78.8270803,62.1332345 78.1681158,61.9869682 C77.5091513,61.8407019 79,61 79,61 Z" id="Shape" fill="#000000" fill-rule="nonzero" opacity="0.1"></path>
                <path d="M80,61.5869345 C79.8478898,61.5459973 78.0414572,60.7152726 78.0006956,61.1026779 C77.9599341,61.4900831 79.7236168,62.1690408 79.8618084,61.9613597 C79.941036,61.8515576 79.9888266,61.7220706 80,61.5869345 L80,61.5869345 Z" id="Shape" fill="#000000" fill-rule="nonzero" opacity="0.1"></path>
                <path d="M74,61.5 C73.8366446,61.4788821 72.3075791,60.4742736 72,61.3732926 L74,61.5 Z" id="Shape" fill="#000000" fill-rule="nonzero" opacity="0.1"></path>
                <path d="M73,61.4994073 C73,61.4994073 72.545577,60.7063115 72.0924128,61.1190197 C71.6392486,61.5317278 73,61.4994073 73,61.4994073 Z" id="Shape" fill="#000000" fill-rule="nonzero" opacity="0.1"></path>
                <path d="M77.5,63 C77.4494886,63.2481721 77.2535412,63.4441195 77,63.5 L77.5,63 Z" id="Shape" fill="#000000" fill-rule="nonzero" opacity="0.1"></path>
                <path d="M68.054333,65.5669736 C68.1799857,66.0193836 69.9355068,66.0631139 70.7753004,65.9422592 C71.615094,65.8214045 73.3579595,65.3793307 73.3579595,65.3793307 C73.3579595,65.3793307 75.1885106,65.225082 75.7272802,65.0271029 C76.2660498,64.8291238 75.8402772,64.321057 75.8402772,64.321057 C75.8402772,64.321057 75.8402772,64.3035648 75.8402772,64.2733511 C75.8529329,64.0888887 75.8908999,63.4202123 75.7616313,63.2397254 C75.6115713,63.0298198 75.699257,62.3460366 75.699257,62.3460366 C75.699257,62.3460366 73.1039423,62.7873153 73.0533196,62.5782049 C73.002697,62.3690944 72.6013317,62.0709332 72.4142087,62.0049401 C72.2270857,61.9389471 72.0878734,62.5559422 72.0878734,62.5559422 C72.0878734,62.5559422 70.9127047,63.4384996 70.8340588,63.7581285 C70.7554129,64.0777573 69.930083,64.2431375 69.930083,64.2431375 C69.930083,64.2431375 68.6762684,64.551635 68.3499332,64.7058838 C68.1573086,64.785549 68.0262557,64.9481919 68.0046144,65.1344409 C67.9909191,65.28008 68.0077719,65.4266928 68.054333,65.5669736 Z" id="Shape" fill="#CA8496" fill-rule="nonzero"></path>
                <path d="M68.0515078,64.4984198 C68.1772051,65.0224523 69.9333505,65.0731057 70.7734427,64.9331181 C71.6135349,64.7931305 73.35702,64.2810706 73.35702,64.2810706 C73.35702,64.2810706 75.1882221,64.1024023 75.7271833,63.8730805 C76.2661444,63.6437587 75.8402204,63.0552583 75.8402204,63.0552583 C75.8402204,63.0552583 75.8402204,63.0349969 75.8402204,63 L73.2177583,63.5921843 C73.2177583,63.5921843 71.9255174,64.1539766 71.0980854,64.1539766 C70.3746476,64.1539766 68.7559554,64.4551342 68.0053887,63.9983325 C67.9906265,64.1664979 68.0062579,64.3359948 68.0515078,64.4984198 Z" id="Shape" fill="#000000" fill-rule="nonzero" opacity="0.1"></path>
                <path d="M71,63 C71,63 71.1001441,63.75 71.5,64 L71,63 Z" id="Shape" fill="#000000" fill-rule="nonzero" opacity="0.1"></path>
                <path d="M75,18.0605612 C75.0477367,18.0840542 75.0976556,18.1034855 75.1491482,18.1186182 C75.3841696,18.1775165 75.6137675,18.0294292 75.822575,17.9116325 C76.0313825,17.7938358 76.3197357,17.7063297 76.5005214,17.8594654 C76.7364468,18.0588784 76.5656043,18.4846294 76.808761,18.6773112 C76.9624289,18.7993149 77.2064896,18.7572447 77.3773321,18.8573719 C77.5481746,18.9574991 77.5996985,19.1771058 77.6430871,19.366422 C77.6864757,19.5557381 77.7732528,19.7719792 77.9721171,19.827512 C78.1709814,19.8830447 78.3562867,19.761041 78.5524392,19.7677722 C78.593116,19.7677722 78.6428321,19.773662 78.6681421,19.7467371 C78.6860687,19.7220886 78.692885,19.6918752 78.6871246,19.6625966 C78.662622,19.4364628 78.6843995,19.208055 78.7513035,18.9894725 C78.8317532,18.7740728 79.0224821,18.5797082 79.2611192,18.5452106 C79.6127474,18.4947263 79.9083321,18.7816454 80.1153317,19.0500536 C80.3329368,19.3342833 80.5309919,19.6310514 80.7083089,19.9385774 C80.719544,19.9584864 80.7295046,19.9789964 80.7381385,20 C81.2009817,19.026805 81.0420969,17.8945795 80.326229,17.064702 C79.6103611,16.2348244 78.4570364,15.8458567 77.336231,16.0563019 C76.2154256,16.2667472 75.3142769,17.0414681 75,18.0647683 L75,18.0605612 Z" id="Shape" fill="#000000" fill-rule="nonzero" opacity="0.1"></path>
                <path d="M78.4628474,19.4230603 C78.2649856,19.1054861 77.9824493,18.7701594 77.6454794,18.8313072 C77.4147846,18.8717437 77.2367953,19.0995686 77.159033,19.3510636 C77.0949769,19.6072558 77.0744474,19.8750702 77.0985513,20.1400677 C77.1033522,20.1745033 77.0965614,20.2097371 77.0795427,20.2386932 C77.0527579,20.2712396 77.0078286,20.2663084 76.9689474,20.2643359 C76.7814539,20.2564458 76.5948244,20.3955078 76.4142431,20.33436 C76.2336618,20.2732122 76.1412111,20.0157996 76.0997379,19.7938922 C76.0582646,19.5719848 76.0133353,19.3185172 75.8457144,19.1972078 C75.6780934,19.0758985 75.4491267,19.1291562 75.3022424,18.985163 C75.0698195,18.7602968 75.2339844,18.2602655 75.0076097,18.026523 C74.8348046,17.8480109 74.5591805,17.9505814 74.3595906,18.0886571 C74.1600008,18.2267328 73.9405383,18.3993275 73.7150277,18.3302896 C73.6389934,18.3066195 73.5707354,18.2573067 73.4964292,18.2247603 C73.1413148,18.0699183 72.6807892,18.3322621 72.3887486,18.0541382 C72.2827852,17.9331123 72.2065129,17.7824539 72.1675581,17.6172272 C72.0874049,17.3937937 72.0330904,17.1593943 72.0059854,16.9199448 C71.9801743,16.6779014 72.0384891,16.4339505 72.1684221,16.240415 C72.3585077,15.984975 72.6799252,15.9208684 72.9227163,15.7324937 C73.1292184,15.5707478 73.2683265,15.3251703 73.4048425,15.0835378 C73.5413586,14.8419053 73.6735544,14.5904103 73.8731443,14.4197881 C74.0727342,14.249166 74.3526784,14.1643481 74.575597,14.2935475 C74.6459203,14.3495301 74.7238702,14.3918526 74.8062918,14.4188019 C74.896151,14.4201151 74.984507,14.3924226 75.0611793,14.3389152 C75.8923718,13.8921417 76.8600802,13.9710421 77.7716271,14.1041865 C78.1362458,14.1574443 78.5060487,14.2195784 78.8386985,14.400063 C79.1713483,14.5805477 79.4651169,14.8931906 79.5584317,15.2995277 C79.6327378,15.6210468 79.5757122,15.9711674 79.6655708,16.2857828 C79.7260526,16.5007864 79.8504723,16.6802848 79.9247784,16.8962747 C80.1191842,17.4732339 79.8867613,18.1064097 79.7882624,18.7139428 C79.6811233,19.3776925 79.7346928,20.0947 79.4875816,20.7239307 C79.4391961,20.8472126 79.3847625,21.0632025 79.262935,20.9823296 C79.1765324,20.922168 79.0849457,20.5720474 79.0331042,20.4625731 C78.8626585,20.1025256 78.6721829,19.7553105 78.4628474,19.4230603 Z" id="Shape" fill="#9A5E7F" fill-rule="nonzero"></path>
                <path d="M83.5896136,28.5542945 L84,29.6931648 C84,29.6931648 83.0282051,33.2121459 82.5726762,33.9519317 C82.1171474,34.6917175 81.4498592,35.6378436 81.4498592,35.6378436 C81.4498592,35.6378436 80.3270421,36.185685 79.0211927,35.9337579 C77.7153433,35.6818309 73.9044955,35.0172233 73.9044955,35.0172233 C73.9044955,35.0172233 73.5852149,35.0764062 73.4185981,34.8396747 C73.2519812,34.6029432 72.3844244,34.482978 72.3844244,34.482978 C72.3844244,34.482978 71.3830817,33.063389 72.6125992,32.4715603 C72.6125992,32.4715603 72.7644422,32.7970661 73.4169565,32.5755302 C74.0694708,32.3539944 74.2664563,32.7522791 74.2664563,32.7522791 C74.2664563,32.7522791 75.3334608,32.9594191 75.9211341,32.8858404 C76.5088074,32.8122617 77.9853775,32.7818705 78.1372204,32.6635048 C78.217341,32.5951136 78.3389205,32.6018731 78.4105378,32.6787004 C78.4105378,32.6787004 78.7741401,32.5459388 78.8956144,32.4123775 C79.0170888,32.2788162 79.1845264,32.5603346 79.1845264,32.5603346 C79.1845264,32.5603346 79.3971066,32.4419689 79.3363694,32.2940118 C79.2756322,32.1460546 79.5333548,31.5846171 79.5333548,31.5846171 C79.5333548,31.5846171 79.6548292,31.2143244 79.5793181,30.91841 C79.503807,30.6224957 79.9585151,29.5588037 79.9585151,29.5588037 C79.9644515,29.3793409 79.9439984,29.1999738 79.8977779,29.0261579 C79.8214461,28.7606348 80.4723188,28.2263895 80.4723188,28.2263895 C80.4723188,28.2263895 81.1092385,25.2088631 82.4602304,26.1997762 C83.8112223,27.1906893 83.5896136,28.5542945 83.5896136,28.5542945 Z" id="Shape" fill="#000000" fill-rule="nonzero" opacity="0.1"></path>
                <path d="M83.5894732,28.5542945 L84,29.6931648 C84,29.6931648 83.0278726,33.2121459 82.5721879,33.9519317 C82.1165032,34.6917175 81.4498078,35.6378436 81.4498078,35.6378436 C81.4498078,35.6378436 80.3266066,36.185685 79.0203104,35.9337579 C77.7140143,35.6818309 73.9035049,35.0172233 73.9035049,35.0172233 C73.9035049,35.0172233 73.5849362,35.0764062 73.4182623,34.8396747 C73.2515885,34.6029432 72.3845559,34.482978 72.3845559,34.482978 C72.3845559,34.482978 71.3828707,33.063389 72.6128088,32.4715603 C72.6128088,32.4715603 72.7647037,32.7970661 73.4174413,32.5755302 C74.0701788,32.3539944 74.2672316,32.7522791 74.2672316,32.7522791 C74.2672316,32.7522791 75.3346012,32.9594191 75.9224755,32.8858404 C76.5103498,32.8122617 77.9874251,32.7818705 78.13932,32.6635048 C78.219468,32.5951136 78.3410891,32.6018731 78.4127308,32.6787004 C78.4127308,32.6787004 78.7764575,32.5459388 78.8979735,32.4123775 C79.0194894,32.2788162 79.1869843,32.5603346 79.1869843,32.5603346 C79.1869843,32.5603346 79.3996372,32.4419689 79.3388792,32.2940118 C79.2781212,32.1460546 79.535932,31.5846171 79.535932,31.5846171 C79.535932,31.5846171 79.657448,31.2143244 79.58109,30.91841 C79.504732,30.6224957 79.9612378,29.5588037 79.9612378,29.5588037 C79.9671761,29.3793409 79.9467161,29.1999738 79.9004798,29.0261579 C79.8241218,28.7606348 80.4752173,28.2263895 80.4752173,28.2263895 C80.4752173,28.2263895 81.1123548,25.2088631 82.4638089,26.1997762 C83.815263,27.1906893 83.5894732,28.5542945 83.5894732,28.5542945 Z" id="Shape" fill="#4C4981" fill-rule="nonzero"></path>
                <path d="M73.2089069,33 C73.2258453,33.0737936 73.6088413,33.367265 73.46957,33.4200558 C73.3302988,33.4728466 73.1044535,33.4410586 73.3133604,33.6090809 C73.5222673,33.7771033 73.5015648,34.0285691 73.3651166,33.9973488 C73.2286684,33.9661284 73,33.5880782 73,33.4410586 C73,33.2940391 73.2089069,33 73.2089069,33 Z" id="Shape" fill="#000000" fill-rule="nonzero" opacity="0.1"></path>
                <path d="M79,32 C79,32 79.0877641,32.7573253 79.8072718,32.973704 C80.5267795,33.1900826 79,32 79,32 Z" id="Shape" fill="#000000" fill-rule="nonzero" opacity="0.1"></path>
                <path d="M80,32 C80.0623401,32.0166878 81.4666927,32.6016389 80.8387578,32.9424213 C80.2108229,33.2832036 80,32 80,32 Z" id="Shape" fill="#000000" fill-rule="nonzero" opacity="0.1"></path>
                <path d="M80,31 C80,31 81.3662668,31.4965627 80.9048125,31.9179699 C80.4433581,32.3393772 80,31 80,31 Z" id="Shape" fill="#000000" fill-rule="nonzero" opacity="0.1"></path>
                <g id="Group" opacity="0.1" transform="translate(72.000000, 17.000000)" fill-rule="nonzero" fill="#000000">
                    <path d="M5.14752688,1.66133333 C5.22494624,1.49133333 5.4055914,1.33733333 5.63182796,1.31 C5.96731183,1.27 6.24860215,1.49733333 6.4455914,1.71 C6.65267318,1.93520237 6.84115051,2.17033933 7.00989247,2.414 C7.06150538,2.488 7.14924731,2.724 7.23870968,2.76466667 C7.36,2.82 7.41075269,2.674 7.46236559,2.59066667 C7.7083871,2.16666667 7.65505376,1.68066667 7.76172043,1.232 C7.82451613,0.97 7.94064516,0.698666667 7.96645161,0.438666667 C8.00344086,0.761333333 7.84,1.10066667 7.76172043,1.42866667 C7.65505376,1.87733333 7.7083871,2.362 7.46236559,2.788 C7.41419355,2.87133333 7.36,3.01733333 7.23870968,2.962 C7.15268817,2.92133333 7.06150538,2.68533333 7.00989247,2.61133333 C6.84115051,2.36767266 6.65267318,2.13253571 6.4455914,1.90733333 C6.24860215,1.69333333 5.96731183,1.466 5.63182796,1.50733333 C5.40215054,1.53466667 5.22494624,1.68866667 5.14752688,1.85866667 C5.10915124,1.94824616 5.08771026,2.0416593 5.08387097,2.136 C5.06683338,1.97608675 5.08842096,1.81511339 5.14752688,1.66133333 Z" id="Shape"></path>
                    <path d="M0.174623656,0.489333333 C0.213192878,0.601282353 0.289148347,0.703377184 0.39483871,0.785333333 C0.685591398,0.973333333 1.14408602,0.796 1.49763441,0.900666667 C1.5716129,0.922 1.63956989,0.956 1.71526882,0.972 C1.93978495,1.018 2.15913978,0.901333333 2.35698925,0.808 C2.55483871,0.714666667 2.83096774,0.646 3.00215054,0.766666667 C3.22752688,0.924666667 3.06408602,1.262 3.29548387,1.41466667 C3.44172043,1.51133333 3.67397849,1.48133333 3.83655914,1.558 C3.99913978,1.63466667 4.04817204,1.81066667 4.08946237,1.958 C4.13075269,2.10533333 4.21247312,2.27933333 4.40258065,2.32333333 C4.59268817,2.36733333 4.76817204,2.27133333 4.95483871,2.27666667 C4.99354839,2.27666667 5.04086022,2.28133333 5.06494624,2.25933333 C5.07058253,2.25372345 5.07494589,2.24741112 5.07784946,2.24066667 C5.07784946,2.29066667 5.07784946,2.34 5.08387097,2.38933333 C5.08856458,2.4126083 5.08181062,2.43640067 5.06494624,2.456 C5.03827957,2.47733333 4.99354839,2.474 4.95483871,2.47266667 C4.76817204,2.468 4.58236559,2.56133333 4.40258065,2.52 C4.2227957,2.47866667 4.13075269,2.30533333 4.08946237,2.15466667 C4.04817204,2.004 4.00344086,1.83333333 3.83655914,1.75466667 C3.66967742,1.676 3.44172043,1.708 3.29548387,1.61133333 C3.06408602,1.45866667 3.22752688,1.12066667 3.00215054,0.963333333 C2.83010753,0.842 2.55569892,0.911333333 2.35698925,1.00466667 C2.15827957,1.098 1.93978495,1.21466667 1.71526882,1.16866667 C1.63956989,1.15266667 1.5716129,1.11866667 1.49763441,1.09733333 C1.14408602,0.992666667 0.685591398,1.17 0.39483871,0.982 C0.28930984,0.899947967 0.213380861,0.797888741 0.174623656,0.686 C0.0949235384,0.535173521 0.0408507364,0.376959972 0.0137634409,0.215333333 C0.00773907366,0.160240315 0.00946969392,0.104802779 0.0189247312,0.05 C0.0488763871,0.200593425 0.101120645,0.348010267 0.174623656,0.489333333 L0.174623656,0.489333333 Z" id="Shape"></path>
                </g>
                <path d="M19.9381187,63.0047506 C19.9381187,63.0047506 16.6437396,62.7845752 17.031772,65.342064 C17.031772,65.342064 16.9538538,65.7945029 17.3247442,66 C17.3247442,66 17.3301985,65.8100447 17.6629089,65.8739388 C17.7810315,65.8958418 17.9010464,65.9025059 18.0205532,65.8937977 C18.1820304,65.8814264 18.3354772,65.8111074 18.457674,65.6934813 L18.457674,65.6934813 C18.457674,65.6934813 19.3841207,65.2695356 19.7441025,63.5918851 C19.7441025,63.5918851 20.0105825,63.2266529 19.999674,63.1325387 L19.4441177,63.3915686 C19.4441177,63.3915686 19.6342379,63.8362367 19.4846351,64.205786 C19.4846351,64.205786 19.4667139,63.4079739 19.3599661,63.4286963 C19.338149,63.4286963 19.0708898,63.5823874 19.0708898,63.5823874 C19.0708898,63.5823874 19.3981459,64.3594771 19.1488079,64.9198452 C19.1488079,64.9198452 19.2423097,63.9657516 18.9664794,63.6385105 L18.5768887,63.8914964 C18.5768887,63.8914964 18.9586876,64.6910354 18.6999994,65.3437909 C18.6999994,65.3437909 18.7662298,64.3430719 18.4942955,63.9536636 L18.139768,64.2601823 C18.139768,64.2601823 18.4989706,65.0476333 18.2800206,65.5890058 C18.2800206,65.5890058 18.2511909,64.4242346 18.0634082,64.3361644 C18.0634082,64.3361644 17.7517356,64.6392295 17.7057639,64.767881 C17.7057639,64.767881 17.9512061,65.3403371 17.7984865,65.6425387 C17.7984865,65.6425387 17.7049847,64.8654489 17.628625,64.8654489 C17.628625,64.8654489 17.3169524,65.3791916 17.2873435,65.728882 C17.2873435,65.728882 17.3005896,65.2047781 17.5538235,64.8127795 C17.3755654,64.8502558 17.2111312,64.944815 17.0808604,65.0847609 C17.0808604,65.0847609 17.1283905,64.7212556 17.6301833,64.6893086 C17.6301833,64.6893086 17.8857548,64.2990368 17.9535436,64.2757241 C17.9535436,64.2757241 17.4548675,64.2290987 17.1525451,64.3776092 C17.1525451,64.3776092 17.4190252,64.032236 18.045487,64.1911077 L18.3953395,63.8742277 C18.3953395,63.8742277 17.7384895,63.7749329 17.4603218,63.8845889 C17.4603218,63.8845889 17.7805653,63.5815239 18.4896204,63.8025628 L18.8706401,63.5495769 C18.8706401,63.5495769 18.3111879,63.4157448 17.9776982,63.4632336 C17.9776982,63.4632336 18.329109,63.2534193 18.9828423,63.4813657 L19.2547766,63.3458067 C19.2547766,63.3458067 18.8449271,63.2594634 18.7249332,63.2421947 C18.6049393,63.2249261 18.5979266,63.1912522 18.5979266,63.1912522 C18.8577781,63.1432449 19.1245553,63.1761252 19.3685371,63.2862298 C19.3685371,63.2862298 19.9474688,63.0444685 19.9381187,63.0047506 Z" id="Shape" fill="#4285F4" fill-rule="nonzero"></path>
                <ellipse id="Oval" fill="#4285F4" fill-rule="nonzero" opacity="0.1" cx="17" cy="65.5" rx="3" ry="1"></ellipse>
                <path d="M27.9546729,58.0031772 C27.9546729,58.0031772 25.7602098,57.8561719 26.0216307,59.5620465 C25.9945562,59.7394535 26.073261,59.9160861 26.216776,60 C26.216776,60 26.216776,59.8734121 26.4422975,59.9162886 C26.5210805,59.9304712 26.6010385,59.9349221 26.6807061,59.9295599 C26.7880632,59.9206165 26.890009,59.8737458 26.9715829,59.7958259 L26.9715829,59.7958259 C26.9715829,59.7958259 27.5864744,59.5171282 27.8294854,58.3941706 C27.8294854,58.3941706 28.0071412,58.1501826 27.9997772,58.0879095 L27.6315787,58.2624784 C27.6315787,58.2624784 27.7576867,58.5595517 27.6582731,58.8055815 C27.6582731,58.8055815 27.6463067,58.2737079 27.5754285,58.2859584 C27.5607005,58.2859584 27.3830447,58.3880454 27.3830447,58.3880454 C27.3830447,58.3880454 27.6002819,58.8984807 27.4364335,59.2792654 C27.4364335,59.2792654 27.4981068,58.6432631 27.314928,58.4247968 L27.0525866,58.5983448 C27.0525866,58.5983448 27.3066435,59.1312392 27.1345107,59.56613 C27.1345107,59.56613 27.1786946,58.8984807 26.9973568,58.6391796 L26.7617097,58.8433537 C26.7617097,58.8433537 27.0001183,59.369102 26.8537594,59.7294693 C26.8537594,59.7294693 26.834429,58.9525868 26.7092415,58.8943972 C26.6198347,58.9784775 26.5397989,59.0740951 26.4708329,59.1792201 C26.4708329,59.1792201 26.6346813,59.5610257 26.5334267,59.7621372 C26.5334267,59.7621372 26.4708329,59.2445558 26.4202056,59.2425141 C26.4202056,59.2425141 26.2140145,59.5845057 26.192843,59.8203268 C26.2023876,59.602514 26.2633311,59.3912981 26.3695783,59.2078045 C26.2509968,59.2333127 26.1416379,59.296437 26.0547686,59.3895194 C26.0547686,59.3895194 26.086986,59.1465522 26.4229671,59.1261348 C26.4229671,59.1261348 26.5923384,58.8658128 26.6383632,58.8504998 C26.6383632,58.8504998 26.3060641,58.8188528 26.1044754,58.9178772 C26.1044754,58.9178772 26.2821312,58.6892022 26.699116,58.793331 L26.9320016,58.5820108 C26.9320016,58.5820108 26.4947658,58.5156542 26.3097461,58.5891569 C26.3097461,58.5891569 26.5233012,58.3849828 26.9955158,58.5340299 L27.2486523,58.3666071 C27.0535635,58.3186656 26.853629,58.2994439 26.6540117,58.3094384 C26.6540117,58.3094384 26.8887382,58.1685583 27.3232125,58.320668 L27.5073117,58.2308314 C27.5073117,58.2308314 27.2311628,58.1706 27.1547617,58.1614122 C27.0783605,58.1522243 27.070076,58.1277234 27.070076,58.1277234 C27.2432725,58.0957733 27.4210646,58.1176821 27.5837129,58.1910174 C27.5837129,58.1910174 27.9647984,58.0297199 27.9546729,58.0031772 Z" id="Shape" fill="#4285F4" fill-rule="nonzero"></path>
                <ellipse id="Oval" fill="#4285F4" fill-rule="nonzero" opacity="0.1" cx="25.5" cy="59.25" rx="1.5" ry="1"></ellipse>
                <path d="M13.9555583,59.0031863 C13.9555583,59.0031863 11.7599925,58.856026 12.02166,60.561902 C11.9944089,60.7393971 12.0732196,60.9161883 12.216957,61 C12.216957,61 12.216957,60.8731376 12.4420063,60.9154251 C12.5208586,60.930198 12.6010222,60.934457 12.6807874,60.9281113 C12.7885076,60.920158 12.8908919,60.8732105 12.9722072,60.794483 L12.9722072,60.794483 C12.9722072,60.794483 13.5893764,60.5120028 13.8296833,59.3939224 C13.8296833,59.3939224 14.0066712,59.1503467 13.9998053,59.0877612 L13.6237059,59.263677 C13.6237059,59.263677 13.749581,59.5596892 13.6504067,59.8058022 C13.6504067,59.8058022 13.6382006,59.2746718 13.5672529,59.287358 C13.5527582,59.287358 13.3750074,59.3896937 13.3750074,59.3896937 C13.3750074,59.3896937 13.5924279,59.9056006 13.4284089,60.2811132 C13.4284089,60.2811132 13.4902021,59.6451099 13.3063482,59.4269066 L13.0462065,59.5960564 C13.0462065,59.5960564 13.3002452,60.1288784 13.1278346,60.5635934 C13.1278346,60.5635934 13.1720815,59.8962974 12.9912792,59.6332694 L12.7547867,59.8379407 C12.7547867,59.8379407 12.9935678,60.3631509 12.847858,60.7242858 C12.847858,60.7242858 12.828786,59.9470423 12.7036738,59.8886856 C12.7036738,59.8886856 12.4969336,60.0908197 12.4648927,60.1737031 C12.4648927,60.1737031 12.6289117,60.555136 12.5274488,60.7564243 C12.5274488,60.7564243 12.4648927,60.2388258 12.4137798,60.2362885 C12.4137798,60.2362885 12.2078025,60.5796627 12.1849161,60.8147809 C12.1951281,60.5975371 12.2564053,60.3870302 12.3626669,60.2041501 C12.2436549,60.2288289 12.1338194,60.2917712 12.046835,60.3851404 C12.046835,60.3851404 12.0788759,60.1424104 12.4137798,60.1212667 C12.4137798,60.1212667 12.5839018,59.8616217 12.6289117,59.8455524 C12.6289117,59.8455524 12.2970593,59.8142597 12.0948964,59.9132124 C12.0948964,59.9132124 12.2726472,59.6848601 12.689942,59.7888872 L12.923383,59.57745 C12.923383,59.57745 12.4854904,59.5114815 12.3001108,59.5850617 C12.3001108,59.5850617 12.5137169,59.3820819 12.9867019,59.530088 L13.2407407,59.3609382 C13.2407407,59.3609382 12.8676928,59.2712888 12.645695,59.3034272 C12.645695,59.3034272 12.8798989,59.1630329 13.3155028,59.3152677 L13.497068,59.2247726 C13.497068,59.2247726 13.2239573,59.1655701 13.143855,59.1562669 C13.0637527,59.1469637 13.0591754,59.1224369 13.0591754,59.1224369 C13.2322332,59.0899141 13.4100441,59.1115892 13.572593,59.1850224 C13.572593,59.1850224 13.9624242,59.031096 13.9555583,59.0031863 Z" id="Shape" fill="#4285F4" fill-rule="nonzero"></path>
                <ellipse id="Oval" fill="#4285F4" fill-rule="nonzero" opacity="0.1" cx="12.5" cy="61.25" rx="1.5" ry="1"></ellipse>
                <ellipse id="Oval" fill="#4285F4" fill-rule="nonzero" opacity="0.1" cx="63" cy="70.5" rx="3" ry="1"></ellipse>
                <path d="M61,68.8569017 C61,68.8569017 62.6127191,68.8075726 63.0983299,68.466923 C63.5839407,68.1262734 65.5783461,67.7223337 65.6992764,68.2658839 C65.8202068,68.8094341 68.1226066,70.9845655 66.3020385,70.9994573 C64.4814704,71.0143491 62.0723118,70.7202363 61.586701,70.4289158 C61.1010902,70.1375952 61,68.8569017 61,68.8569017 Z" id="Shape" fill="#A8A8A8" fill-rule="nonzero"></path>
                <path d="M66.3354381,70.8232235 C64.5147565,70.8371213 62.1054476,70.5626389 61.6207513,70.2916309 C61.251324,70.0840319 61.103931,69.3422344 61.0538551,69 L61,69 C61,69 61.1020413,70.1952146 61.5867376,70.4670912 C62.0714338,70.7389678 64.4816875,71.0125816 66.3023692,70.9995524 C66.827693,70.9995524 67.0090998,70.8258293 66.9996515,70.5652447 C66.9278446,70.7242013 66.7265965,70.8206176 66.3354381,70.8232235 Z" id="Shape" fill="#000000" fill-rule="nonzero" opacity="0.2"></path>
            </g>
        </g>
    </g>
</svg>