<?xml version="1.0" encoding="UTF-8"?>
<svg width="501px" height="160px" viewBox="0 0 501 160" version="1.1" xmlns="http://www.w3.org/2000/svg" xmlns:xlink="http://www.w3.org/1999/xlink">
    <!-- Generator: Sketch 47.1 (45422) - http://www.bohemiancoding.com/sketch -->
    <title>survey</title>
    <desc>Created with Sketch.</desc>
    <defs>
        <rect id="path-1" x="0" y="0" width="441" height="100" rx="8"></rect>
        <filter x="-10.8%" y="-42.5%" width="121.5%" height="195.0%" filterUnits="objectBoundingBox" id="filter-2">
            <feOffset dx="0" dy="5" in="SourceAlpha" result="shadowOffsetOuter1"></feOffset>
            <feGaussianBlur stdDeviation="15" in="shadowOffsetOuter1" result="shadowBlurOuter1"></feGaussianBlur>
            <feColorMatrix values="0 0 0 0 0   0 0 0 0 0   0 0 0 0 0  0 0 0 0.2 0" type="matrix" in="shadowBlurOuter1"></feColorMatrix>
        </filter>
        <linearGradient x1="50%" y1="100%" x2="50%" y2="0%" id="linearGradient-3">
            <stop stop-color="#808080" stop-opacity="0.25" offset="0%"></stop>
            <stop stop-color="#808080" stop-opacity="0.12" offset="54%"></stop>
            <stop stop-color="#808080" stop-opacity="0.1" offset="100%"></stop>
        </linearGradient>
        <linearGradient x1="44150%" y1="9100%" x2="44150%" y2="4498%" id="linearGradient-4">
            <stop stop-color="#808080" stop-opacity="0.25" offset="0%"></stop>
            <stop stop-color="#808080" stop-opacity="0.12" offset="54%"></stop>
            <stop stop-color="#808080" stop-opacity="0.1" offset="100%"></stop>
        </linearGradient>
        <linearGradient x1="60472%" y1="10689%" x2="60472%" y2="5250%" id="linearGradient-5">
            <stop stop-color="#808080" stop-opacity="0.25" offset="0%"></stop>
            <stop stop-color="#808080" stop-opacity="0.12" offset="54%"></stop>
            <stop stop-color="#808080" stop-opacity="0.1" offset="100%"></stop>
        </linearGradient>
        <linearGradient x1="30850%" y1="22700%" x2="30850%" y2="14500%" id="linearGradient-6">
            <stop stop-color="#808080" stop-opacity="0.25" offset="0%"></stop>
            <stop stop-color="#808080" stop-opacity="0.12" offset="54%"></stop>
            <stop stop-color="#808080" stop-opacity="0.1" offset="100%"></stop>
        </linearGradient>
        <linearGradient x1="30878%" y1="38950%" x2="30878%" y2="30750%" id="linearGradient-7">
            <stop stop-color="#808080" stop-opacity="0.25" offset="0%"></stop>
            <stop stop-color="#808080" stop-opacity="0.12" offset="54%"></stop>
            <stop stop-color="#808080" stop-opacity="0.1" offset="100%"></stop>
        </linearGradient>
        <linearGradient x1="30906%" y1="55000%" x2="30906%" y2="46800%" id="linearGradient-8">
            <stop stop-color="#808080" stop-opacity="0.25" offset="0%"></stop>
            <stop stop-color="#808080" stop-opacity="0.12" offset="54%"></stop>
            <stop stop-color="#808080" stop-opacity="0.1" offset="100%"></stop>
        </linearGradient>
        <linearGradient x1="30850%" y1="20563%" x2="30850%" y2="16537%" id="linearGradient-9">
            <stop stop-color="#808080" stop-opacity="0.25" offset="0%"></stop>
            <stop stop-color="#808080" stop-opacity="0.12" offset="54%"></stop>
            <stop stop-color="#808080" stop-opacity="0.1" offset="100%"></stop>
        </linearGradient>
        <linearGradient x1="79650%" y1="19300%" x2="79650%" y2="4200%" id="linearGradient-10">
            <stop stop-color="#808080" stop-opacity="0.25" offset="0%"></stop>
            <stop stop-color="#808080" stop-opacity="0.12" offset="54%"></stop>
            <stop stop-color="#808080" stop-opacity="0.1" offset="100%"></stop>
        </linearGradient>
        <linearGradient x1="79650%" y1="17600%" x2="79650%" y2="6900%" id="linearGradient-11">
            <stop stop-color="#808080" stop-opacity="0.25" offset="0%"></stop>
            <stop stop-color="#808080" stop-opacity="0.12" offset="54%"></stop>
            <stop stop-color="#808080" stop-opacity="0.1" offset="100%"></stop>
        </linearGradient>
        <linearGradient x1="62800%" y1="79500%" x2="62800%" y2="62000%" id="linearGradient-12">
            <stop stop-color="#808080" stop-opacity="0.25" offset="0%"></stop>
            <stop stop-color="#808080" stop-opacity="0.12" offset="54%"></stop>
            <stop stop-color="#808080" stop-opacity="0.1" offset="100%"></stop>
        </linearGradient>
        <linearGradient x1="10200%" y1="46425%" x2="10200%" y2="31975%" id="linearGradient-13">
            <stop stop-color="#808080" stop-opacity="0.25" offset="0%"></stop>
            <stop stop-color="#808080" stop-opacity="0.12" offset="54%"></stop>
            <stop stop-color="#808080" stop-opacity="0.1" offset="100%"></stop>
        </linearGradient>
    </defs>
    <g id="Page-1" stroke="none" stroke-width="1" fill="none" fill-rule="evenodd">
        <g id="survey" transform="translate(30.000000, 25.000000)">
            <g id="Rectangle-Copy-8">
                <use fill="black" fill-opacity="1" filter="url(#filter-2)" xlink:href="#path-1"></use>
                <use fill="#FFFFFF" fill-rule="evenodd" xlink:href="#path-1"></use>
            </g>
            <text id="SURVEY:-State-of-Mar" font-family="Lato-Bold, Lato" font-size="18" font-weight="bold" letter-spacing="0.200000003" fill="#403F4C">
                <tspan x="110" y="32">SURVEY: State of Marketing 2019</tspan>
            </text>
            <text id="Fill-out-this-short" font-family="Lato-Regular, Lato" font-size="16" font-weight="normal" line-spacing="21" letter-spacing="0.0199999996" fill="#8C8C8C">
                <tspan x="110" y="56">Fill out this short survey and enter our draw </tspan>
                <tspan x="110" y="77">for a year-long free access to our product.</tspan>
            </text>
            <g transform="translate(17.000000, 15.000000)">
                <g id="Group" opacity="0.5" transform="translate(22.000000, 5.000000)" fill-rule="nonzero" fill="url(#linearGradient-3)">
                    <rect id="Rectangle-path" x="0.0431472081" y="0" width="33.9137056" height="48"></rect>
                </g>
                <rect id="Rectangle-path" fill="#FFFFFF" fill-rule="nonzero" x="22" y="6" width="34" height="47"></rect>
                <rect id="Rectangle-path" fill="url(#linearGradient-4)" fill-rule="nonzero" x="30" y="4" width="17" height="4"></rect>
                <path d="M39.5,0 C38.1191642,0 37,1.11948529 37,2.5 C37,3.88051471 38.1191642,5 39.5,5 C40.8808358,5 42,3.88051471 42,2.5 C42,1.11948529 40.8808358,0 39.5,0 Z M39.5,3.94209559 C38.899409,3.95742573 38.3491674,3.61595663 38.108371,3.07847805 C37.8675745,2.54099947 37.9842228,1.9146507 38.403389,1.49436466 C38.8225551,1.07407863 39.4606839,0.943633804 40.0172953,1.1644536 C40.5739068,1.3852734 40.9380479,1.9133403 40.938253,2.5 C40.9476777,3.28556098 40.3044577,3.9304995 39.5,3.94209559 Z" id="Shape" fill="url(#linearGradient-5)" fill-rule="nonzero"></path>
                <rect id="Rectangle-path" fill="#6C63FF" fill-rule="nonzero" x="30" y="4" width="16" height="4"></rect>
                <path d="M39.5,0 C38.1192881,0 37,1.11928813 37,2.5 C37,3.88071187 38.1192881,5 39.5,5 C40.8807119,5 42,3.88071187 42,2.5 C42,1.83695878 41.7366079,1.20107399 41.267767,0.732233047 C40.798926,0.263392101 40.1630412,-6.83214169e-16 39.5,1.36642834e-15 L39.5,0 Z M39.5,3.94230769 C38.7034355,3.94230769 38.0576923,3.29656454 38.0576923,2.5 C38.0576923,1.70343546 38.7034355,1.05769231 39.5,1.05769231 C40.2965645,1.05769231 40.9423077,1.70343546 40.9423077,2.5 C40.9423077,3.29656454 40.2965645,3.94230769 39.5,3.94230769 Z" id="Shape" fill="#6C63FF" fill-rule="nonzero"></path>
                <rect id="Rectangle-path" fill="url(#linearGradient-6)" fill-rule="nonzero" x="23" y="13" width="7" height="7"></rect>
                <rect id="Rectangle-path" fill="url(#linearGradient-7)" fill-rule="nonzero" x="23" y="27" width="7" height="7"></rect>
                <rect id="Rectangle-path" fill="url(#linearGradient-8)" fill-rule="nonzero" x="23" y="41" width="7" height="7"></rect>
                <rect id="Rectangle-path" fill="#69F0AE" fill-rule="nonzero" x="24" y="13" width="6" height="6"></rect>
                <rect id="Rectangle-path" fill="#6C63FF" fill-rule="nonzero" x="24" y="27" width="6" height="6"></rect>
                <rect id="Rectangle-path" fill="#6C63FF" fill-rule="nonzero" x="24" y="41" width="6" height="6"></rect>
                <rect id="Rectangle-path" fill="#E0E0E0" fill-rule="nonzero" x="34" y="15" width="10" height="1"></rect>
                <rect id="Rectangle-path" fill="#E0E0E0" fill-rule="nonzero" x="34" y="16" width="15" height="1"></rect>
                <rect id="Rectangle-path" fill="#E0E0E0" fill-rule="nonzero" x="34" y="17" width="14" height="1"></rect>
                <rect id="Rectangle-path" fill="#E0E0E0" fill-rule="nonzero" x="34" y="29" width="10" height="1"></rect>
                <rect id="Rectangle-path" fill="#E0E0E0" fill-rule="nonzero" x="34" y="31" width="15" height="1"></rect>
                <rect id="Rectangle-path" fill="#E0E0E0" fill-rule="nonzero" x="34" y="31" width="14" height="1"></rect>
                <rect id="Rectangle-path" fill="#E0E0E0" fill-rule="nonzero" x="34" y="43" width="10" height="1"></rect>
                <rect id="Rectangle-path" fill="#E0E0E0" fill-rule="nonzero" x="34" y="44" width="15" height="1"></rect>
                <rect id="Rectangle-path" fill="#E0E0E0" fill-rule="nonzero" x="34" y="45" width="14" height="1"></rect>
                <polygon id="Shape" fill="url(#linearGradient-9)" fill-rule="nonzero" points="25.5 15.5990062 26.7 16.8571429 28.4 14 29 14.5714286 26.7 18 25 15.8285714"></polygon>
                <polygon id="Shape" fill="#FFFFFF" fill-rule="nonzero" points="26.375 15.2 27.275 16.1428571 28.55 14 29 14.4285714 27.275 17 26 15.3714286"></polygon>
                <polygon id="Shape" fill="#FFFFFF" fill-rule="nonzero" points="26.375 30.2 27.275 31.1428571 28.55 29 29 29.4285714 27.275 32 26 30.3714286"></polygon>
                <polygon id="Shape" fill="#FFFFFF" fill-rule="nonzero" points="26.375 44.2 27.275 45.1428571 28.55 43 29 43.4285714 27.275 46 26 44.3714286"></polygon>
                <g id="Group" opacity="0.5" transform="translate(58.000000, 19.000000)" stroke="#69F0AE" stroke-width="5">
                    <path d="M0,11.9218816 L0.516548273,11.9218816" id="Shape"></path>
                    <path d="M1.51004278,11.9218816 L12.9335078,11.9218816" id="Shape" stroke-dasharray="11.54"></path>
                    <polyline id="Shape" points="13.4302551 11.9218816 13.9468034 11.9218816 13.9468034 11.4035389"></polyline>
                    <path d="M13.9468034,10.4143683 L13.9468034,1.01335994" id="Shape" stroke-dasharray="11.45"></path>
                    <path d="M13.9468034,0.518342679 L13.9468034,0" id="Shape"></path>
                </g>
                <polyline id="Shape" stroke="#69F0AE" stroke-width="5" opacity="0.5" stroke-dasharray="12" points="21 16 9 16 9 27"></polyline>
                <polyline id="Shape" stroke="#69F0AE" stroke-width="5" opacity="0.5" stroke-dasharray="12" points="27 54 27 60 45 60"></polyline>
                <g id="Group" opacity="0.5" transform="translate(63.000000, 4.000000)" fill-rule="nonzero" fill="url(#linearGradient-10)">
                    <polygon id="Shape" points="13.9602581 5.60377483 7 0 0.148129032 5.59172185 0.0867096774 5.55900662 0.0867096774 5.60377483 0.0397419355 5.60377483 0.0867096774 5.62874172 0.0867096774 5.64854305 0.0867096774 12.9104636 0.0867096774 13 13.9132903 13 13.8292903 12.9552318 13.9602581 12.9552318"></polygon>
                </g>
                <polygon id="Shape" fill="#FFFFFF" fill-rule="nonzero" points="76 17 63 17 63 9.62283737 69.4557823 4 76 9.62283737"></polygon>
                <polyline id="Shape" fill="#E0E0E0" fill-rule="nonzero" points="63 10 69.4557823 14 76 10"></polyline>
                <g id="Group" opacity="0.5" transform="translate(67.000000, 6.000000)" fill-rule="nonzero" fill="url(#linearGradient-11)">
                    <polygon id="Shape" points="4.04674157 7.33364486 0 10 0 0 8 0 8 5.08598131"></polygon>
                </g>
                <polygon id="Shape" fill="#FAFAFA" fill-rule="nonzero" points="70.5411765 12.6 67 15 67 6 74 6 74 10.5771429"></polygon>
                <polygon id="Shape" fill="#000000" fill-rule="nonzero" opacity="0.05" points="63 17 76 17 63 10"></polygon>
                <polygon id="Shape" fill="#F5F5F5" fill-rule="nonzero" points="63 17 76 17 63 10"></polygon>
                <rect id="Rectangle-path" fill="#FFFFFF" fill-rule="nonzero" x="67" y="7" width="6" height="1"></rect>
                <rect id="Rectangle-path" fill="#FFFFFF" fill-rule="nonzero" x="67" y="8" width="6" height="1"></rect>
                <rect id="Rectangle-path" fill="#6C63FF" fill-rule="nonzero" x="67" y="9" width="6" height="1"></rect>
                <rect id="Rectangle-path" fill="#FFFFFF" fill-rule="nonzero" x="67" y="10" width="6" height="1"></rect>
                <rect id="Rectangle-path" fill="#6C63FF" fill-rule="nonzero" x="67" y="10" width="6" height="1"></rect>
                <polygon id="Shape" fill="#000000" fill-rule="nonzero" opacity="0.05" points="74 11.1601922 74 11 70 12.9471366 70.1088249 13"></polygon>
                <g id="Group" opacity="0.5" transform="translate(47.000000, 55.000000)" fill-rule="nonzero" fill="url(#linearGradient-12)">
                    <rect id="Rectangle-path" x="0.00172413793" y="0" width="14.9956897" height="15"></rect>
                </g>
                <rect id="Rectangle-path" fill="#F5F5F5" fill-rule="nonzero" x="48" y="55" width="14" height="14"></rect>
                <rect id="Rectangle-path" fill="#FFFFFF" fill-rule="nonzero" x="49" y="56" width="13" height="11"></rect>
                <path d="M62,63.0294118 C58.4071918,63.0294118 55.5,62.1214706 55.5,61 C51.9071918,61 49,61.7897059 49,62.7647059 L49,67 L62,67 L62,63.0294118 Z" id="Shape" fill="#E0E0E0" fill-rule="nonzero"></path>
                <circle id="Oval" fill="#6C63FF" fill-rule="nonzero" cx="60" cy="57" r="1"></circle>
                <g id="Group" opacity="0.5" transform="translate(0.000000, 28.000000)" fill-rule="nonzero" fill="url(#linearGradient-13)">
                    <rect id="Rectangle-path" x="0" y="0.0667808219" width="18" height="12.8664384"></rect>
                </g>
                <rect id="Rectangle-path" fill="#FFFFFF" fill-rule="nonzero" x="1" y="28" width="17" height="12"></rect>
                <path d="M9,31 C8.86984704,31.0002629 8.73984687,31.0089296 8.61081081,31.0259459 L9,34 L6.0072973,33.8005405 C6.00324324,33.8662162 6,33.9327027 6,34 C6,35.6568542 7.34314575,37 9,37 C10.6568542,37 12,35.6568542 12,34 C12,32.3431458 10.6568542,31 9,31 Z" id="Shape" fill="#E0E0E0" fill-rule="nonzero"></path>
                <path d="M8.60986183,31 C7.18805654,31.1874947 6.09558397,32.3590558 6,33.7988004 L9,34 L8.60986183,31 Z" id="Shape" fill="#6C63FF" fill-rule="nonzero"></path>
            </g>
        </g>
    </g>
</svg>