<?xml version="1.0" encoding="UTF-8"?>
<svg width="501px" height="160px" viewBox="0 0 501 160" version="1.1" xmlns="http://www.w3.org/2000/svg" xmlns:xlink="http://www.w3.org/1999/xlink">
    <!-- Generator: Sketch 47.1 (45422) - http://www.bohemiancoding.com/sketch -->
    <title>webinar</title>
    <desc>Created with Sketch.</desc>
    <defs>
        <rect id="path-1" x="0" y="0" width="441" height="100" rx="8"></rect>
        <filter x="-10.8%" y="-42.5%" width="121.5%" height="195.0%" filterUnits="objectBoundingBox" id="filter-2">
            <feOffset dx="0" dy="5" in="SourceAlpha" result="shadowOffsetOuter1"></feOffset>
            <feGaussianBlur stdDeviation="15" in="shadowOffsetOuter1" result="shadowBlurOuter1"></feGaussianBlur>
            <feColorMatrix values="0 0 0 0 0   0 0 0 0 0   0 0 0 0 0  0 0 0 0.2 0" type="matrix" in="shadowBlurOuter1"></feColorMatrix>
        </filter>
        <linearGradient x1="49.9899601%" y1="100.007353%" x2="49.9899601%" y2="-0.00193859288%" id="linearGradient-3">
            <stop stop-color="#808080" stop-opacity="0.25" offset="0%"></stop>
            <stop stop-color="#808080" stop-opacity="0.12" offset="54%"></stop>
            <stop stop-color="#808080" stop-opacity="0.1" offset="100%"></stop>
        </linearGradient>
    </defs>
    <g id="Page-1" stroke="none" stroke-width="1" fill="none" fill-rule="evenodd">
        <g id="webinar" transform="translate(30.000000, 25.000000)">
            <g id="Rectangle-Copy-7">
                <use fill="black" fill-opacity="1" filter="url(#filter-2)" xlink:href="#path-1"></use>
                <use fill="#FFFFFF" fill-rule="evenodd" xlink:href="#path-1"></use>
            </g>
            <text id="FREE-webinar:-Accoun" font-family="Lato-Bold, Lato" font-size="18" font-weight="bold" letter-spacing="0.200000003" fill="#403F4C">
                <tspan x="110" y="32">FREE webinar: Accounting 101</tspan>
            </text>
            <text id="We-have-a-few-seats" font-family="Lato-Regular, Lato" font-size="16" font-weight="normal" line-spacing="21" letter-spacing="0.0199999996" fill="#8C8C8C">
                <tspan x="110" y="56">We have a few seats left for our amazing </tspan>
                <tspan x="110" y="77">webinar on Tuesday.</tspan>
            </text>
            <g transform="translate(11.000000, 16.000000)">
                <ellipse id="Oval" fill="#6C63FF" fill-rule="nonzero" opacity="0.1" cx="43" cy="61.5" rx="32" ry="2.5"></ellipse>
                <path d="M8.50819592,9.93629101 C6.52891716,12.2269385 6.02819798,15.1307096 6.00091285,17.914918 C5.9817395,19.878226 6.25311603,22.0077554 7.9108726,23.4556312 C10.0929463,25.3606159 14.2823214,25.7360721 15.3634028,28.1703407 C16.3220699,30.333406 14.0913254,32.509594 11.9483358,34.0362063 C9.8053462,35.5628186 7.3445216,37.4320803 7.74494946,39.7052308 C7.99862751,41.1567518 9.39016962,42.2962433 10.7780245,43.2527453 C13.4165713,45.0753483 16.3825397,46.6697615 19.7260754,47.4454613 C25.7922255,48.8510528 32.3443462,47.3958865 38.0285044,45.192724 C41.5276392,43.8367073 45.5901752,42.1723062 49.0649745,43.5669621 C49.9823452,43.9351279 50.7610778,44.4913863 51.6069171,44.9521404 C54.0662668,46.2840987 57.0698445,46.7747434 59.9930416,47.1910259 C64.2775459,47.8034206 68.7803313,48.3144784 72.9084992,47.209981 C77.036667,46.1054836 80.6043833,42.875102 79.9724005,39.4296532 C79.3765521,36.1839617 75.5831803,34.0682841 72.5604293,31.8512698 C71.4940965,31.0690086 70.4085904,30.032312 70.6740675,28.8942787 C70.8849742,27.9917256 71.8775634,27.3632921 72.7624868,26.7800592 C77.4201338,23.6932987 80.8433127,19.4320528 82.4170015,14.7596277 C83.1603372,12.555007 83.428764,10.0150275 81.77027,8.15597237 C80.4325607,6.6563346 78.1398716,5.93604188 75.9592727,5.34333138 C71.9129603,4.24320819 67.7656191,3.31368064 63.5098748,3.06289047 C59.2541305,2.81210029 54.8575359,3.29035133 51.0796502,4.87747404 C49.2677695,5.63932211 47.6254991,6.64248281 45.7959199,7.37589827 C40.6014193,9.45803997 34.4806988,9.17808815 28.6874001,8.84929056 C26.6174167,8.73191493 24.4537788,8.52340914 22.6566468,7.62960461 C21.1080308,6.85827901 20.2231074,6.30566578 18.3057733,6.21963891 C14.5477984,6.05123039 10.6600347,7.44151198 8.50819592,9.93629101 Z" id="Shape" fill="#6C63FF" fill-rule="nonzero" opacity="0.1"></path>
                <polygon id="Shape" fill="#535461" fill-rule="nonzero" points="37 24.5310147 36.9180076 24.6981997 36.386548 25.7771686 30.8118122 37.0875614 21.3521287 59.989689 20 60 29.4649011 37.0875614 35.9147192 24 36.386548 24.2305237 36.9180076 24.4905074"></polygon>
                <polygon id="Shape" fill="#535461" fill-rule="nonzero" points="54 60 52.8713034 59.989689 43.2762485 37.0875614 37.7711122 26.0739771 37.0839152 24.6981997 37 24.5310147 37.0839152 24.4905074 37.7711122 24.1590835 38.1014809 24 44.5448037 37.0875614"></polygon>
                <rect id="Rectangle-path" fill="#535461" fill-rule="nonzero" x="36" y="22" width="1" height="40"></rect>
                <path d="M36.499637,15 C35.6719435,15.0008974 35.001165,15.7528728 35.0003646,16.6807576 L35.0003646,17.2814351 C34.9884021,17.8908756 35.2715858,18.4598496 35.7404943,18.768507 C36.2094028,19.0771643 36.7905972,19.0771643 37.2595057,18.768507 C37.7284142,18.4598496 38.0115979,17.8908756 37.9996354,17.2814351 L37.9996354,16.6807576 C37.9984349,15.7527411 37.3274484,15.0008965 36.499637,15 L36.499637,15 Z M37.6242728,17.2789933 C37.6242728,17.9757478 37.1204311,18.5405789 36.4989109,18.5405789 C35.8773907,18.5405789 35.3735491,17.9757478 35.3735491,17.2789933 L35.3735491,16.6783158 C35.3735491,15.9815613 35.8773907,15.4167302 36.4989109,15.4167302 C37.1204311,15.4167302 37.6242728,15.9815613 37.6242728,16.6783158 L37.6242728,17.2789933 Z" id="Shape" fill="#535461" fill-rule="nonzero"></path>
                <polygon id="Shape" fill="#000000" fill-rule="nonzero" opacity="0.1" points="44 38 42.7331387 38 37.2353533 27.0981 37.2353533 38 36.0107711 38 36.0107711 26.8043013 30.3642541 38 29 38 35.5328669 25.0451542 36.0107711 25.2733403 36.0107711 22 37.2353533 22 37.2353533 25.2026245 37.5652809 25.0451542"></polygon>
                <path d="M37.9996354,17 L37.9996354,17.4784809 C38.0115979,18.0180447 37.7284142,18.5217817 37.2595057,18.7950493 C36.7905972,19.0683169 36.2094028,19.0683169 35.7404943,18.7950493 C35.2715858,18.5217817 34.9884021,18.0180447 35.0003646,17.4784809 L35.0003646,17 L35.3750011,17 L35.3750011,17.4784809 C35.3750012,18.0953474 35.8788428,18.5954166 36.500363,18.5954166 C37.1218832,18.5954166 37.6257249,18.0953474 37.6257249,17.4784809 L37.6257249,17 L37.9996354,17 Z" id="Shape" fill="#000000" fill-rule="nonzero" opacity="0.1"></path>
                <rect id="Rectangle-path" fill="#535461" fill-rule="nonzero" x="13" y="17" width="46" height="21"></rect>
                <rect id="Rectangle-path" fill="#FFFFFF" fill-rule="nonzero" x="14" y="18" width="44" height="19"></rect>
                <g id="Group" opacity="0.2" transform="translate(18.000000, 20.000000)" fill-rule="nonzero" fill="#6C63FF">
                    <rect id="Rectangle-path" x="0.0546666667" y="0.0428571429" width="1.89266667" height="1"></rect>
                </g>
                <g id="Group" opacity="0.2" transform="translate(18.000000, 22.000000)" fill-rule="nonzero" fill="#6C63FF">
                    <rect id="Rectangle-path" x="0.0546666667" y="0.0435714286" width="1.89266667" height="1"></rect>
                </g>
                <g id="Group" opacity="0.2" transform="translate(18.000000, 24.000000)" fill-rule="nonzero" fill="#6C63FF">
                    <rect id="Rectangle-path" x="0.0546666667" y="0.0435714286" width="1.89266667" height="1"></rect>
                </g>
                <g id="Group" opacity="0.2" transform="translate(18.000000, 25.000000)" fill-rule="nonzero" fill="#6C63FF">
                    <rect id="Rectangle-path" x="0.0546666667" y="0.0435714286" width="1.89266667" height="1"></rect>
                </g>
                <g id="Group" opacity="0.2" transform="translate(18.000000, 27.000000)" fill-rule="nonzero" fill="#6C63FF">
                    <rect id="Rectangle-path" x="0.0546666667" y="0.0442857143" width="1.89266667" height="1"></rect>
                </g>
                <g id="Group" opacity="0.2" transform="translate(18.000000, 29.000000)" fill-rule="nonzero" fill="#6C63FF">
                    <rect id="Rectangle-path" x="0.0546666667" y="0.0442857143" width="1.89266667" height="1"></rect>
                </g>
                <g id="Group" opacity="0.2" transform="translate(18.000000, 31.000000)" fill-rule="nonzero" fill="#6C63FF">
                    <rect id="Rectangle-path" x="0.0546666667" y="0.0442857143" width="1.89266667" height="1"></rect>
                </g>
                <g id="Group" opacity="0.2" transform="translate(18.000000, 33.000000)" fill-rule="nonzero" fill="#6C63FF">
                    <rect id="Rectangle-path" x="0.0546666667" y="0.0442857143" width="1.89266667" height="1"></rect>
                </g>
                <g id="Group" opacity="0.2" transform="translate(23.000000, 34.000000)" fill-rule="nonzero" fill="#6C63FF">
                    <rect id="Rectangle-path" x="0.0186206897" y="0.04" width="1.95793103" height="1"></rect>
                </g>
                <g id="Group" opacity="0.2" transform="translate(26.000000, 34.000000)" fill-rule="nonzero" fill="#6C63FF">
                    <rect id="Rectangle-path" x="0.0193103448" y="0.04" width="1.95793103" height="1"></rect>
                </g>
                <g id="Group" opacity="0.2" transform="translate(30.000000, 34.000000)" fill-rule="nonzero" fill="#6C63FF">
                    <rect id="Rectangle-path" x="0.0193103448" y="0.04" width="1.95793103" height="1"></rect>
                </g>
                <g id="Group" opacity="0.2" transform="translate(34.000000, 34.000000)" fill-rule="nonzero" fill="#6C63FF">
                    <rect id="Rectangle-path" x="0.02" y="0.04" width="1.95793103" height="1"></rect>
                </g>
                <g id="Group" opacity="0.2" transform="translate(37.000000, 34.000000)" fill-rule="nonzero" fill="#6C63FF">
                    <rect id="Rectangle-path" x="0.02" y="0.04" width="1.95793103" height="1"></rect>
                </g>
                <g id="Group" opacity="0.2" transform="translate(41.000000, 34.000000)" fill-rule="nonzero" fill="#6C63FF">
                    <rect id="Rectangle-path" x="0.0206896552" y="0.04" width="1.95793103" height="1"></rect>
                </g>
                <g id="Group" opacity="0.2" transform="translate(44.000000, 34.000000)" fill-rule="nonzero" fill="#6C63FF">
                    <rect id="Rectangle-path" x="0.0206896552" y="0.04" width="1.95793103" height="1"></rect>
                </g>
                <g id="Group" opacity="0.2" transform="translate(48.000000, 34.000000)" fill-rule="nonzero" fill="#6C63FF">
                    <rect id="Rectangle-path" x="0.0213793103" y="0.04" width="1.95793103" height="1"></rect>
                </g>
                <g id="Group" opacity="0.2" transform="translate(52.000000, 34.000000)" fill-rule="nonzero" fill="#6C63FF">
                    <rect id="Rectangle-path" x="0.0213793103" y="0.04" width="1.95793103" height="1"></rect>
                </g>
                <rect id="Rectangle-path" fill="#6C63FF" fill-rule="nonzero" x="23" y="26" width="2" height="6"></rect>
                <rect id="Rectangle-path" fill="#6C63FF" fill-rule="nonzero" x="26" y="24" width="2" height="8"></rect>
                <rect id="Rectangle-path" fill="#6C63FF" fill-rule="nonzero" x="30" y="22" width="2" height="11"></rect>
                <rect id="Rectangle-path" fill="#6C63FF" fill-rule="nonzero" x="34" y="23" width="2" height="10"></rect>
                <rect id="Rectangle-path" fill="#6C63FF" fill-rule="nonzero" x="37" y="21" width="2" height="12"></rect>
                <g id="Group" opacity="0.2" transform="translate(41.000000, 25.000000)" fill-rule="nonzero" fill="#6C63FF">
                    <rect id="Rectangle-path" x="0.0206896552" y="0.0483168317" width="1.95793103" height="7.92158416"></rect>
                </g>
                <g id="Group" opacity="0.2" transform="translate(44.000000, 25.000000)" fill-rule="nonzero" fill="#6C63FF">
                    <rect id="Rectangle-path" x="0.0206896552" y="0.0483168317" width="1.95793103" height="7.92158416"></rect>
                </g>
                <g id="Group" opacity="0.2" transform="translate(48.000000, 25.000000)" fill-rule="nonzero" fill="#6C63FF">
                    <rect id="Rectangle-path" x="0.0213793103" y="0.0483168317" width="1.95793103" height="7.92158416"></rect>
                </g>
                <g id="Group" opacity="0.2" transform="translate(52.000000, 25.000000)" fill-rule="nonzero" fill="#6C63FF">
                    <rect id="Rectangle-path" x="0.0213793103" y="0.0483168317" width="1.95793103" height="7.92158416"></rect>
                </g>
                <polygon id="Shape" fill="#535461" fill-rule="nonzero" points="51.6244563 25 34 26.5187817 34 27 52 26"></polygon>
                <path d="M74.2392224,32.4495193 C74.2392224,32.4495193 75.2155857,30.8983263 74.9561433,28.4647625 C74.6967008,26.0311987 73.757949,22.0924141 73.757949,22.0924141 C73.757949,22.0924141 74.1655346,19.8857457 71.9549007,19.5758037 C71.9549007,19.5758037 70.5809303,19.3288881 69.5984264,18.7319903 C69.2330577,18.5095438 68.9221873,18.2403837 68.754087,17.9163534 C68.754087,17.9163534 68.7410381,17.9526863 68.7157079,18.0194202 C68.6939764,17.986055 68.673994,17.9516561 68.6558366,17.9163534 C68.6558366,17.9163534 68.6504635,17.9297002 68.6420202,17.9534278 L68.2666729,17.3884139 C68.2666729,17.3884139 68.215245,17.4410596 68.1285083,17.5278137 C67.9775491,17.318475 67.8489608,17.0948842 67.7447177,16.8604744 C67.8380458,16.838702 67.9296258,16.8104521 68.0187442,16.7759448 C68.1039552,16.7487155 68.1807478,16.7013001 68.2421103,16.638028 C68.2958997,16.5658713 68.3306765,16.4821393 68.3434311,16.3940784 C68.4032641,16.1122441 68.4203296,15.8234996 68.3940914,15.5369182 C68.3733667,15.3144718 68.3265443,15.0920254 68.3426635,14.8658715 C68.3595503,14.6248879 68.4478221,14.3920607 68.4601034,14.1503356 C68.4815957,13.7247214 68.262835,13.3198689 67.9926464,12.9824919 C67.8314544,12.7815486 67.6503052,12.5946936 67.5106054,12.3796621 C67.3893276,12.1928071 67.3010558,11.9866734 67.170567,11.8050088 C66.8635345,11.3823606 66.3515578,11.1332207 65.8265322,11.0449836 C65.3015067,10.9567465 64.7611295,11.0116166 64.2353364,11.0954048 C63.7747876,11.1695536 63.3142389,11.2770693 62.8536902,11.3030214 C62.4514776,11.3252661 62.1237204,11.1940227 61.7552814,11.451319 C61.5083908,11.6271574 61.3522299,11.8975021 61.3269711,12.1928071 C61.3209846,12.2424966 61.3248928,12.2928337 61.3384848,12.3411047 C61.3602237,12.3911186 61.3858843,12.4394558 61.415243,12.4856949 C61.5787378,12.7971199 61.3300414,13.1671224 61.3622799,13.5148803 C61.4027447,13.8314843 61.6633901,14.0795847 61.9916965,14.1140026 C61.9771124,14.1436622 61.9609932,14.1725802 61.9471767,14.2029812 C61.533631,15.1055083 61.5935778,16.1449249 62.1083459,16.997491 C62.623114,17.8500571 63.5301607,18.4121887 64.5469743,18.5088024 L64.6897444,18.6148351 C65.0121286,18.8558188 65.3744269,19.1442576 65.7236764,19.4579071 L65.7167681,19.4630975 L65.6599671,19.431955 C65.5536393,19.5131874 65.4418375,19.5875002 65.3253017,19.6544014 C65.00215,19.8457053 64.4809624,20.0941038 63.8945303,20.1222804 C63.8945303,20.1222804 62.8444792,20.6598592 62.4829484,22.4327571 C61.9640635,22.8820989 60.8533735,23.6932868 59.3857582,23.9046109 C57.3232675,24.2012062 54.7802709,24.2983411 54.7802709,24.2983411 C54.7802709,24.2983411 54.7595462,24.3339325 54.7303781,24.3991835 L54.4954983,24.3576601 C54.4954983,24.3576601 54.4954983,24.3850952 54.4855197,24.4318089 L54.39341,24.3917686 C53.6649754,24.084051 52.2096414,23.6354508 52.0254219,24.8715114 C51.7782607,26.5294787 53.4147439,26.3389162 53.4147439,26.3389162 C53.7383465,26.2201484 54.0699399,26.1227886 54.4072264,26.0475114 L54.4985686,26.0304572 C54.5140875,26.0736972 54.53579,26.1146283 54.5630454,26.1520612 L54.785644,26.1520612 C54.8629681,26.3066139 54.9563233,26.4531903 55.0642759,26.5895392 L60.2515898,26.479799 C60.2515898,26.479799 61.1381461,26.292944 61.9563877,26.4115821 C61.5994625,28.9889945 61.1780604,31.815547 61.1780604,31.815547 C61.1780604,31.815547 60.295342,36.2919104 60.9132448,36.7597894 C61.2718753,36.6442022 61.6373958,36.5496143 62.0078157,36.4765409 C62.0134379,36.7531432 62.0437417,37.028762 62.0983902,37.3003342 L62.4936946,39.7998904 C62.4936946,39.7998904 62.6472108,42.3535753 63.1607227,43.8780747 L63.6135956,45.9616562 L63.9927807,47.5365768 L64.2061683,50.2096412 C64.4992038,51.3420201 64.7110471,52.4925733 64.8401904,53.6531118 C65.0405291,55.4489958 66.1281917,58.3511801 66.2732645,58.7330464 C65.9017552,59.2409658 65.1387795,60.1025749 64.1816057,60.1915534 C62.8153111,60.3190894 62.7823051,61.1147061 63.7371762,61.4009205 C64.6920472,61.6871349 66.7015748,61.4009205 66.7015748,61.4009205 L69.5354847,60.7239419 C69.4502832,61.2288952 69.4057635,61.6278158 69.4679375,61.6708221 C69.6490867,61.7983581 72.3993302,62.486459 72.4983482,61.3846077 C72.506024,61.2936519 72.5129322,61.2054148 72.5190729,61.1198965 C72.5600104,60.4140487 72.4623455,59.707091 72.2312299,59.036315 C72.2089701,58.9703226 72.189013,58.9035887 72.1713586,58.8368548 C72.2121509,58.7928024 72.2496036,58.7459674 72.2834255,58.6967135 C72.2834255,58.6967135 72.4814614,55.7218634 72.6296046,54.6556036 C72.6411183,54.5703325 72.6487941,54.4665242 72.652632,54.349369 C72.7209468,53.0710436 72.2381382,49.7083953 72.2381382,49.7083953 C72.2381382,49.7083953 71.6417276,47.5210055 71.6639874,46.5155477 C71.6674053,46.4319987 71.6821139,46.3492396 71.7077395,46.2693737 C71.7077395,46.2693737 71.7077395,46.2493535 71.7000637,46.2159866 C71.7000637,46.2018983 71.706972,46.1870685 71.7115774,46.1737217 C71.7115774,46.1737217 71.4091504,44.171704 71.4513674,42.9808742 C71.4572705,42.8032319 71.4830056,42.6267241 71.5281255,42.4544176 C71.5761199,42.2282231 71.6005485,41.9979548 71.6010458,41.7670582 C71.6394248,40.9514214 71.5949051,39.542594 71.5334986,38.2212623 C71.5404068,38.1990177 71.5473151,38.176773 71.5526881,38.150821 C71.5650714,38.0455999 71.5522016,37.9390374 71.5150767,37.839396 C71.5104712,37.7541249 71.5066333,37.6695952 71.5020278,37.5858071 C71.527358,37.5020189 71.5480826,37.4130403 71.5665046,37.3210958 L71.6064188,37.3210958 L71.6064188,37.3262862 C71.6064188,37.3262862 74.1870269,37.2069067 74.7803672,36.5388259 C74.7803672,36.5388259 74.1808862,34.7392344 73.8485236,33.2762785 L74.2392224,32.4495193 Z M63.1185057,26.852026 L63.0778239,26.8379377 C63.1430683,26.6154913 63.220594,26.3567119 63.3080983,26.0853273 C63.2336429,26.3789566 63.1691661,26.6458923 63.1185057,26.852026 Z M65.7377413,19.4749613 L65.7529823,19.4890099 L65.7367252,19.4799787 L65.7377413,19.4749613 Z M68.9613339,58.0708976 C68.8224017,57.6089505 68.2705108,55.7255709 68.2881652,54.8276288 C68.2920199,54.7495814 68.3062077,54.6723324 68.3303822,54.5977675 C68.3815599,54.4350334 68.4074283,54.2658579 68.4071403,54.0957801 C68.4624061,53.1585392 68.0908968,51.4790688 68.0908968,51.4790688 C68.0908968,51.4790688 67.2596064,49.2138228 67.3233156,47.4149727 C67.3233156,47.369742 67.3286887,47.3245112 67.331759,47.2792804 C67.3455755,47.1087382 67.3563216,46.9241076 67.3639974,46.7290963 L67.3639974,46.7253888 C67.3954682,46.0306145 67.38856,45.194216 67.3678353,44.4141706 L67.3632298,44.3852525 C67.3348293,43.3523597 67.2818662,42.4225337 67.2596064,42.0547556 C67.3363645,42.5864025 67.8276165,45.8956637 68.0394689,46.43695 C68.0394689,46.43695 68.1553737,47.9636739 68.6819344,49.2546046 L69.2591555,52.6105796 C69.2591555,52.6105796 69.4072986,56.6042342 69.6536922,57.7335205 C69.7642239,58.2362494 69.8578688,58.5751095 69.9277187,58.7960729 C69.8279331,59.2461562 69.6667411,60.0002495 69.5585121,60.6245825 C69.4948029,60.2175055 69.2706692,58.6663125 68.9621015,58.0708976 L68.9613339,58.0708976 Z" id="Shape" fill="url(#linearGradient-3)" fill-rule="nonzero"></path>
                <path d="M65.7127352,57.5877308 C65.7127352,57.5877308 64.6640526,59.4224046 63.1892122,59.5595011 C61.7143717,59.6965976 61.6792764,60.5538539 62.7095757,60.8627243 C63.739875,61.1715946 65.9082665,60.8627243 65.9082665,60.8627243 L69,60.125629 C69,60.125629 68.6264852,57.1756349 68.129301,57.0216029 C67.6321168,56.867571 65.7127352,57.5877308 65.7127352,57.5877308 Z" id="Shape" fill="#4C4C78" fill-rule="nonzero"></path>
                <path d="M69.5550431,58.2081046 C69.5550431,58.2081046 68.8512318,61.5211648 69.0286885,61.6557333 C69.2061452,61.7903018 71.8747628,62.5087873 71.9710105,61.3543314 C71.9785299,61.2572742 71.9852973,61.1644141 71.9913128,61.075751 C72.0307192,60.3332847 71.9358168,59.5897075 71.7115929,58.8840948 C71.6363994,58.6480097 71.5837639,58.3953987 71.6033142,58.2081046 C71.6476784,57.7398692 69.5550431,58.2081046 69.5550431,58.2081046 Z" id="Shape" fill="#4C4C78" fill-rule="nonzero"></path>
                <path d="M68,18.9514462 C68,18.9514462 65.972744,24.404749 66.3335687,22.6532273 C66.5722356,21.4932792 65.0293744,19.9520948 63.9624347,19.0465619 C63.4194323,18.5825826 63,18.2879558 63,18.2879558 C63,18.2879558 66.8059596,13.4285464 66.5362237,15.5249593 C66.4622412,16.0991285 66.5340661,16.6845211 66.7438215,17.216937 C67.1639599,18.3103815 68,18.9514462 68,18.9514462 Z" id="Shape" fill="#FFB9B9" fill-rule="nonzero"></path>
                <path d="M55,25.7135191 C54.878878,25.6880643 54.6812579,25.7043815 54.476466,25.7402793 C54.1295866,25.8058944 53.7885454,25.8907211 53.4556943,25.9941745 C53.4556943,25.9941745 51.771939,26.1606097 52.0261359,24.7142553 C52.2149906,23.6360164 53.7122818,24.0276286 54.4621226,24.2952303 C54.7171164,24.3872591 54.8860497,24.4642762 54.8860497,24.4642762 L55,25.7135191 Z" id="Shape" fill="#FFB9B9" fill-rule="nonzero"></path>
                <path d="M55,25.962963 C54.8035036,25.9277326 54.4829041,25.9503162 54.15067,26 C53.8533398,25.4760614 54.0795693,24.2339657 54.1274007,24 C54.5410774,24.1273713 54.8151382,24.2339657 54.8151382,24.2339657 L55,25.962963 Z" id="Shape" fill="#000000" fill-rule="nonzero" opacity="0.1"></path>
                <path d="M54.7943091,24.0833333 L54.1252085,24 C54.1252085,24 53.7827936,25.5833333 54.2304739,26 L55,26 L54.7943091,24.0833333 Z" id="Shape" fill="#CBCDDA" fill-rule="nonzero"></path>
                <path d="M62.6558391,27.2839817 C62.6558391,27.2839817 61.3488012,26.5284906 61.1925754,27.4820085 C61.0363496,28.4355264 60.8306265,30.0645773 60.8306265,30.0645773 L60.4686775,32.1382545 L60,36.2930816 L60.0657386,37 C60.0657386,37 61.45785,36.5471537 61.7842227,36.7063225 C62.1105955,36.8654912 62.3766435,34.9584555 62.3766435,34.9584555 L62.9180201,32.9879017 L63,28.8091619 L62.6558391,27.2839817 Z" id="Shape" fill="#4C4C78" fill-rule="nonzero"></path>
                <path d="M62.6558391,27.2839817 C62.6558391,27.2839817 61.3488012,26.5284906 61.1925754,27.4820085 C61.0363496,28.4355264 60.8306265,30.0645773 60.8306265,30.0645773 L60.4686775,32.1382545 L60,36.2930816 L60.0657386,37 C60.0657386,37 61.45785,36.5471537 61.7842227,36.7063225 C62.1105955,36.8654912 62.3766435,34.9584555 62.3766435,34.9584555 L62.9180201,32.9879017 L63,28.8091619 L62.6558391,27.2839817 Z" id="Shape" fill="#000000" fill-rule="nonzero" opacity="0.1"></path>
                <path d="M62,23 C62,23 60.681919,24.658005 58.6807503,24.9916178 C56.6795816,25.3252305 54.2102462,25.4333613 54.2102462,25.4333613 C54.2102462,25.4333613 53.5872763,26.6764459 54.4860363,28 L59.5208955,27.875943 C59.5208955,27.875943 60.6353277,27.6060352 61.4987685,27.875943 L62,23 Z" id="Shape" fill="#4C4C78" fill-rule="nonzero"></path>
                <path d="M62,23 C62,23 60.681919,24.658005 58.6807503,24.9916178 C56.6795816,25.3252305 54.2102462,25.4333613 54.2102462,25.4333613 C54.2102462,25.4333613 53.5872763,26.6764459 54.4860363,28 L59.5208955,27.875943 C59.5208955,27.875943 60.6353277,27.6060352 61.4987685,27.875943 L62,23 Z" id="Shape" fill="#000000" fill-rule="nonzero" opacity="0.05"></path>
                <g id="Group"></g>
                <path d="M66.9925319,17.1427519 C66.472182,18.2118914 65.567537,19 64.2555232,19 C64.1974413,19 64.1409507,19 64.0844601,18.9961816 C63.4726114,18.537979 63,18.2470203 63,18.2470203 C63,18.2470203 67.2885108,13.4481112 66.9845755,15.5184235 C66.8906897,16.1522705 66.7832781,16.6669848 66.9925319,17.1427519 Z" id="Shape" fill="#000000" fill-rule="nonzero" opacity="0.1"></path>
                <path d="M66.9999871,16.0021932 C66.9987776,17.6588553 65.6549511,19.0009401 63.9982906,18.9999995 C62.3416302,18.9990589 60.9993286,17.6554488 61.0000003,15.9987865 C61.0006719,14.3421241 62.3440626,12.999603 64.0007233,13.0000057 C64.7971604,12.9984483 65.5613834,13.3143428 66.1242764,13.8777845 C66.6871695,14.4412263 67.0023197,15.2057571 66.9999871,16.0021932 Z" id="Shape" fill="#FFB9B9" fill-rule="nonzero"></path>
                <path d="M70,34.7950718 C70,34.7950718 62.3286131,35.4035292 62.0473401,34.52356 C61.7660671,33.6435907 62.8300493,31.2609048 62.8300493,31.2609048 L62.4834807,27.9343202 L62.4709239,27.8072135 C62.4709239,27.8072135 63.43194,24.208365 63.3967809,23.9210588 C63.363296,23.6623328 64.9437826,20.6426093 65.2685859,20.0251266 C65.3070935,19.9536761 65.3271845,19.9145663 65.3271845,19.9145663 L65.3882944,19.946155 L65.4150823,19.9604451 L65.7909501,20.157498 L67.2751676,19.8416116 L69.0640975,19 L69.2315219,28.2065842 L70,34.7950718 Z" id="Shape" fill="#CBCDDA" fill-rule="nonzero"></path>
                <path d="M65.7013333,20.0148323 C65.7013333,20.0148323 65.223619,19.8948536 65.0369524,20.3373633 C64.9638925,20.5275857 64.8773552,20.7131328 64.7779048,20.8927942 L64.592,21.9203766 L64.2514286,23.543618 L64,30.7246969 L64.1135238,32 L64.7375238,30.9724176 L64.8510476,24.2599615 L64.8510476,23.4250508 C64.8875847,22.7031952 65.0635766,21.9932591 65.3706667,21.3289521 L65.4575238,21.140515 L66,20.4947472 L65.7013333,20.0148323 Z" id="Shape" fill="#000000" fill-rule="nonzero" opacity="0.1"></path>
                <path d="M64.7006855,20.0148306 C64.7006855,20.0148306 64.2223915,19.894866 64.0365575,20.3373237 C63.9633863,20.527581 63.8766242,20.7131132 63.7768469,20.8926892 L63.5910129,21.9208564 L63.2505712,23.5439069 L63,30.7241412 L63.1134806,32 L63.737243,30.9690101 L63.8507235,24.2615775 L63.8507235,23.424648 C63.8879797,22.7029706 64.063875,21.993237 64.3701447,21.3287958 L64.4577304,21.1403808 L65,20.4953947 L64.7006855,20.0148306 Z" id="Shape" fill="#4C4C78" fill-rule="nonzero"></path>
                <path d="M67.3275178,18 C67.3275178,18 65.6074544,19.9755207 65,20.2100064 C65,20.2100064 65.3037272,21.7079665 65.6074544,22 C65.6074544,22 67.4123711,20.0064419 67.7319588,19.8449646 L68,19.134636 L67.3275178,18 Z" id="Shape" fill="#000000" fill-rule="nonzero" opacity="0.1"></path>
                <path d="M67.3275178,18 C67.3275178,18 65.6074544,19.9755207 65,20.2100064 C65,20.2100064 65.3037272,21.7079665 65.6074544,22 C65.6074544,22 67.4123711,20.0064419 67.7319588,19.8449646 L68,19.135495 L67.3275178,18 Z" id="Shape" fill="#CBCDDA" fill-rule="nonzero"></path>
                <path d="M65,20 L64.9813507,20.0450281 L64.3922012,21.443152 L63.3385137,24.0810507 C63.3385137,24.0810507 63.329189,24.1080675 63.3105397,24.1560976 C63.1359141,24.6363977 62.1975134,27.2427767 62.0127155,28 L62,27.8731707 C62,27.8731707 62.9731563,24.2821764 62.937553,23.9954972 C62.9036451,23.7373358 64.5040972,20.7242026 64.8330037,20.1080675 C64.8855609,20.0765478 64.9262504,20.049531 64.9542244,20.0292683 L65,20 Z" id="Shape" fill="#000000" fill-rule="nonzero" opacity="0.1"></path>
                <path d="M65,20 L64.4398828,21.4126285 L63.4702092,23.9933921 C63.4702092,23.9933921 63.4616281,24.0198238 63.4444657,24.0668135 C63.2744023,24.5675477 62.3047287,27.4258443 62.2267179,27.948605 C62.1385658,28.5227606 60.9192578,31.6262849 60.9192578,31.6262849 L60.2226218,37 C59.5985358,36.5440529 60.4847379,32.154185 60.4847379,32.154185 C60.4847379,32.154185 61.4801551,25.643906 61.7157475,23.4779736 C61.95134,21.3120411 63.2221351,20.6791483 63.2221351,20.6791483 C63.8087759,20.6512482 64.3376888,20.407489 64.6629936,20.2202643 C64.7804673,20.1540638 64.8930587,20.080475 65,20 Z" id="Shape" fill="#4C4C78" fill-rule="nonzero"></path>
                <path d="M70.9758166,54.4177242 C70.8369288,55.4690593 70.6515027,58.4017308 70.6515027,58.4017308 C70.0021478,59.3896169 68.563823,58.8562027 68.563823,58.8562027 C68.563823,58.8562027 68.4096648,58.5610911 68.1777004,57.4440937 C67.945736,56.3270963 67.8068482,52.3925209 67.8068482,52.3925209 L67.2651131,49.087271 C66.7706435,47.8160778 66.6622965,46.3102709 66.6622965,46.3102709 C66.4441482,45.7296388 65.919865,41.9175347 65.919865,41.9175347 C65.919865,41.9175347 66.1380133,45.3371404 65.9976712,47.1417478 C65.8573291,48.9463552 66.7081077,51.3743859 66.7081077,51.3743859 C66.7081077,51.3743859 67.188034,53.6496963 66.9400721,54.3557508 C66.6921101,55.0618053 67.5588862,57.9789835 67.5588862,57.9789835 C67.4861701,58.8266915 65.0240024,58.481411 65.0240024,58.481411 C65.0240024,58.481411 63.8656346,55.3274057 63.6627567,53.4291004 C63.5411785,52.285322 63.3421937,51.1513841 63.0672117,50.035317 L62.8665152,47.3992327 L62.5102062,45.8410434 L62.0855441,43.7863289 C61.6056177,42.280522 61.4594583,39.7624823 61.4594583,39.7624823 L61.0878789,37.2916604 C60.8450071,36.0698984 61.1605951,34.635656 61.3700175,33.8853348 C61.4609126,33.5599743 61.5336287,33.3615117 61.5336287,33.3615117 C61.746687,33.5149697 62.9668634,33.6949878 63.5980393,33.8410681 C63.9434712,33.9218443 64.2987274,33.9506798 64.652423,33.9266504 C66.2481773,33.7980952 67.8268046,33.5044089 69.3637003,33.050169 C69.4676843,33.0184445 69.5229486,33 69.5229486,33 L69.5556708,33.2825694 L69.6327499,33.9554238 L69.7701834,35.149888 C69.7701834,35.149888 70.1875739,41.5191341 69.9403391,42.3801222 C69.6931043,43.2411102 70.1104948,46.142795 70.1104948,46.142795 C69.8785304,46.8311428 70.6049644,49.6288008 70.6049644,49.6288008 C70.6049644,49.6288008 71.1154315,53.3663892 70.9758166,54.4177242 Z" id="Shape" fill="#000000" fill-rule="nonzero" opacity="0.1"></path>
                <path d="M70.9758166,54.4168376 C70.8369288,55.4683103 70.6515027,58.4013656 70.6515027,58.4013656 C70.0021478,59.3901188 68.563823,58.8558969 68.563823,58.8558969 C68.563823,58.8558969 68.4096648,58.5607467 68.1777004,57.444341 C67.945736,56.3279353 67.8068482,52.3913693 67.8068482,52.3913693 L67.2651131,49.0812596 C66.7742793,47.8099 66.6622965,46.3002067 66.6622965,46.3002067 C66.4441482,45.7194986 65.919865,41.9068957 65.919865,41.9068957 C65.919865,41.9068957 66.1380133,45.3269488 65.9976712,47.1317924 C65.8573291,48.936636 66.7081077,51.3679359 66.7081077,51.3679359 C66.7081077,51.3679359 67.188034,53.6435441 66.9400721,54.349691 C66.6921101,55.0558379 67.5588862,57.9741356 67.5588862,57.9741356 C67.4861701,58.8212168 65.0240024,58.475891 65.0240024,58.475891 C65.0240024,58.475891 63.8656346,55.3251624 63.6627567,53.4258708 C63.5411785,52.2819427 63.3421937,51.1478564 63.0672117,50.0316433 L62.8665152,47.3959519 L62.5102062,45.8427238 L62.0855441,43.7877404 C61.6056177,42.2809986 61.4594583,39.7626294 61.4594583,39.7626294 L61.0878789,37.2914842 C60.8450071,36.0695623 61.1605951,34.6351322 61.3700175,33.8847128 C61.4609126,33.5600475 61.5336287,33.361559 61.5336287,33.361559 C61.746687,33.5150371 62.9668634,33.6943409 63.5980393,33.8404402 C63.9434159,33.9215894 64.2987251,33.950433 64.652423,33.9260338 C66.2481773,33.7974618 67.8268046,33.503737 69.3637003,33.0494377 L69.5229486,33 L69.5556708,33.2818685 L69.6327499,33.9555488 L69.7701834,35.1501693 C69.7701834,35.1501693 70.1875739,41.519511 69.9403391,42.3813497 C69.6931043,43.2431883 70.1104948,46.1445149 70.1104948,46.1445149 C69.8785304,46.8322149 70.6049644,49.630239 70.6049644,49.630239 C70.6049644,49.630239 71.1154315,53.3638892 70.9758166,54.4168376 Z" id="Shape" fill="#474463" fill-rule="nonzero"></path>
                <path d="M66.9969485,16.3153725 C66.9979097,16.8952492 66.8547954,17.4652104 66.5819453,17.9681472 C66.0937063,18.0593403 65.5741894,17.958463 65.208773,17.617094 C64.9585505,17.3838655 64.7968214,17.065093 64.581691,16.7947417 C64.442436,16.6286005 64.2928333,16.4724975 64.1338843,16.3274778 C64.0301007,16.2181076 63.9109566,16.126369 63.7806739,16.0555124 C63.6478828,15.9845532 63.4914893,15.9827646 63.3572791,16.0506703 C63.1848697,16.1523547 63.128417,16.379127 63.0284806,16.5598992 C62.9533174,16.7150878 62.8246943,16.8338206 62.6691672,16.891584 C62.5095373,16.9456013 62.3352769,16.8830617 62.2396694,16.7374434 C62.13363,16.5445659 62.2114431,16.2435478 62.0336936,16.1257231 C61.9868074,16.1012316 61.9383766,16.080199 61.8887476,16.0627756 C61.6598856,15.953021 61.633185,15.6277924 61.6133503,15.3614762 C61.6034329,15.2307391 61.5767324,15.0830547 61.4729816,15.012844 C61.3692308,14.9426334 61.2326764,14.9781422 61.1090909,14.9805633 C61.072525,14.9820858 61.0359156,14.9791067 61,14.9716861 C61.6004217,13.5399051 63.066003,12.7478259 64.5145616,13.0722274 C65.9631203,13.3966288 66.9995545,14.7490287 67,16.3153725 L66.9969485,16.3153725 Z" id="Shape" fill="#000000" fill-rule="nonzero" opacity="0.1"></path>
                <path d="M60.4223732,11.4623435 C60.1798616,11.6410662 60.0267505,11.9159524 60.0025851,12.2160054 C59.9968339,12.2655621 60.0007,12.3157615 60.0139718,12.3638566 C60.0351605,12.4148995 60.0605512,12.4640992 60.0898828,12.5109496 C60.249296,12.8271237 60.0056216,13.20168 60.0367451,13.5542482 C60.0804235,13.8987119 60.3723299,14.1578768 60.7199445,14.1608172 C60.8429204,14.1608172 60.9780421,14.1244231 61.0820402,14.1911456 C61.1860383,14.2578682 61.2118481,14.3958627 61.2217165,14.5186929 C61.2414534,14.7689026 61.266504,15.0744617 61.4949963,15.1775784 C61.5442352,15.1943372 61.5924021,15.2140875 61.6392273,15.2367189 C61.8168591,15.3474177 61.7394299,15.6309887 61.8449462,15.811443 C61.940082,15.9482545 62.1134829,16.0070118 62.2723254,15.9562613 C62.4267881,15.9022127 62.5545297,15.7909105 62.6291073,15.6453947 C62.7270325,15.4747972 62.7854841,15.2662891 62.957043,15.1669635 C63.0903956,15.1025775 63.2461798,15.1039793 63.3783493,15.1707545 C63.5080152,15.2375985 63.6265684,15.3240424 63.7298174,15.4270299 C63.8881657,15.5630804 64.0370435,15.7097552 64.1754153,15.8660342 C64.3894844,16.1192767 64.5504158,16.4187702 64.7994041,16.6378932 C65.2685343,17.0496019 65.9866528,17.0928199 66.565095,16.8554998 C66.6485816,16.8276928 66.7239277,16.7797785 66.7844779,16.715989 C66.8372838,16.6426318 66.8714145,16.5575362 66.8839214,16.4680539 C66.9426577,16.1826245 66.9595346,15.8901819 66.9340227,15.5999021 C66.9135267,15.3724387 66.8672209,15.1449753 66.8831623,14.917512 C66.8991036,14.673368 66.9864013,14.4375643 66.998547,14.1934203 C67.0198021,13.7612399 66.8049739,13.3510476 66.5430808,13.0090944 C66.3851858,12.8051356 66.207554,12.616341 66.0709141,12.3979761 C65.9517337,12.2084233 65.8651951,11.9999152 65.7376646,11.8164281 C65.4385751,11.3880388 64.9345257,11.1340381 64.4198488,11.0453273 C63.905172,10.9566166 63.376072,11.0112078 62.860636,11.0968857 C62.4112426,11.1727068 61.9588128,11.2803728 61.5033465,11.3069102 C61.1048135,11.334964 60.7837098,11.2007606 60.4223732,11.4623435 Z" id="Shape" fill="#472727" fill-rule="nonzero"></path>
                <path d="M65,20 L64.2798395,21.3881674 L63.0330993,23.9242424 C63.0330993,23.9242424 63.0220662,23.9502165 63,23.9963925 L63,24 L64.5687061,20.2150072 C64.7189988,20.1503631 64.8630876,20.0785324 65,20 L65,20 Z" id="Shape" fill="#000000" fill-rule="nonzero" opacity="0.1"></path>
                <path d="M70.9975739,35.7170846 C70.9975739,35.7170846 71.0640998,37.5415361 70.5004279,38 L69,35.5336991 L70.2585974,35 L70.9975739,35.7170846 Z" id="Shape" fill="#FFB9B9" fill-rule="nonzero"></path>
                <path d="M73,36.2289282 C72.4438424,36.8828381 70.0231771,37 70.0231771,37 L67.6271978,33.192238 C67.6271978,33.192238 67.0601493,32.7953521 65.9950276,31.0079007 C64.9299058,29.2204494 64.9647565,27.843797 65.0242929,26.8157012 C65.0838294,25.7876055 65.7503473,22.8329287 65.7503473,22.8329287 C65.854173,22.1680348 67.3476668,18 67.3476668,18 C67.5044946,18.3156049 67.7963684,18.5792192 68.137614,18.796701 C69.059703,19.3825105 70.3469974,19.6226924 70.3469974,19.6226924 C72.4206086,19.9265811 72.037978,22.0867538 72.037978,22.0867538 C72.037978,22.0867538 72.0612117,30.4836012 71.9334262,31.4882645 C71.8056406,32.4929279 73,36.2289282 73,36.2289282 Z" id="Shape" fill="#000000" fill-rule="nonzero" opacity="0.1"></path>
                <polygon id="Shape" fill="#CBCDDA" fill-rule="nonzero" points="71 36.2305606 70.9087886 37 69.807601 36.6157324 69 35.4520796 69.6061758 35"></polygon>
                <path d="M69,34.2541799 L68.5949536,34.3208687 L64.6895313,34.9490343 C64.0623703,35.0504036 63.4293169,35.0003722 62.811346,34.8005979 L61,34.2176086 C61.0835492,33.7443332 61.1503885,33.4549898 61.1503885,33.4549898 C61.3462278,33.67872 62.4677918,33.9400971 63.0479572,34.1530711 C63.3654211,34.271365 63.6920149,34.3134112 64.0171276,34.2778437 C65.483916,34.0904199 66.9349615,33.6622475 68.3476481,33 L68.5241039,33.3388222 L69,34.2541799 Z" id="Shape" fill="#000000" fill-rule="nonzero" opacity="0.1"></path>
                <g id="Group" opacity="0.1" transform="translate(62.000000, 33.000000)" fill-rule="nonzero" fill="#000000">
                    <path d="M0.206318182,0.43519223 C0.162895441,0.413092445 0.120817547,0.388284617 0.0803181818,0.360906516 C0.0803181818,0.360906516 0.0803181818,0.374835087 0.0668181818,0.395727944 L0.206318182,0.43519223 Z" id="Shape"></path>
                    <path d="M8.57659091,16.6016997 C8.57659091,16.6016997 7.89477273,13.8087252 8.11295455,13.1222663 C8.11295455,13.1222663 7.72159091,10.2276487 7.95409091,9.36589235 C8.18659091,8.50413598 7.79386364,2.14776204 7.79386364,2.14776204 L7.665,0.95529745 L7.59272727,0.282832861 L7.56272727,0.00147308782 L7.41272727,0.0508215297 L7.32,0.0802832861 L7.33159091,0.189291785 L7.40386364,0.86101983 L7.53272727,2.05348442 C7.53272727,2.05348442 7.92409091,8.41206799 7.69295455,9.27161473 C7.46181818,10.1311615 7.85181818,13.0279887 7.85181818,13.0279887 C7.63431818,13.7151841 8.31545455,16.5074221 8.31545455,16.5074221 C8.31545455,16.5074221 8.79272727,20.2358074 8.66386364,21.2846459 C8.535,22.3334844 8.35909091,25.261983 8.35909091,25.261983 C7.91454545,25.9830595 7.07522727,25.8932011 6.65454545,25.7922946 L6.66204545,25.8099717 C6.66204545,25.8099717 8.01068182,26.3432295 8.61954545,25.3562606 C8.61954545,25.3562606 8.79340909,22.4270255 8.92431818,21.3789235 C9.05522727,20.3308215 8.57659091,16.6016997 8.57659091,16.6016997 Z" id="Shape"></path>
                    <path d="M5.14090909,21.3163173 C5.37272727,20.6114448 4.92340909,18.3399433 4.92340909,18.3399433 C4.92340909,18.3399433 4.12636364,15.9093484 4.25659091,14.1114448 C4.31113636,13.3609065 4.30772727,12.3312181 4.28454545,11.3862323 C4.09977273,10.1672521 3.9225,8.80832861 3.9225,8.80832861 C3.9225,8.80832861 4.12704545,12.2222096 3.99613636,14.0230595 C3.86522727,15.8239093 4.66227273,18.2522946 4.66227273,18.2522946 C4.66227273,18.2522946 5.11227273,20.5230595 4.87977273,21.227932 C4.64727273,21.9328045 5.45863636,24.842153 5.45863636,24.842153 C5.40068182,25.5197734 3.91090909,25.4313881 3.31977273,25.3724646 L3.34227273,25.4372805 C3.34227273,25.4372805 5.6475,25.781983 5.71977273,24.9364306 C5.72113636,24.934221 4.90909091,22.0211898 5.14090909,21.3163173 Z" id="Shape"></path>
                </g>
                <path d="M73,36.2289282 C72.4446043,36.8828381 70.0233693,37 70.0233693,37 L67.6275446,33.192238 C67.6275446,33.192238 67.0605328,32.7953521 65.9947538,31.0079007 C64.9289748,29.2204494 64.9652752,27.843797 65.0240818,26.8157012 C65.0828884,25.7876055 65.7500893,22.8329287 65.7500893,22.8329287 C65.8539083,22.1680348 67.3473057,18 67.3473057,18 C67.5033973,18.3156049 67.7952523,18.5792192 68.1372019,18.796701 C69.0592314,19.3825105 70.3464426,19.6226924 70.3464426,19.6226924 C72.419194,19.9265811 72.0365881,22.0867538 72.0365881,22.0867538 C72.0365881,22.0867538 72.0598203,30.4836012 71.932043,31.4882645 C71.8042657,32.4929279 73,36.2289282 73,36.2289282 Z" id="Shape" fill="#4C4C78" fill-rule="nonzero"></path>
                <path d="M67.6655784,19.8772323 L67.1632463,20.0546557 L67.4976679,20.2772656 L65,26 C65.058069,25.0696902 65.6996269,22.3857463 65.6996269,22.3857463 C65.7996735,21.782374 67.238806,18 67.238806,18 C67.3892257,18.2864025 67.6704757,18.5256251 68,18.7229836 L67.6655784,19.8772323 Z" id="Shape" fill="#000000" fill-rule="nonzero" opacity="0.1"></path>
                <polygon id="Shape" fill="#000000" fill-rule="nonzero" opacity="0.1" points="69 31.7864605 71.6521423 31 72 32.2394484 69.2897603 33"></polygon>
                <path d="M70.6240837,21.1529236 C70.6240837,21.1529236 69.3447129,22.2785737 69.8274652,24.7873095 C70.3102175,27.2960454 71.0821585,30.0196715 71.0821585,30.0196715 L69,35.4135617 C69,35.4135617 70.4513416,36.8283762 71.1646737,37 L73.2429764,32.6870511 C73.2429764,32.6870511 74.2146504,31.1921936 73.9563085,28.8464282 C73.6979666,26.5006629 72.7633087,22.7047487 72.7633087,22.7047487 C72.7633087,22.7047487 72.7640799,20.3943176 70.6240837,21.1529236 Z" id="Shape" fill="#000000" fill-rule="nonzero" opacity="0.1"></path>
                <path d="M70.6259145,21.1529236 C70.6259145,21.1529236 69.346759,22.2785737 69.8275982,24.7873095 C70.3084373,27.2960454 71.0805541,30.0196715 71.0805541,30.0196715 L69,35.4135617 C69,35.4135617 70.4502232,36.8283762 71.1630057,37 L73.2435597,32.6870511 C73.2435597,32.6870511 74.214485,31.1921936 73.9563421,28.8464282 C73.6981993,26.5006629 72.7642617,22.7047487 72.7642617,22.7047487 C72.7642617,22.7047487 72.7642617,20.3943176 70.6259145,21.1529236 Z" id="Shape" fill="#4C4C78" fill-rule="nonzero"></path>
                <path d="M69.3425798,36.0091956 C69.3425798,36.0091956 71.1275564,38.1032682 70.9927292,38.660921 C70.857902,39.2185738 70.3347046,38.9203446 70.3347046,38.9203446 L69.6317375,38.1032682 L69,36.5747533 C69,36.5747533 69.0619018,35.9150558 69.3425798,36.0091956 Z" id="Shape" fill="#000000" fill-rule="nonzero" opacity="0.1"></path>
                <path d="M69.3426525,36.0091956 C69.3426525,36.0091956 71.123767,38.1032682 70.993152,38.660921 C70.8625369,39.2185738 70.3349877,38.9203446 70.3349877,38.9203446 L69.6310234,38.1032682 L69,36.5747533 C69,36.5747533 69.0619149,35.9150558 69.3426525,36.0091956 Z" id="Shape" fill="#000000" fill-rule="nonzero" opacity="0.1"></path>
                <path d="M69.3427829,36.0091956 C69.3427829,36.0091956 71.1245755,38.1032682 70.9930622,38.660921 C70.861549,39.2185738 70.3346474,38.9203446 70.3346474,38.9203446 L69.6312636,38.1032682 L69,36.5747533 C69,36.5747533 69.06109,35.9150558 69.3427829,36.0091956 Z" id="Shape" fill="#474463" fill-rule="nonzero"></path>
            </g>
        </g>
    </g>
</svg>