<?xml version="1.0" encoding="UTF-8"?>
<svg width="768px" height="579px" viewBox="0 0 768 579" version="1.1" xmlns="http://www.w3.org/2000/svg" xmlns:xlink="http://www.w3.org/1999/xlink">
    <!-- Generator: Sketch 47.1 (45422) - http://www.bohemiancoding.com/sketch -->
    <title>browser</title>
    <desc>Created with Sketch.</desc>
    <defs>
        <linearGradient x1="50%" y1="100%" x2="50%" y2="0%" id="linearGradient-1">
            <stop stop-color="#DE8E8E" offset="0%"></stop>
            <stop stop-color="#FFFFFF" offset="100%"></stop>
        </linearGradient>
    </defs>
    <g id="Page-1" stroke="none" stroke-width="1" fill="none" fill-rule="evenodd">
        <g id="Desktop" transform="translate(-672.000000, -52.000000)">
            <g id="browser" transform="translate(672.000000, 52.000000)">
                <rect id="background" fill="#D45757" x="0" y="55" width="1283" height="524"></rect>
                <g id="Browser">
                    <path d="M6.99982428,0 C3.13392808,0 0,3.13457535 0,6.99369875 L0,55 L1283,55 L1283,6.99369875 C1283,3.13118559 1279.86693,0 1276.00018,0 L6.99982428,0 Z" id="background" fill="#D3D3D3"></path>
                    <circle id="object" fill="#E96E4C" cx="25.5" cy="27.5" r="7.5"></circle>
                    <path d="M48.5,35 C52.6421356,35 56,31.6421356 56,27.5 C56,23.3578644 52.6421356,20 48.5,20 C44.3578644,20 41,23.3578644 41,27.5 C41,31.6421356 44.3578644,35 48.5,35 Z" id="object" fill="#E6A935"></path>
                    <circle id="object" fill="#85C33D" cx="71.5" cy="27.5" r="7.5"></circle>
                    <rect id="search" fill="#FFFFFF" opacity="0.85" x="97" y="14" width="1172" height="27"></rect>
                </g>
                <g id="website-elements" transform="translate(68.000000, 106.000000)">
                    <rect id="logo" fill="#B22E2E" x="0" y="0" width="124" height="35" rx="3"></rect>
                    <rect id="headline" fill="#FFFFFF" opacity="0.598505435" x="243" y="76" width="459" height="35" rx="3"></rect>
                    <g id="column" transform="translate(0.000000, 197.000000)">
                        <rect id="Rectangle-Copy-3" fill="url(#linearGradient-1)" opacity="0.197916667" x="0" y="0" width="218" height="275" rx="3"></rect>
                        <path d="M39.3333333,32 L179.704762,32 L179.704762,32 C181.361616,32 182.704762,33.3431458 182.704762,35 L182.704762,39 L182.704762,39 C182.704762,40.6568542 181.361616,42 179.704762,42 L116.266667,42 L39.3333333,42 L39.3333333,42 C37.6764791,42 36.3333333,40.6568542 36.3333333,39 L36.3333333,35 L36.3333333,35 C36.3333333,33.3431458 37.6764791,32 39.3333333,32 Z" id="Rectangle-Copy-6" fill="#B22E2E" opacity="0.397475091"></path>
                        <g id="Group-2" opacity="0.75073596" transform="translate(31.142857, 72.000000)" fill="#B22E2E">
                            <path d="M17.5714286,0 L138.142857,0 L138.142857,0 C139.247427,-2.02906125e-16 140.142857,0.8954305 140.142857,2 L140.142857,2 L140.142857,2 C140.142857,3.1045695 139.247427,4 138.142857,4 L83.5997974,4 L17.5714286,4 L17.5714286,4 C16.4668591,4 15.5714286,3.1045695 15.5714286,2 L15.5714286,2 L15.5714286,2 C15.5714286,0.8954305 16.4668591,2.02906125e-16 17.5714286,0 Z" id="Rectangle-Copy-7" opacity="0.4"></path>
                            <path d="M17.5714286,40 L138.142857,40 L138.142857,40 C139.247427,40 140.142857,40.8954305 140.142857,42 L140.142857,42 L140.142857,42 C140.142857,43.1045695 139.247427,44 138.142857,44 L83.5997974,44 L17.5714286,44 L17.5714286,44 C16.4668591,44 15.5714286,43.1045695 15.5714286,42 L15.5714286,42 L15.5714286,42 C15.5714286,40.8954305 16.4668591,40 17.5714286,40 Z" id="Rectangle-Copy-9" opacity="0.4"></path>
                            <path d="M2,20 L153.714286,20 L153.714286,20 C154.818855,20 155.714286,20.8954305 155.714286,22 L155.714286,22 L155.714286,22 C155.714286,23.1045695 154.818855,24 153.714286,24 L85.035461,24 L2,24 L2,24 C0.8954305,24 1.3527075e-16,23.1045695 0,22 L0,22 L0,22 C-1.3527075e-16,20.8954305 0.8954305,20 2,20 Z" id="Rectangle-Copy-8" opacity="0.4"></path>
                        </g>
                    </g>
                    <g id="column-copy" transform="translate(243.000000, 197.000000)">
                        <rect id="Rectangle-Copy-3" fill="url(#linearGradient-1)" opacity="0.197916667" x="0" y="0" width="218" height="275" rx="3"></rect>
                        <path d="M39.3333333,32 L179.704762,32 L179.704762,32 C181.361616,32 182.704762,33.3431458 182.704762,35 L182.704762,39 L182.704762,39 C182.704762,40.6568542 181.361616,42 179.704762,42 L116.266667,42 L39.3333333,42 L39.3333333,42 C37.6764791,42 36.3333333,40.6568542 36.3333333,39 L36.3333333,35 L36.3333333,35 C36.3333333,33.3431458 37.6764791,32 39.3333333,32 Z" id="Rectangle-Copy-6" fill="#B22E2E" opacity="0.397475091"></path>
                        <g id="Group-2" opacity="0.75073596" transform="translate(31.142857, 72.000000)" fill="#B22E2E">
                            <path d="M17.5714286,0 L138.142857,0 L138.142857,0 C139.247427,-2.02906125e-16 140.142857,0.8954305 140.142857,2 L140.142857,2 L140.142857,2 C140.142857,3.1045695 139.247427,4 138.142857,4 L83.5997974,4 L17.5714286,4 L17.5714286,4 C16.4668591,4 15.5714286,3.1045695 15.5714286,2 L15.5714286,2 L15.5714286,2 C15.5714286,0.8954305 16.4668591,2.02906125e-16 17.5714286,0 Z" id="Rectangle-Copy-7" opacity="0.4"></path>
                            <path d="M17.5714286,40 L138.142857,40 L138.142857,40 C139.247427,40 140.142857,40.8954305 140.142857,42 L140.142857,42 L140.142857,42 C140.142857,43.1045695 139.247427,44 138.142857,44 L83.5997974,44 L17.5714286,44 L17.5714286,44 C16.4668591,44 15.5714286,43.1045695 15.5714286,42 L15.5714286,42 L15.5714286,42 C15.5714286,40.8954305 16.4668591,40 17.5714286,40 Z" id="Rectangle-Copy-9" opacity="0.4"></path>
                            <path d="M2,20 L153.714286,20 L153.714286,20 C154.818855,20 155.714286,20.8954305 155.714286,22 L155.714286,22 L155.714286,22 C155.714286,23.1045695 154.818855,24 153.714286,24 L85.035461,24 L2,24 L2,24 C0.8954305,24 1.3527075e-16,23.1045695 0,22 L0,22 L0,22 C-1.3527075e-16,20.8954305 0.8954305,20 2,20 Z" id="Rectangle-Copy-8" opacity="0.4"></path>
                        </g>
                    </g>
                    <g id="column-copy-2" transform="translate(486.000000, 197.000000)">
                        <rect id="Rectangle-Copy-3" fill="url(#linearGradient-1)" opacity="0.197916667" x="0" y="0" width="218" height="275" rx="3"></rect>
                        <path d="M39.3333333,32 L179.704762,32 L179.704762,32 C181.361616,32 182.704762,33.3431458 182.704762,35 L182.704762,39 L182.704762,39 C182.704762,40.6568542 181.361616,42 179.704762,42 L116.266667,42 L39.3333333,42 L39.3333333,42 C37.6764791,42 36.3333333,40.6568542 36.3333333,39 L36.3333333,35 L36.3333333,35 C36.3333333,33.3431458 37.6764791,32 39.3333333,32 Z" id="Rectangle-Copy-6" fill="#B22E2E" opacity="0.397475091"></path>
                        <g id="Group-2" opacity="0.75073596" transform="translate(31.142857, 72.000000)" fill="#B22E2E">
                            <path d="M17.5714286,0 L138.142857,0 L138.142857,0 C139.247427,-2.02906125e-16 140.142857,0.8954305 140.142857,2 L140.142857,2 L140.142857,2 C140.142857,3.1045695 139.247427,4 138.142857,4 L83.5997974,4 L17.5714286,4 L17.5714286,4 C16.4668591,4 15.5714286,3.1045695 15.5714286,2 L15.5714286,2 L15.5714286,2 C15.5714286,0.8954305 16.4668591,2.02906125e-16 17.5714286,0 Z" id="Rectangle-Copy-7" opacity="0.4"></path>
                            <path d="M17.5714286,40 L138.142857,40 L138.142857,40 C139.247427,40 140.142857,40.8954305 140.142857,42 L140.142857,42 L140.142857,42 C140.142857,43.1045695 139.247427,44 138.142857,44 L83.5997974,44 L17.5714286,44 L17.5714286,44 C16.4668591,44 15.5714286,43.1045695 15.5714286,42 L15.5714286,42 L15.5714286,42 C15.5714286,40.8954305 16.4668591,40 17.5714286,40 Z" id="Rectangle-Copy-9" opacity="0.4"></path>
                            <path d="M2,20 L153.714286,20 L153.714286,20 C154.818855,20 155.714286,20.8954305 155.714286,22 L155.714286,22 L155.714286,22 C155.714286,23.1045695 154.818855,24 153.714286,24 L85.035461,24 L2,24 L2,24 C0.8954305,24 1.3527075e-16,23.1045695 0,22 L0,22 L0,22 C-1.3527075e-16,20.8954305 0.8954305,20 2,20 Z" id="Rectangle-Copy-8" opacity="0.4"></path>
                        </g>
                    </g>
                </g>
            </g>
        </g>
    </g>
</svg>