<?xml version="1.0" encoding="UTF-8"?>
<svg width="768px" height="579px" viewBox="0 0 768 579" version="1.1" xmlns="http://www.w3.org/2000/svg" xmlns:xlink="http://www.w3.org/1999/xlink">
    <!-- Generator: Sketch 47.1 (45422) - http://www.bohemiancoding.com/sketch -->
    <title>Mockup Browser</title>
    <desc>Created with Sketch.</desc>
    <defs>
        <linearGradient x1="50%" y1="100%" x2="50%" y2="0%" id="linearGradient-1">
            <stop stop-color="#DE8E8E" offset="0%"></stop>
            <stop stop-color="#FFFFFF" offset="100%"></stop>
        </linearGradient>
    </defs>
    <g id="Page-1" stroke="none" stroke-width="1" fill="none" fill-rule="evenodd">
        <g id="Desktop" transform="translate(-672.000000, -52.000000)">
            <g id="Mockup-Browser" transform="translate(672.000000, 52.000000)">
                <rect id="background" fill="#D45757" x="0" y="55" width="1283" height="524"></rect>
                <g id="Browser">
                    <path d="M6.99982428,0 C3.13392808,0 0,3.13457535 0,6.99369875 L0,55 L1283,55 L1283,6.99369875 C1283,3.13118559 1279.86693,0 1276.00018,0 L6.99982428,0 Z" id="background" fill="#D3D3D3"></path>
                    <circle id="object" fill="#E96E4C" cx="25.5" cy="27.5" r="7.5"></circle>
                    <path d="M48.5,35 C52.6421356,35 56,31.6421356 56,27.5 C56,23.3578644 52.6421356,20 48.5,20 C44.3578644,20 41,23.3578644 41,27.5 C41,31.6421356 44.3578644,35 48.5,35 Z" id="object" fill="#E6A935"></path>
                    <circle id="object" fill="#85C33D" cx="71.5" cy="27.5" r="7.5"></circle>
                    <rect id="search" fill="#FFFFFF" opacity="0.85" x="97" y="14" width="1172" height="27"></rect>
                </g>
                <g id="website-elements" transform="translate(68.000000, 106.000000)">
                    <rect id="logo" fill="#B22E2E" x="0" y="0" width="124" height="35" rx="3"></rect>
                    <rect id="headline" fill="#FFFFFF" opacity="0.598505435" x="254" y="76" width="390" height="35" rx="3"></rect>
                    <g id="column" transform="translate(0.000000, 197.000000)">
                        <rect id="Rectangle-Copy-3" fill="url(#linearGradient-1)" opacity="0.197916667" x="0" y="0" width="210" height="275" rx="3"></rect>
                        <path d="M38,32 L173,32 L173,32 C174.656854,32 176,33.3431458 176,35 L176,39 L176,39 C176,40.6568542 174.656854,42 173,42 L112,42 L38,42 L38,42 C36.3431458,42 35,40.6568542 35,39 L35,35 L35,35 C35,33.3431458 36.3431458,32 38,32 Z" id="Rectangle-Copy-6" fill="#B22E2E" opacity="0.397475091"></path>
                        <g id="Group-2" opacity="0.75073596" transform="translate(30.000000, 72.000000)" fill="#B22E2E">
                            <path d="M17,0 L133,0 L133,0 C134.104569,-2.02906125e-16 135,0.8954305 135,2 L135,2 L135,2 C135,3.1045695 134.104569,4 133,4 L80.5319149,4 L17,4 L17,4 C15.8954305,4 15,3.1045695 15,2 L15,2 L15,2 C15,0.8954305 15.8954305,2.02906125e-16 17,0 Z" id="Rectangle-Copy-7" opacity="0.4"></path>
                            <path d="M17,40 L133,40 L133,40 C134.104569,40 135,40.8954305 135,42 L135,42 L135,42 C135,43.1045695 134.104569,44 133,44 L80.5319149,44 L17,44 L17,44 C15.8954305,44 15,43.1045695 15,42 L15,42 L15,42 C15,40.8954305 15.8954305,40 17,40 Z" id="Rectangle-Copy-9" opacity="0.4"></path>
                            <path d="M2,20 L148,20 L148,20 C149.104569,20 150,20.8954305 150,22 L150,22 L150,22 C150,23.1045695 149.104569,24 148,24 L81.9148936,24 L2,24 L2,24 C0.8954305,24 1.3527075e-16,23.1045695 0,22 L0,22 L0,22 C-1.3527075e-16,20.8954305 0.8954305,20 2,20 Z" id="Rectangle-Copy-8" opacity="0.4"></path>
                        </g>
                    </g>
                    <g id="column-copy" transform="translate(240.000000, 197.000000)">
                        <rect id="Rectangle-Copy-3" fill="url(#linearGradient-1)" opacity="0.197916667" x="0" y="0" width="210" height="275" rx="3"></rect>
                        <path d="M38,32 L173,32 L173,32 C174.656854,32 176,33.3431458 176,35 L176,39 L176,39 C176,40.6568542 174.656854,42 173,42 L112,42 L38,42 L38,42 C36.3431458,42 35,40.6568542 35,39 L35,35 L35,35 C35,33.3431458 36.3431458,32 38,32 Z" id="Rectangle-Copy-6" fill="#B22E2E" opacity="0.397475091"></path>
                        <g id="Group-2" opacity="0.75073596" transform="translate(30.000000, 72.000000)" fill="#B22E2E">
                            <path d="M17,0 L133,0 L133,0 C134.104569,-2.02906125e-16 135,0.8954305 135,2 L135,2 L135,2 C135,3.1045695 134.104569,4 133,4 L80.5319149,4 L17,4 L17,4 C15.8954305,4 15,3.1045695 15,2 L15,2 L15,2 C15,0.8954305 15.8954305,2.02906125e-16 17,0 Z" id="Rectangle-Copy-7" opacity="0.4"></path>
                            <path d="M17,40 L133,40 L133,40 C134.104569,40 135,40.8954305 135,42 L135,42 L135,42 C135,43.1045695 134.104569,44 133,44 L80.5319149,44 L17,44 L17,44 C15.8954305,44 15,43.1045695 15,42 L15,42 L15,42 C15,40.8954305 15.8954305,40 17,40 Z" id="Rectangle-Copy-9" opacity="0.4"></path>
                            <path d="M2,20 L148,20 L148,20 C149.104569,20 150,20.8954305 150,22 L150,22 L150,22 C150,23.1045695 149.104569,24 148,24 L81.9148936,24 L2,24 L2,24 C0.8954305,24 1.3527075e-16,23.1045695 0,22 L0,22 L0,22 C-1.3527075e-16,20.8954305 0.8954305,20 2,20 Z" id="Rectangle-Copy-8" opacity="0.4"></path>
                        </g>
                    </g>
                    <g id="column-copy-2" transform="translate(480.000000, 197.000000)">
                        <rect id="Rectangle-Copy-3" fill="url(#linearGradient-1)" opacity="0.197916667" x="0" y="0" width="210" height="275" rx="3"></rect>
                        <path d="M38,32 L173,32 L173,32 C174.656854,32 176,33.3431458 176,35 L176,39 L176,39 C176,40.6568542 174.656854,42 173,42 L112,42 L38,42 L38,42 C36.3431458,42 35,40.6568542 35,39 L35,35 L35,35 C35,33.3431458 36.3431458,32 38,32 Z" id="Rectangle-Copy-6" fill="#B22E2E" opacity="0.397475091"></path>
                        <g id="Group-2" opacity="0.75073596" transform="translate(30.000000, 72.000000)" fill="#B22E2E">
                            <path d="M17,0 L133,0 L133,0 C134.104569,-2.02906125e-16 135,0.8954305 135,2 L135,2 L135,2 C135,3.1045695 134.104569,4 133,4 L80.5319149,4 L17,4 L17,4 C15.8954305,4 15,3.1045695 15,2 L15,2 L15,2 C15,0.8954305 15.8954305,2.02906125e-16 17,0 Z" id="Rectangle-Copy-7" opacity="0.4"></path>
                            <path d="M17,40 L133,40 L133,40 C134.104569,40 135,40.8954305 135,42 L135,42 L135,42 C135,43.1045695 134.104569,44 133,44 L80.5319149,44 L17,44 L17,44 C15.8954305,44 15,43.1045695 15,42 L15,42 L15,42 C15,40.8954305 15.8954305,40 17,40 Z" id="Rectangle-Copy-9" opacity="0.4"></path>
                            <path d="M2,20 L148,20 L148,20 C149.104569,20 150,20.8954305 150,22 L150,22 L150,22 C150,23.1045695 149.104569,24 148,24 L81.9148936,24 L2,24 L2,24 C0.8954305,24 1.3527075e-16,23.1045695 0,22 L0,22 L0,22 C-1.3527075e-16,20.8954305 0.8954305,20 2,20 Z" id="Rectangle-Copy-8" opacity="0.4"></path>
                        </g>
                    </g>
                </g>
            </g>
        </g>
    </g>
</svg>