<svg width="15" height="15" xmlns="http://www.w3.org/2000/svg"><g fill="none" fill-rule="evenodd"><path d="M14.7 7.67c0-.531-.048-1.043-.136-1.534H7.5v2.901h4.036a3.45 3.45 0 0 1-1.496 2.264v1.882h2.424C13.882 11.877 14.7 9.955 14.7 7.67z" fill="#4285F4"/><path d="M7.5 15c2.025 0 3.723-.672 4.964-1.817l-2.424-1.882c-.672.45-1.53.716-2.54.716-1.953 0-3.607-1.32-4.197-3.092H.798v1.943A7.497 7.497 0 0 0 7.5 15z" fill="#34A853"/><path d="M3.303 8.925c-.15-.45-.235-.93-.235-1.425 0-.494.085-.975.235-1.425V4.132H.798A7.497 7.497 0 0 0 0 7.5c0 1.21.29 2.356.798 3.368l2.505-1.943z" fill="#FBBC05"/><path d="M7.5 2.983c1.101 0 2.09.378 2.867 1.122l2.151-2.152C11.22.743 9.522 0 7.5 0A7.497 7.497 0 0 0 .798 4.132l2.505 1.943c.59-1.773 2.244-3.092 4.197-3.092z" fill="#EA4335"/></g></svg>